<?xml version="1.0" standalone="no"?>
<!DOCTYPE svg PUBLIC "-//W3C//DTD SVG 20010904//EN"
 "http://www.w3.org/TR/2001/REC-SVG-20010904/DTD/svg10.dtd">
<svg version="1.0" xmlns="http://www.w3.org/2000/svg"
 width="884.000000pt" height="501.000000pt" viewBox="0 0 884.000000 501.000000"
 preserveAspectRatio="xMidYMid meet">

<g transform="translate(0.000000,501.000000) scale(0.100000,-0.100000)"
fill="#FFFFFF" stroke="none">
<path d="M2404 4781 c-242 -251 -414 -491 -573 -795 -31 -58 -44 -73 -89 -99
-43 -24 -67 -30 -123 -32 -39 -2 -72 -5 -73 -7 -23 -35 -44 -70 -60 -101 -32
-65 -132 -114 -209 -104 -38 5 -44 3 -77 -33 -20 -21 -41 -58 -47 -83 -18 -65
-51 -98 -145 -142 -92 -44 -103 -54 -149 -140 -42 -79 -63 -101 -129 -135 -64
-34 -100 -81 -124 -161 -10 -35 -33 -78 -63 -116 -27 -33 -78 -104 -115 -159
-37 -54 -93 -130 -124 -169 -30 -38 -80 -104 -109 -145 -29 -41 -67 -85 -84
-98 -39 -29 -87 -112 -101 -175 -9 -45 -8 -52 29 -128 36 -75 42 -83 109 -124
160 -99 215 -117 418 -135 59 -5 111 -13 116 -18 5 -5 -9 -24 -33 -43 -67 -55
-266 -261 -285 -295 -24 -44 -13 -80 28 -93 62 -19 225 -32 275 -21 93 21 255
121 383 237 50 46 156 113 177 113 37 0 180 66 217 100 56 51 79 61 256 109
85 23 205 60 265 82 150 56 196 59 315 21 151 -49 204 -59 385 -77 227 -23
291 -23 337 -2 33 15 37 20 28 41 -6 17 -5 29 5 42 8 11 15 28 15 38 0 11 20
53 44 95 24 42 58 110 76 151 17 41 40 93 50 115 10 22 23 56 30 77 18 58 81
122 147 148 32 13 69 31 83 41 14 9 52 30 85 46 33 16 109 58 168 93 l109 64
90 -2 c140 -3 496 -103 638 -180 55 -29 86 -40 118 -40 47 1 49 3 25 38 -10
13 -17 34 -18 45 0 14 -16 28 -55 47 -66 33 -59 37 11 7 27 -12 52 -19 55 -16
4 3 0 25 -8 49 -14 41 -17 43 -117 84 -56 23 -104 44 -108 48 -7 7 75 -21 155
-53 61 -24 76 -26 65 -9 -4 7 -6 25 -4 40 2 20 -4 30 -26 42 l-28 15 34 -6
c31 -6 34 -4 27 13 -4 10 -10 33 -13 49 -4 17 -11 33 -17 37 -6 5 -2 8 10 8
12 0 27 7 34 16 27 32 56 36 249 40 108 1 225 6 261 9 74 7 242 -9 311 -29 26
-8 65 -24 87 -35 46 -24 137 -127 160 -181 8 -19 35 -80 62 -135 26 -55 59
-138 75 -185 15 -47 32 -91 38 -97 24 -32 106 -7 183 55 112 90 262 197 293
208 78 28 149 10 225 -56 44 -39 76 -108 76 -164 0 -24 14 -86 31 -137 23 -69
35 -132 45 -239 33 -337 50 -417 130 -587 19 -40 56 -105 83 -145 26 -40 70
-107 97 -148 90 -137 161 -199 227 -197 20 0 37 5 37 9 0 5 17 27 38 51 54 59
78 97 86 132 4 17 40 67 80 112 42 47 76 96 79 112 9 45 52 128 96 185 22 28
49 77 61 110 31 82 79 130 175 178 44 21 91 50 105 63 34 32 162 103 225 125
86 29 111 47 145 100 17 27 69 80 113 117 81 66 187 171 187 186 0 4 -8 7 -19
7 -10 0 -37 -24 -62 -55 -24 -31 -72 -79 -107 -108 -35 -28 -80 -72 -100 -96
-20 -25 -45 -54 -57 -66 -22 -24 -235 -128 -235 -115 0 10 -381 287 -616 447
-180 123 -228 167 -222 203 3 18 13 16 128 -31 300 -120 581 -274 841 -462
l77 -55 47 55 c40 46 46 57 34 68 -23 23 -185 122 -313 192 -204 111 -295 149
-544 224 -90 27 -175 57 -190 67 -15 10 -35 22 -44 25 -10 4 -18 13 -18 22 0
18 -4 18 253 -16 82 -11 190 -31 240 -44 128 -33 397 -147 599 -255 94 -49
173 -90 177 -90 4 0 24 21 46 47 l39 46 -24 16 c-12 9 -66 34 -119 57 -125 53
-222 97 -294 135 -129 67 -311 123 -497 152 -18 3 -16 5 10 6 37 1 181 -22
238 -38 18 -6 30 -6 27 -1 -3 5 -22 12 -43 16 -20 4 -46 11 -57 17 -35 19
-236 36 -395 32 -96 -2 -160 1 -168 7 -9 8 -18 6 -30 -6 -26 -23 -35 -20 -30
9 3 13 1 22 -3 19 -15 -9 -79 -11 -79 -2 0 4 5 8 11 8 5 0 7 5 3 11 -3 6 -15
9 -25 6 -11 -3 -19 0 -19 6 0 7 -8 3 -16 -8 -15 -19 -15 -19 -8 9 6 25 4 28
-13 22 -27 -9 -73 10 -73 29 0 8 -4 15 -9 15 -5 0 -12 12 -15 26 -6 21 -10 23
-21 14 -11 -9 -12 -7 -8 9 5 19 1 21 -33 21 -40 0 -64 20 -132 109 -28 37 -35
38 -51 9 -11 -23 -11 -23 -5 2 14 52 12 55 -46 60 -77 8 -163 73 -210 161
l-33 62 -19 -24 c-17 -22 -18 -22 -9 -2 14 29 14 31 -6 36 -15 4 -15 5 2 6 14
1 7 7 -22 22 -23 11 -59 39 -79 61 -20 22 -48 44 -62 49 l-27 9 28 -4 c32 -4
33 5 7 61 -14 32 -26 44 -52 52 l-33 9 34 1 33 1 -7 48 c-4 26 -12 50 -17 53
-6 4 -5 8 3 11 11 4 12 11 4 34 -10 27 -15 29 -76 35 -36 4 -83 12 -105 19
-69 21 -350 49 -386 38 -31 -8 -267 -10 -308 -1 -21 4 -57 29 -101 70 -62 58
-68 62 -74 43 -4 -12 -9 -20 -11 -17 -3 2 0 17 6 32 l10 27 -42 -7 c-24 -4
-58 -13 -77 -21 -44 -18 -75 -18 -68 0 4 10 -8 15 -44 19 -59 7 -130 47 -167
93 -15 19 -29 34 -32 34 -4 0 -12 -17 -20 -37 -24 -69 -41 -105 -46 -101 -8 9
58 168 67 162 5 -3 9 2 9 10 0 21 -7 20 -81 -9 -50 -20 -56 -25 -29 -21 31 4
28 1 -25 -24 -33 -15 -62 -26 -64 -24 -2 2 -11 -1 -20 -6 -10 -5 -23 -5 -31 0
-19 12 -15 14 50 32 l55 15 -120 -1 c-128 -1 -158 7 -241 70 l-32 23 -12 -80
c-7 -44 -14 -78 -17 -76 -7 8 21 176 29 171 4 -3 8 1 8 10 0 11 -15 9 -77 -14
-43 -15 -95 -35 -117 -45 -25 -11 -69 -17 -125 -18 -92 -1 -120 8 -179 58
l-30 25 -4 -73 c-3 -39 -1 -79 3 -88 14 -28 -11 -37 -76 -28 -33 4 -75 8 -94
8 l-34 1 19 -22 19 -22 -27 17 c-16 9 -39 24 -53 33 -22 15 -26 14 -46 -5 -13
-12 -38 -31 -56 -44 -18 -12 -33 -29 -34 -37 0 -8 -2 -24 -4 -35 -2 -10 1 -25
7 -32 6 -7 7 -13 3 -13 -4 0 -2 -7 5 -15 8 -9 30 -15 56 -15 39 0 44 3 45 23
1 16 2 18 6 5 3 -11 14 -18 28 -18 13 0 27 -4 30 -10 3 -5 1 -10 -4 -10 -6 0
-21 -10 -32 -21 -13 -13 -24 -17 -28 -11 -3 6 -31 12 -61 13 -30 2 -60 7 -67
12 -7 5 -18 7 -25 4 -7 -2 10 -19 40 -37 28 -18 52 -35 52 -37 0 -2 -38 17
-86 43 -47 25 -87 44 -90 41 -3 -2 0 -35 6 -72 6 -37 9 -70 6 -72 -2 -3 -7 17
-11 44 -11 87 -14 89 -62 48 -33 -28 -44 -46 -52 -85 -12 -58 -7 -78 22 -82
19 -3 19 -4 -5 -17 -23 -12 -31 -11 -66 4 -49 22 -55 40 -31 85 11 19 19 31
19 27 0 -19 89 66 95 90 4 19 9 23 14 14 7 -10 13 -9 27 6 11 11 27 23 36 26
10 4 15 12 12 20 -5 14 109 111 209 178 21 15 38 30 37 35 -2 6 215 124 230
124 2 0 -13 -12 -35 -27 -69 -47 -104 -100 -75 -118 5 -3 32 -9 59 -12 l49 -6
6 79 c4 44 11 87 17 97 12 22 8 22 -49 -7 -26 -13 -67 -29 -90 -36 -62 -16
-173 -71 -166 -81 6 -10 -31 3 -79 27 -94 49 -115 93 -71 155 25 37 25 38 8
66 -26 41 -48 60 -63 55 -8 -3 -11 0 -8 5 4 6 -4 8 -18 5 -24 -4 -175 -124
-280 -221 -27 -26 -61 -56 -74 -66 l-25 -20 23 32 c12 18 82 86 154 150 73 65
133 121 135 125 2 4 10 4 18 1 27 -10 14 12 -13 23 -94 38 -89 38 -125 6 -18
-16 -75 -66 -126 -112 -51 -45 -145 -137 -209 -204 -75 -79 -109 -109 -97 -86
21 40 337 361 400 406 37 26 40 32 29 48 -8 10 -31 19 -57 22 -44 4 -46 3
-140 -84 -90 -81 -169 -164 -331 -341 -37 -40 -67 -76 -67 -80 0 -4 17 -13 38
-20 20 -8 48 -25 62 -38 23 -23 24 -23 31 -5 8 22 81 83 168 140 35 23 64 42
65 42 5 0 -1 -250 -6 -256 -5 -4 -8 1 -8 10 0 12 -5 16 -16 12 -9 -3 -34 -6
-55 -6 -24 0 -38 -4 -34 -10 9 -14 4 -13 -50 11 -25 11 -49 19 -51 16 -3 -3 2
-32 10 -65 18 -67 21 -106 7 -98 -4 3 -11 33 -15 66 -4 33 -11 60 -15 60 -18
0 -30 -28 -35 -77 -4 -41 -1 -55 14 -68 10 -9 24 -14 29 -10 6 3 11 1 11 -4 0
-6 6 -11 14 -11 12 0 26 -49 26 -90 -1 -12 -4 -11 -15 4 -11 14 -33 21 -92 26
-43 4 -86 11 -95 15 -13 5 -18 2 -18 -11 0 -14 -2 -16 -9 -6 -6 10 -18 1 -44
-35 -33 -45 -36 -54 -34 -111 l2 -62 -31 0 c-27 0 -34 5 -43 30 -7 22 -16 30
-34 30 -13 0 -57 9 -98 20 -41 11 -81 20 -89 20 -20 0 -80 -126 -80 -168 0
-20 -4 -31 -10 -27 -5 3 -10 -2 -11 -12 0 -16 -2 -15 -16 5 -9 12 -26 22 -39
22 -13 0 -24 3 -24 8 0 4 -32 7 -70 7 -39 0 -70 -2 -70 -3 0 -2 8 -16 19 -30
10 -15 24 -38 30 -52 11 -22 9 -22 -13 5 -14 16 -31 42 -37 58 -7 17 -17 26
-25 23 -9 -3 -14 2 -14 15 0 11 -5 29 -10 39 -7 13 -7 21 2 26 7 5 8 3 3 -6
-5 -9 -4 -11 4 -6 6 4 9 12 5 17 -3 5 15 39 41 74 47 67 51 88 6 35 -27 -32
-67 -46 -85 -31 -7 6 -12 1 -13 -16 -2 -37 -15 -45 -72 -45 -28 0 -51 -4 -51
-9 0 -11 39 -106 76 -184 26 -54 27 -89 2 -80 -7 3 -60 7 -118 8 -105 4 -105
4 -102 28 2 13 24 65 49 114 34 66 40 85 25 71 -12 -11 -22 -15 -22 -10 0 5
-5 1 -11 -9 -8 -14 -14 -16 -25 -6 -19 15 -45 4 -38 -16 7 -16 -24 -47 -38
-39 -15 10 -8 24 12 24 11 0 20 5 20 10 0 14 -13 13 -35 -3 -17 -13 -17 -16
-1 -47 20 -40 20 -44 1 -37 -8 4 -17 2 -20 -4 -4 -5 -22 -7 -43 -3 l-36 7 22
-28 c12 -15 22 -32 22 -37 0 -4 20 -36 45 -70 34 -47 42 -65 33 -75 -6 -7 -17
-12 -24 -11 -7 2 -20 -6 -28 -17 -14 -17 -17 -18 -26 -5 -7 11 -4 20 13 33 15
13 18 20 10 24 -7 2 -13 13 -13 24 0 21 -16 26 -22 7 -2 -6 -10 -8 -16 -4 -17
10 -5 26 21 26 16 0 18 3 9 12 -9 9 -16 7 -32 -7 -28 -26 -26 -53 6 -61 17 -5
22 -9 14 -14 -7 -5 -11 -17 -8 -28 4 -15 1 -18 -14 -14 -15 4 -17 7 -6 13 9 6
9 9 1 9 -27 0 -42 -30 -37 -73 3 -23 7 -48 10 -56 3 -10 -2 -12 -18 -7 -13 3
-27 6 -31 6 -4 0 -3 9 3 20 8 15 8 20 -1 20 -8 0 -8 4 1 15 11 13 7 20 -19 45
-17 17 -38 30 -46 30 -9 0 -13 5 -10 11 4 6 14 8 22 5 8 -3 11 -1 8 4 -3 6 1
13 10 16 10 4 14 13 10 22 -3 9 -3 13 1 9 7 -7 44 54 44 73 0 5 -7 10 -15 10
-9 0 -15 -6 -14 -12 3 -27 -2 -39 -27 -61 -28 -24 -80 -35 -68 -14 4 7 3 8 -2
4 -5 -5 -10 -13 -10 -18 -1 -5 -2 -13 -3 -19 0 -5 -8 -7 -16 -4 -22 9 -18 0
16 -37 68 -73 74 -111 18 -131 -30 -10 -39 -32 -16 -42 14 -6 -50 2 -74 10 -9
2 -19 -2 -23 -11 -4 -10 1 -15 14 -15 11 0 20 -4 20 -9 0 -10 -53 0 -119 23
-50 18 -54 17 -71 -24 -14 -34 -22 -37 -41 -13 -10 12 -10 15 -1 9 7 -4 19 0
28 8 12 13 13 17 2 20 -7 3 -26 9 -43 14 -50 15 -41 34 33 75 69 37 69 37 111
127 27 60 45 89 53 84 6 -4 8 -3 5 3 -4 6 31 26 81 48 82 35 89 41 126 97 21
33 45 77 53 98 9 22 20 37 24 34 5 -3 9 -1 9 4 0 5 19 12 43 16 23 4 64 10 90
15 52 9 66 -1 68 -51 1 -19 3 -18 8 7 4 17 4 37 -1 46 -5 12 6 34 42 79 27 34
52 70 55 80 6 20 34 31 82 34 37 1 43 -16 17 -49 -15 -19 -15 -19 -12 -1 2 14
-5 21 -24 27 -31 8 -33 6 -17 -22 5 -11 14 -17 19 -14 6 4 7 -1 3 -11 -4 -11
-2 -15 4 -11 6 4 14 0 17 -9 4 -11 10 -13 22 -6 16 9 26 42 25 85 0 14 10 17
57 18 l57 0 69 95 c38 52 74 93 79 91 12 -4 62 -135 72 -189 7 -35 7 -35 -37
-42 -43 -7 -43 -7 -18 -21 35 -20 24 -18 -39 5 -29 12 -55 19 -57 17 -4 -3 63
-187 70 -194 2 -2 24 11 50 28 35 24 46 37 43 50 -3 11 -1 22 4 25 5 3 9 13 9
23 0 10 7 24 16 32 9 7 43 47 77 88 53 66 55 71 20 40 -49 -44 -98 -58 -121
-36 -13 13 -13 20 -2 46 7 17 17 31 22 31 5 0 11 8 15 18 16 46 65 66 102 43
18 -11 80 57 87 96 13 71 339 477 377 470 7 -1 11 3 10 10 -3 14 152 161 181
173 17 7 18 9 4 9 -10 1 -18 7 -18 15 0 8 -9 13 -22 13 -13 -1 -33 2 -45 7
-19 6 -43 -14 -169 -136 -169 -164 -288 -308 -406 -489 -46 -71 -86 -128 -91
-128 -27 -2 129 246 250 397 93 116 358 382 380 382 12 0 14 3 6 11 -6 6 -39
13 -73 15 l-62 3 -135 -137 c-169 -171 -239 -257 -364 -447 -121 -184 -138
-207 -97 -130 99 189 281 425 477 619 l109 109 -21 18 c-20 17 -20 18 -4 19
21 0 18 24 -4 26 -8 1 -73 -60 -145 -135z m106 66 c0 -2 -10 -12 -22 -23 l-23
-19 19 23 c18 21 26 27 26 19z m-146 -152 c-32 -36 -60 -65 -63 -65 -5 0 21
31 78 93 57 61 47 42 -15 -28z m956 -349 c0 -2 -18 -15 -39 -30 -39 -27 -57
-62 -52 -101 2 -11 7 -22 13 -24 6 -2 4 -7 -3 -12 -10 -6 -6 -9 14 -10 15 -1
33 -2 40 -3 8 -1 14 24 18 79 l5 80 2 -77 c2 -88 0 -86 82 -59 55 19 81 12 59
-15 -14 -17 -129 -43 -229 -52 l-85 -8 30 -16 c47 -27 20 -21 -35 7 -27 14
-52 25 -55 25 -7 0 -6 -73 2 -138 7 -59 3 -57 87 -36 20 5 26 3 26 -11 0 -10
-5 -15 -14 -12 -8 3 -32 -13 -56 -36 -37 -37 -43 -40 -51 -24 -8 13 -23 17
-64 17 -32 0 -55 5 -57 12 -3 7 -9 8 -18 3 -9 -6 6 -18 51 -41 103 -53 50 -38
-81 23 l-54 26 -43 -49 c-28 -31 -44 -59 -45 -79 -1 -16 -2 -40 -3 -52 0 -12
-4 -25 -8 -29 -12 -12 -8 -24 8 -24 8 0 15 -7 15 -16 0 -12 -7 -15 -27 -11
-16 3 -32 -1 -41 -10 -8 -7 -17 -11 -21 -7 -3 4 0 9 7 11 11 4 10 8 -1 22 -8
9 -17 28 -21 42 -5 24 6 39 89 125 56 58 95 106 95 118 0 12 25 43 62 76 l61
56 -43 -4 c-39 -4 -42 -3 -29 12 8 9 20 22 27 29 7 7 24 23 37 36 23 23 24 24
50 7 28 -19 45 -14 45 13 0 10 31 37 83 70 45 30 98 64 117 77 32 22 50 29 50
20z m893 -53 c-60 -30 -65 -47 -25 -80 l27 -23 -50 6 c-111 14 -111 43 0 90
96 40 121 44 48 7z m-1223 -65 c10 -6 7 -7 -10 -2 -14 3 -32 11 -40 16 -10 6
-7 7 10 2 14 -3 32 -11 40 -16z m1115 -58 c17 -19 13 -18 -27 6 -26 16 -48 32
-48 37 0 12 53 -19 75 -43z m-125 12 c-38 -25 -111 -104 -107 -116 2 -6 -5
-20 -15 -31 -19 -20 -19 -20 4 -40 13 -11 35 -28 48 -38 l25 -19 -25 15 c-14
7 -46 26 -72 41 -31 18 -48 23 -48 15 0 -7 -3 -9 -6 -6 -4 3 -16 2 -28 -4 -17
-8 -16 -6 4 11 14 11 35 19 48 17 13 -3 22 1 22 9 0 8 -6 11 -15 8 -16 -6 -20
4 -7 21 9 14 88 75 96 75 3 0 25 14 48 30 22 17 44 30 47 29 3 0 -5 -7 -19
-17z m-420 -53 c0 -27 -4 -49 -10 -49 -5 0 -10 25 -10 56 0 34 4 53 10 49 6
-3 10 -28 10 -56z m1080 -37 c0 -6 -27 15 -62 47 -16 14 -28 29 -28 35 0 6 20
-10 45 -34 25 -24 45 -46 45 -48z m-205 25 c-52 -28 -60 -36 -63 -64 -4 -37
-2 -36 -36 -23 -46 17 -30 38 57 79 100 48 124 52 42 8z m606 -74 c19 -22 20
-24 3 -10 -17 14 -23 15 -27 5 -3 -7 -4 -3 -4 10 1 12 2 22 2 22 1 0 12 -12
26 -27z m-1136 -23 c-3 -5 -15 -10 -26 -10 -10 0 -19 5 -19 10 0 6 12 10 26
10 14 0 23 -4 19 -10z m430 -36 c28 -25 41 -40 30 -33 -32 22 -96 79 -87 79 4
0 30 -21 57 -46z m536 31 c-18 -8 -41 -15 -50 -14 -22 1 39 28 64 28 14 0 9
-4 -14 -14z m382 0 c-3 -9 -8 -14 -10 -11 -3 3 -2 9 2 15 9 16 15 13 8 -4z
m-1563 -5 c0 -5 -5 -10 -11 -10 -5 0 -7 5 -4 10 3 6 8 10 11 10 2 0 4 -4 4
-10z m344 -5 c-5 -12 -94 -7 -94 6 0 4 22 7 49 6 28 -1 47 -6 45 -12z m486 -5
c0 -11 -4 -20 -9 -20 -5 0 -7 9 -4 20 3 11 7 20 9 20 2 0 4 -9 4 -20z m-1690
-20 c8 -5 11 -10 5 -10 -5 0 -17 5 -25 10 -8 5 -10 10 -5 10 6 0 17 -5 25 -10z
m900 7 c0 -2 -20 -18 -45 -36 -33 -24 -46 -40 -51 -67 -8 -44 -38 -62 -64 -39
-27 25 -6 56 63 90 32 17 63 36 69 43 9 11 28 17 28 9z m470 -1 c0 -2 -7 -7
-16 -10 -8 -3 -12 -2 -9 4 6 10 25 14 25 6z m569 -10 c-2 -2 -15 -7 -29 -10
l-25 -7 25 15 c21 12 42 14 29 2z m-658 -56 c-26 -27 -53 -50 -59 -50 -18 0
-24 19 -9 34 10 10 101 62 114 66 1 0 -20 -22 -46 -50z m-1266 20 c0 -8 -8
-16 -17 -18 -12 -2 -16 3 -15 18 2 24 32 24 32 0z m1980 -20 c21 -22 37 -40
34 -40 -3 0 -23 18 -44 40 -21 22 -37 40 -34 40 3 0 23 -18 44 -40z m831 8
c-30 -5 -58 -5 -75 1 -21 7 -10 9 49 9 75 0 75 0 26 -10z m-1027 -12 c-2 -2
-15 -9 -29 -15 -24 -11 -24 -11 -6 3 16 13 49 24 35 12z m827 -63 c-14 -26
-25 -45 -26 -42 0 13 42 101 47 96 2 -3 -7 -27 -21 -54z m-2560 -141 c2 -13
10 -22 17 -19 7 2 23 8 37 12 22 7 23 6 11 -9 -12 -14 -10 -16 15 -16 16 0 83
12 149 26 127 28 134 29 235 38 412 37 438 38 755 33 316 -6 389 -11 615 -42
250 -35 474 -87 701 -163 118 -40 342 -132 336 -138 -2 -2 -54 17 -116 41
-213 86 -476 164 -696 206 -117 22 -141 23 -100 4 24 -11 26 -14 10 -14 -17
-1 -17 -3 -5 -11 12 -7 8 -11 -18 -16 -25 -5 -38 -15 -50 -40 -8 -19 -22 -34
-29 -34 -7 0 -13 -8 -12 -17 0 -11 3 -13 6 -5 2 6 11 12 19 12 8 0 11 -6 7
-16 -5 -13 -2 -15 15 -9 13 4 22 2 22 -4 0 -6 11 -11 25 -11 14 0 25 -5 25
-12 0 -9 3 -9 12 0 9 9 15 9 25 0 8 -6 35 -15 61 -19 26 -4 79 -15 117 -24 39
-9 97 -22 130 -29 181 -39 488 -139 710 -231 117 -48 423 -199 650 -319 177
-94 231 -114 218 -79 -4 11 -3 14 5 9 7 -4 12 -2 12 3 0 6 -3 11 -7 11 -5 0
-24 14 -43 31 l-35 30 40 -19 c79 -39 334 -243 445 -356 45 -46 52 -58 40 -66
-24 -16 -171 -70 -225 -84 -60 -16 -59 10 -4 -271 54 -279 82 -362 182 -540
72 -129 223 -372 247 -399 5 -4 23 21 40 57 l33 65 -85 133 c-131 206 -228
382 -228 411 0 10 3 9 9 -1 21 -34 36 -19 37 36 0 40 -3 52 -13 49 -8 -3 -13
2 -13 15 0 11 4 18 9 15 5 -4 7 2 4 13 -6 23 15 38 23 17 3 -9 11 -16 16 -16
7 0 6 5 -1 13 -6 8 -8 17 -5 20 4 4 -3 5 -14 2 -12 -2 -25 1 -28 7 -5 7 -2 8
6 3 10 -6 12 -4 6 10 -5 15 -4 16 8 6 8 -7 -7 44 -33 116 -90 241 -59 205 44
-51 24 -61 73 -167 107 -236 66 -131 248 -421 260 -414 9 6 42 106 40 125 0
10 -34 70 -74 135 -152 245 -248 424 -248 465 0 37 23 87 38 82 17 -6 15 0
-10 44 -56 98 27 -16 204 -285 107 -161 197 -289 201 -285 4 3 7 -1 7 -10 0
-9 -25 -55 -56 -103 -31 -48 -65 -112 -75 -142 -10 -30 -43 -87 -73 -126 -29
-39 -69 -100 -87 -136 -31 -60 -117 -179 -129 -179 -26 0 -304 449 -304 490 0
10 -3 16 -6 14 -4 -2 -18 20 -33 50 -20 41 -22 53 -11 51 8 -1 24 -18 36 -37
12 -19 23 -29 25 -21 3 6 9 9 15 6 5 -3 8 0 7 7 -1 8 1 26 6 42 6 22 10 25 21
16 20 -16 18 -6 -15 69 -30 68 -53 141 -92 290 -19 72 -28 90 -70 134 l-49 52
-1 -40 c-3 -57 -16 60 -18 147 l-1 67 66 11 c63 11 153 41 183 60 12 8 12 12
2 25 -20 23 -139 65 -237 82 -89 16 -89 16 -155 79 -53 51 -90 76 -185 121
-331 159 -493 226 -659 269 -114 30 -359 76 -464 87 -140 14 -556 4 -676 -17
-49 -9 -118 -20 -152 -24 -87 -12 -183 -35 -348 -80 -192 -54 -528 -214 -822
-393 -18 -11 -33 -17 -33 -15 0 10 197 126 365 216 94 50 166 91 161 91 -5 0
-3 7 4 15 18 21 35 19 19 -2 -13 -16 -12 -17 4 -4 9 7 17 20 17 29 0 8 3 12 6
9 9 -8 41 33 45 58 3 15 -5 25 -36 39 -22 11 -55 20 -74 22 -19 1 -38 8 -42
16 -5 7 -9 10 -9 7 0 -4 -18 -3 -40 1 -23 4 -40 3 -40 -2 0 -5 -5 -6 -11 -2
-18 11 -101 13 -120 4 -9 -5 -19 -6 -23 -3 -22 22 -211 21 -441 -2 -33 -4 -78
-8 -100 -10 -22 -1 -48 -6 -57 -10 -15 -6 -18 -2 -18 19 0 17 -5 26 -16 26
-13 0 -15 -7 -11 -30 l6 -29 -47 3 c-26 2 -60 -2 -77 -8 -17 -7 -44 -9 -62 -6
-17 4 -36 3 -41 -2 -10 -10 -49 -16 -110 -17 -18 -1 -31 -5 -28 -10 3 -5 -7
-11 -22 -13 -15 -3 -33 -7 -41 -9 -7 -2 -16 2 -18 9 -3 6 2 12 11 12 10 0 13
6 10 15 -4 10 -13 13 -25 10 -15 -5 -19 -1 -19 19 0 14 0 29 1 32 0 4 -4 10
-11 14 -8 5 -8 14 1 33 13 30 10 37 -18 41 -10 2 -18 8 -18 15 0 6 -7 16 -15
22 -11 8 -9 9 10 3 14 -3 33 -13 43 -22 9 -8 17 -11 17 -7 0 5 -8 17 -17 28
-10 11 -12 17 -5 13 22 -13 13 18 -14 47 l-26 28 26 -7 c25 -6 31 1 27 29 0 4
18 7 41 7 32 0 39 3 28 10 -17 11 -17 11 30 15 41 3 58 -4 39 -16 -11 -7 -11
-9 2 -9 9 0 19 3 22 7 11 10 -26 32 -56 33 -25 0 -27 2 -17 20 9 17 14 18 32
9 15 -8 18 -8 14 0 -11 18 4 34 19 21 8 -7 16 -7 19 -2 8 13 -35 24 -49 12 -6
-5 -20 -3 -35 5 -21 12 -22 14 -6 15 19 0 19 1 2 13 -14 10 -17 23 -14 45 3
25 2 29 -8 21 -7 -6 -10 -18 -7 -26 4 -10 2 -14 -4 -10 -7 5 -9 -1 -6 -14 4
-14 0 -25 -11 -31 -23 -13 -20 -27 9 -40 14 -6 25 -15 25 -20 0 -5 -5 -6 -10
-3 -6 3 -19 3 -31 0 -20 -7 -20 -8 -3 -26 16 -18 16 -19 1 -13 -9 3 -17 10
-17 16 0 5 -4 6 -10 3 -15 -9 -12 4 5 21 8 8 12 21 8 29 -3 9 0 21 6 29 6 7 8
16 4 19 -3 4 -1 7 7 7 10 0 10 3 0 15 -7 8 -10 21 -7 29 5 11 1 11 -24 -1 -26
-13 -27 -16 -14 -29 19 -20 19 -30 0 -14 -12 10 -15 10 -16 -1 0 -8 -4 -5 -9
6 -11 25 -12 41 -3 32 10 -10 33 13 33 34 0 10 5 21 11 25 8 4 9 -1 4 -17 -5
-16 -4 -21 3 -14 5 6 13 21 17 33 6 20 4 23 -12 19 -10 -3 -64 -20 -121 -37
-57 -18 -106 -30 -108 -27 -5 5 15 13 114 48 56 20 67 28 63 52 -2 11 9 8 24
-7 18 -18 63 -9 76 16 8 15 14 17 24 8 11 -9 12 -7 8 9 -4 15 -1 21 10 21 9 0
19 -4 22 -10 3 -5 1 -10 -4 -10 -6 0 -11 -4 -11 -9 0 -6 19 -4 43 3 101 31
154 45 190 51 40 6 45 12 23 29 -9 7 -16 42 -19 106 l-6 95 15 -75 c8 -41 17
-86 20 -98z m2362 104 c18 -25 30 -46 25 -46 -8 1 -73 85 -73 95 0 12 16 -4
48 -49z m919 48 c-3 -3 -12 -4 -19 -1 -8 3 -5 6 6 6 11 1 17 -2 13 -5z m-2847
-91 c0 -7 -4 -13 -10 -13 -5 0 -10 12 -10 28 0 21 2 24 10 12 5 -8 10 -21 10
-27z m-851 -53 c0 -9 -4 -8 -9 5 -5 11 -9 27 -9 35 0 9 4 8 9 -5 5 -11 9 -27
9 -35z m-444 30 c8 -13 -5 -13 -25 0 -13 8 -13 10 2 10 9 0 20 -4 23 -10z
m4192 -6 c-3 -3 -12 -4 -19 -1 -8 3 -5 6 6 6 11 1 17 -2 13 -5z m50 -10 c-3
-3 -12 -4 -19 -1 -8 3 -5 6 6 6 11 1 17 -2 13 -5z m-404 -11 c-7 -2 -19 -2
-25 0 -7 3 -2 5 12 5 14 0 19 -2 13 -5z m61 -25 l18 -33 -20 24 c-10 13 -24
21 -31 17 -7 -5 -9 -1 -5 8 9 24 18 20 38 -16z m-245 -39 c19 -27 31 -52 28
-56 -3 -3 -19 15 -34 40 -15 26 -31 47 -34 47 -3 0 -15 -18 -28 -40 -29 -52
-38 -52 -11 0 11 21 20 46 20 54 0 26 23 8 59 -45z m129 54 c-10 -2 -28 -2
-40 0 -13 2 -5 4 17 4 22 1 32 -1 23 -4z m349 -40 c7 -18 11 -33 8 -33 -3 0
-10 12 -16 27 l-10 28 -21 -25 -20 -25 16 27 c16 27 16 27 -17 31 -26 4 -25 4
7 3 35 -1 41 -5 53 -33z m-4155 -5 c-7 -7 -12 -8 -12 -2 0 14 12 26 19 19 2
-3 -1 -11 -7 -17z m856 10 c-2 -6 -19 -11 -36 -11 -48 2 -51 5 -12 13 52 11
52 11 48 -2z m-774 -41 c26 -62 27 -82 2 -37 -24 43 -32 70 -21 70 3 0 11 -15
19 -33z m3921 -35 c-3 -3 -11 0 -18 7 -9 10 -8 11 6 5 10 -3 15 -9 12 -12z
m-3470 -12 c-3 -5 -14 -10 -23 -9 -14 0 -13 2 3 9 27 11 27 11 20 0z m3516
-17 c13 -17 13 -17 -6 -3 -11 8 -22 16 -24 17 -2 2 0 3 6 3 6 0 17 -8 24 -17z
m-3641 -3 c0 -5 -4 -10 -10 -10 -5 0 -10 5 -10 10 0 6 5 10 10 10 6 0 10 -4
10 -10z m3670 -20 c0 -5 -5 -10 -11 -10 -5 0 -7 5 -4 10 3 6 8 10 11 10 2 0 4
-4 4 -10z m99 -36 c14 -12 -19 -1 -35 12 -18 14 -18 14 6 3 14 -6 27 -13 29
-15z m-61 -89 c34 -49 39 -61 27 -68 -21 -11 -32 -2 -40 33 -4 16 -14 34 -23
40 -11 6 -12 10 -4 10 10 0 10 3 0 14 -11 12 -15 10 -26 -10 -7 -14 -17 -22
-21 -19 -5 3 -11 -2 -15 -10 -3 -8 -10 -15 -17 -15 -6 0 3 25 20 55 31 55 31
55 9 56 -22 1 -22 1 2 8 19 5 27 2 36 -14 6 -11 29 -47 52 -80z m-3638 80 c0
-16 -34 -38 -44 -27 -4 3 -11 0 -16 -8 -6 -10 -10 -11 -10 -3 0 15 31 32 48
26 8 -3 10 1 6 11 -3 9 -1 16 5 16 6 0 11 -7 11 -15z m3866 -60 c8 -16 9 -22
2 -12 -37 54 -34 53 -51 21 -21 -38 -22 -22 -1 18 17 33 21 32 50 -27z m-4643
15 c-3 -11 -7 -20 -9 -20 -2 0 -4 9 -4 20 0 11 4 20 9 20 5 0 7 -9 4 -20z
m577 11 c0 -5 -14 -11 -31 -15 -19 -3 -28 -10 -23 -17 4 -8 0 -9 -14 -5 -12 4
-34 0 -53 -9 -40 -21 -109 -46 -109 -39 0 4 145 75 180 87 24 9 50 8 50 -2z
m120 -47 c0 -3 -7 -1 -15 6 -8 7 -15 17 -15 22 0 5 7 3 15 -6 8 -8 15 -18 15
-22z m3591 -97 c234 -119 326 -172 555 -319 57 -37 104 -70 104 -72 0 -3 -80
45 -177 106 -192 120 -336 200 -563 315 -80 40 -140 73 -134 73 7 0 103 -47
215 -103z m-4316 48 c-8 -21 -18 -36 -20 -33 -3 3 2 22 10 43 9 20 18 35 21
32 3 -3 -2 -22 -11 -42z m581 14 c19 -22 19 -22 -3 -10 -24 12 -39 31 -25 31
5 0 17 -10 28 -21z m134 11 c0 -5 -4 -10 -10 -10 -5 0 -10 5 -10 10 0 6 5 10
10 10 6 0 10 -4 10 -10z m96 1 c-3 -5 -15 -7 -26 -4 -28 7 -25 13 6 13 14 0
23 -4 20 -9z m101 -28 c-7 -6 -46 10 -41 18 3 5 14 3 24 -3 11 -7 18 -13 17
-15z m-202 -13 c-3 -5 -13 -10 -21 -10 -8 0 -12 5 -9 10 3 6 13 10 21 10 8 0
12 -4 9 -10z m-70 -18 c-3 -3 -11 0 -18 7 -9 10 -8 11 6 5 10 -3 15 -9 12 -12z
m-881 -171 c-7 -8 -26 88 -25 122 2 77 16 60 22 -28 3 -49 4 -92 3 -94z m1054
104 c-3 -3 -9 2 -12 12 -6 14 -5 15 5 6 7 -7 10 -15 7 -18z m4020 -54 c30 -61
33 -111 6 -111 -8 0 -14 4 -14 8 0 5 -24 17 -54 27 l-55 19 23 27 c12 14 28
40 35 58 8 17 17 31 21 31 5 0 22 -27 38 -59z m191 9 c26 -50 27 -65 2 -26
l-19 29 -21 -39 c-24 -46 -27 -41 -6 9 20 48 19 55 -7 60 -21 4 -20 4 3 6 22
1 31 -7 48 -39z m-4334 1 c3 -5 1 -12 -5 -16 -5 -3 -10 1 -10 9 0 18 6 21 15
7z m54 -24 c-1 -17 -2 -18 -6 -4 -2 9 -9 17 -14 17 -6 0 -7 -6 -3 -12 5 -10 3
-10 -7 0 -12 11 -12 14 1 22 19 12 30 3 29 -23z m55 -3 c7 -17 -5 -18 -28 -1
-16 12 -16 13 3 14 10 1 22 -5 25 -13z m-1330 -32 c15 -18 15 -20 -6 -38 -20
-18 -21 -18 -15 -1 4 10 2 27 -3 38 -13 24 2 25 24 1z m126 -37 c17 -9 30 -18
30 -21 0 -4 -59 23 -69 32 -10 9 13 3 39 -11z m1230 -22 c-1 -18 -18 -35 -24
-24 -4 6 -4 16 -1 21 7 12 25 13 25 3z m-1366 -52 c9 -14 -6 -22 -21 -10 -10
9 -13 8 -13 -5 0 -9 -7 -16 -15 -16 -8 0 -15 5 -15 11 0 5 4 8 9 5 5 -3 11 1
15 9 6 16 32 20 40 6z m5817 -1 c10 -6 19 -21 18 -33 l0 -22 -9 23 c-5 12 -20
27 -32 32 -13 5 -17 9 -10 9 7 1 22 -4 33 -9z m-5682 -26 c7 -6 -73 -2 -84 4
-18 11 40 19 60 9 11 -5 22 -11 24 -13z m5575 -21 c18 -54 21 -93 5 -93 -5 0
-7 -5 -4 -10 14 -22 -27 -21 -60 1 -36 25 -50 54 -33 66 7 4 8 1 4 -8 -4 -8 1
-3 13 11 11 14 26 37 32 53 16 38 25 34 43 -20z m-104 -29 c0 -2 -7 -4 -15 -4
-8 0 -15 4 -15 10 0 5 7 7 15 4 8 -4 15 -8 15 -10z m-4241 -30 c-15 -18 -22
-13 -13 10 3 9 10 13 16 10 5 -3 4 -12 -3 -20z m-1559 6 c-14 -4 -36 -8 -50
-9 -63 -3 -103 -25 -202 -111 -56 -50 -108 -101 -115 -114 -12 -22 -11 -26 6
-36 11 -5 57 -10 102 -10 45 0 80 -2 78 -4 -10 -8 -215 -15 -228 -7 -20 13 25
91 102 177 46 51 54 64 32 50 -16 -10 -41 -29 -56 -42 -37 -35 -48 -29 -13 7
66 69 172 107 299 107 49 0 63 -2 45 -8z m73 -7 c-7 -2 -21 -2 -30 0 -10 3 -4
5 12 5 17 0 24 -2 18 -5z m637 -3 c0 -5 -10 -12 -22 -14 -49 -10 -215 -14
-258 -7 l-45 8 55 3 c30 1 80 5 110 10 82 11 160 11 160 0z m236 -42 c93 -85
113 -110 134 -165 19 -51 21 -72 17 -173 -4 -99 -9 -126 -36 -197 -18 -45 -39
-87 -47 -93 -8 -7 -14 -18 -14 -25 0 -7 -34 -58 -75 -113 -76 -101 -151 -174
-280 -272 l-70 -53 55 52 c30 29 46 50 35 46 -35 -11 -75 -18 -75 -12 0 3 45
96 99 206 55 111 112 238 126 284 34 102 55 148 65 142 10 -6 42 43 36 54 -3
5 -18 6 -33 3 -26 -4 -23 0 27 50 60 59 71 59 95 4 12 -28 13 -29 14 -8 1 13
-4 33 -10 45 -10 22 -10 22 6 2 9 -11 18 -30 22 -42 6 -25 28 -31 35 -10 11
27 -1 105 -20 144 -38 74 -123 127 -236 148 -56 11 -24 27 41 21 41 -3 60 -11
89 -38z m5247 -4 c5 -5 -31 -74 -39 -74 -3 0 2 14 11 30 15 30 15 30 -12 31
-25 0 -26 1 -8 9 24 11 40 12 48 4z m-2523 -14 c8 -5 11 -10 5 -10 -5 0 -17 5
-25 10 -8 5 -10 10 -5 10 6 0 17 -5 25 -10z m2435 -39 c4 -25 2 -46 -7 -60
-14 -24 -17 -24 -37 -12 -12 8 -11 15 3 51 l17 42 -28 -6 c-27 -6 -27 -6 -9 9
34 26 54 19 61 -24z m-4610 -26 c-1 -11 -3 -33 -4 -50 l-2 -30 -14 25 c-14 24
-14 24 -15 3 0 -12 -5 -23 -12 -25 -8 -3 -9 -12 -1 -35 7 -19 8 -47 2 -77 -11
-62 -115 -276 -134 -276 -17 0 -35 -30 -35 -60 0 -30 -39 -79 -60 -75 -13 2
-21 -7 -30 -36 -7 -21 -16 -39 -19 -39 -3 0 -12 -12 -18 -27 -13 -28 -66 -66
-78 -55 -17 17 -35 9 -35 -16 0 -21 -2 -24 -10 -12 -5 8 -10 11 -10 6 0 -5 -7
-3 -15 4 -13 11 -14 7 -11 -29 3 -27 1 -39 -7 -34 -6 4 -8 0 -4 -10 5 -12 1
-17 -13 -17 -11 0 -20 -7 -20 -15 0 -8 -8 -23 -18 -32 -24 -25 -120 -73 -143
-73 -11 0 -34 -7 -51 -16 -17 -9 -61 -24 -97 -34 -36 -10 -75 -22 -86 -26 -18
-7 -19 -6 -6 9 8 10 57 40 110 67 53 27 106 57 116 66 11 8 13 12 5 8 -19 -10
46 72 71 89 10 8 17 16 14 19 -3 2 21 22 52 44 32 21 64 46 71 54 12 13 13 13
8 -3 -4 -12 -2 -17 6 -15 7 3 17 18 22 34 4 16 12 37 17 47 6 10 5 17 0 17 -6
0 -2 18 8 40 21 46 37 66 27 33 -9 -27 1 -63 16 -63 5 0 8 6 5 14 -3 7 2 24
11 37 24 35 25 57 2 64 -25 8 -25 15 -1 90 l19 60 3 -40 c1 -22 3 -50 4 -62 3
-69 32 -7 40 87 4 51 3 62 -7 52 -7 -7 -19 -12 -27 -12 -14 0 -14 1 -1 10 9 6
10 10 3 10 -9 0 -12 27 -11 95 2 97 8 107 27 45 l11 -35 -6 40 c-3 22 -16 64
-30 94 -39 87 -29 92 41 19 35 -37 67 -63 70 -59 2 5 16 6 30 3 15 -2 25 0 25
7 0 6 3 10 8 10 23 -4 40 4 70 32 32 30 95 63 104 54 2 -3 3 10 1 28 -2 25 -1
28 5 12 5 -11 8 -29 7 -40z m4915 -24 c0 -6 -4 -13 -10 -16 -5 -3 -10 1 -10 9
0 9 5 16 10 16 6 0 10 -4 10 -9z m-5754 -62 c8 -13 -21 1 -51 26 -19 15 -18
15 12 1 17 -9 35 -21 39 -27z m5576 4 c4 -18 -7 -81 -15 -89 -2 -2 -11 -2 -20
1 -12 5 -13 13 -5 38 5 18 11 39 13 47 2 8 4 16 4 18 3 10 20 -1 23 -15z
m-6674 -28 c-6 -14 -13 -23 -15 -21 -5 5 15 46 22 46 3 0 -1 -11 -7 -25z
m4032 9 c23 -9 39 -18 37 -20 -2 -3 -24 4 -48 15 -54 24 -45 27 11 5z m-2880
-26 c0 -12 -6 -9 -26 13 -19 22 -19 22 4 8 12 -8 22 -17 22 -21z m5617 -50
c-4 -35 -4 -57 -1 -50 3 6 12 12 19 12 8 0 19 8 24 18 6 9 11 12 11 6 0 -22
-29 -48 -58 -50 -31 -2 -31 -1 -28 34 2 20 7 45 11 55 5 11 2 17 -6 18 -11 0
13 15 30 18 2 1 1 -27 -2 -61z m-6444 35 c-7 -2 -21 -2 -30 0 -10 3 -4 5 12 5
17 0 24 -2 18 -5z m60 0 c-7 -2 -21 -2 -30 0 -10 3 -4 5 12 5 17 0 24 -2 18
-5z m420 -29 c40 -9 79 -21 87 -26 11 -7 8 -8 -10 -4 -14 4 -86 13 -160 22
-167 19 -177 22 -72 23 46 1 115 -6 155 -15z m-813 -8 c0 -3 -4 -8 -10 -11 -5
-3 -10 -1 -10 4 0 6 5 11 10 11 6 0 10 -2 10 -4z m395 -12 c8 -4 23 -20 32
-37 l16 -31 -36 29 c-45 38 -50 53 -12 39z m866 -31 c16 -44 5 -56 -13 -13 -9
22 -12 40 -7 40 5 0 14 -12 20 -27z m-781 -30 c0 -7 -4 -13 -10 -13 -5 0 -10
12 -10 28 0 21 2 24 10 12 5 -8 10 -21 10 -27z m-268 -7 c-3 -23 -8 -33 -17
-30 -8 4 -11 -2 -8 -18 6 -33 -31 -78 -60 -72 -12 2 -29 13 -37 24 -9 12 -19
18 -23 14 -12 -13 -8 -64 9 -96 12 -23 12 -29 2 -26 -15 5 -36 69 -37 114 -1
49 18 96 38 90 9 -3 32 4 51 14 19 11 46 19 60 20 24 0 26 -3 22 -34z m783 24
c3 -6 -1 -7 -9 -4 -18 7 -21 14 -7 14 6 0 13 -4 16 -10z m-120 -12 c64 1 75
-1 55 -9 -70 -29 -137 -67 -158 -89 l-23 -25 15 32 c23 47 20 70 -11 88 l-28
16 35 -8 c19 -4 71 -6 115 -5z m6320 -347 c104 -101 225 -213 267 -248 l76
-65 -91 -48 c-79 -41 -96 -54 -117 -93 -35 -63 -45 -71 -21 -17 27 59 26 65
-9 108 -16 20 -85 111 -153 202 -67 91 -160 213 -204 271 -45 58 -85 118 -89
133 -6 26 -20 40 -39 41 -16 0 -17 9 -4 37 l12 27 91 -82 c50 -45 176 -165
281 -266z m-6761 289 c24 0 21 -74 -5 -116 -29 -47 -70 -73 -126 -80 l-48 -6
44 44 c50 50 67 79 76 133 10 53 16 61 30 42 7 -10 20 -17 29 -17z m524 3 c0
-16 3 -37 5 -47 7 -35 -14 -119 -44 -177 -37 -71 -70 -87 -121 -59 -18 11 -41
22 -50 26 -10 3 -18 13 -18 20 0 21 -13 18 -88 -20 -102 -51 -245 -96 -310
-97 -31 0 -51 -3 -44 -6 6 -2 12 -9 12 -13 0 -5 -21 -3 -47 4 -27 8 -95 19
-153 25 -58 7 -120 17 -139 23 l-34 11 44 19 c24 11 45 21 46 22 6 5 -43 126
-50 126 -5 0 -6 -9 -2 -19 8 -26 -9 -34 -50 -27 l-34 7 24 37 c26 39 35 49 60
70 8 7 16 25 16 40 1 15 5 -9 10 -53 10 -98 22 -130 68 -178 51 -54 116 -71
245 -64 56 3 128 12 161 21 146 39 335 159 443 282 26 30 47 54 48 54 0 0 1
-12 2 -27z m1912 13 c0 -2 -19 -15 -42 -29 -24 -13 -104 -59 -178 -101 -74
-43 -162 -89 -195 -103 -33 -14 -66 -30 -73 -35 -7 -6 -15 -8 -18 -5 -3 3 61
39 143 80 81 41 195 102 253 136 107 63 110 64 110 57z m-3005 -170 c-35 -71
-68 -133 -73 -138 -8 -8 -110 17 -126 32 -11 11 87 106 124 122 14 6 35 10 47
9 18 0 30 12 54 55 53 93 40 56 -26 -80z m2862 -7 c-10 -27 -12 -28 -15 -10
-2 15 -11 21 -30 22 l-27 1 25 8 c52 17 59 13 47 -21z m-32 -76 c-21 -50 -39
-68 -29 -29 6 25 32 66 41 66 2 0 -4 -17 -12 -37z m-2601 -22 c-5 -5 -33 30
-34 43 0 4 9 -2 19 -15 11 -13 17 -26 15 -28z m2529 12 c-7 -2 -19 -2 -25 0
-7 3 -2 5 12 5 14 0 19 -2 13 -5z m-273 -17 c0 -2 -7 -7 -16 -10 -8 -3 -12 -2
-9 4 6 10 25 14 25 6z m-2638 -30 c35 -8 146 -28 248 -45 172 -28 275 -54 317
-81 16 -10 16 -11 -2 -5 -11 4 -61 16 -112 26 -115 24 -361 21 -432 -5 -24 -9
-63 -16 -87 -16 l-44 0 0 44 c0 55 15 96 34 96 8 0 43 -7 78 -14z m1411 -11
c-3 -9 -8 -14 -10 -11 -3 3 -2 9 2 15 9 16 15 13 8 -4z m1520 -36 c-4 -15 -9
-17 -17 -9 -8 8 -7 13 4 20 8 5 16 10 17 10 0 0 -1 -9 -4 -21z m-467 -4 c-11
-8 -27 -15 -35 -14 -9 0 -2 7 14 14 39 18 45 18 21 0z m277 -2 c-7 -2 -21 -2
-30 0 -10 3 -4 5 12 5 17 0 24 -2 18 -5z m114 0 c-20 -2 -52 -2 -70 0 -17 2 0
4 38 4 39 0 53 -2 32 -4z m-467 -28 c-14 -8 -29 -14 -35 -14 -5 0 1 6 15 14
14 8 30 14 35 14 6 0 -1 -6 -15 -14z m-1064 -87 c-25 -46 -52 -92 -61 -103
-15 -19 0 11 70 143 16 28 30 50 33 48 2 -3 -17 -42 -42 -88z m964 42 c-8 -5
-19 -10 -25 -10 -5 0 -3 5 5 10 8 5 20 10 25 10 6 0 3 -5 -5 -10z m598 -9 c-7
-11 -16 -17 -22 -14 -5 3 -1 12 9 20 25 18 27 17 13 -6z m-119 -7 c8 -7 -163
-2 -214 5 -30 5 1 6 80 3 72 -3 132 -6 134 -8z m-529 -4 c-8 -5 -19 -10 -25
-10 -5 0 -3 5 5 10 8 5 20 10 25 10 6 0 3 -5 -5 -10z m603 3 c-7 -2 -19 -2
-25 0 -7 3 -2 5 12 5 14 0 19 -2 13 -5z m-663 -27 c-36 -20 -181 -69 -186 -63
-5 4 180 73 201 75 6 1 -1 -5 -15 -12z m-1967 -3 c-13 -2 -35 -2 -50 0 -16 2
-5 4 22 4 28 0 40 -2 28 -4z m90 -10 c-7 -2 -21 -2 -30 0 -10 3 -4 5 12 5 17
0 24 -2 18 -5z m2533 -74 c-8 -20 -15 -27 -15 -16 -1 9 -6 17 -12 17 -6 0 -1
9 12 19 31 25 33 21 15 -20z m-1999 -69 c9 -16 21 -26 26 -23 27 16 -35 -152
-84 -228 -37 -59 -187 -188 -309 -268 l-35 -22 35 28 c258 210 258 211 297
291 28 58 38 93 41 142 4 61 2 68 -32 118 l-36 53 40 -31 c22 -17 47 -44 57
-60z m1906 83 c-18 -2 -48 -2 -65 0 -18 2 -4 4 32 4 36 0 50 -2 33 -4z m4221
-53 c5 -17 4 -20 -2 -10 -5 8 -13 26 -16 40 -5 17 -4 20 2 10 5 -8 13 -26 16
-40z m-6924 0 c0 -30 -4 -40 -16 -40 -11 0 -14 6 -9 23 4 12 9 30 11 40 9 28
14 19 14 -23z m137 -52 c-2 -13 -4 -3 -4 22 0 25 2 35 4 23 2 -13 2 -33 0 -45z
m1047 -5 c-16 -26 -58 -77 -94 -113 -58 -59 -80 -72 -202 -127 -76 -33 -138
-59 -138 -57 0 2 69 37 153 78 166 80 191 101 264 219 43 69 57 69 17 0z
m-917 10 c-3 -10 -5 -4 -5 12 0 17 2 24 5 18 2 -7 2 -21 0 -30z m2497 2 c-4
-8 -11 -15 -16 -15 -6 0 -5 6 2 15 7 8 14 15 16 15 2 0 1 -7 -2 -15z m-2345
-22 c0 -25 -1 -26 -9 -8 -12 27 -12 35 0 35 6 0 10 -12 9 -27z m2279 20 c-21
-2 -55 -2 -75 0 -21 2 -4 4 37 4 41 0 58 -2 38 -4z m-2111 -60 c-3 -10 -5 -2
-5 17 0 19 2 27 5 18 2 -10 2 -26 0 -35z m6367 31 c3 -8 2 -12 -4 -9 -6 3 -10
10 -10 16 0 14 7 11 14 -7z m34 -35 c-3 -8 -7 -3 -11 10 -4 17 -3 21 5 13 5
-5 8 -16 6 -23z m-6328 -52 c0 -42 -149 -196 -278 -289 -48 -34 -106 -81 -129
-105 -44 -44 -79 -55 -90 -27 -8 22 25 53 141 134 86 59 184 135 136 105 -8
-5 -4 3 9 17 13 15 26 27 30 26 17 -3 43 19 90 76 28 35 51 68 51 73 0 5 5 14
12 21 14 14 28 -1 28 -31z m-133 -33 c-3 -3 -12 -4 -19 -1 -8 3 -5 6 6 6 11 1
17 -2 13 -5z m239 -110 c-10 -14 -20 -23 -23 -21 -2 3 3 17 13 31 9 15 19 24
22 22 2 -3 -3 -17 -12 -32z m-366 -27 c0 -2 -12 -14 -27 -28 l-28 -24 24 28
c23 25 31 32 31 24z"/>
<path d="M3020 4095 c-14 -14 -25 -36 -27 -48 -1 -12 -4 -37 -7 -54 -4 -29 -2
-34 22 -39 15 -3 32 -7 39 -9 7 -2 15 0 18 6 8 12 -6 169 -15 169 -3 0 -17
-11 -30 -25z"/>
<path d="M2720 3701 c0 -6 4 -12 8 -15 5 -3 9 1 9 9 0 8 -4 15 -9 15 -4 0 -8
-4 -8 -9z"/>
<path d="M4230 3730 c0 -5 5 -10 10 -10 6 0 10 5 10 10 0 6 -4 10 -10 10 -5 0
-10 -4 -10 -10z"/>
<path d="M4276 3697 c3 -10 9 -15 12 -12 3 3 0 11 -7 18 -10 9 -11 8 -5 -6z"/>
<path d="M4684 3688 c-5 -7 -3 -8 7 -3 12 8 12 6 0 -8 -12 -15 -11 -17 5 -17
20 1 65 29 48 31 -5 0 -19 2 -31 5 -12 2 -25 -1 -29 -8z"/>
<path d="M4214 3682 c3 -5 0 -13 -6 -15 -8 -3 -6 -6 5 -6 19 -1 23 14 5 25 -6
4 -8 3 -4 -4z"/>
<path d="M4629 3680 c-18 -12 -6 -23 19 -18 16 2 17 5 7 15 -7 6 -18 8 -26 3z"/>
<path d="M4806 3673 c-6 -14 -5 -15 5 -6 7 7 10 15 7 18 -3 3 -9 -2 -12 -12z"/>
<path d="M3793 3641 c-13 -11 -23 -25 -23 -32 0 -8 7 -6 20 6 16 15 22 16 35
5 11 -9 19 -10 26 -3 8 8 7 13 -2 18 -8 5 -10 4 -5 -3 10 -16 -2 -15 -19 2 -8
7 -11 16 -8 20 14 13 -3 4 -24 -13z"/>
<path d="M3515 3640 c3 -5 14 -10 23 -10 15 0 15 2 2 10 -20 13 -33 13 -25 0z"/>
<path d="M3877 3629 c7 -7 15 -10 18 -7 3 3 -2 9 -12 12 -14 6 -15 5 -6 -5z"/>
<path d="M4095 3630 c3 -5 8 -10 11 -10 2 0 4 5 4 10 0 6 -5 10 -11 10 -5 0
-7 -4 -4 -10z"/>
<path d="M2814 3600 c2 -22 -2 -29 -11 -26 -23 9 -14 -10 12 -24 27 -14 35
-33 10 -24 -8 4 -15 1 -15 -6 0 -8 9 -10 25 -6 14 4 25 2 25 -3 0 -12 -20 -19
-50 -17 -19 1 -26 7 -28 26 -2 20 -1 22 7 10 9 -13 11 -13 11 3 0 9 -4 17 -10
17 -5 0 -10 6 -10 13 0 6 -7 21 -15 31 -13 17 -17 18 -28 6 -8 -9 -8 -11 0 -6
6 3 14 2 18 -4 3 -5 1 -10 -5 -10 -7 0 -9 -7 -6 -16 4 -11 2 -15 -8 -11 -13 5
-13 2 -4 -18 6 -14 15 -25 20 -25 4 0 8 -7 8 -16 0 -10 6 -14 15 -10 8 3 15 1
15 -4 0 -6 11 -10 24 -10 14 0 30 -10 39 -24 18 -26 11 -42 -10 -24 -7 6 -16
8 -20 4 -3 -3 -1 -6 5 -6 7 0 12 -7 12 -16 0 -11 -5 -14 -17 -9 -14 5 -15 4
-6 -6 10 -10 18 -8 38 11 13 12 22 27 19 31 -3 5 2 9 10 9 9 0 16 5 16 11 0 6
7 3 16 -5 8 -9 12 -22 8 -28 -5 -10 -4 -10 7 0 11 10 11 16 1 33 -7 11 -10 24
-7 29 3 6 1 18 -4 27 -6 10 -11 12 -11 6 0 -7 -8 -13 -17 -13 -22 1 -57 46
-47 62 5 7 3 8 -5 3 -9 -5 -12 1 -9 26 2 18 -2 34 -9 36 -7 3 -10 -7 -9 -27z
m76 -123 c0 -4 0 -11 0 -17 0 -18 -29 -10 -40 10 -10 19 -9 20 15 17 14 -2 25
-6 25 -10z"/>
<path d="M3570 3620 c0 -5 5 -10 10 -10 6 0 10 5 10 10 0 6 -4 10 -10 10 -5 0
-10 -4 -10 -10z"/>
<path d="M3686 3621 c-4 -5 -2 -12 3 -15 5 -4 12 -2 15 3 4 5 2 12 -3 15 -5 4
-12 2 -15 -3z"/>
<path d="M3746 3617 c3 -10 9 -15 12 -12 3 3 0 11 -7 18 -10 9 -11 8 -5 -6z"/>
<path d="M2786 3611 c-4 -7 -5 -15 -2 -18 9 -9 19 4 14 18 -4 11 -6 11 -12 0z"/>
<path d="M3030 3600 c-13 -8 -12 -10 3 -10 9 0 17 5 17 10 0 12 -1 12 -20 0z"/>
<path d="M3441 3594 c0 -11 3 -14 6 -6 3 7 2 16 -1 19 -3 4 -6 -2 -5 -13z"/>
<path d="M2906 3573 c-6 -14 -5 -15 5 -6 7 7 10 15 7 18 -3 3 -9 -2 -12 -12z"/>
<path d="M2945 3580 c-3 -5 -1 -10 4 -10 6 0 11 5 11 10 0 6 -2 10 -4 10 -3 0
-8 -4 -11 -10z"/>
<path d="M3165 3570 c-3 -5 -1 -10 4 -10 6 0 11 5 11 10 0 6 -2 10 -4 10 -3 0
-8 -4 -11 -10z"/>
<path d="M3336 3572 c-2 -4 4 -8 14 -8 10 0 16 4 14 8 -3 4 -9 8 -14 8 -5 0
-11 -4 -14 -8z"/>
<path d="M3030 3559 c0 -5 5 -7 10 -4 6 3 10 8 10 11 0 2 -4 4 -10 4 -5 0 -10
-5 -10 -11z"/>
<path d="M4705 3560 c-3 -5 3 -10 15 -10 12 0 18 5 15 10 -3 6 -10 10 -15 10
-5 0 -12 -4 -15 -10z"/>
<path d="M2887 3549 c7 -7 15 -10 18 -7 3 3 -2 9 -12 12 -14 6 -15 5 -6 -5z"/>
<path d="M2564 3528 c1 -34 7 -35 25 -7 11 19 11 21 -2 16 -9 -3 -18 -1 -20 6
-2 7 -4 0 -3 -15z"/>
<path d="M3790 3540 c0 -5 5 -10 11 -10 5 0 7 5 4 10 -3 6 -8 10 -11 10 -2 0
-4 -4 -4 -10z"/>
<path d="M2662 3498 c-19 -19 -14 -26 16 -25 15 0 22 2 15 4 -7 2 -9 11 -6 19
6 17 -8 19 -25 2z"/>
<path d="M2970 3500 c-12 -8 -10 -10 8 -10 13 0 20 4 17 10 -7 12 -6 12 -25 0z"/>
<path d="M2736 3488 c5 -8 2 -9 -9 -5 -25 9 -22 -20 3 -33 14 -7 20 -7 20 0 0
5 -8 10 -17 10 -17 1 -17 1 0 11 19 11 23 29 6 29 -5 0 -7 -5 -3 -12z"/>
<path d="M3010 3465 c7 -8 18 -15 24 -14 7 0 6 2 -2 6 -6 2 -10 9 -6 14 3 5
-2 9 -12 9 -13 0 -14 -3 -4 -15z"/>
<path d="M2772 3454 c9 -3 19 -13 22 -22 3 -12 4 -12 3 3 -1 12 -10 21 -22 22
-15 1 -15 0 -3 -3z"/>
<path d="M2667 3443 c-13 -13 -7 -33 11 -33 13 0 14 2 3 9 -7 5 -10 14 -7 20
8 12 3 15 -7 4z"/>
<path d="M2973 3443 c9 -2 23 -2 30 0 6 3 -1 5 -18 5 -16 0 -22 -2 -12 -5z"/>
<path d="M2908 3383 c7 -3 16 -2 19 1 4 3 -2 6 -13 5 -11 0 -14 -3 -6 -6z"/>
<path d="M2670 3350 c0 -5 5 -10 11 -10 5 0 7 5 4 10 -3 6 -8 10 -11 10 -2 0
-4 -4 -4 -10z"/>
<path d="M2865 3350 c-3 -5 3 -10 15 -10 12 0 18 5 15 10 -3 6 -10 10 -15 10
-5 0 -12 -4 -15 -10z"/>
<path d="M2952 3351 c2 -7 7 -12 11 -12 12 1 9 15 -3 20 -7 2 -11 -2 -8 -8z"/>
<path d="M2598 3283 c-10 -2 -18 -12 -17 -21 0 -11 2 -12 6 -4 2 6 11 12 18
12 8 0 17 5 20 10 6 10 2 11 -27 3z"/>
<path d="M2526 3253 c-4 -9 -2 -21 4 -27 7 -7 10 -4 10 8 0 15 3 16 14 6 12
-9 15 -8 13 9 -2 25 -32 28 -41 4z"/>
<path d="M2621 3211 c-8 -5 -9 -11 -3 -15 5 -3 12 1 16 9 6 17 6 18 -13 6z"/>
<path d="M2535 3180 c4 -6 11 -8 16 -5 14 9 11 15 -7 15 -8 0 -12 -5 -9 -10z"/>
<path d="M7021 1605 c0 -5 8 -26 19 -45 11 -19 19 -30 19 -25 0 6 -8 26 -19
45 -11 19 -19 31 -19 25z"/>
<path d="M7107 1596 c-4 -10 -1 -13 9 -9 7 3 14 9 14 14 0 14 -17 10 -23 -5z"/>
<path d="M1949 2338 c-6 -12 -4 -48 2 -48 5 0 9 4 9 9 0 5 3 16 6 25 5 12 -11
25 -17 14z"/>
<path d="M2328 2723 c-4 -17 17 -83 27 -83 2 0 2 7 -2 16 -4 11 1 22 12 30 15
11 16 17 7 26 -9 9 -12 9 -12 -1 0 -7 -5 -9 -11 -6 -6 4 -8 13 -5 21 3 8 2 14
-3 14 -5 0 -11 -8 -13 -17z"/>
<path d="M2132 2377 c-17 -64 -13 -91 14 -104 13 -6 24 -7 24 -2 0 5 -4 9 -10
9 -5 0 -10 5 -10 11 0 5 5 7 10 4 7 -4 10 7 9 32 -1 21 2 46 6 55 4 11 0 20
-13 27 -17 9 -21 6 -30 -32z"/>
<path d="M2005 2220 c3 -5 8 -10 11 -10 2 0 4 5 4 10 0 6 -5 10 -11 10 -5 0
-7 -4 -4 -10z"/>
<path d="M2005 2119 c-5 -14 -2 -25 6 -30 19 -12 39 -11 39 1 0 5 -7 7 -15 4
-14 -6 -19 5 -16 34 3 20 -7 14 -14 -9z"/>
<path d="M1840 2007 c-52 -50 -79 -78 -60 -62 59 47 163 145 159 149 -2 2 -47
-37 -99 -87z"/>
<path d="M2834 4709 c-10 -12 -55 -54 -100 -93 -44 -39 -122 -117 -173 -172
-94 -102 -283 -345 -275 -353 3 -3 27 17 54 44 28 27 50 46 50 42 0 -14 32
-162 37 -169 4 -8 43 9 53 22 3 4 19 14 36 23 24 12 32 23 30 42 -1 21 -10 29
-51 44 -76 28 -83 31 -50 26 28 -5 33 -2 47 29 26 54 184 231 309 345 125 114
149 139 149 152 0 9 -64 39 -85 39 -6 0 -20 -10 -31 -21z"/>
<path d="M2812 4193 c-7 -24 -8 -42 -1 -55 18 -33 29 -19 29 37 0 63 -12 71
-28 18z"/>
<path d="M5185 4124 l-40 -13 50 6 c28 3 59 9 70 14 36 14 -36 8 -80 -7z"/>
<path d="M2505 3973 c-16 -8 -38 -22 -47 -30 -18 -16 -136 -21 -195 -8 l-32 7
23 -83 c38 -136 45 -162 52 -194 3 -16 9 -24 11 -17 3 8 27 45 54 84 36 52 46
75 38 84 -7 8 -7 14 1 19 6 4 9 14 5 22 -4 13 -3 14 10 3 12 -10 15 -10 15 1
0 7 26 39 57 71 59 59 61 69 8 41z"/>
<path d="M1890 3900 c0 -5 5 -10 11 -10 5 0 7 5 4 10 -3 6 -8 10 -11 10 -2 0
-4 -4 -4 -10z"/>
<path d="M1660 3709 c0 -5 5 -7 10 -4 6 3 10 8 10 11 0 2 -4 4 -10 4 -5 0 -10
-5 -10 -11z"/>
<path d="M2224 3674 c-18 -14 -18 -15 4 -4 12 6 22 13 22 15 0 8 -5 6 -26 -11z"/>
<path d="M2007 3623 c-4 -3 -7 -11 -7 -17 0 -6 5 -5 12 2 6 6 9 14 7 17 -3 3
-9 2 -12 -2z"/>
<path d="M1260 3593 c0 -5 7 -18 15 -29 14 -18 15 -18 11 5 -3 23 -26 44 -26
24z"/>
<path d="M1966 3568 c-10 -39 -6 -44 14 -19 23 27 25 41 6 41 -7 0 -16 -10
-20 -22z"/>
<path d="M1270 3340 c0 -5 5 -10 11 -10 5 0 7 5 4 10 -3 6 -8 10 -11 10 -2 0
-4 -4 -4 -10z"/>
<path d="M940 3095 c-6 -8 -9 -19 -5 -25 11 -18 20 -11 20 15 0 29 1 29 -15
10z"/>
<path d="M4035 1650 c-27 -10 -58 -19 -69 -19 -48 -2 -226 -85 -292 -137 -38
-29 -98 -75 -134 -101 -35 -27 -78 -63 -95 -82 -16 -18 -75 -67 -130 -107 -55
-41 -116 -88 -136 -104 -20 -16 -54 -39 -75 -51 -21 -11 -57 -32 -79 -45 -22
-12 -60 -28 -85 -34 -103 -25 -184 -48 -168 -49 10 -1 15 -8 13 -18 -2 -10 -4
-21 -4 -26 -1 -4 -18 0 -38 9 -21 9 -69 30 -107 45 -37 16 -82 40 -98 54 -16
14 -42 28 -56 31 -89 21 -312 192 -312 240 0 13 -5 24 -11 24 -6 0 -68 -25
-138 -56 -126 -57 -181 -94 -181 -123 0 -9 36 -55 80 -102 63 -69 95 -95 159
-128 44 -23 101 -58 128 -79 122 -97 341 -162 544 -162 94 0 123 5 231 36 68
20 147 42 175 50 29 7 83 30 120 49 133 70 402 267 508 371 63 63 162 139 233
181 43 25 44 25 175 16 126 -8 136 -11 218 -50 82 -40 134 -77 238 -169 25
-22 62 -51 81 -65 19 -13 72 -58 116 -99 85 -79 110 -97 234 -173 41 -25 95
-58 119 -73 24 -15 78 -41 120 -58 74 -30 81 -31 226 -30 186 1 336 28 480 86
55 23 105 44 110 48 6 5 46 27 90 50 44 24 87 48 95 55 8 7 29 20 46 28 17 9
51 36 75 61 24 24 73 62 108 83 61 37 86 63 62 63 -6 0 -33 14 -61 31 -44 27
-53 29 -69 18 -10 -8 -54 -43 -99 -79 -44 -36 -119 -89 -166 -118 -86 -54
-272 -135 -336 -147 -19 -3 5 10 54 29 83 32 125 56 99 56 -7 0 -24 -5 -38
-10 -23 -9 -26 -8 -21 5 3 8 1 15 -4 15 -6 0 -10 13 -10 29 0 17 -6 31 -16 35
-13 5 -3 16 40 46 32 23 83 54 114 70 57 30 161 105 215 154 16 14 32 26 38
26 11 0 12 17 1 24 -5 3 -22 -9 -38 -26 -16 -17 -54 -47 -84 -66 -30 -19 -73
-50 -95 -67 -50 -40 -297 -161 -356 -174 -24 -5 -69 -15 -99 -22 -77 -17 -186
-14 -217 6 -14 9 -46 22 -72 29 -47 12 -107 51 -194 127 -23 20 -58 47 -78 60
-19 13 -76 68 -125 122 -125 137 -266 239 -403 292 -38 14 -80 34 -93 44 -13
9 -61 23 -108 31 -47 7 -107 19 -135 26 -69 19 -160 16 -220 -6z m-34 -49
c-16 -12 -20 -21 -12 -25 6 -4 11 -18 11 -30 0 -33 21 -47 61 -41 22 4 15 -1
-21 -13 -132 -45 -238 -114 -468 -307 -250 -210 -411 -311 -587 -371 -68 -23
-101 -28 -215 -31 -101 -3 -148 0 -185 11 l-50 15 50 -5 c28 -3 63 -8 79 -11
19 -3 26 -2 22 6 -4 6 -3 11 3 11 5 0 11 10 13 22 2 12 10 24 18 26 12 4 13 3
2 -10 -10 -13 -9 -16 8 -21 13 -3 23 0 27 9 3 8 12 14 20 14 8 0 12 -4 9 -8
-3 -5 1 -9 9 -9 11 0 13 11 10 43 -4 38 -2 42 20 47 15 2 25 0 25 -7 0 -8 2
-8 8 0 4 7 43 24 87 39 166 55 307 148 555 366 172 150 298 230 435 275 85 28
97 29 66 5z m1836 -817 c-3 -3 -12 -4 -19 -1 -8 3 -5 6 6 6 11 1 17 -2 13 -5z"/>
<path d="M3945 1032 c-191 -66 -326 -149 -450 -277 -33 -34 -94 -84 -135 -111
-41 -28 -103 -70 -137 -94 -35 -25 -101 -69 -148 -99 -47 -30 -83 -56 -81 -59
8 -8 199 90 224 115 7 7 18 13 23 13 5 0 26 15 46 33 21 18 87 68 146 111 60
43 114 87 120 98 7 11 53 50 104 88 117 86 236 133 328 129 33 -2 79 0 102 5
52 10 83 1 83 -25 0 -10 6 -19 13 -19 33 -1 -25 -18 -83 -24 -138 -15 -275
-97 -528 -314 -192 -164 -307 -245 -434 -306 -207 -99 -333 -119 -538 -86 -81
14 -100 19 -100 30 0 5 19 2 42 -6 38 -13 259 -31 231 -18 -7 3 -13 15 -13 27
-1 19 -2 20 -13 7 -13 -16 -57 -22 -57 -8 0 4 7 8 15 8 8 0 15 6 15 14 0 8 5
18 12 22 7 5 9 2 5 -8 -4 -12 -1 -14 15 -10 19 5 19 6 -6 29 -15 13 -50 35
-79 49 -29 13 -43 22 -32 20 64 -15 89 -12 30 3 -38 10 -115 41 -170 68 -55
28 -110 54 -123 58 -13 4 -45 25 -70 48 -26 23 -71 60 -100 82 -31 23 -52 47
-52 58 0 16 -5 18 -27 12 -16 -3 -44 -17 -64 -31 -20 -14 -56 -33 -80 -42
-112 -43 -158 -91 -132 -136 27 -47 318 -278 411 -325 42 -21 213 -77 325
-106 83 -21 191 -17 317 14 47 11 112 27 145 35 154 37 290 105 420 208 33 27
85 65 115 85 30 20 60 42 65 49 12 15 109 95 229 191 136 109 159 118 292 118
l111 -1 105 -50 c57 -29 120 -65 139 -81 19 -16 50 -40 69 -53 19 -13 71 -60
115 -104 105 -105 172 -160 219 -180 21 -9 59 -33 85 -54 50 -41 143 -102 156
-102 4 0 33 -11 64 -24 129 -55 184 -67 333 -71 79 -2 163 1 188 6 95 20 270
83 394 142 138 64 175 87 301 183 44 34 104 73 133 88 58 30 64 41 26 50 -15
4 -43 18 -63 32 -19 13 -41 24 -48 24 -6 0 -32 -17 -56 -37 -168 -144 -383
-264 -547 -306 -164 -43 -188 -47 -260 -47 -103 0 -192 25 -325 90 -131 65
-300 183 -289 202 4 6 3 8 -3 5 -6 -4 -51 32 -99 79 -60 58 -85 87 -75 91 7 3
29 20 48 38 48 46 39 68 -62 150 -138 111 -223 165 -263 165 -11 0 -30 8 -43
19 -49 38 -126 52 -299 57 l-165 4 -110 -38z m-1940 -438 c-9 -9 -19 -13 -23
-10 -3 4 0 11 8 16 24 15 33 11 15 -6z m290 -252 c-4 -5 -75 37 -75 44 0 3 18
-6 39 -18 22 -12 38 -24 36 -26z m113 -53 c45 -23 81 -43 78 -46 -2 -2 -44 16
-92 41 -49 25 -85 45 -79 45 5 1 47 -18 93 -40z"/>
<path d="M2630 951 c8 -5 38 -12 65 -15 l50 -6 -50 14 c-59 18 -89 21 -65 7z"/>
<path d="M6278 647 c-34 -34 -95 -76 -163 -113 -59 -32 -129 -71 -154 -86
-142 -83 -251 -118 -373 -118 -66 0 -89 -3 -86 -12 10 -30 154 -37 239 -12 86
26 304 142 438 233 36 25 79 53 109 71 14 9 30 24 36 35 6 11 15 23 21 27 6 5
6 11 -1 18 -8 8 -26 -4 -66 -43z"/>
<path d="M3130 389 c0 -5 5 -7 10 -4 6 3 10 8 10 11 0 2 -4 4 -10 4 -5 0 -10
-5 -10 -11z"/>
<path d="M2900 374 c-25 -7 -61 -14 -80 -15 -19 0 -44 -5 -55 -10 -35 -16 106
2 165 21 30 10 46 18 35 18 -11 1 -40 -6 -65 -14z"/>
</g>
</svg>
