<?xml version="1.0" standalone="no"?>
<!DOCTYPE svg PUBLIC "-//W3C//DTD SVG 20010904//EN"
 "http://www.w3.org/TR/2001/REC-SVG-20010904/DTD/svg10.dtd">
<svg version="1.0" xmlns="http://www.w3.org/2000/svg"
 width="600.000000pt" height="600.000000pt" viewBox="0 0 600.000000 600.000000"
 preserveAspectRatio="xMidYMid meet">

<g transform="translate(0.000000,600.000000) scale(0.100000,-0.100000)"
fill="#FFFFFF" stroke="none">
<path d="M2802 5806 c-26 -25 -59 -49 -72 -54 -26 -10 -201 0 -233 13 -23 10
-91 -38 -129 -89 -25 -34 -28 -46 -22 -82 6 -42 5 -43 -27 -52 -25 -7 -38 -6
-50 4 -23 20 -39 17 -39 -7 0 -18 -2 -20 -16 -8 -17 14 -37 51 -49 89 -7 22
-5 22 26 -9 l33 -34 17 49 c18 55 7 71 -23 34 -19 -23 -20 -23 -48 -7 -37 22
-40 22 -40 -9 0 -15 -7 -32 -15 -38 -14 -10 -14 -17 0 -64 21 -70 73 -128 134
-146 121 -38 146 -51 163 -86 9 -19 30 -62 46 -95 16 -33 39 -64 51 -70 11 -5
21 -17 21 -25 1 -8 8 -2 16 13 9 17 26 30 45 34 24 4 29 11 29 33 0 40 16 48
105 53 113 7 145 15 145 38 0 13 8 20 23 20 12 1 30 2 40 3 10 1 22 8 28 16 9
13 12 12 22 -5 7 -11 28 -37 49 -58 35 -37 38 -38 92 -33 52 5 57 4 73 -20 15
-23 15 -28 2 -38 -19 -14 -41 -68 -39 -92 6 -55 -1 -75 -32 -94 -18 -11 -43
-20 -55 -20 -16 0 -23 -6 -23 -20 0 -11 -4 -20 -9 -20 -5 0 -13 -10 -16 -22
-4 -11 -19 -32 -33 -45 -18 -17 -21 -23 -9 -23 41 0 69 22 91 70 l24 51 32
-40 31 -41 -26 -12 c-20 -9 -31 -9 -45 -1 -14 10 -21 8 -35 -7 -9 -10 -14 -23
-11 -28 3 -5 -3 -17 -14 -27 -19 -17 -21 -17 -47 11 -28 31 -43 21 -23 -16 9
-16 8 -25 -1 -36 -13 -16 -45 -19 -54 -4 -10 17 -26 0 -20 -21 5 -16 -5 -25
-60 -50 -58 -27 -70 -30 -90 -19 -27 14 -48 5 -43 -18 2 -10 -5 -23 -17 -30
-19 -12 -18 -13 8 -9 15 2 27 1 27 -2 -1 -7 -84 -71 -93 -71 -3 0 -8 14 -12
30 -4 17 -10 30 -14 30 -4 0 -13 11 -19 24 -10 23 -9 24 45 31 43 5 63 14 94
42 21 19 39 41 39 49 0 9 10 11 34 7 57 -9 102 12 125 60 20 39 20 43 4 54
-14 11 -19 9 -29 -17 -24 -56 -77 -76 -154 -58 -9 2 -16 -6 -18 -19 -2 -13 -7
-23 -12 -23 -5 0 -11 -9 -15 -19 -7 -22 -53 -41 -99 -41 -46 0 -96 -67 -96
-127 0 -28 -4 -42 -12 -40 -6 1 -14 -6 -16 -15 -4 -21 10 -23 41 -7 12 7 19 8
15 4 -4 -5 -3 -14 4 -22 9 -11 8 -18 -4 -30 -14 -14 -19 -13 -47 8 -19 14 -31
32 -31 46 0 13 -6 38 -14 56 -7 18 -12 43 -11 57 1 21 7 25 40 25 43 1 62 21
51 51 -6 15 -9 16 -16 4 -6 -9 -13 4 -26 46 -9 32 -19 65 -22 73 -4 10 -1 12
7 7 10 -7 11 5 6 50 -8 66 -34 125 -74 168 l-26 28 33 -17 34 -16 -8 23 c-4
13 -10 38 -15 56 -4 19 -9 35 -11 36 -83 51 -116 68 -140 73 -42 8 -44 23 -3
23 l36 0 -28 40 c-15 22 -36 40 -45 40 -10 0 -27 14 -40 30 -21 29 -25 30 -94
30 -62 0 -76 3 -94 22 -11 12 -20 25 -20 29 0 4 -10 9 -22 11 -38 5 -30 31 22
71 53 41 58 50 37 72 -9 9 -19 10 -33 3 -15 -7 -14 -5 4 10 12 11 22 23 22 26
0 11 -95 -36 -126 -63 -18 -16 -59 -37 -90 -46 -43 -12 -73 -31 -118 -72 -34
-30 -74 -61 -91 -69 -16 -7 -46 -23 -65 -34 -19 -11 -42 -20 -51 -20 -32 0
-185 -73 -207 -98 -13 -15 -30 -44 -39 -64 -8 -22 -30 -47 -49 -59 -19 -11
-39 -29 -44 -40 -6 -10 -32 -31 -58 -46 -95 -54 -133 -85 -152 -123 -18 -36
-19 -43 -6 -72 8 -18 26 -48 40 -67 14 -19 26 -38 26 -42 0 -4 -16 -13 -34
-19 -29 -9 -39 -8 -59 5 -30 19 -47 56 -40 86 6 21 5 22 -15 8 -37 -27 -92
-115 -92 -148 0 -4 21 -22 48 -41 59 -43 136 -51 245 -25 66 15 75 15 102 1
17 -9 36 -16 43 -16 8 0 33 -20 58 -45 24 -25 51 -45 61 -45 31 0 97 27 101
41 3 8 12 22 20 32 14 16 14 19 -6 33 -24 17 -29 51 -9 77 6 9 39 28 72 43 88
38 115 66 75 77 -35 9 -22 32 33 55 l52 23 -25 19 c-14 11 -31 20 -37 20 -19
0 -16 18 5 24 9 3 50 -1 91 -8 62 -11 80 -10 117 2 42 14 61 42 29 42 -8 0
-20 9 -27 20 -8 12 -24 20 -39 20 -15 0 -32 7 -39 15 -10 13 -9 19 6 36 25 28
97 22 141 -10 17 -13 53 -27 79 -32 65 -12 92 -41 103 -109 7 -46 15 -59 50
-89 40 -35 56 -81 29 -81 -21 0 -18 -52 4 -99 l22 -45 -27 -48 c-18 -32 -27
-63 -27 -93 0 -25 -9 -63 -19 -83 -15 -30 -18 -51 -14 -103 5 -60 3 -67 -18
-85 -48 -39 -59 -79 -35 -117 18 -27 16 -89 -2 -95 -10 -3 -13 4 -10 24 3 30
-5 37 -82 68 l-35 15 37 -4 c21 -2 43 -7 50 -11 7 -4 4 2 -6 15 -11 12 -26 19
-33 17 -25 -10 -84 27 -90 56 -6 30 -42 44 -86 33 -25 -7 -25 -8 26 -42 50
-34 82 -62 153 -133 l34 -35 -21 -17 c-12 -10 -32 -18 -45 -18 -12 0 -26 -5
-30 -11 -8 -14 36 -5 79 16 24 12 29 12 34 -1 3 -8 3 -23 0 -34 -3 -12 0 -20
7 -20 21 0 83 -53 120 -101 36 -48 50 -109 28 -131 -6 -6 -12 -18 -12 -25 0
-19 27 -16 34 4 6 14 10 13 34 -10 16 -15 40 -27 53 -27 25 0 59 -27 59 -46 0
-5 -9 -15 -20 -22 -33 -20 -14 -32 25 -16 19 8 51 14 72 13 l38 -1 -40 -12
c-22 -7 -41 -20 -43 -29 -2 -9 -18 -18 -43 -22 -21 -4 -39 -11 -39 -16 0 -5
12 -7 28 -4 l27 6 -27 -18 c-16 -10 -28 -21 -28 -25 0 -8 59 -23 78 -19 19 3
14 -12 -16 -41 -27 -26 -29 -27 -51 -12 -30 21 -172 200 -208 261 -86 150
-182 280 -273 372 -77 78 -118 109 -218 163 -90 50 -98 63 -16 28 29 -13 55
-18 68 -13 11 4 28 7 36 7 8 1 15 10 15 21 0 17 6 20 43 17 34 -3 42 0 42 13
0 13 6 16 25 13 30 -6 32 3 5 27 -19 17 -30 17 -116 -1 -28 -5 -34 -3 -46 23
-15 31 -31 33 -138 19 l-55 -7 39 22 c31 17 50 20 88 16 58 -7 56 8 -2 18 -31
5 -48 2 -76 -14 -44 -26 -64 -27 -64 -1 0 25 -32 27 -74 5 -40 -21 -46 -18
-11 5 32 22 23 26 -21 10 -15 -6 -29 -9 -31 -6 -9 9 42 30 87 37 l45 6 -56 2
c-52 1 -61 -2 -105 -39 -54 -45 -86 -51 -100 -19 -10 21 -10 21 -44 -7 -25
-20 -29 -22 -16 -6 11 12 15 22 10 22 -5 1 7 9 26 20 l35 19 -28 1 c-33 0 -88
-26 -149 -73 -66 -51 -88 -61 -101 -48 -8 8 -3 19 16 39 31 32 34 42 12 42 -8
0 -15 5 -15 10 0 6 -15 10 -34 10 -37 0 -58 -17 -140 -113 -27 -31 -55 -57
-63 -57 -7 0 -18 11 -24 24 -10 21 -7 32 15 72 31 55 32 62 9 42 -10 -8 -25
-19 -33 -23 -12 -7 -13 -6 -3 6 11 14 40 118 47 169 2 14 6 37 11 53 5 20 4
27 -6 27 -20 -1 -68 -74 -78 -120 -5 -22 -22 -63 -39 -93 -33 -58 -82 -191
-82 -223 -1 -31 -37 -101 -101 -196 -86 -128 -92 -144 -73 -209 15 -48 14 -60
-1 -143 -9 -50 -27 -118 -41 -152 -43 -108 -28 -144 81 -188 37 -16 54 -31 55
-48 0 -13 -105 -9 -117 3 -16 16 -43 3 -43 -21 0 -11 -5 -20 -10 -20 -7 0 -8
-13 -4 -35 4 -23 2 -41 -7 -51 -11 -14 -10 -19 9 -34 32 -27 50 -23 177 35 66
30 79 41 148 128 22 28 25 29 117 28 89 0 210 23 210 40 0 4 -12 10 -26 13
-21 6 -25 12 -21 32 3 18 -5 33 -34 62 -22 20 -39 44 -39 52 0 9 13 31 29 50
42 52 60 92 54 122 -5 27 -5 27 -39 11 -47 -23 -56 -7 -14 27 34 28 34 29 16
49 -10 11 -15 25 -11 30 4 7 -5 11 -24 11 -16 0 -33 -4 -36 -10 -9 -14 -35
-12 -35 3 0 15 41 40 95 57 63 20 154 82 154 106 1 31 21 44 67 44 24 0 46 5
49 10 3 6 14 10 25 10 10 0 20 6 23 14 3 8 17 22 31 32 24 15 28 15 52 -1 29
-19 83 -14 118 11 37 26 72 17 110 -27 30 -35 44 -43 87 -50 59 -9 87 -30 91
-67 2 -20 16 -34 58 -57 l55 -31 0 -53 c0 -57 6 -65 58 -76 34 -7 60 -59 51
-104 -5 -26 -2 -32 30 -53 42 -27 61 -67 51 -105 -15 -63 -12 -77 25 -95 57
-29 72 -54 68 -117 l-3 -55 35 -7 c20 -4 47 -21 62 -38 24 -27 28 -40 28 -89
0 -32 5 -63 12 -70 7 -7 33 -12 59 -12 41 0 51 -4 78 -35 22 -25 31 -46 31
-70 0 -42 9 -48 80 -49 32 -1 65 -7 73 -14 31 -26 31 -274 -1 -287 -19 -7
-100 22 -128 47 -11 10 -27 18 -35 18 -24 0 -113 46 -134 70 -11 12 -36 30
-55 40 -19 11 -66 48 -103 84 -37 36 -65 61 -62 56 3 -6 4 -10 1 -10 -6 0 -56
76 -56 85 0 4 5 3 11 -1 16 -9 -8 35 -35 65 -11 13 -15 21 -9 17 9 -5 11 -2 7
8 -3 9 -10 14 -14 11 -15 -9 -50 109 -56 190 -9 129 -14 163 -30 198 -18 40
-33 43 -49 10 -10 -20 -11 -20 -28 3 -19 25 -22 38 -7 29 5 -3 19 -1 31 5 18
10 20 17 14 48 -3 21 -13 44 -21 52 -13 13 -14 10 -9 -20 l5 -35 -14 31 c-17
36 -35 52 -73 64 -24 8 -22 9 19 7 45 -2 46 -1 30 16 -13 14 -24 17 -52 11
-19 -4 -44 -6 -55 -6 -11 1 -38 -5 -60 -12 -22 -8 -63 -14 -92 -14 -49 -1
-101 -24 -125 -57 -14 -19 -8 -45 10 -45 23 0 56 -35 47 -49 -3 -6 -16 -10
-29 -9 -12 1 -35 -3 -52 -9 -16 -6 -41 -14 -56 -17 -45 -10 -117 -141 -106
-194 3 -12 12 -16 33 -14 79 7 115 3 175 -19 53 -19 81 -38 149 -104 47 -45
94 -100 107 -127 32 -63 38 -144 17 -233 -9 -38 -17 -72 -16 -75 0 -3 3 -17 7
-31 4 -21 -1 -34 -24 -60 -33 -38 -34 -42 -20 -70 22 -40 142 -11 207 50 31
29 46 54 58 95 l16 56 42 -35 c23 -19 61 -57 83 -83 23 -26 74 -74 115 -107
41 -32 90 -73 109 -90 50 -45 163 -110 245 -140 39 -15 85 -38 103 -52 32 -24
33 -28 29 -77 -3 -28 -8 -65 -12 -82 -6 -28 -4 -32 23 -42 50 -17 103 5 176
74 44 42 67 72 75 99 5 21 22 56 37 79 107 164 162 236 180 236 19 0 24 -26
24 -128 0 -147 39 -321 86 -385 40 -54 55 -93 45 -120 -16 -40 -71 -55 -261
-67 -96 -6 -204 -15 -240 -19 -81 -10 -163 0 -189 23 -10 10 -40 24 -64 31
-109 33 -271 154 -345 259 -43 61 -122 122 -168 131 -60 11 -145 -34 -174 -91
-12 -24 -25 -44 -30 -44 -10 0 -37 -24 -108 -93 -69 -68 -68 -122 2 -100 24 8
38 7 45 0 21 -21 11 -43 -40 -92 -28 -28 -57 -62 -65 -77 -21 -41 -18 -110 7
-142 18 -23 26 -26 55 -20 20 4 49 21 69 41 l35 35 132 -7 c140 -8 206 -24
284 -70 48 -28 120 -105 140 -150 75 -169 79 -184 58 -238 -14 -38 75 -27 143
17 67 43 67 194 1 288 -14 20 -5 34 14 22 7 -5 42 -9 78 -9 36 -1 169 -4 295
-9 170 -6 262 -5 350 5 187 20 214 19 236 -11 11 -14 30 -51 43 -84 l24 -58
-32 -27 c-55 -48 -162 -109 -219 -125 -30 -9 -93 -33 -139 -55 -47 -21 -109
-42 -138 -46 -29 -4 -69 -14 -89 -22 -30 -13 -92 -16 -346 -15 l-311 0 -91 31
c-51 17 -100 35 -110 40 -10 6 -69 27 -132 48 -63 20 -126 47 -140 59 -14 11
-37 25 -50 29 -13 4 -46 20 -73 36 -27 16 -56 29 -64 29 -19 0 -130 56 -139
70 -4 6 -30 28 -58 49 -86 63 -193 178 -372 401 -37 47 -84 102 -104 123 l-36
38 35 30 c40 33 70 44 99 34 20 -6 20 -8 6 -35 -20 -38 -19 -47 4 -55 24 -7
164 46 209 79 19 14 53 26 85 29 46 6 57 12 94 54 23 27 52 68 64 93 13 25 35
60 50 77 26 31 28 37 23 100 -3 38 -7 79 -10 91 l-5 24 -19 -25 c-11 -14 -20
-31 -20 -39 0 -7 -8 1 -18 17 -11 17 -26 36 -34 43 -17 14 -11 73 8 79 6 2 25
-12 43 -32 17 -20 31 -29 31 -22 0 8 7 20 15 27 17 14 20 51 6 65 -5 6 -14 26
-20 45 -6 19 -37 62 -68 95 -46 47 -64 60 -88 60 -25 0 -30 3 -27 22 2 17 -3
24 -22 29 -14 3 -26 13 -26 20 0 8 -7 17 -15 20 -8 4 -15 14 -15 24 0 38 -77
37 -152 -1 -43 -22 -48 -23 -48 -9 0 5 18 19 39 30 37 18 58 37 50 45 -2 1
-31 -1 -64 -7 -70 -11 -135 -45 -155 -82 -13 -26 -43 -35 -55 -17 -7 12 15 61
29 62 6 1 19 1 28 0 9 -1 34 9 55 22 21 13 59 27 86 31 62 10 51 26 -19 26
-67 0 -178 -52 -217 -101 -28 -36 -58 -33 -32 4 28 40 16 54 -15 17 -34 -41
-43 -19 -9 24 29 37 3 34 -44 -5 -56 -46 -97 -123 -97 -182 0 -52 -13 -87 -33
-87 -15 0 -45 121 -53 210 -3 36 -12 100 -21 142 l-16 76 -50 -4 c-64 -5 -127
-22 -127 -34 0 -6 -16 -30 -35 -56 -42 -55 -45 -96 -13 -196 19 -58 20 -73 10
-101 -18 -50 -15 -88 13 -143 27 -53 31 -84 14 -101 -15 -15 39 -118 86 -163
32 -31 35 -39 30 -71 -5 -27 -1 -45 14 -70 12 -19 21 -43 21 -54 0 -43 58
-144 99 -172 50 -35 53 -42 34 -81 -14 -30 -14 -34 10 -75 27 -46 119 -137
138 -137 8 0 10 -12 5 -40 -5 -32 -2 -47 18 -78 43 -66 88 -102 134 -106 24
-2 45 -6 48 -9 3 -2 -4 -21 -16 -41 -24 -43 -20 -54 37 -107 38 -36 135 -79
178 -79 37 0 51 -25 30 -56 -15 -23 -15 -27 -1 -49 19 -29 108 -87 158 -104
20 -7 53 -9 76 -5 43 7 43 7 57 -63 5 -23 20 -42 58 -70 52 -38 52 -38 153
-38 110 0 139 -11 169 -63 10 -15 36 -40 60 -55 55 -35 147 -37 230 -6 70 26
87 21 78 -22 -9 -46 14 -59 106 -59 87 0 136 13 202 53 54 32 70 29 117 -21
30 -32 35 -34 76 -29 68 10 149 44 194 83 48 41 71 41 91 0 12 -27 16 -28 60
-23 80 10 150 48 219 121 35 36 69 66 75 66 7 0 24 -14 38 -31 l26 -32 52 18
c29 9 80 35 112 57 55 36 59 42 57 74 -1 21 4 40 14 50 14 15 18 14 42 -1 25
-17 29 -17 68 1 41 19 123 107 154 165 10 20 21 29 30 25 48 -18 152 55 184
130 15 33 16 50 9 83 -6 27 -6 48 1 59 5 10 10 12 10 5 0 -7 7 -13 15 -13 8 0
15 -5 15 -10 0 -22 43 18 81 74 l39 58 -6 81 c-5 79 -5 81 13 65 22 -20 72
-12 83 13 22 46 29 83 18 97 -7 8 -11 31 -9 52 1 21 -4 60 -12 87 -8 26 -13
59 -12 73 1 14 3 31 4 38 1 9 6 10 20 2 13 -6 21 -6 23 0 2 6 24 -10 50 -34
27 -25 61 -47 78 -51 32 -7 80 -57 80 -83 0 -22 -54 -162 -85 -222 -13 -25
-38 -75 -55 -112 -17 -38 -35 -68 -40 -68 -12 0 -66 -57 -98 -103 -25 -38 -25
-38 -9 -85 23 -62 21 -120 -3 -157 -19 -29 -108 -79 -408 -231 -71 -36 -103
-59 -139 -102 -61 -71 -229 -196 -320 -238 -73 -34 -103 -43 -338 -108 -166
-46 -263 -63 -400 -70 -220 -12 -221 -13 -244 -57 -39 -75 -50 -73 323 -65
228 5 353 11 401 21 38 8 83 15 100 15 29 0 71 8 275 52 203 44 379 113 514
202 45 29 106 68 136 85 81 48 178 118 254 186 244 217 325 300 370 380 16 28
42 68 58 90 15 22 49 69 75 105 44 61 103 200 103 242 0 10 12 41 26 69 28 56
51 162 53 254 2 57 -7 73 -13 24 -2 -13 -6 -31 -9 -39 -4 -8 -11 -44 -17 -80
-17 -102 -65 -239 -122 -354 -29 -59 -56 -106 -60 -106 -4 0 15 46 42 103 109
227 152 418 152 672 -1 131 -5 184 -27 292 -36 186 -58 265 -100 368 -20 50
-42 106 -48 125 -6 19 -14 37 -17 40 -13 10 -123 214 -123 227 0 7 -2 11 -5 9
-5 -5 -33 32 -131 169 -77 108 -230 277 -242 269 -5 -3 6 -24 24 -47 35 -45
70 -97 64 -97 -2 0 -34 38 -71 85 -80 101 -127 136 -105 78 l10 -28 -33 33
c-35 33 -52 39 -63 23 -3 -6 10 -49 30 -97 19 -48 33 -90 30 -92 -2 -3 -7 4
-11 14 -12 39 -67 144 -75 144 -9 0 -15 -17 -30 -100 -16 -86 -25 -103 -38
-70 -7 18 -10 20 -10 7 -1 -10 -6 -15 -11 -12 -6 4 -18 1 -27 -7 -13 -10 -13
-7 2 17 l19 30 -25 -22 c-41 -37 -44 -26 -4 15 44 44 61 75 90 162 16 48 27
66 42 68 11 2 60 -17 109 -42 48 -26 90 -46 91 -46 11 0 -36 39 -53 44 -11 3
-36 20 -54 36 -42 37 -70 38 -142 3 -44 -22 -57 -33 -58 -51 0 -22 -1 -22 -25
-6 -14 9 -23 19 -20 22 8 9 -16 32 -34 32 -9 0 -27 12 -41 28 -14 15 -21 21
-15 14 5 -8 -14 0 -43 18 -59 36 -71 53 -14 20 l37 -21 -45 40 c-25 22 -39 40
-32 41 29 1 -1 20 -31 20 -18 0 -49 11 -70 25 -37 26 -49 42 -23 32 8 -3 31
-1 51 4 29 8 40 7 53 -4 10 -8 29 -17 45 -21 15 -4 27 -13 27 -22 0 -11 6 -14
16 -10 16 6 52 -13 94 -50 14 -12 34 -25 46 -28 16 -5 20 -12 16 -32 -4 -22
-2 -25 14 -20 11 3 55 7 99 8 78 3 82 2 140 -36 33 -21 79 -57 103 -80 50 -48
98 -56 115 -19 23 50 59 38 147 -49 134 -134 178 -191 221 -291 53 -121 67
-137 122 -137 78 0 117 -37 142 -133 19 -74 19 -147 0 -220 -32 -123 -11 -250
59 -365 55 -89 66 -131 66 -252 0 -106 -3 -121 -70 -410 -9 -41 -31 -106 -48
-145 -43 -98 -112 -303 -112 -331 0 -30 9 -35 53 -27 33 5 40 12 62 59 14 29
30 56 35 59 6 3 10 16 10 28 0 12 18 51 40 87 22 36 47 85 55 110 7 25 32 92
55 150 66 168 80 211 87 269 3 31 15 74 25 95 11 22 21 60 22 86 1 25 6 52 11
60 11 17 8 286 -4 501 -6 102 -15 163 -30 209 -12 36 -20 72 -18 82 3 9 -3 45
-13 80 -10 34 -19 59 -20 53 -1 -5 -5 1 -10 15 -104 317 -166 436 -325 625
-22 26 -53 64 -70 84 -103 124 -186 184 -420 301 -55 28 -111 57 -125 65 -57
33 -104 48 -200 64 -25 4 -61 12 -80 19 -107 35 -514 69 -629 52 -37 -5 -88
-12 -116 -15 -27 -3 -65 -8 -84 -12 -24 -4 -32 -2 -27 6 9 14 0 14 -54 -4
l-45 -15 40 4 40 5 -40 -14 c-22 -7 -53 -13 -70 -13 -30 0 -30 0 -5 9 19 7 16
7 -15 3 -71 -9 -120 -25 -106 -34 9 -5 2 -11 -23 -20 -20 -6 -36 -16 -36 -22
0 -6 7 -7 16 -4 18 7 190 36 213 36 9 0 11 -3 5 -9 -5 -5 -59 -16 -119 -24
-126 -18 -186 -36 -193 -56 -3 -10 2 -12 20 -8 13 4 73 8 134 11 60 2 93 2 74
0 -171 -19 -260 -40 -260 -63 0 -6 17 -13 37 -17 35 -7 36 -8 15 -17 -12 -6
-22 -13 -22 -18 0 -4 28 -33 62 -64 48 -42 56 -54 35 -46 -46 18 -50 15 -43
-29 3 -22 4 -40 2 -40 -2 0 -14 28 -27 63 -16 42 -38 77 -71 110 -26 26 -48
54 -48 62 0 21 89 94 155 126 44 22 52 29 30 25 -54 -7 -150 -63 -198 -115
-58 -62 -60 -88 -12 -125 40 -31 62 -70 105 -188 27 -74 31 -94 29 -177 -3
-117 -16 -137 -82 -125 -23 4 -63 8 -88 9 -48 2 -78 14 -99 39 -7 9 -24 16
-39 16 -24 -1 -23 -3 14 -22 48 -25 50 -26 42 -34 -7 -7 -107 46 -107 58 0 4
-6 8 -13 8 -21 0 -77 64 -77 87 0 12 -5 34 -10 48 -9 22 -15 26 -35 21 -21 -5
-25 -3 -25 14 0 16 5 20 18 16 12 -4 25 6 45 35 24 33 28 46 22 77 -5 34 0 47
48 122 30 47 68 98 83 113 111 109 145 138 189 160 28 14 66 43 86 64 24 26
57 46 103 63 38 14 73 32 80 41 6 9 34 28 61 42 42 22 121 99 149 145 4 7 1
24 -8 37 -9 14 -13 25 -9 25 5 0 1 5 -7 10 -12 8 -11 10 7 10 12 0 25 4 28 10
4 6 13 5 25 -2 15 -10 24 -7 54 15 20 15 48 49 63 75 14 26 28 49 30 51 1 2 9
-1 16 -8 20 -16 45 96 28 127 -19 36 -3 93 40 141 35 39 42 43 73 37 56 -11
86 -41 86 -86 0 -64 -21 -143 -46 -177 -13 -17 -24 -35 -24 -40 0 -4 7 1 15
11 8 11 18 17 21 14 10 -11 -7 -48 -22 -48 -8 0 -14 -5 -14 -11 0 -6 7 -8 15
-5 17 6 31 -17 20 -34 -11 -17 -33 7 -46 50 -9 31 -9 44 5 70 10 22 13 38 6
49 -6 12 -3 31 10 59 11 23 17 42 14 42 -14 0 -68 -49 -86 -78 -19 -32 -20
-43 -14 -158 4 -82 3 -124 -4 -124 -16 0 -11 -72 9 -115 12 -27 31 -46 57 -60
58 -29 75 -46 68 -67 -3 -12 1 -27 13 -40 58 -64 217 -73 292 -16 30 23 44 23
33 1 -17 -33 -3 -43 58 -43 70 0 118 23 171 83 20 22 55 47 80 56 77 29 107
99 74 178 -11 27 -12 39 -4 49 17 21 33 17 101 -25 120 -74 136 -102 101 -177
-18 -36 -18 -37 5 -53 68 -47 103 -86 120 -133 18 -54 46 -87 102 -122 23 -14
40 -36 51 -65 11 -30 29 -53 60 -76 24 -17 59 -48 77 -69 28 -32 32 -43 26
-71 -5 -29 -1 -39 36 -78 37 -41 41 -49 34 -82 -6 -33 -3 -41 33 -78 69 -72
102 -128 122 -208 11 -43 34 -110 51 -150 41 -94 114 -307 130 -379 16 -70 86
-246 112 -282 19 -28 51 -37 63 -18 3 6 15 10 25 10 29 0 33 17 15 56 -13 27
-16 61 -14 157 1 67 -1 147 -5 177 -3 30 -8 108 -11 173 -2 65 -6 121 -9 125
-2 4 -9 65 -15 135 -13 142 -19 166 -33 145 -6 -9 -8 -6 -6 12 2 16 -2 24 -9
23 -18 -4 -30 25 -38 90 -4 32 -13 76 -19 98 l-12 41 -28 -37 -28 -36 20 -47
c24 -56 75 -223 70 -228 -2 -2 -17 34 -32 79 -28 81 -53 137 -147 334 -27 56
-49 104 -49 106 0 2 -36 63 -80 136 -64 106 -78 137 -70 151 15 29 12 35 -9
16 -19 -17 -20 -17 -32 6 -15 30 -200 274 -235 312 -22 23 -28 41 -32 90 -6
86 -12 93 -51 61 l-32 -27 -39 26 c-43 28 -57 15 -20 -19 23 -21 26 -41 8 -48
-7 -3 0 -6 15 -6 31 -1 92 -57 207 -191 91 -106 100 -119 57 -82 -21 17 -41
32 -45 32 -4 0 -32 23 -62 50 -30 28 -90 78 -133 112 -53 43 -73 64 -65 70 9
5 6 8 -9 8 -13 0 -58 25 -100 56 -43 31 -96 65 -118 76 -23 12 -34 23 -27 26
8 2 19 -1 25 -7 13 -13 31 -15 23 -2 -3 5 4 11 17 15 15 4 36 -4 67 -25 l45
-30 -33 31 c-18 17 -30 35 -27 40 3 6 -3 10 -13 10 -11 0 -41 12 -68 26 -39
21 -44 22 -24 5 14 -11 28 -21 33 -21 20 0 3 -16 -30 -27 -33 -10 -42 -8 -100
20 -66 34 -78 47 -40 47 28 1 81 29 55 30 -21 0 -25 36 -5 43 6 3 -23 6 -65 6
-43 1 -78 4 -78 9 0 4 -44 6 -97 5 -78 -2 -91 0 -65 8 19 5 32 16 32 26 0 14
11 15 80 10 45 -3 87 -10 95 -17 8 -6 22 -10 32 -8 25 6 -62 48 -99 48 -37 0
-36 18 2 32 37 13 35 23 -14 62 -34 28 -45 31 -107 31 l-70 0 32 26 32 26 -48
13 c-42 12 -52 12 -76 -3 -42 -24 -49 0 -10 33 28 22 31 28 18 38 -26 22 -124
38 -155 25 -69 -27 -68 -27 -39 0 32 31 34 43 7 57 -20 11 -71 -7 -85 -30 -3
-6 -20 -17 -36 -26 -33 -17 -94 -11 -83 8 5 8 -8 9 -42 5 -68 -8 -104 1 -114
28 -11 28 -35 37 -89 34 -22 -2 -43 0 -47 3 -15 16 10 25 74 26 73 2 132 17
219 54 64 28 67 51 8 58 -33 4 -36 6 -17 12 75 21 -42 36 -308 40 -123 1 -239
-5 -234 -13 2 -4 18 -10 36 -14 l33 -8 -29 -4 c-34 -5 -89 15 -83 31 11 29
-18 43 -101 49 -45 2 -89 10 -97 17 -11 9 -23 3 -63 -34z m82 -31 c-16 -25
-34 -33 -34 -16 0 12 29 41 41 41 5 0 2 -11 -7 -25z m639 -32 c20 -3 37 -10
37 -15 0 -6 -13 -8 -32 -3 -18 3 -57 9 -86 12 -48 4 -54 3 -59 -15 -8 -31 -83
-42 -83 -13 0 4 17 12 38 19 l37 11 -45 -4 -45 -4 50 14 c47 13 88 13 188 -2z
m-281 -43 c14 0 18 5 14 15 -3 9 0 15 9 15 24 0 17 -27 -11 -49 -21 -17 -23
-21 -9 -21 13 0 16 -6 11 -23 -5 -21 -2 -23 27 -20 22 2 41 -4 61 -21 l29 -24
-30 -6 c-24 -6 -42 0 -82 23 -52 31 -96 38 -136 22 -11 -5 -26 -6 -33 -3 -14
5 36 40 91 64 15 7 27 16 27 20 0 11 -8 10 -64 -7 -27 -8 -56 -15 -65 -14 -9
0 12 9 47 19 35 9 69 23 75 29 9 9 13 9 15 -3 2 -9 13 -16 24 -16z m228 20 c0
-5 -5 -10 -11 -10 -5 0 -7 5 -4 10 3 6 8 10 11 10 2 0 4 -4 4 -10z m-881 -16
c13 -13 -11 -12 -45 1 l-39 15 40 -6 c22 -3 42 -8 44 -10z m916 6 c3 -5 1 -10
-4 -10 -6 0 -11 5 -11 10 0 6 2 10 4 10 3 0 8 -4 11 -10z m-415 -10 c-14 -4
-56 -8 -95 -7 -68 0 -69 0 -20 7 28 4 70 7 95 7 36 1 40 -1 20 -7z m-655 -9
c-3 -5 -1 -12 4 -16 6 -3 8 -12 5 -19 -3 -8 2 -16 13 -19 14 -4 14 -5 2 -6
-22 -1 -51 33 -43 53 3 9 10 16 16 16 5 0 7 -4 3 -9z m459 -46 c23 -34 20 -73
-8 -109 -13 -17 -25 -35 -27 -41 -6 -16 -189 -134 -189 -122 0 2 24 20 53 39
66 45 147 116 147 131 0 6 -11 0 -25 -13 -39 -37 -39 -18 1 26 33 36 35 41 25
70 -6 17 -11 33 -11 37 0 15 19 5 34 -18z m79 6 c3 -13 21 -25 53 -35 48 -14
45 -20 -6 -16 -14 1 -33 7 -44 12 -12 6 -21 7 -25 0 -3 -5 -13 5 -21 22 -15
32 -15 32 11 34 19 2 28 -3 32 -17z m-418 -1 c-11 -5 -27 -9 -35 -9 -13 -1
-13 0 0 9 8 5 24 9 35 9 l20 0 -20 -9z m-78 -77 c-3 -10 -5 -2 -5 17 0 19 2
27 5 18 2 -10 2 -26 0 -35z m73 14 c0 -5 -4 -5 -10 -2 -5 3 -10 14 -10 23 0
15 2 15 10 2 5 -8 10 -19 10 -23z m57 11 c-3 -8 -6 -5 -6 6 -1 11 2 17 5 13 3
-3 4 -12 1 -19z m345 -37 c-3 -22 0 -30 15 -34 13 -3 11 -5 -7 -6 -15 0 -31
-6 -38 -13 -9 -9 -12 -9 -12 -1 0 7 4 14 9 18 5 3 12 19 16 35 8 39 23 39 17
1z m192 15 c-3 -7 8 -24 24 -38 27 -22 32 -48 11 -48 -6 0 -7 5 -4 10 3 6 1
10 -6 10 -6 0 -34 15 -61 33 l-51 32 34 6 c54 10 59 10 53 -5z m117 -32 c8 -8
19 -14 23 -14 5 0 22 -6 39 -14 42 -18 97 -36 111 -36 6 1 -16 15 -49 32 -57
30 -59 31 -36 42 20 9 27 6 45 -14 12 -14 34 -31 49 -39 40 -21 28 -34 -44
-49 -56 -11 -72 -11 -127 4 -64 17 -78 26 -67 44 7 11 54 -7 71 -27 8 -9 23
-10 55 -5 l44 8 -45 16 c-25 8 -68 30 -95 47 -43 28 -46 32 -20 26 17 -4 37
-13 46 -21z m-1395 -31 c-1 -27 -3 -28 -56 -29 -52 0 -53 0 -25 12 17 7 35 13
41 14 6 0 17 7 24 15 17 20 17 19 16 -12z m1171 -29 c13 -4 20 -11 17 -16 -4
-6 2 -7 16 -3 19 6 21 4 15 -17 -10 -33 -15 -35 -27 -15 -5 10 -24 27 -41 38
-32 19 -23 24 20 13z m670 0 c-3 -3 -12 -4 -19 -1 -8 3 -5 6 6 6 11 1 17 -2
13 -5z m-1046 -41 c13 -16 12 -17 -3 -4 -10 7 -18 15 -18 17 0 8 8 3 21 -13z
m1109 -17 c57 -10 70 -10 70 1 0 7 -5 13 -12 13 -6 0 -9 2 -6 5 9 9 38 -7 32
-17 -4 -6 2 -8 15 -3 16 5 21 2 21 -11 0 -12 3 -14 13 -6 9 8 24 5 55 -8 38
-17 42 -22 32 -40 -13 -23 -26 -25 -60 -5 -14 8 -29 14 -35 14 -5 0 7 -9 27
-20 35 -18 37 -21 26 -44 -13 -29 -23 -30 -72 -10 -31 13 -35 18 -26 35 5 10
15 22 20 25 21 13 8 24 -50 44 -33 11 -58 16 -55 12 2 -5 25 -14 50 -21 25 -7
45 -15 45 -19 0 -3 -8 -16 -18 -29 -17 -23 -19 -23 -76 -8 -32 9 -62 13 -66
11 -5 -3 -10 14 -12 38 -3 23 -8 51 -13 62 -8 18 -7 19 8 6 9 -7 49 -19 87
-25z m-2050 -26 c-24 -33 -22 -32 -45 -24 -14 6 -13 9 6 30 12 13 31 24 41 24
18 0 18 -1 -2 -30z m843 -30 c-6 -7 -23 23 -23 40 0 8 6 4 13 -10 8 -14 12
-27 10 -30z m52 40 c3 -5 1 -10 -4 -10 -6 0 -11 5 -11 10 0 6 2 10 4 10 3 0 8
-4 11 -10z m-115 -50 c12 -23 12 -24 -3 -11 -10 7 -17 20 -17 29 0 18 3 16 20
-18z m1040 21 c8 11 12 10 25 -9 9 -12 20 -20 25 -17 10 6 35 -55 44 -108 5
-27 4 -37 -3 -32 -6 3 -11 17 -11 29 0 23 -63 116 -79 116 -4 0 -7 -44 -7 -97
l1 -97 -31 -9 c-27 -8 -36 -20 -64 -83 -17 -40 -39 -79 -48 -86 -11 -9 -14
-10 -8 -1 9 17 -11 53 -30 53 -9 0 -12 5 -8 11 4 7 0 9 -13 5 -11 -4 -33 -2
-48 4 -20 7 -31 7 -41 -1 -9 -8 -14 -8 -14 -1 0 6 5 14 11 17 6 4 8 13 5 21
-3 8 0 14 6 14 7 0 3 7 -8 15 -31 23 -3 17 54 -12 45 -24 54 -26 62 -13 16 25
15 135 -1 178 -9 22 -7 24 15 18 14 -3 27 -2 31 4 3 5 12 7 20 3 18 -6 20 8 3
25 -9 9 -9 12 1 12 8 0 11 6 7 16 -4 12 -2 15 9 10 8 -3 15 -1 15 4 0 13 43
18 58 6 9 -7 16 -5 22 5z m-1880 -17 c11 -12 10 -18 -3 -32 -16 -15 -17 -15
-17 0 0 9 -3 23 -6 32 -8 20 10 21 26 0z m1300 6 c0 -5 -2 -10 -4 -10 -3 0 -8
5 -11 10 -3 6 -1 10 4 10 6 0 11 -4 11 -10z m-206 -13 c-2 -7 -16 -14 -29 -15
-31 -2 -32 6 -2 18 31 12 37 12 31 -3z m1365 -48 c50 -33 94 -65 97 -70 3 -5
-13 -9 -36 -9 -29 0 -54 9 -89 33 -27 17 -63 40 -81 50 -32 17 -32 18 -15 37
10 11 21 20 26 20 4 0 48 -27 98 -61z m-2542 4 c-9 -15 -28 -39 -43 -53 -26
-24 -26 -23 4 14 17 22 29 43 26 48 -3 5 0 16 7 25 19 22 23 -1 6 -34z m451
40 c-10 -2 -26 -2 -35 0 -10 3 -2 5 17 5 19 0 27 -2 18 -5z m136 -12 c4 -5 -3
-7 -14 -4 -23 6 -26 13 -6 13 8 0 17 -4 20 -9z m468 -3 c-16 -20 -72 -50 -72
-40 0 11 59 52 74 52 5 0 4 -6 -2 -12z m-1121 -18 c-13 -11 -35 -20 -50 -19
-24 0 -22 2 14 19 52 24 66 24 36 0z m409 16 c0 -2 -7 -7 -16 -10 -8 -3 -12
-2 -9 4 6 10 25 14 25 6z m210 -61 c114 -74 189 -182 228 -325 18 -68 36 -190
27 -190 -2 0 -26 14 -54 31 -46 29 -51 36 -57 78 -3 25 -20 81 -36 124 -25 65
-41 90 -96 145 -64 64 -121 114 -135 120 -4 1 -14 2 -23 2 -11 0 -14 5 -10 16
5 13 1 15 -21 10 l-28 -6 28 15 c15 9 31 13 36 11 5 -3 12 1 15 9 9 24 47 12
126 -40z m1864 15 c-22 -9 -29 -6 -20 9 4 6 14 7 23 4 15 -6 14 -7 -3 -13z
m-2244 0 c-8 -5 -10 -10 -4 -10 5 0 15 5 20 10 12 12 144 2 144 -10 0 -12 -75
-20 -173 -19 -98 1 -114 -6 -174 -72 -19 -21 -43 -39 -52 -39 -9 0 -21 -4 -26
-9 -12 -10 -75 -20 -93 -14 -9 4 -10 8 -2 18 7 8 24 11 48 8 52 -7 100 27 132
94 l25 53 85 0 c59 0 80 -3 70 -10z m785 0 c3 -5 1 -10 -4 -10 -6 0 -11 5 -11
10 0 6 2 10 4 10 3 0 8 -4 11 -10z m755 -26 c0 -8 -4 -12 -10 -9 -5 3 -10 10
-10 16 0 5 5 9 10 9 6 0 10 -7 10 -16z m-1817 -28 c-36 -32 -74 -56 -88 -56
-9 0 108 89 118 90 4 0 -10 -15 -30 -34z m2481 -31 c-37 -36 -72 -65 -78 -65
-6 0 1 10 17 21 33 25 36 45 5 28 l-23 -12 20 23 c18 20 100 68 118 70 4 0
-22 -29 -59 -65z m-2044 36 c0 -25 -119 -94 -140 -81 -9 6 4 17 46 39 58 31
56 32 -33 11 -22 -5 -36 -4 -43 5 -7 9 -2 12 23 14 17 1 48 5 67 10 48 12 80
13 80 2z m-610 -38 c0 -5 -7 -16 -14 -26 -16 -20 -30 -8 -20 17 6 16 34 23 34
9z m310 -17 c0 -2 -7 -7 -16 -10 -8 -3 -12 -2 -9 4 6 10 25 14 25 6z m1965
-13 c12 -17 9 -53 -5 -53 -10 0 -20 26 -20 51 0 23 9 24 25 2z m-1965 -18 c-7
-8 -24 -15 -39 -14 -24 0 -24 1 9 14 45 17 44 17 30 0z m114 6 c8 -12 -18 -21
-60 -21 -32 0 -42 8 -27 23 10 10 81 8 87 -2z m2703 -27 c-3 -4 -37 -17 -74
-29 -53 -17 -79 -21 -118 -15 -27 4 -38 8 -23 9 15 0 33 7 40 14 7 6 38 14 68
16 30 1 57 5 59 7 7 7 55 4 48 -2z m-463 -27 c45 23 40 9 -9 -26 -49 -35 -70
-67 -80 -123 -7 -39 7 -78 29 -78 15 0 29 -27 21 -40 -3 -4 -19 -10 -37 -13
-18 -3 -42 -8 -54 -12 -19 -6 -22 -2 -27 37 -5 33 -2 46 10 55 10 8 16 32 18
68 4 57 17 88 57 125 19 18 24 19 33 6 9 -12 14 -12 39 1z m-2709 -7 c-3 -5
-12 -10 -18 -10 -7 0 -6 4 3 10 19 12 23 12 15 0z m112 -1 c-14 -8 -22 -8 -30
0 -8 8 -3 11 19 11 25 -1 27 -2 11 -11z m43 -28 c5 -11 9 -37 9 -58 -1 -21 -3
-30 -6 -20 -5 18 -23 24 -23 7 0 -24 -18 -7 -22 20 -3 17 -1 30 3 30 4 0 5 9
2 20 -7 27 23 27 37 1z m685 -1 c10 -11 16 -20 13 -20 -3 0 -13 9 -23 20 -10
11 -16 20 -13 20 3 0 13 -9 23 -20z m-962 -46 c-51 -59 -88 -84 -124 -84 -12
0 -31 -8 -42 -17 -16 -14 -19 -15 -15 -3 2 8 33 29 69 46 35 18 82 50 104 73
58 60 64 50 8 -15z m937 21 c-7 -9 -15 -13 -17 -11 -7 7 7 26 19 26 6 0 6 -6
-2 -15z m-590 1 c0 -3 -4 -8 -10 -11 -5 -3 -10 -1 -10 4 0 6 5 11 10 11 6 0
10 -2 10 -4z m173 -26 c41 -25 31 -25 -23 -1 -24 11 -50 17 -58 13 -10 -4 -13
-1 -8 7 10 15 44 8 89 -19z m551 -46 c22 5 25 1 42 -62 39 -141 14 -535 -37
-587 -16 -17 -21 -18 -28 -6 -10 15 -18 -9 -45 -129 -8 -36 -15 -55 -15 -42
-1 12 -5 22 -11 22 -5 0 -10 4 -10 10 0 5 6 9 12 7 7 -1 14 8 16 21 2 12 -1
22 -7 22 -16 0 -13 27 3 33 23 9 37 140 23 202 -5 21 -5 26 2 15 15 -21 18
-13 30 73 9 67 9 83 -5 109 -15 28 -15 30 0 25 15 -6 16 2 15 61 -1 92 -7 111
-29 105 -10 -3 -21 0 -24 6 -4 7 1 11 13 11 30 0 27 32 -10 110 l-30 65 35
-39 c28 -30 41 -37 60 -32z m2081 -4 c9 -32 3 -25 -19 20 -12 25 -13 31 -3 20
8 -8 18 -26 22 -40z m65 35 c0 -8 -2 -15 -4 -15 -2 0 -6 7 -10 15 -3 8 -1 15
4 15 6 0 10 -7 10 -15z m-3247 -52 c-76 -91 -143 -122 -156 -73 -5 18 -3 18
18 4 21 -14 26 -12 72 25 27 21 61 52 74 69 13 16 26 28 28 26 2 -2 -14 -25
-36 -51z m2112 38 c-4 -12 0 -23 10 -28 13 -8 11 -13 -15 -38 l-31 -29 -23 29
-24 30 27 11 c14 6 32 18 40 27 18 22 24 21 16 -2z m-1856 -83 c-43 -108 -49
-116 -70 -111 -10 3 -24 12 -31 21 -11 13 -10 14 9 4 12 -7 26 -12 31 -12 9 0
28 39 58 123 9 26 20 47 24 47 4 0 -5 -33 -21 -72z m2744 58 c65 -27 119 -124
98 -178 -13 -34 -46 -60 -89 -68 -34 -7 -33 -8 21 -9 50 -1 57 -3 57 -21 0
-12 7 -20 18 -20 16 -1 16 -1 0 -11 -22 -12 -114 -16 -153 -6 -17 4 -25 4 -17
-1 7 -5 10 -16 6 -25 -4 -12 1 -20 17 -26 16 -7 19 -10 7 -10 -9 -1 -42 9 -75
21 -65 25 -143 95 -160 145 l-11 31 64 17 c56 15 64 20 64 42 0 34 24 76 60
107 36 30 48 31 93 12z m-612 -39 c-12 -25 -17 -29 -19 -16 -4 22 16 61 27 54
5 -2 1 -20 -8 -38z m-2116 -98 c-19 -52 -44 -112 -55 -134 l-20 -40 4 34 c3
19 10 37 16 41 6 4 16 27 21 51 16 71 64 187 67 163 2 -12 -13 -64 -33 -115z
m2924 7 c-5 -16 -11 -31 -15 -35 -4 -3 -4 2 -1 12 4 10 7 37 8 60 1 35 2 38 8
17 4 -14 4 -38 0 -54z m-3191 18 c-4 -3 -12 5 -18 18 -12 22 -12 22 6 6 10
-10 15 -20 12 -24z m197 -2 c-3 -3 -11 0 -18 7 -9 10 -8 11 6 5 10 -3 15 -9
12 -12z m-251 -18 c10 -25 -1 -29 -14 -5 -6 12 -7 21 -1 21 5 0 12 -7 15 -16z
m1307 -78 c16 -12 20 -20 12 -23 -7 -3 -13 -12 -14 -21 0 -11 -2 -12 -6 -4 -2
6 -9 10 -14 6 -5 -3 -9 0 -9 5 0 25 -28 8 -37 -21 -8 -29 -9 -23 -10 40 l0 72
27 -17 c14 -10 37 -26 51 -37z m1445 -66 c35 -12 35 -12 15 -27 -12 -8 -27
-11 -34 -7 -7 5 -6 0 3 -11 13 -17 13 -18 0 -10 -36 20 -64 54 -86 104 -13 29
-24 56 -24 58 0 3 20 -18 45 -45 26 -29 61 -56 81 -62z m-2376 86 c0 -2 -13
-9 -30 -15 -16 -5 -30 -6 -30 -1 0 5 8 11 18 13 24 7 42 8 42 3z m-175 -16 c3
-5 2 -10 -4 -10 -5 0 -13 5 -16 10 -3 6 -2 10 4 10 5 0 13 -4 16 -10z m2065
-20 c-9 -16 -15 -19 -23 -11 -8 8 -6 15 9 25 24 18 29 14 14 -14z m-2080 -42
c0 -6 -6 -5 -15 2 -8 7 -15 14 -15 16 0 2 7 1 15 -2 8 -4 15 -11 15 -16z
m-366 -22 l27 -14 -33 -5 c-29 -4 -88 15 -88 28 0 11 69 4 94 -9z m3381 4 c-3
-5 -12 -10 -18 -10 -7 0 -6 4 3 10 19 12 23 12 15 0z m-3020 -27 c9 4 12 1 8
-9 -3 -8 -12 -13 -20 -10 -8 4 -26 9 -39 12 -13 3 -24 10 -24 15 0 4 14 3 30
-3 17 -5 37 -8 45 -5z m1920 -22 c-7 -23 -25 -29 -25 -8 0 14 21 39 28 33 2
-3 1 -14 -3 -25z m1316 2 c-12 -20 -14 -14 -5 12 4 9 9 14 11 11 3 -2 0 -13
-6 -23z m409 3 c0 -14 5 -28 10 -31 8 -5 7 -11 -1 -21 -9 -11 -16 -11 -47 1
-19 9 -37 13 -40 10 -3 -3 -12 1 -20 7 -11 10 -6 16 35 34 62 29 63 29 63 0z
m-3595 -6 c-10 -11 -23 -20 -29 -20 -6 0 0 9 14 20 32 25 38 25 15 0z m3669
-9 c-2 -3 -12 3 -22 13 -16 17 -16 18 5 5 12 -7 20 -15 17 -18z m46 -43 c0 -6
-7 -5 -15 2 -8 7 -15 17 -15 22 0 6 7 5 15 -2 8 -7 15 -17 15 -22z m-2184 -6
c-2 -4 -26 -23 -53 -41 -55 -39 -47 -27 12 18 42 32 49 36 41 23z m2327 -161
c28 -48 14 -37 -34 27 -24 31 -56 71 -71 87 -16 17 -28 34 -28 38 0 12 112
-117 133 -152z m-2177 104 c-4 -14 -11 -25 -16 -25 -13 0 -13 16 1 42 14 26
23 16 15 -17z m120 -1 c-30 -21 -44 -16 -17 7 13 11 27 17 30 13 3 -3 -3 -12
-13 -20z m-926 -4 c0 -5 -7 -10 -15 -10 -8 0 -15 5 -15 10 0 6 7 10 15 10 8 0
15 -4 15 -10z m2848 -12 c10 -14 5 -78 -7 -78 -4 0 -13 6 -20 13 -11 10 -11 8
-1 -11 19 -39 2 -38 -37 0 -37 37 -37 64 0 54 11 -3 29 0 40 6 16 8 17 12 6
19 -8 5 -9 9 -3 9 6 0 16 -6 22 -12z m-2298 -2 c0 -2 -8 -10 -17 -17 -16 -13
-17 -12 -4 4 13 16 21 21 21 13z m-117 -98 c-28 -29 -67 -75 -87 -101 -38 -51
-45 -49 -22 6 16 38 49 77 65 77 6 0 11 4 11 9 0 7 68 59 80 60 2 1 -19 -23
-47 -51z m263 15 c-10 -10 -19 5 -10 18 6 11 8 11 12 0 2 -7 1 -15 -2 -18z
m-39 5 c-2 -7 -10 -12 -17 -10 -6 1 -14 -7 -17 -18 -6 -23 -23 -27 -23 -6 0
15 36 46 53 46 5 0 7 -6 4 -12z m-406 -45 c13 -16 12 -17 -3 -4 -17 13 -22 21
-14 21 2 0 10 -8 17 -17z m2645 -34 c19 -22 19 -22 -3 -8 -13 8 -23 17 -23 21
0 12 6 9 26 -13z m199 -93 c31 -48 52 -85 46 -82 -12 8 -101 138 -121 177 -25
49 17 -4 75 -95z m-2810 39 c4 -25 3 -36 -3 -30 -5 6 -12 28 -15 49 -8 51 8
33 18 -19z m-1875 15 c-6 -11 -13 -20 -16 -20 -2 0 0 9 6 20 6 11 13 20 16 20
2 0 0 -9 -6 -20z m2805 0 c-3 -5 -16 -10 -28 -10 -18 0 -19 2 -7 10 20 13 43
13 35 0z m-2145 -4 c0 -2 -8 -10 -17 -17 -16 -13 -17 -12 -4 4 13 16 21 21 21
13z m1035 -51 c15 1 59 26 67 39 4 6 4 -61 1 -149 -9 -234 12 -324 100 -437
23 -30 25 -38 12 -38 -9 0 -13 -4 -10 -10 3 -5 15 -10 27 -10 22 0 142 -76
144 -91 3 -20 4 -21 17 -12 8 7 29 3 66 -12 l54 -22 -34 -11 c-66 -19 -177 8
-126 32 6 4 -3 4 -22 1 -27 -4 -48 3 -100 32 -175 97 -260 267 -248 493 8 130
29 265 37 225 3 -17 10 -30 15 -30z m1568 48 c-7 -2 -21 -2 -30 0 -10 3 -4 5
12 5 17 0 24 -2 18 -5z m-1193 -48 c-7 -8 -16 -15 -21 -15 -15 0 -10 22 9 43
15 17 17 17 20 3 2 -9 -2 -23 -8 -31z m1329 29 c8 -7 -63 -2 -94 7 -20 5 -9 6
30 2 33 -3 62 -7 64 -9z m1167 -25 c48 -12 56 -24 22 -32 -22 -6 -22 -6 -2
-28 19 -22 19 -22 -1 -11 -29 15 -91 82 -76 82 7 0 32 -5 57 -11z m-986 -14
c74 -18 112 -32 194 -69 68 -30 155 -96 128 -96 -8 0 -68 27 -133 60 -66 33
-152 69 -192 81 -40 11 -81 24 -92 29 -34 15 32 11 95 -5z m-1690 -14 c-17
-34 -41 -163 -41 -229 0 -36 -4 -60 -10 -57 -12 8 -11 168 2 225 5 25 20 53
32 62 28 22 30 22 17 -1z m-1643 -65 c-9 -95 -44 -166 -82 -166 -10 0 -3 19
21 61 38 64 41 91 5 41 -26 -37 -148 -144 -133 -117 6 11 32 43 59 70 72 76
113 126 113 137 0 6 -9 -1 -20 -15 -11 -14 -48 -45 -83 -70 -94 -68 -110 -89
-118 -155 -4 -31 -9 -66 -12 -77 -3 -11 -6 -23 -6 -26 -1 -3 -12 -18 -26 -33
l-24 -26 38 -19 c36 -19 39 -19 55 -3 16 16 17 15 5 -11 -11 -24 -10 -30 2
-38 8 -5 9 -9 3 -9 -6 0 -17 7 -25 16 -19 23 -65 44 -97 44 -26 0 -29 3 -24
25 2 14 8 22 13 19 15 -9 46 14 59 46 8 20 10 47 6 78 -17 114 -15 163 5 131
6 -11 13 -9 31 7 13 12 43 33 68 48 66 39 80 48 123 79 22 15 42 27 45 27 3 0
2 -29 -1 -64z m2511 57 c-10 -2 -28 -2 -40 0 -13 2 -5 4 17 4 22 1 32 -1 23
-4z m65 0 c-7 -2 -19 -2 -25 0 -7 3 -2 5 12 5 14 0 19 -2 13 -5z m-2823 -42
c0 -31 -4 -40 -21 -44 -19 -5 -20 -3 -14 31 6 30 19 51 33 52 1 0 2 -17 2 -39z
m830 19 c20 -6 21 -8 5 -8 -11 0 -29 3 -40 8 -25 11 1 11 35 0z m2384 -21 c-6
-11 -35 -11 -51 -1 -8 5 1 8 22 9 19 1 32 -3 29 -8z m144 -22 c10 -8 31 -14
48 -14 33 0 106 -31 111 -49 2 -6 -12 -15 -32 -21 -20 -6 -35 -7 -35 -2 0 5
-13 9 -29 9 -15 0 -40 9 -53 20 -14 10 -28 17 -31 14 -3 -3 -29 5 -57 17 -48
21 -51 24 -34 36 22 16 89 10 112 -10z m-785 -34 c-7 -2 -19 -2 -25 0 -7 3 -2
5 12 5 14 0 19 -2 13 -5z m-2583 -19 c0 -14 -3 -14 -15 -4 -8 7 -15 14 -15 16
0 2 7 4 15 4 8 0 15 -7 15 -16z m1981 -54 l-7 -35 -18 33 c-10 19 -14 42 -10
54 6 20 7 20 24 2 15 -15 17 -27 11 -54z m-1341 36 c0 -20 -12 -26 -40 -19
-22 6 -22 7 -5 20 24 17 45 17 45 -1z m2117 8 c-3 -3 -12 -4 -19 -1 -8 3 -5 6
6 6 11 1 17 -2 13 -5z m208 -11 l48 -16 -22 -18 c-21 -17 -24 -17 -89 13 -37
17 -69 32 -71 34 -12 11 92 2 134 -13z m1844 -13 c11 -24 11 -24 -3 -6 -9 11
-16 24 -16 30 0 12 5 7 19 -24z m-3916 -17 c4 -2 7 -11 7 -18 0 -11 -12 -8
-47 11 -34 18 -57 24 -78 20 -27 -5 -28 -4 -12 8 16 12 26 12 70 -1 29 -8 55
-17 60 -20z m2678 5 c0 -10 2 -10 6 0 3 8 9 10 16 3 7 -5 25 -11 40 -13 15 -1
28 -7 28 -13 0 -14 -44 -24 -58 -12 -9 6 -13 6 -13 -2 0 -17 -47 -13 -54 4 -3
8 -9 15 -13 14 -18 -3 -33 2 -33 10 0 6 15 12 33 14 17 2 35 5 40 5 4 1 7 -4
8 -10z m1179 -8 c12 -8 12 -10 -5 -10 -11 0 -27 -4 -35 -10 -12 -7 -12 -12 4
-29 11 -12 15 -21 10 -21 -11 0 -44 52 -44 69 0 14 50 14 70 1z m-1646 -21
c56 -22 73 -39 37 -39 -11 0 -22 -4 -25 -9 -7 -11 28 -21 82 -21 23 0 42 -5
42 -10 0 -6 -15 -10 -32 -9 -18 1 -40 -1 -49 -5 -9 -4 -25 2 -41 17 -15 14
-38 27 -53 31 -15 4 -38 14 -51 23 l-25 16 23 12 c31 18 29 18 92 -6z m948
-20 c71 -55 230 -220 281 -291 48 -67 48 -68 32 -99 -9 -17 -20 -27 -24 -23
-4 5 -38 56 -76 114 -78 118 -162 214 -245 278 -78 62 -80 64 -43 59 18 -3 52
-20 75 -38z m-356 -10 c5 -8 8 -8 13 0 5 8 18 3 42 -14 19 -14 41 -28 49 -31
9 -3 20 -15 25 -27 6 -11 23 -24 39 -28 30 -8 76 -46 76 -63 0 -5 -13 3 -30
19 -16 16 -30 24 -30 19 0 -5 27 -36 61 -68 33 -32 67 -69 76 -82 14 -22 13
-26 -9 -52 l-23 -29 -61 56 c-33 31 -94 84 -135 118 -118 99 -125 105 -109 97
21 -10 92 -67 173 -137 68 -60 85 -70 45 -25 -13 13 -42 46 -65 72 -24 27 -43
43 -43 37 0 -7 -17 1 -37 17 -21 16 -67 48 -103 70 -40 26 -59 43 -50 46 8 2
22 7 30 9 27 9 59 7 66 -4z m-3816 -19 c-6 -11 -13 -20 -16 -20 -2 0 0 9 6 20
6 11 13 20 16 20 2 0 0 -9 -6 -20z m281 6 c5 3 9 1 9 -4 0 -10 -132 -103 -138
-97 -2 2 -1 17 3 34 5 24 12 31 30 31 13 0 37 11 52 24 15 14 30 20 31 15 2
-5 8 -7 13 -3z m2527 -16 c34 -16 62 -34 62 -39 0 -5 11 -12 24 -15 13 -3 38
-22 55 -41 17 -19 37 -35 45 -35 19 0 175 -149 189 -180 6 -14 11 -41 12 -62
l1 -36 -114 119 c-63 65 -119 119 -124 119 -6 0 -4 -8 3 -17 11 -15 10 -15 -8
1 -13 10 -20 22 -18 26 7 11 -30 41 -46 38 -8 -2 -13 2 -12 9 2 7 -24 31 -57
54 -33 23 -60 48 -60 55 0 8 -9 14 -20 14 -11 0 -20 5 -20 10 0 17 24 11 88
-20z m-2745 -51 c-5 -5 -6 11 -3 34 4 41 5 41 8 8 2 -18 0 -37 -5 -42z m2642
53 c-3 -3 -11 0 -18 7 -9 10 -8 11 6 5 10 -3 15 -9 12 -12z m-1552 -6 c27 -21
20 -28 -13 -11 -16 9 -30 18 -30 20 0 10 25 4 43 -9z m-1121 -58 c-6 -24 -20
-61 -31 -83 l-21 -40 6 45 c6 45 43 134 52 125 3 -2 0 -24 -6 -47z m1957 -43
c1 -16 -1 -17 -9 -5 -5 8 -9 29 -9 45 1 29 1 29 9 5 4 -14 8 -34 9 -45z m-300
20 c18 -18 11 -17 -94 11 l-50 14 64 -5 c41 -3 71 -11 80 -20z m3281 -35 c0
-4 -11 -5 -25 -2 -29 5 -31 -4 -7 -39 46 -69 57 -86 76 -106 11 -13 15 -23 9
-23 -13 0 -153 182 -147 191 5 8 94 -12 94 -21z m-5056 -67 c7 -46 -8 -61 -17
-17 -4 23 2 70 8 62 1 -2 5 -22 9 -45z m23 15 c-3 -7 -5 -2 -5 12 0 14 2 19 5
13 2 -7 2 -19 0 -25z m293 -3 c-7 -9 -15 -13 -19 -10 -3 3 1 10 9 15 21 14 24
12 10 -5z m2775 -55 c10 -11 16 -20 13 -20 -3 0 -13 9 -23 20 -10 11 -16 20
-13 20 3 0 13 -9 23 -20z m-2955 -9 c0 -12 -39 -25 -48 -16 -7 7 17 25 36 25
6 0 12 -4 12 -9z m98 -60 c13 -23 19 -41 14 -41 -5 0 -15 12 -22 28 -7 15 -15
22 -17 15 -2 -7 1 -22 7 -33 21 -39 4 -31 -23 11 -27 41 -33 60 -21 72 12 12
39 -11 62 -52z m1637 29 c25 -28 15 -33 -30 -14 -29 12 -35 18 -24 25 21 13
34 11 54 -11z m-1835 -30 c-6 -11 -13 -20 -16 -20 -2 0 0 9 6 20 6 11 13 20
16 20 2 0 0 -9 -6 -20z m3451 -44 c36 -7 81 -18 100 -24 19 -6 52 -14 73 -19
60 -12 68 -35 26 -76 -19 -18 -54 -56 -77 -83 -31 -38 -55 -55 -95 -70 -53
-20 -53 -20 -94 1 -23 11 -49 28 -58 37 -24 25 -81 33 -129 17 -33 -11 -41
-11 -45 -1 -2 8 -16 18 -30 23 -19 7 -23 12 -14 18 7 4 12 12 11 17 -3 19 3
21 48 13 31 -6 50 -5 59 2 8 6 20 9 29 6 8 -4 17 -2 20 3 8 13 -6 41 -17 34
-25 -16 7 45 42 79 44 41 56 43 151 23z m1649 -8 c0 -13 -43 -6 -47 8 -2 7 6
10 22 7 14 -3 25 -10 25 -15z m-510 -18 c0 -5 12 -21 28 -37 51 -54 81 -126
58 -141 -6 -3 2 -9 18 -12 24 -4 31 -13 42 -50 8 -25 14 -46 14 -47 0 -2 -7
-3 -15 -3 -8 0 -15 -4 -15 -10 0 -5 7 -10 15 -10 8 0 15 -3 16 -7 0 -5 2 -17
4 -28 5 -28 -16 -52 -50 -57 -26 -3 -31 1 -44 37 -42 119 -66 179 -103 258
l-40 89 23 24 c17 18 25 21 36 13 7 -6 13 -15 13 -19z m-1400 -1 c0 -6 -4 -7
-10 -4 -5 3 -10 11 -10 16 0 6 5 7 10 4 6 -3 10 -11 10 -16z m-2931 -51 c26
-77 27 -100 1 -34 -11 27 -24 52 -30 56 -9 6 -4 40 5 40 2 0 13 -28 24 -62z
m1256 32 c9 -16 13 -30 11 -30 -3 0 -12 14 -21 30 -9 17 -13 30 -11 30 3 0 12
-13 21 -30z m-1556 -63 c1 -36 -4 -54 -21 -72 l-23 -24 1 27 c0 15 7 55 14 90
16 71 28 62 29 -21z m259 -17 c0 -8 -6 1 -13 20 -7 19 -13 42 -13 50 0 8 6 -1
13 -20 7 -19 13 -42 13 -50z m2332 60 c0 -5 -9 -10 -19 -10 -11 0 -23 5 -26
10 -4 6 5 10 19 10 14 0 26 -4 26 -10z m-986 -55 c-3 -7 11 -24 31 -39 19 -15
35 -34 35 -42 0 -7 5 -14 10 -14 6 0 10 -15 10 -34 0 -19 4 -37 9 -40 5 -3 11
-20 13 -37 5 -30 4 -31 -9 -13 -17 23 -133 239 -133 248 0 3 9 1 19 -6 10 -6
17 -17 15 -23z m525 9 c2 -2 2 -6 -1 -9 -9 -9 -58 6 -58 17 0 9 49 3 59 -8z
m-1778 -27 c-10 -9 -11 -8 -5 6 3 10 9 15 12 12 3 -3 0 -11 -7 -18z m2399 7
c0 -2 -9 -4 -21 -4 -11 0 -18 4 -14 10 5 8 35 3 35 -6z m2567 -26 c-3 -8 -6
-5 -6 6 -1 11 2 17 5 13 3 -3 4 -12 1 -19z m-4076 -5 c13 -16 12 -17 -3 -4
-17 13 -22 21 -14 21 2 0 10 -8 17 -17z m1079 -4 c0 -5 -12 -6 -26 -3 -17 4
-25 3 -21 -3 3 -5 -10 -17 -30 -27 -29 -14 -38 -15 -44 -4 -13 20 -5 32 30 44
35 11 91 7 91 -7z m-2075 1 c-3 -5 -14 -10 -23 -9 -14 0 -13 2 3 9 27 11 27
11 20 0z m835 -10 c4 0 7 -11 6 -25 -1 -30 -4 -30 -35 -6 -25 19 -21 47 6 37
8 -3 18 -6 23 -6z m920 -16 c0 -20 -3 -24 -13 -16 -8 7 -18 7 -27 2 -20 -13
-30 -12 -30 0 0 6 6 10 14 10 7 0 19 7 26 15 19 22 30 18 30 -11z m-1027 9
c-7 -2 -19 -2 -25 0 -7 3 -2 5 12 5 14 0 19 -2 13 -5z m-979 -52 c-7 -41 -37
-92 -48 -81 -3 3 6 28 19 55 13 28 25 56 25 64 0 8 2 12 5 9 3 -3 3 -24 -1
-47z m1131 29 c0 -7 -5 -15 -10 -17 -6 -2 -11 6 -11 17 0 11 5 19 11 17 5 -2
10 -10 10 -17z m505 -15 c0 -2 -7 -5 -15 -9 -9 -3 -15 0 -15 9 0 9 6 12 15 9
8 -4 15 -7 15 -9z m-1697 -10 c-3 -9 -8 -14 -10 -11 -3 3 -2 9 2 15 9 16 15
13 8 -4z m317 5 c0 -5 -8 -10 -17 -10 -15 0 -16 2 -3 10 19 12 20 12 20 0z
m3551 -32 c-4 -35 -6 -38 -9 -15 -3 26 3 57 10 57 2 0 1 -19 -1 -42z m-2596
-42 c20 -67 11 -71 -10 -4 -29 86 -29 85 -16 68 6 -8 18 -37 26 -64z m-832 5
c-6 -8 -20 13 -28 39 -6 23 -5 22 13 -5 11 -16 18 -32 15 -34z m760 40 c-3
-11 2 -30 11 -43 27 -38 18 -45 -13 -10 -25 27 -35 31 -60 26 -45 -9 -38 9 12
28 55 21 56 21 50 -1z m-873 -31 c-19 -13 -30 -13 -30 0 0 6 10 10 23 10 18 0
19 -2 7 -10z m2780 -9 c55 -11 105 -23 110 -26 6 -4 5 -14 -5 -28 -35 -50 -15
-72 81 -91 38 -8 62 -14 53 -15 -11 -1 -15 -8 -12 -23 8 -51 -17 -57 -301 -73
-122 -7 -128 -7 -123 11 40 153 53 188 77 214 l27 29 -26 10 c-24 9 -24 9 -4
10 12 1 67 -8 123 -18z m520 -17 c0 -17 -99 -46 -168 -49 l-77 -4 60 9 c46 7
140 32 183 49 1 1 2 -2 2 -5z m310 -99 c0 -91 -2 -105 -16 -105 -15 0 -16 9
-11 73 7 76 17 137 23 137 2 0 4 -47 4 -105z m-2906 71 c6 -26 87 -98 113
-102 16 -3 32 -20 34 -39 1 -5 28 -35 61 -65 32 -30 56 -46 52 -37 -9 25 0 21
25 -13 46 -63 6 -48 -72 27 -45 43 -115 100 -155 127 l-74 49 -34 -16 c-39
-19 -41 -15 -14 47 22 52 54 63 64 22z m99 -24 c11 -9 46 -53 79 -97 37 -50
44 -61 17 -30 -64 75 -149 155 -164 155 -8 0 -17 5 -20 11 -9 14 65 -18 88
-39z m2724 16 c-3 -7 -5 -2 -5 12 0 14 2 19 5 13 2 -7 2 -19 0 -25z m199 -54
c20 -96 19 -106 -8 -102 -17 2 -22 9 -20 23 5 24 4 44 -4 115 -8 78 13 53 32
-36z m-3705 62 c-13 -16 -51 -28 -51 -17 0 8 38 29 54 30 5 1 3 -5 -3 -13z
m619 4 c0 -5 -7 -10 -16 -10 -10 0 -14 -6 -10 -15 3 -10 -1 -15 -13 -15 -10 0
-35 -11 -55 -25 -39 -26 -48 -16 -20 24 25 36 114 68 114 41z m2854 -85 c-17
-96 -21 -108 -34 -100 -6 4 -6 13 -1 23 5 9 14 42 21 72 15 72 21 92 25 88 2
-2 -3 -39 -11 -83z m-2532 -5 l18 -25 -10 28 c-13 36 -4 35 15 -3 18 -36 18
-37 1 -43 -10 -4 -26 15 -50 56 -35 59 -19 51 26 -13z m2014 54 c-3 -8 3 -18
12 -24 13 -8 7 -9 -26 -6 -50 5 -57 9 -49 30 4 9 18 14 37 14 21 -1 29 -5 26
-14z m47 9 c-7 -2 -19 -2 -25 0 -7 3 -2 5 12 5 14 0 19 -2 13 -5z m-1514 -65
c19 -36 19 -39 3 -19 -31 38 -59 88 -41 74 8 -6 25 -31 38 -55z m-909 1 c0 -6
-6 -9 -14 -6 -7 3 -26 -1 -42 -9 l-29 -14 24 20 c25 22 61 27 61 9z m95 -56
c26 -17 14 -16 -35 3 -22 9 -40 20 -40 25 0 9 42 -7 75 -28z m-1019 3 c10 -8
16 -17 13 -20 -3 -4 -17 2 -30 13 -27 23 -13 28 17 7z m1434 -188 c61 -107 80
-169 27 -89 -15 22 -26 41 -23 41 2 0 -12 16 -30 36 -19 19 -34 40 -34 46 0 6
9 0 20 -13 38 -46 19 -3 -35 81 -39 61 -45 74 -21 46 19 -22 62 -88 96 -148z
m-260 99 c81 -69 187 -178 259 -267 41 -52 105 -129 140 -170 57 -66 59 -70
16 -30 -26 25 -94 101 -150 170 -97 118 -237 262 -315 324 -24 19 -27 24 -10
15 14 -6 41 -25 60 -42z m-1137 29 c8 -20 -2 -26 -42 -26 l-36 0 30 19 c37 24
41 25 48 7z m3757 -12 c0 -9 -5 -14 -12 -12 -18 6 -21 28 -4 28 9 0 16 -7 16
-16z m140 -3 c0 -14 -18 -23 -30 -16 -6 4 -8 11 -5 16 8 12 35 12 35 0z m139
-72 c-1 -60 -5 -82 -16 -86 -12 -5 -12 -7 -1 -14 10 -6 13 -55 15 -214 1 -121
-2 -205 -7 -205 -15 0 -32 40 -27 61 3 10 2 17 -2 15 -3 -2 -15 17 -25 42 -11
26 -28 58 -38 71 -23 31 -23 40 2 34 18 -5 20 0 20 35 0 27 5 44 16 50 15 8
15 11 0 34 -20 30 -13 80 10 71 9 -3 14 2 14 16 0 12 -6 21 -15 21 -11 0 -14
10 -11 43 2 23 5 44 7 47 4 8 7 24 8 43 1 11 9 17 26 17 26 0 26 0 24 -81z
m-794 50 c-5 -15 2 -19 62 -24 38 -4 82 -13 98 -21 17 -8 21 -12 10 -8 -33 9
-120 17 -114 10 3 -3 25 -12 49 -19 42 -12 41 -12 -50 -12 l-94 0 -30 -56
c-19 -36 -35 -55 -43 -52 -7 3 -13 0 -13 -6 0 -6 5 -11 11 -11 5 0 7 -5 3 -11
-5 -8 -9 -7 -14 1 -12 19 -37 5 -44 -25 -4 -15 -20 -38 -37 -52 -16 -14 -28
-31 -26 -37 2 -6 -2 -15 -9 -21 -12 -8 -20 -33 -23 -67 -2 -16 -40 -7 -44 10
-4 16 -5 16 -6 0 0 -10 8 -27 19 -38 19 -19 19 -20 0 -30 -11 -6 -20 -17 -20
-25 0 -7 -10 -35 -22 -62 -12 -26 -29 -68 -38 -93 -12 -33 -26 -50 -52 -65
-20 -11 -40 -16 -45 -12 -12 12 31 166 70 248 19 41 45 99 57 129 13 30 29 62
37 71 7 8 13 21 13 27 0 7 16 43 35 81 19 37 35 71 35 75 0 3 -16 6 -35 6 -22
0 -38 6 -41 15 -4 8 -14 15 -24 15 -19 0 -36 29 -23 41 13 11 164 26 170 16 3
-5 10 -4 16 2 7 7 14 5 23 -7 12 -16 13 -16 14 0 0 19 17 24 83 25 42 1 47 -2
42 -18z m494 2 c11 -7 8 -27 -19 -107 -18 -55 -42 -118 -53 -141 -19 -43 -37
-56 -37 -28 0 8 -5 15 -11 15 -6 0 -9 6 -6 13 3 7 -4 19 -14 26 -11 6 -17 16
-14 20 7 12 -74 94 -117 121 -20 12 -26 20 -16 20 9 0 39 -18 68 -41 49 -38
52 -40 65 -22 8 10 15 23 15 30 0 17 91 103 109 103 9 0 22 -4 30 -9z m153
-28 c-6 -9 -7 -43 -4 -75 4 -51 3 -58 -12 -52 -19 7 -22 24 -3 24 7 1 4 6 -6
15 -15 11 -17 20 -11 47 4 18 7 39 5 46 -1 6 8 12 19 12 17 0 19 -3 12 -17z
m262 2 c3 -8 1 -15 -4 -15 -6 0 -10 7 -10 15 0 8 2 15 4 15 2 0 6 -7 10 -15z
m1235 -129 c0 -6 -11 20 -25 58 -13 39 -24 75 -23 80 0 6 11 -20 25 -58 13
-39 24 -75 23 -80z m-2489 89 c17 -21 8 -28 -21 -16 -13 5 -18 10 -11 10 7 1
10 6 7 11 -10 16 11 12 25 -5z m1255 -32 c-1 -14 1 -39 5 -55 5 -15 5 -28 1
-28 -9 0 -21 49 -21 86 0 13 4 24 9 24 5 0 8 -12 6 -27z m-2784 -40 c13 -16
12 -17 -3 -4 -10 7 -18 15 -18 17 0 8 8 3 21 -13z m-1321 -129 c19 -213 49
-332 93 -364 l30 -23 -6 44 c-17 114 -17 120 2 54 42 -153 83 -228 162 -297
32 -29 54 -55 48 -58 -12 -8 8 -59 31 -77 25 -20 2 -15 -53 13 -29 15 -80 55
-114 90 -76 77 -124 174 -158 318 -25 105 -55 319 -55 390 0 73 9 31 20 -90z
m3824 91 c6 -9 10 -34 8 -55 -3 -33 -8 -40 -26 -41 -16 -1 -17 -2 -3 -6 16 -4
25 -23 10 -23 -27 1 -35 20 -28 65 11 77 18 88 39 60z m-1646 -132 c7 -7 42
-31 77 -54 36 -23 65 -44 65 -46 0 -5 -106 53 -127 69 -6 5 5 -51 24 -124 45
-169 49 -261 15 -308 -23 -30 -23 -32 -6 -51 9 -10 12 -19 7 -19 -19 0 -30 24
-36 75 -3 28 -9 66 -12 85 -4 27 -3 30 4 15 l10 -20 0 20 c1 11 -5 52 -13 90
-8 39 -18 115 -22 169 -7 96 -8 101 -38 125 -17 14 -51 45 -76 69 -33 32 -24
27 35 -20 44 -34 86 -68 93 -75z m-866 0 c23 -51 34 -175 19 -215 -8 -22 -9
-21 -25 10 -14 27 -20 31 -32 21 -20 -16 -18 -26 9 -34 20 -6 20 -8 3 -12 -11
-3 -27 4 -39 16 -17 17 -18 21 -6 21 44 0 52 167 13 275 -14 38 36 -32 58 -82z
m2810 30 c3 -27 1 -52 -3 -57 -4 -4 -9 17 -11 48 -4 68 8 75 14 9z m-2649 -15
c44 -65 109 -135 162 -173 36 -26 33 -22 -22 39 -35 38 -63 73 -63 78 0 5 24
-17 54 -50 79 -85 206 -171 380 -256 83 -41 162 -86 176 -100 13 -15 19 -26
13 -26 -5 0 -18 9 -29 21 -27 30 -66 48 -87 40 -17 -6 -17 -8 3 -26 12 -11 26
-28 32 -39 8 -15 4 -14 -23 7 -19 14 -99 64 -178 111 -137 82 -243 159 -285
205 -27 30 -40 26 -20 -6 14 -22 11 -21 -14 7 -33 37 -152 204 -152 214 0 19
22 -1 53 -46z m-754 23 c22 -17 22 -18 4 -23 -20 -5 -67 25 -56 36 11 10 27 6
52 -13z m712 -36 l10 -20 -16 20 c-9 11 -21 29 -26 40 l-10 20 16 -20 c9 -11
21 -29 26 -40z m3646 8 c-3 -10 -5 -4 -5 12 0 17 2 24 5 18 2 -7 2 -21 0 -30z
m-5128 -52 c-1 -26 -1 -26 -14 4 -19 42 -19 66 0 41 8 -11 15 -31 14 -45z
m381 26 c0 -7 -13 -25 -29 -40 l-29 -28 -6 25 c-6 26 2 59 13 52 4 -3 13 -1
21 4 16 10 30 4 30 -13z m233 -4 c-7 -2 -19 -2 -25 0 -7 3 -2 5 12 5 14 0 19
-2 13 -5z m158 -27 c14 -7 40 -11 57 -8 16 2 38 -1 49 -7 17 -10 17 -11 -4
-17 -37 -10 -26 -26 13 -18 28 5 38 2 50 -12 14 -18 14 -18 12 1 -6 40 79 27
119 -18 17 -19 17 -20 1 -14 -28 10 -21 -8 22 -58 54 -62 51 -70 -5 -12 -43
46 -79 67 -111 67 -10 0 -12 -4 -7 -12 17 -27 24 -273 7 -300 -7 -13 -10 7
-10 75 0 77 -4 101 -26 148 -47 104 -122 168 -226 194 -52 14 -53 15 -12 9 25
-3 57 -11 71 -18z m2572 -11 c-3 -9 -8 -14 -10 -11 -3 3 -2 9 2 15 9 16 15 13
8 -4z m-48 -120 c-13 -33 -25 -53 -25 -44 0 21 43 125 47 113 2 -5 -8 -36 -22
-69z m-883 46 c-5 -3 -12 -15 -15 -26 -3 -13 -5 -9 -6 12 -1 26 2 31 15 26 9
-3 11 -9 6 -12z m-1689 -15 c37 -15 90 -76 112 -130 17 -41 21 -207 5 -237 -6
-10 -34 -31 -63 -47 -50 -26 -57 -27 -182 -24 -141 2 -175 11 -201 49 -19 30
-13 119 13 187 35 89 96 185 127 200 39 19 146 21 189 2z m-683 -120 c0 -16
-31 17 -47 48 l-15 31 31 -35 c16 -19 30 -39 31 -44z m1660 39 c19 -19 32 -35
29 -35 -3 0 -20 16 -39 35 -19 19 -32 35 -29 35 3 0 20 -16 39 -35z m12 -80
c46 -43 67 -66 48 -51 -56 44 -150 138 -150 150 0 6 5 4 10 -5 5 -9 47 -52 92
-94z m-414 63 c-3 -21 -59 -68 -82 -68 -6 0 3 9 20 19 17 11 34 31 38 45 8 32
29 35 24 4z m3829 -30 c-3 -8 -6 -5 -6 6 -1 11 2 17 5 13 3 -3 4 -12 1 -19z
m-1886 -35 c-24 -45 -27 -37 -6 14 8 20 18 34 21 30 3 -3 -4 -22 -15 -44z
m-1935 1 c-30 -21 -45 -16 -16 6 14 10 27 16 30 13 3 -2 -4 -11 -14 -19z
m2746 -58 c-7 -13 -21 23 -21 54 1 22 2 20 13 -10 8 -19 11 -39 8 -44z m234
12 c-8 -77 -26 -168 -36 -187 -11 -21 -5 108 8 154 6 22 13 52 17 68 10 50 18
28 11 -35z m-1080 -59 c-18 -41 -21 -26 -4 22 6 18 13 29 15 23 2 -6 -3 -26
-11 -45z m-1315 -6 c13 -16 12 -17 -3 -4 -10 7 -18 15 -18 17 0 8 8 3 21 -13z
m2869 -111 c12 -133 2 -301 -25 -427 -32 -154 -117 -356 -207 -497 l-51 -79
-27 26 -28 27 53 81 c30 45 65 94 79 108 14 15 29 42 32 60 4 19 22 66 40 106
19 40 34 79 34 86 0 8 7 34 16 58 31 85 55 253 61 417 3 89 7 161 9 159 2 -2
8 -58 14 -125z m-303 78 c15 -42 -14 -219 -44 -268 -7 -12 -12 -26 -9 -31 7
-10 -48 -169 -85 -245 -16 -33 -26 -52 -23 -41 25 78 34 131 29 156 -4 16 -2
29 3 29 10 0 54 100 59 134 2 11 10 45 18 75 11 47 33 179 36 224 0 7 3 5 6
-3 2 -8 7 -22 10 -30z m-2527 -27 c0 -7 -61 31 -73 46 -7 8 7 2 31 -14 23 -15
42 -30 42 -32z m911 30 c-4 -16 -7 -62 -5 -103 2 -61 6 -77 23 -91 18 -14 18
-18 5 -23 -14 -5 -14 -8 1 -22 11 -12 13 -20 6 -27 -7 -7 -1 -16 20 -29 17
-11 29 -22 25 -25 -3 -3 0 -13 6 -21 7 -8 13 -24 13 -36 1 -11 10 -48 20 -81
21 -67 28 -266 10 -283 -12 -12 -67 -20 -179 -27 -55 -3 -71 -2 -51 4 17 5 49
18 72 30 23 12 47 21 53 21 5 0 10 11 10 24 0 14 5 28 10 31 17 10 40 75 40
112 0 33 -30 101 -76 175 -13 21 -36 68 -51 105 -24 58 -28 82 -28 168 0 96 1
100 25 112 43 22 60 17 51 -14z m1709 -93 c-12 -131 -61 -317 -89 -335 -17
-10 -10 38 14 95 22 55 65 251 65 301 0 22 9 44 16 37 1 -2 -2 -46 -6 -98z
m-4441 56 c-3 -3 -11 5 -18 17 -13 21 -12 21 5 5 10 -10 16 -20 13 -22z m4027
9 c9 -37 -2 -41 -14 -6 -7 18 -7 31 -2 31 5 0 12 -11 16 -25z m-960 -31 c-8
-21 -15 -34 -15 -28 -1 15 20 76 25 71 2 -2 -2 -21 -10 -43z m-1081 -9 l20
-16 -20 10 c-11 5 -29 17 -40 26 l-20 16 20 -10 c11 -5 29 -17 40 -26z m1954
-24 c20 -39 60 -58 80 -38 9 9 7 -62 -5 -160 -5 -42 -24 -61 -24 -25 0 9 -7
31 -16 47 -9 17 -17 46 -19 67 -2 20 -13 51 -25 70 -18 30 -28 78 -15 78 2 0
13 -17 24 -39z m-3005 13 c11 -29 7 -64 -9 -64 -8 0 -20 -10 -27 -22 l-12 -23
-6 25 c-5 17 0 38 14 62 23 42 31 46 40 22z m4053 -26 c-3 -7 -5 -2 -5 12 0
14 2 19 5 13 2 -7 2 -19 0 -25z m-2729 -20 c10 -9 16 -8 22 2 7 12 10 12 15
-2 7 -19 -11 -128 -24 -141 -14 -14 -96 136 -87 159 4 11 11 12 33 3 15 -5 33
-15 41 -21z m571 -16 c9 -10 24 -21 34 -25 29 -11 21 -36 -12 -35 -15 1 -33
-2 -38 -5 -12 -7 -24 49 -16 71 7 16 13 15 32 -6z m-2438 -40 c-7 -2 -18 1
-23 6 -8 8 -4 9 13 5 13 -4 18 -8 10 -11z m169 -3 c-63 -11 -141 -10 -115 1
11 5 52 8 90 8 67 0 68 -1 25 -9z m2473 -4 c-3 -9 -8 -14 -10 -11 -3 3 -2 9 2
15 9 16 15 13 8 -4z m-2880 -33 c9 -8 17 -20 17 -25 0 -6 -6 -4 -12 5 -7 9
-29 23 -48 32 -33 14 -34 15 -5 9 17 -3 38 -13 48 -21z m1302 -22 c3 -5 -1
-10 -11 -10 -14 0 -13 -3 4 -17 11 -10 28 -31 38 -48 16 -28 15 -27 -17 7 -48
50 -79 57 -144 33 -14 -6 -17 -5 -10 3 13 15 83 40 112 41 12 1 25 -3 28 -9z
m715 -27 c-1 -10 -8 -29 -16 -43 l-15 -25 5 25 c3 14 6 33 6 43 0 9 5 17 10
17 6 0 10 -8 10 -17z m691 -13 c-36 -31 -44 -31 -46 -2 -1 14 5 18 27 17 16
-1 31 2 34 7 3 4 8 8 12 8 4 -1 -8 -14 -27 -30z m1247 -21 c-6 -16 -12 -28
-14 -26 -5 5 13 57 20 57 3 0 0 -14 -6 -31z m-2713 13 c6 -4 17 -16 25 -27 11
-15 7 -14 -15 5 -17 14 -32 26 -34 28 -2 1 0 2 5 2 5 0 14 -4 19 -8z m781 -40
l-29 -27 23 32 c13 18 26 30 29 28 3 -3 -8 -18 -23 -33z m-1836 3 c-14 -8 -38
-14 -55 -14 l-30 0 25 14 c14 8 39 14 55 14 l30 0 -25 -14z m2546 3 c4 -7 3
-8 -5 -4 -6 4 -14 1 -17 -7 -5 -13 -13 -14 -44 -7 -6 1 42 29 52 30 4 0 10 -5
14 -12z m-1349 -25 c0 -16 3 -37 8 -48 8 -18 7 -19 -10 -5 -10 8 -30 20 -44
26 l-26 12 27 10 c14 6 29 16 33 21 10 17 12 13 12 -16z m2090 -30 c-3 -10 -5
-2 -5 17 0 19 2 27 5 18 2 -10 2 -26 0 -35z m-3477 -4 c17 -30 8 -31 -19 -3
-18 19 -20 24 -7 24 8 0 20 -9 26 -21z m2700 17 c0 -3 -4 -8 -10 -11 -5 -3
-10 -1 -10 4 0 6 5 11 10 11 6 0 10 -2 10 -4z m-1545 -16 c3 -5 0 -18 -6 -28
-10 -15 -23 -19 -65 -18 -46 0 -58 -4 -84 -29 -43 -41 -47 -25 -4 18 48 48
143 82 159 57z m128 -53 c39 -34 86 -74 104 -89 43 -35 18 -46 -38 -18 -53 27
-50 36 4 10 l42 -21 -36 33 c-95 85 -147 128 -157 128 -12 0 -24 -28 -17 -40
3 -5 28 -21 55 -36 63 -34 56 -45 -9 -14 l-49 23 -38 -24 c-29 -17 -36 -19
-32 -7 11 27 79 118 89 118 5 0 42 -28 82 -63z m1841 -112 c-1 -49 -9 -115
-18 -145 -9 -30 -23 -82 -32 -115 -17 -61 -81 -166 -99 -161 -20 5 -36 78 -25
109 5 17 10 54 10 83 0 34 10 78 29 126 15 40 36 95 45 121 10 26 29 62 44 78
23 29 26 29 36 12 6 -10 10 -58 10 -108z m-3000 97 c13 -9 21 -23 18 -30 -2
-8 11 -12 45 -13 l48 0 58 -80 c32 -43 55 -83 52 -89 -3 -5 -2 -10 2 -10 5 0
18 -7 29 -16 18 -14 17 -15 -13 -11 -18 2 -33 0 -33 -5 0 -4 9 -8 19 -8 26 0
51 -10 51 -20 0 -5 -16 -4 -36 1 -25 8 -39 7 -50 -2 -17 -14 -27 -2 -112 121
-69 100 -117 180 -107 180 4 0 17 -8 29 -18z m3609 -7 c9 -13 20 -39 22 -57 5
-32 5 -32 -6 -6 -6 15 -19 30 -30 33 -12 4 -19 15 -19 31 0 30 10 30 33 -1z
m-893 -63 c-4 -40 -11 -76 -15 -80 -8 -8 3 137 12 151 10 17 11 0 3 -71z
m1352 56 c-7 -7 -12 -8 -12 -2 0 14 12 26 19 19 2 -3 -1 -11 -7 -17z m-3119 5
c-7 -2 -21 -2 -30 0 -10 3 -4 5 12 5 17 0 24 -2 18 -5z m1864 -85 c-3 -8 -6
-5 -6 6 -1 11 2 17 5 13 3 -3 4 -12 1 -19z m-14 -92 c-4 -51 -1 -87 9 -117 17
-53 13 -79 -12 -79 -31 0 -37 26 -24 103 7 40 15 93 19 120 10 72 14 56 8 -27z
m-1843 25 c0 -4 15 -8 33 -8 118 -3 156 -7 150 -16 -4 -6 2 -8 15 -5 12 4 25
2 28 -3 3 -5 9 -7 13 -5 4 3 31 -4 61 -14 61 -21 50 -25 -20 -9 -66 16 -86 18
-178 19 -87 2 -107 -6 -122 -45 -6 -16 -10 -9 -19 33 -6 30 -9 57 -6 62 6 9
45 1 45 -9z m518 -39 c24 -13 41 -27 38 -29 -7 -7 -146 69 -146 79 0 9 36 -8
108 -50z m-588 13 c-7 -8 -17 -15 -22 -15 -6 0 -5 7 2 15 7 8 17 15 22 15 6 0
5 -7 -2 -15z m384 0 c20 -8 36 -18 36 -20 0 -5 -70 22 -79 30 -8 9 6 5 43 -10z
m-1242 -19 c23 -34 -1 -34 -33 0 l-24 26 25 -7 c14 -4 28 -13 32 -19z m844
-41 c-12 -18 -26 -41 -33 -51 -10 -17 -12 -15 -12 18 -1 52 6 65 38 65 l28 0
-21 -32z m489 5 c13 -6 15 -9 5 -9 -8 0 -22 4 -30 9 -18 12 -2 12 25 0z m243
-27 c26 -15 49 -31 50 -35 2 -4 12 -8 23 -8 10 0 19 -4 19 -10 0 -5 -3 -10 -8
-10 -17 0 -161 78 -155 84 11 10 23 7 71 -21z m1898 -39 c5 -39 5 -39 -10 -14
-18 29 -22 80 -6 64 6 -6 13 -28 16 -50z m-2256 36 c10 -7 -15 -8 -75 -4 -49
4 -92 8 -94 10 -10 9 156 3 169 -6z m2014 -5 c-4 -8 -7 -15 -9 -15 -2 0 -5 7
-9 15 -3 9 0 15 9 15 9 0 12 -6 9 -15z m-2274 -5 c0 -5 -9 -10 -21 -10 -11 0
-17 5 -14 10 3 6 13 10 21 10 8 0 14 -4 14 -10z m63 3 c-7 -2 -19 -2 -25 0 -7
3 -2 5 12 5 14 0 19 -2 13 -5z m475 -62 c64 -21 151 -46 192 -55 130 -31 141
-35 65 -30 -42 4 -110 20 -170 41 -55 19 -138 45 -184 59 -46 13 -86 26 -90
30 -11 13 70 -7 187 -45z m1662 39 c0 -6 12 -15 26 -20 20 -8 24 -14 18 -33
-15 -51 -35 -76 -66 -85 -34 -10 -139 -40 -171 -49 -15 -4 -15 -1 4 31 11 20
25 36 30 36 4 0 6 8 2 18 -5 14 -3 13 10 -3 9 -11 19 -16 24 -11 4 5 2 11 -5
14 -23 8 46 64 70 56 27 -8 62 24 47 43 -9 9 -9 13 0 13 6 0 11 -5 11 -10z
m883 -72 c-45 -82 -121 -188 -136 -188 -11 0 10 34 68 110 24 30 55 76 70 103
43 75 41 55 -2 -25z m-2433 47 c43 -22 37 -26 -15 -8 -25 8 -45 17 -45 19 0 9
33 3 60 -11z m130 -27 c0 -14 -22 -20 -30 -9 -4 7 -12 11 -17 9 -11 -3 -13 1
-13 21 0 5 14 4 30 -2 17 -6 30 -15 30 -19z m149 -4 c10 -9 -35 -3 -49 6 -11
8 -7 9 15 4 17 -4 32 -8 34 -10z m-1442 -114 c65 -63 119 -117 121 -120 1 -4
-10 -19 -24 -34 l-27 -27 36 5 c21 2 35 1 32 -4 -3 -4 2 -10 10 -14 8 -3 15
-1 15 5 0 6 10 3 22 -5 12 -9 31 -16 41 -16 27 0 79 -29 72 -41 -4 -5 -10 -7
-15 -4 -4 3 -24 -2 -44 -10 -19 -8 -44 -15 -53 -15 -37 0 -328 263 -414 374
l-22 29 66 -5 65 -4 119 -114z m1375 99 c24 -6 48 -12 55 -13 32 -5 21 -15
-13 -12 -77 7 -114 18 -114 33 0 9 6 13 14 10 8 -3 34 -11 58 -18z m128 1 c13
-9 13 -10 0 -9 -8 0 -24 4 -35 9 l-20 9 20 0 c11 0 27 -4 35 -9z m-415 -36
c40 -23 110 -88 90 -83 -5 1 -18 -1 -27 -5 -12 -6 -33 9 -82 59 -66 68 -61 76
19 29z m860 26 c-3 -5 -26 -10 -50 -10 -24 0 -47 -5 -50 -11 -5 -7 5 -8 30 -3
29 5 37 4 33 -6 -5 -16 -88 -26 -88 -11 0 6 -9 11 -20 11 -11 0 -20 7 -20 14
0 11 14 16 48 19 99 8 123 7 117 -3z m-355 -4 c0 -11 -19 -15 -25 -6 -3 5 1
10 9 10 9 0 16 -2 16 -4z m149 -22 c-25 -24 -30 -25 -92 -19 -62 7 -64 8 -48
25 12 14 32 19 91 19 l75 1 -26 -26z m1282 -11 c-12 -20 -14 -14 -5 12 4 9 9
14 11 11 3 -2 0 -13 -6 -23z m-3322 -3 c17 0 31 -4 31 -10 0 -5 -9 -10 -20
-10 -21 0 -80 26 -80 36 0 2 9 0 19 -6 11 -5 33 -10 50 -10z m1851 10 c0 -5
-2 -10 -4 -10 -3 0 -8 5 -11 10 -3 6 -1 10 4 10 6 0 11 -4 11 -10z m749 -75
c0 -5 -6 -1 -14 9 -8 11 -15 24 -15 30 0 5 7 1 15 -10 8 -10 14 -23 14 -29z
m380 -17 c-38 -73 -193 -230 -302 -305 -59 -41 -71 -45 -87 -35 -24 15 -40 15
-40 2 0 -5 9 -10 20 -10 36 0 21 -16 -52 -58 -151 -86 -364 -161 -549 -194
-103 -18 -160 -21 -339 -21 -118 1 -244 5 -280 10 -65 8 -65 9 -62 38 2 16 5
31 6 32 9 10 131 33 133 26 2 -5 53 -7 119 -5 92 4 118 2 125 -9 7 -11 9 -11
9 -1 0 8 13 13 38 12 102 -2 243 11 278 24 21 9 64 22 94 30 30 8 71 21 91 30
31 13 39 13 55 2 15 -12 16 -16 5 -30 -15 -18 -1 -22 17 -4 8 8 15 8 29 -2 10
-8 2 3 -16 23 -30 32 -32 37 -15 37 10 0 28 7 38 15 11 8 32 15 48 15 16 0 28
5 28 13 0 7 16 21 35 30 29 14 44 15 82 7 53 -12 68 -6 29 11 -14 7 -26 16
-26 21 0 12 66 50 122 70 42 15 47 15 50 0 2 -10 12 -2 31 25 31 44 54 55 98
46 34 -6 61 11 52 34 -5 13 -8 12 -14 -5 -5 -12 -16 -22 -25 -22 -14 0 -15 2
-3 17 12 15 12 16 -2 11 -11 -4 -20 2 -28 18 -14 32 -14 34 4 34 8 0 15 6 15
13 0 9 2 9 8 0 6 -9 12 -7 25 7 9 11 25 20 35 20 10 0 23 5 28 10 6 6 30 16
55 24 24 8 45 14 47 15 1 1 -3 -9 -9 -21z m-103 -3 c-21 -16 -32 -13 -21 4 3
6 14 11 23 11 15 -1 15 -2 -2 -15z m-1347 -55 c18 -33 28 -60 24 -60 -5 0 -26
9 -48 20 -56 29 -84 84 -47 93 35 9 40 6 71 -53z m1297 41 c-3 -5 -15 -11 -26
-14 -17 -4 -19 -3 -9 9 12 15 44 20 35 5z m1153 -78 c-171 -265 -506 -573
-814 -748 -75 -43 -50 -23 49 40 300 188 613 487 759 725 21 34 41 59 44 56 3
-3 -14 -36 -38 -73z m-822 15 c-2 -13 -4 -5 -4 17 -1 22 1 32 4 23 2 -10 2
-28 0 -40z m593 2 c0 -5 -7 -10 -16 -10 -8 0 -12 5 -9 10 3 6 10 10 16 10 5 0
9 -4 9 -10z m120 -20 c0 -5 9 -17 20 -27 19 -18 18 -19 -26 -76 -25 -31 -49
-57 -54 -57 -5 0 -10 -7 -12 -14 -3 -16 -185 -206 -196 -206 -4 0 -15 19 -25
43 l-18 42 38 32 c44 38 56 40 83 13 25 -25 38 -6 14 21 -28 31 -23 54 20 97
42 40 86 62 86 43 0 -22 18 -10 29 19 5 17 17 30 26 30 9 0 14 4 10 10 -3 5
-12 7 -20 3 -18 -6 -20 8 -3 25 14 14 28 16 28 2z m-150 -8 c0 -12 -110 -112
-122 -112 -6 0 16 27 48 60 57 57 74 70 74 52z m-3475 -53 c-8 -12 -62 -12
-70 1 -3 6 -1 10 4 10 6 0 11 9 11 21 l0 20 30 -21 c17 -12 28 -26 25 -31z
m1248 14 c-7 -2 -21 -2 -30 0 -10 3 -4 5 12 5 17 0 24 -2 18 -5z m7 -58 c0 -6
-7 -20 -15 -31 -13 -17 -14 -15 -14 31 0 46 1 48 14 31 8 -11 15 -25 15 -31z
m1145 5 c-3 -5 -12 -10 -18 -10 -7 0 -6 4 3 10 19 12 23 12 15 0z m-1906 -96
c94 -52 117 -78 73 -81 -27 -2 -72 -22 -72 -31 0 -11 121 6 137 20 11 9 93 -9
93 -20 0 -3 -10 -16 -22 -29 l-21 -23 41 0 c26 0 44 5 50 15 7 14 19 13 98 -9
62 -17 79 -25 57 -25 -38 -1 -46 -21 -9 -21 14 0 28 -4 31 -10 3 -5 1 -10 -4
-10 -6 0 -11 -7 -11 -16 0 -9 -6 -14 -12 -11 -7 2 -21 -2 -30 -10 -15 -13 -25
-13 -85 2 -37 9 -88 25 -113 34 -25 10 -54 21 -65 25 -18 7 -17 9 13 21 17 8
32 19 32 24 0 17 -70 24 -110 11 -29 -10 -41 -10 -52 -1 -24 22 -120 81 -130
81 -10 0 -138 89 -138 97 0 2 9 2 20 -2 10 -3 32 1 47 9 47 25 78 19 182 -40z
m2192 -1 c-9 -16 -10 -15 -11 8 0 14 3 29 8 33 12 12 14 -22 3 -41z m572 0
c-7 -2 -19 -2 -25 0 -7 3 -2 5 12 5 14 0 19 -2 13 -5z m-3031 -47 c22 -17 5
-36 -31 -35 -15 0 -20 3 -13 6 6 2 12 13 12 24 0 22 8 24 32 5z m2180 -128
c-7 -7 -12 -8 -12 -2 0 14 12 26 19 19 2 -3 -1 -11 -7 -17z m-1802 2 c0 -5 -6
-10 -14 -10 -8 0 -18 5 -21 10 -3 6 3 10 14 10 12 0 21 -4 21 -10z m2663 -26
c3 -4 -4 -14 -16 -24 -17 -14 -26 -15 -44 -7 -21 9 -21 11 -5 23 18 14 54 18
65 8z m-2724 -43 c15 -10 8 -15 -31 -25 -30 -7 -31 -6 -22 18 7 17 31 21 53 7z
m2481 -21 c-24 -15 -37 -11 -16 5 11 8 22 12 25 9 3 -3 -1 -9 -9 -14z m-2005
-20 c2 -22 -11 -24 -64 -14 -43 9 -39 19 12 31 48 11 50 10 52 -17z m1959 -30
c-13 -13 -41 -21 -84 -25 l-65 -7 40 26 c22 14 52 28 68 31 15 4 27 11 27 17
0 5 7 2 16 -7 16 -15 16 -18 -2 -35z m196 30 c0 -5 -5 -10 -11 -10 -5 0 -7 5
-4 10 3 6 8 10 11 10 2 0 4 -4 4 -10z m60 -5 c-32 -31 -176 -135 -187 -135 -7
0 -13 -4 -13 -8 0 -5 -18 -17 -40 -27 -22 -10 -47 -26 -56 -36 -16 -18 -19
-18 -42 -3 -20 13 -26 14 -33 3 -14 -23 -10 -32 11 -26 11 3 20 1 20 -4 0 -5
-9 -9 -21 -9 -11 0 -27 -6 -34 -14 -19 -19 -83 -12 -100 11 -7 10 -17 15 -21
10 -4 -4 -2 -7 5 -7 7 0 9 -5 6 -10 -4 -6 -11 -8 -16 -4 -10 6 -50 -37 -43
-47 2 -4 21 -1 41 6 23 8 42 10 47 4 5 -5 8 -10 5 -12 -14 -11 -131 -58 -170
-68 -43 -11 -49 -11 -78 10 -17 12 -31 25 -31 29 1 4 28 24 61 45 40 25 72 37
97 37 36 1 36 1 14 14 l-24 13 29 12 c17 7 36 11 44 9 8 -2 14 5 14 18 1 22
47 84 63 84 6 0 13 7 16 15 4 12 18 15 68 11 55 -4 67 -1 95 20 17 13 33 19
35 14 6 -19 50 -19 89 -1 26 13 40 15 43 7 3 -8 5 -8 5 1 1 6 -7 19 -16 29
-17 17 -17 17 7 10 52 -16 76 -17 95 -2 26 20 34 20 15 1z m-178 -12 c-10 -4
-10 -8 -1 -19 7 -8 7 -14 1 -14 -5 0 -13 7 -16 16 -3 8 -10 12 -16 9 -5 -3
-10 -1 -10 4 0 6 12 11 28 10 15 0 21 -3 14 -6z m-1011 -46 c-8 -8 -11 -7 -11
4 0 20 13 34 18 19 3 -7 -1 -17 -7 -23z m-1091 -32 c0 -13 -88 -44 -120 -43
-27 0 -29 2 -10 5 14 2 30 10 35 18 15 18 95 35 95 20z m350 -45 c-8 -5 -19
-10 -25 -10 -5 0 -3 5 5 10 8 5 20 10 25 10 6 0 3 -5 -5 -10z m381 -21 c-34
-28 -47 -23 -14 5 15 13 30 22 33 19 3 -2 -6 -13 -19 -24z m-451 -39 c-8 -5
-19 -10 -25 -10 -5 0 -3 5 5 10 8 5 20 10 25 10 6 0 3 -5 -5 -10z m1260 -175
c36 -18 38 -31 8 -38 -136 -29 -181 -38 -191 -34 -13 4 120 86 141 87 7 0 26
-7 42 -15z"/>
<path d="M3423 5273 c-4 -10 -11 -21 -17 -25 -6 -4 -7 -11 -2 -15 5 -4 11 -2
13 5 3 6 11 12 19 12 16 0 19 26 4 35 -6 3 -13 -2 -17 -12z"/>
<path d="M4080 5289 c0 -4 7 -9 15 -13 9 -3 15 0 15 8 0 7 -7 13 -15 13 -8 0
-15 -4 -15 -8z"/>
<path d="M3888 4775 c6 -11 21 -29 34 -40 22 -19 22 -19 -2 10 -40 48 -43 51
-32 30z"/>
<path d="M2400 3644 c0 -8 5 -12 10 -9 6 4 8 11 5 16 -9 14 -15 11 -15 -7z"/>
<path d="M3625 4010 c3 -5 8 -10 11 -10 2 0 4 5 4 10 0 6 -5 10 -11 10 -5 0
-7 -4 -4 -10z"/>
<path d="M3466 3165 c-9 -14 -12 -25 -7 -25 12 0 35 39 28 46 -2 3 -12 -7 -21
-21z"/>
<path d="M1580 3012 c0 -5 7 -15 15 -22 8 -7 15 -8 15 -2 0 5 -7 15 -15 22 -8
7 -15 8 -15 2z"/>
<path d="M3238 3013 c6 -2 18 -2 25 0 6 3 1 5 -13 5 -14 0 -19 -2 -12 -5z"/>
<path d="M3305 3010 c3 -5 11 -10 16 -10 6 0 7 5 4 10 -3 6 -11 10 -16 10 -6
0 -7 -4 -4 -10z"/>
<path d="M3430 2930 c0 -5 5 -10 10 -10 6 0 10 5 10 10 0 6 -4 10 -10 10 -5 0
-10 -4 -10 -10z"/>
<path d="M3250 2730 c0 -5 5 -10 11 -10 5 0 7 5 4 10 -3 6 -8 10 -11 10 -2 0
-4 -4 -4 -10z"/>
<path d="M3251 2104 c0 -11 3 -14 6 -6 3 7 2 16 -1 19 -3 4 -6 -2 -5 -13z"/>
<path d="M875 1570 c-3 -5 -2 -10 4 -10 5 0 13 5 16 10 3 6 2 10 -4 10 -5 0
-13 -4 -16 -10z"/>
<path d="M3823 1450 c-13 -5 -23 -11 -23 -13 0 -6 92 12 98 18 9 8 -52 4 -75
-5z"/>
<path d="M3258 931 c-21 -4 -25 -9 -18 -21 7 -11 14 -12 32 -3 13 6 34 15 48
21 l25 11 -30 -1 c-16 0 -42 -3 -57 -7z"/>
<path d="M3055 840 c-17 -7 -15 -9 13 -9 17 -1 32 4 32 9 0 12 -17 12 -45 0z"/>
<path d="M2385 780 c-10 -11 -13 -20 -8 -20 13 0 38 29 31 35 -3 3 -13 -4 -23
-15z"/>
<path d="M2930 789 c0 -5 5 -7 10 -4 6 3 10 8 10 11 0 2 -4 4 -10 4 -5 0 -10
-5 -10 -11z"/>
<path d="M2248 783 c7 -3 16 -2 19 1 4 3 -2 6 -13 5 -11 0 -14 -3 -6 -6z"/>
<path d="M4614 1058 c-4 -7 -4 -10 1 -6 4 4 17 3 27 -3 16 -9 19 -8 16 3 -6
18 -34 22 -44 6z"/>
<path d="M1878 843 c7 -3 16 -2 19 1 4 3 -2 6 -13 5 -11 0 -14 -3 -6 -6z"/>
<path d="M1940 830 c0 -5 7 -10 15 -10 8 0 15 5 15 10 0 6 -7 10 -15 10 -8 0
-15 -4 -15 -10z"/>
<path d="M4210 680 l-25 -8 27 -1 c15 -1 30 4 33 9 7 11 0 11 -35 0z"/>
<path d="M4016 641 c-16 -17 -15 -19 15 -25 44 -8 46 -8 53 9 4 13 2 14 -14 5
-24 -13 -44 -4 -36 16 7 19 2 18 -18 -5z"/>
<path d="M4105 610 c3 -5 11 -10 16 -10 6 0 7 5 4 10 -3 6 -11 10 -16 10 -6 0
-7 -4 -4 -10z"/>
<path d="M4037 579 c7 -7 15 -10 18 -7 3 3 -2 9 -12 12 -14 6 -15 5 -6 -5z"/>
<path d="M3698 443 c6 -2 18 -2 25 0 6 3 1 5 -13 5 -14 0 -19 -2 -12 -5z"/>
<path d="M4550 5080 c0 -5 5 -10 10 -10 6 0 10 5 10 10 0 6 -4 10 -10 10 -5 0
-10 -4 -10 -10z"/>
<path d="M4443 5063 c-20 -7 -15 -23 7 -23 11 0 20 4 20 9 0 13 -12 19 -27 14z"/>
<path d="M2780 4721 c10 -21 30 -37 30 -26 0 14 -21 45 -31 45 -6 0 -6 -7 1
-19z"/>
<path d="M5138 4676 c-15 -11 -16 -15 -3 -32 12 -17 14 -18 20 -2 4 9 5 24 3
32 -2 12 -6 12 -20 2z"/>
<path d="M2620 4600 c-8 -5 -10 -10 -5 -10 6 0 17 5 25 10 8 5 11 10 5 10 -5
0 -17 -5 -25 -10z"/>
<path d="M5294 4414 c3 -9 6 -20 6 -25 0 -4 6 -6 14 -3 10 4 13 0 10 -14 -6
-20 32 -102 47 -102 6 0 6 7 1 18 -5 9 -12 35 -15 56 -4 26 -16 48 -33 63 -32
27 -38 29 -30 7z"/>
<path d="M3824 4408 c-3 -4 32 -8 77 -8 45 0 79 3 76 6 -10 10 -147 11 -153 2z"/>
<path d="M3998 4393 c7 -3 16 -2 19 1 4 3 -2 6 -13 5 -11 0 -14 -3 -6 -6z"/>
<path d="M5458 4154 c-28 -15 -35 -28 -20 -38 5 -3 19 8 31 24 12 17 20 30 19
30 -2 -1 -15 -8 -30 -16z"/>
<path d="M5468 4115 c-23 -30 -23 -31 6 -85 13 -25 29 -62 35 -82 7 -21 16
-38 21 -38 10 0 80 83 75 88 -2 3 -15 -5 -30 -16 -14 -12 -34 -18 -45 -15 -17
5 -20 14 -20 72 0 38 -5 74 -12 84 -12 14 -15 14 -30 -8z"/>
<path d="M3908 3833 c7 -3 16 -2 19 1 4 3 -2 6 -13 5 -11 0 -14 -3 -6 -6z"/>
<path d="M1988 3783 c7 -3 16 -2 19 1 4 3 -2 6 -13 5 -11 0 -14 -3 -6 -6z"/>
<path d="M2216 3491 c-4 -7 -5 -15 -2 -18 9 -9 19 4 14 18 -4 11 -6 11 -12 0z"/>
</g>
</svg>
