<?xml version="1.0" standalone="no"?>
<!DOCTYPE svg PUBLIC "-//W3C//DTD SVG 20010904//EN"
 "http://www.w3.org/TR/2001/REC-SVG-20010904/DTD/svg10.dtd">
<svg version="1.0" xmlns="http://www.w3.org/2000/svg"
 width="556.000000pt" height="548.000000pt" viewBox="0 0 556.000000 548.000000"
 preserveAspectRatio="xMidYMid meet">

<g transform="translate(0.000000,548.000000) scale(0.100000,-0.100000)"
fill="#FFFFFF" stroke="none">
<path d="M2824 5375 c-42 -55 -53 -64 -77 -62 -38 3 -93 -67 -103 -128 -7 -47
-25 -71 -47 -62 -8 3 -4 -12 11 -42 30 -59 24 -119 -22 -216 -19 -38 -37 -86
-40 -105 l-7 -35 18 31 c30 52 52 78 59 71 4 -3 1 -20 -6 -37 -7 -18 -9 -43
-5 -62 6 -31 7 -50 3 -150 -1 -46 23 -122 49 -150 17 -19 38 -25 28 -8 -11 17
11 11 39 -11 15 -12 25 -27 22 -35 -12 -32 144 -51 232 -28 155 40 272 176
280 324 3 55 -2 80 -32 165 -49 137 -46 213 11 267 34 32 132 73 193 82 41 6
40 5 -21 -16 -76 -27 -154 -85 -163 -123 -6 -25 18 -74 38 -75 13 0 74 -70 95
-110 33 -62 50 -141 42 -185 -13 -64 -56 -148 -98 -191 -36 -38 -160 -124
-178 -124 -10 0 35 35 55 43 10 4 11 6 2 6 -9 1 -5 12 11 34 37 50 66 129 72
193 4 51 3 54 -4 19 -25 -111 -116 -238 -208 -287 -102 -55 -236 -62 -328 -18
-64 31 -164 131 -195 195 -51 109 -46 183 25 344 l44 101 -15 50 c-23 77 -65
123 -157 171 -102 53 -187 50 -312 -12 -33 -16 -50 -22 -37 -12 12 10 48 31
80 48 31 16 59 32 62 36 3 3 12 9 20 12 11 4 8 8 -10 13 l-25 8 25 7 c14 4 41
8 60 8 26 1 31 4 19 11 -9 5 -48 6 -95 1 -87 -9 -184 -52 -337 -149 -42 -27
-128 -71 -190 -97 -290 -123 -411 -187 -462 -245 -11 -13 -85 -76 -165 -140
-80 -65 -163 -137 -185 -160 -22 -23 -66 -62 -99 -86 -32 -24 -108 -90 -168
-147 -97 -91 -114 -111 -151 -187 -40 -83 -41 -88 -42 -190 0 -127 21 -184 93
-252 43 -40 45 -43 24 -46 -13 -2 -45 4 -73 14 -49 18 -103 12 -105 -11 0 -6
-9 -25 -20 -42 -16 -28 -27 -34 -67 -39 -55 -8 -117 -57 -117 -93 0 -12 17
-40 38 -64 45 -49 55 -76 36 -102 -18 -25 -18 -59 1 -75 8 -6 39 -13 68 -14
36 -1 60 -8 71 -19 16 -16 16 -18 -9 -27 -14 -5 -31 -10 -37 -10 -26 0 -169
-94 -208 -136 -23 -25 -53 -70 -67 -100 -31 -68 -30 -89 18 -422 6 -41 21
-110 34 -154 14 -43 28 -107 34 -141 5 -34 18 -98 29 -142 11 -44 28 -118 37
-165 22 -105 79 -239 203 -480 53 -102 122 -237 153 -300 31 -63 89 -161 128
-218 103 -147 151 -172 338 -176 57 -1 106 -5 109 -9 3 -3 -3 -19 -15 -35 -31
-43 -27 -67 15 -91 36 -21 36 -22 31 -79 -3 -31 -8 -72 -12 -89 -10 -46 9 -50
102 -20 69 23 80 24 100 11 44 -28 77 -18 128 38 42 47 49 51 73 42 22 -8 29
-19 43 -79 38 -163 96 -247 211 -310 55 -30 126 -39 438 -55 102 -5 265 -14
362 -21 217 -15 362 -8 533 26 72 15 175 32 230 40 164 22 286 46 348 66 32
11 98 29 145 40 101 24 111 29 176 83 34 29 57 60 77 104 16 34 36 65 46 68
10 3 32 11 48 19 28 11 36 10 99 -21 37 -19 73 -31 80 -27 6 4 21 6 34 4 17
-2 22 3 22 19 0 11 -7 23 -15 26 -18 7 -31 55 -40 147 l-7 67 29 0 c15 0 38 3
51 6 13 4 22 2 22 -5 0 -6 -19 -11 -45 -11 -25 0 -45 -2 -45 -4 0 -3 4 -16 9
-30 l10 -25 50 26 c28 13 51 27 51 29 0 3 -18 28 -41 56 -43 54 -39 75 7 39
31 -24 71 -26 135 -7 73 22 123 52 159 93 19 21 48 49 66 63 37 27 112 171
158 300 15 41 45 109 66 150 51 99 106 227 115 266 3 17 27 67 52 110 29 51
46 93 48 119 1 22 12 67 24 99 11 33 21 70 21 83 0 12 9 49 19 80 11 32 21 96
24 143 3 48 14 109 25 140 18 51 27 105 38 235 4 49 4 49 -12 25 -11 -18 -14
-19 -9 -5 32 99 40 159 29 203 -10 34 -21 26 -30 -20 -7 -42 -8 -41 -14 32 -3
41 -14 89 -22 106 -22 40 -114 123 -157 141 -18 8 -31 16 -28 19 3 3 23 -4 46
-15 22 -12 42 -21 43 -21 2 0 5 12 6 28 2 28 34 62 59 62 8 0 13 6 11 13 -3 6
-23 13 -47 15 -23 2 -39 7 -36 13 4 5 -1 9 -10 9 -11 0 -15 -5 -11 -15 4 -12
-3 -15 -34 -15 -41 0 -46 -7 -42 -62 1 -10 -5 -18 -13 -18 -12 0 -14 8 -10 31
4 19 2 28 -5 24 -5 -3 -10 -1 -10 5 0 7 -7 9 -16 6 -8 -3 -12 -2 -9 4 4 6 -6
7 -25 4 -20 -4 -30 -3 -30 5 0 7 -5 9 -10 6 -6 -4 -8 -10 -5 -15 9 -14 -30 -5
-42 10 -8 9 -12 10 -13 3 0 -6 -12 -10 -27 -8 -16 2 -32 0 -38 -5 -5 -4 -17
-7 -25 -7 -8 -1 -49 -4 -90 -8 -66 -6 -81 -5 -114 13 l-38 21 73 21 c41 12 94
27 119 35 74 22 238 62 355 86 131 27 127 36 -6 13 -52 -9 -119 -20 -148 -24
-30 -5 -85 -16 -123 -25 -37 -9 -72 -15 -79 -13 -6 2 59 21 145 42 85 21 153
42 150 47 -3 5 1 9 8 9 40 2 -61 29 -109 30 -88 3 -156 12 -143 20 7 4 0 7
-16 7 -16 0 -23 -2 -16 -4 6 -3 12 -9 12 -15 0 -5 -6 -8 -12 -6 -7 3 -19 -1
-26 -9 -20 -19 -50 -16 -57 6 -4 13 -12 18 -22 14 -11 -4 -14 -2 -9 5 15 24
-18 11 -61 -24 -42 -35 -45 -35 -68 -20 -34 22 -31 28 8 21 26 -4 41 1 80 31
27 19 47 37 45 39 -6 6 -133 -21 -156 -34 -13 -7 -26 -10 -28 -8 -7 7 101 57
122 57 10 0 15 2 12 5 -3 3 -40 0 -82 -7 -84 -13 -96 -8 -96 39 0 28 61 78
112 91 45 12 147 1 218 -24 60 -20 119 -69 102 -86 -35 -35 5 -37 56 -3 44 30
50 31 76 5 21 -19 22 -19 91 0 39 11 55 18 38 15 -18 -2 -39 -2 -48 1 -13 5
-13 10 1 36 9 16 13 32 11 35 -3 2 -8 -5 -12 -16 -5 -17 -60 -51 -81 -51 -3 0
7 22 21 50 14 27 26 69 26 92 l2 43 6 -39 6 -39 18 37 c21 45 22 124 2 172 -8
19 -38 68 -66 110 -79 114 -189 196 -499 375 -265 151 -290 164 -314 149 -19
-12 -20 -12 -8 3 12 14 8 24 -31 74 -80 105 -352 406 -444 493 -110 104 -193
150 -286 157 -76 6 -159 -15 -232 -59 -40 -24 -46 -26 -31 -9 33 37 138 82
205 88 75 7 80 23 7 23 -52 0 -135 -22 -146 -39 -3 -5 -27 -22 -53 -39 -27
-17 -72 -53 -101 -80 -29 -27 -60 -51 -68 -54 -8 -3 -20 -25 -27 -48 -12 -39
-11 -45 7 -63 l20 -20 -26 -53 c-25 -52 -25 -54 -7 -74 23 -25 35 -26 35 0 0
35 26 22 46 -22 30 -67 26 -198 -8 -263 -41 -78 -54 -92 -70 -77 -11 11 -7 24
21 77 31 58 33 65 18 79 -28 29 -29 52 -2 92 27 39 28 57 4 62 -8 1 -26 -19
-42 -48 -27 -47 -28 -53 -13 -69 15 -17 22 -41 11 -41 -3 0 -17 7 -30 16 -28
19 -32 46 -9 65 8 7 22 25 29 40 13 23 12 27 -1 25 -9 0 -25 17 -38 38 -21 39
-22 41 -5 90 12 36 14 57 7 70 -6 10 -7 41 -4 67 4 31 3 49 -4 49 -5 0 -10 -4
-10 -10 0 -19 -18 -10 -23 13 -2 12 -12 49 -21 82 -9 33 -20 87 -25 121 -5 33
-18 75 -28 92 l-20 32 -6 -147 c-4 -82 -12 -314 -18 -518 -6 -203 -12 -371
-14 -373 -1 -2 -15 0 -29 4 -24 6 -25 8 -10 18 11 8 18 32 20 72 4 45 2 55 -6
42 -21 -34 -29 -17 -34 75 -6 103 -10 135 -19 157 -11 26 -3 175 9 173 18 -3
14 57 -7 98 -12 21 -18 43 -15 48 4 5 2 12 -4 16 -5 3 -10 -1 -10 -10 0 -9 -4
-14 -8 -11 -14 9 -12 64 4 94 17 32 17 36 3 86 -8 29 -13 36 -20 25 -6 -10 -9
-4 -9 20 l0 33 27 -17 c25 -17 27 -17 44 6 30 39 91 159 81 159 -6 0 -32 -29
-58 -65z m-719 -123 c-15 -13 -91 -57 -83 -48 13 15 73 55 83 56 6 0 6 -3 0
-8z m-111 -73 c-10 -11 -28 -25 -39 -30 -11 -6 -4 4 15 21 40 35 52 39 24 9z
m396 -39 c-8 -5 -17 -7 -19 -4 -3 3 1 9 9 14 8 5 17 7 19 4 3 -3 -1 -9 -9 -14z
m-500 -51 c-80 -73 -193 -180 -291 -276 -77 -75 -96 -99 -92 -116 4 -18 3 -19
-7 -7 -9 13 -10 12 -6 -5 3 -11 8 -38 10 -59 5 -39 20 -58 40 -50 11 5 41 44
98 126 18 26 36 48 40 48 4 0 -24 -48 -62 -106 -39 -58 -70 -110 -70 -115 0
-24 -23 -3 -61 56 -23 36 -45 65 -48 65 -36 0 -676 -306 -739 -353 -52 -39
-22 -40 54 -3 159 77 305 135 403 161 118 30 82 13 -104 -49 -171 -58 -348
-156 -413 -230 -77 -88 -111 -193 -92 -285 22 -102 22 -99 3 -66 -9 17 -18 62
-21 103 -3 39 -9 72 -13 72 -16 0 -9 64 11 105 11 22 19 45 20 51 0 14 53 64
69 64 7 0 10 4 7 9 -4 5 2 8 11 6 22 -3 45 14 37 27 -3 5 -13 4 -22 -3 -10 -6
3 8 28 31 50 46 374 210 666 338 61 27 88 49 205 165 74 73 188 179 254 235
120 102 169 137 85 61z m820 16 c-7 -8 -19 -15 -26 -15 -8 0 -14 -7 -14 -15 0
-13 -4 -14 -22 -3 -22 12 -22 12 -3 16 11 3 29 11 40 18 26 18 41 18 25 -1z
m297 -107 c-3 -8 -6 -5 -6 6 -1 11 2 17 5 13 3 -3 4 -12 1 -19z m-1151 -50 c5
-7 3 -8 -6 -3 -10 6 -12 4 -6 -11 4 -10 4 -15 0 -11 -4 4 -26 -10 -48 -30 -39
-37 -28 -17 23 40 28 31 28 31 37 15z m1205 -415 c-12 -20 -14 -14 -5 12 4 9
9 14 11 11 3 -2 0 -13 -6 -23z m-9 -53 c3 -22 2 -27 -8 -19 -6 5 -10 19 -7 29
7 27 10 25 15 -10z m-1705 14 c-3 -3 -12 -4 -19 -1 -8 3 -5 6 6 6 11 1 17 -2
13 -5z m588 -89 c17 -5 32 -11 35 -14 3 -3 32 -19 65 -36 76 -38 163 -92 193
-118 12 -11 22 -17 22 -13 0 5 15 -5 34 -20 18 -16 48 -40 66 -53 18 -14 45
-36 60 -50 63 -58 69 -61 128 -61 31 0 111 5 177 11 104 10 136 10 235 -5 63
-10 173 -26 244 -36 70 -10 130 -21 132 -23 3 -2 -44 -7 -103 -11 -100 -6
-348 -42 -365 -53 -5 -2 -8 -20 -8 -39 0 -19 -2 -34 -4 -34 -2 0 -37 16 -77
35 -90 43 -138 50 -240 35 -101 -14 -116 -6 -18 10 65 11 71 14 54 26 -10 8
-33 17 -52 20 -18 3 -31 10 -28 14 3 4 -22 11 -54 15 -81 9 -160 -14 -197 -58
-15 -17 -32 -31 -37 -29 -18 6 -75 -58 -70 -79 3 -10 10 -16 16 -12 6 4 7 1 2
-6 -4 -8 1 -21 14 -32 12 -11 21 -26 21 -34 0 -8 9 -20 19 -27 10 -8 21 -25
23 -38 2 -17 10 -26 25 -28 17 -3 23 -11 25 -40 2 -29 7 -36 21 -34 9 2 17 -3
17 -11 0 -10 -8 -13 -25 -9 -21 4 -25 10 -25 38 0 27 -4 34 -19 34 -20 0 -31
18 -31 51 0 12 -7 19 -19 19 -14 0 -21 10 -26 38 -4 20 -10 31 -12 24 -4 -9
-14 -6 -39 13 -19 14 -34 23 -34 20 0 -4 -16 3 -36 15 -19 12 -37 20 -39 18
-3 -2 22 -45 54 -94 120 -184 140 -217 135 -225 -12 -21 -35 -5 -85 62 -91
119 -105 143 -108 184 -1 6 -5 5 -9 -1 -4 -7 -18 -14 -30 -15 l-24 -4 22 -27
c12 -16 15 -26 8 -23 -18 7 -40 44 -33 55 4 6 15 10 25 10 17 0 18 6 13 58 -3
31 -11 64 -18 72 -25 31 -263 387 -290 435 -25 44 -26 48 -7 31 13 -12 22 -14
22 -7 0 7 5 9 10 6 6 -3 10 0 10 8 0 7 17 23 38 35 30 17 50 20 102 18 36 -2
79 -7 95 -11z m1195 -52 c0 -14 -34 -43 -52 -43 -26 0 -22 12 10 32 30 18 42
21 42 11z m-262 -168 c-1 -30 -5 -55 -10 -55 -4 0 -8 25 -8 55 0 30 4 55 10
55 5 0 9 -25 8 -55z m1091 -112 c-96 -125 -206 -249 -214 -242 -10 11 81 125
163 207 54 52 77 68 51 35z m-724 -133 c-22 -4 -38 -8 -35 -9 3 -1 50 -17 105
-37 149 -53 139 -51 132 -23 l-6 24 20 -24 c17 -20 24 -48 20 -74 -1 -4 6 -10
15 -14 9 -3 27 6 45 23 22 21 32 25 38 16 6 -10 19 -9 61 8 29 11 55 19 57 16
2 -2 -3 -25 -11 -50 -20 -58 -20 -55 5 -65 21 -7 21 -8 -10 -43 -19 -22 -27
-39 -21 -43 17 -10 11 -21 -17 -33 -19 -8 -21 -10 -6 -6 18 4 25 -1 34 -23 15
-40 13 -104 -5 -146 -16 -40 -36 -49 -36 -16 0 11 -4 17 -10 14 -19 -12 -30 5
-20 31 7 18 7 23 -1 18 -9 -5 -10 4 -5 30 7 38 -3 46 -33 27 -12 -8 -12 -12
-2 -25 11 -13 8 -18 -21 -35 -18 -11 -38 -25 -45 -30 -7 -6 -14 -7 -18 -2 -3
5 12 18 32 28 29 14 37 23 35 40 -2 15 6 27 23 39 14 9 22 20 17 23 -9 6 -16
40 -13 69 1 6 8 12 16 12 8 0 14 3 14 8 -3 19 3 33 23 52 12 11 19 23 15 26
-7 7 -50 -35 -150 -144 -31 -35 -57 -61 -57 -58 0 3 36 46 80 96 44 50 80 93
80 97 0 3 -21 -13 -46 -37 l-46 -42 -22 21 c-30 28 -46 27 -46 -4 0 -14 -5
-25 -11 -25 -5 0 -7 5 -3 12 5 8 2 9 -9 5 -10 -4 -24 -10 -34 -14 -12 -5 -14
-3 -8 8 5 8 -4 3 -19 -11 -23 -21 -29 -22 -36 -10 -24 38 -2 78 61 109 36 18
85 11 81 -11 -5 -31 16 -19 23 12 10 46 -14 76 -77 94 -137 39 -257 66 -303
67 -44 0 -47 1 -25 11 30 12 120 25 175 25 l40 0 -40 -7z m92 4 c-3 -3 -12 -4
-19 -1 -8 3 -5 6 6 6 11 1 17 -2 13 -5z m-1136 -95 c-5 -24 -9 -37 -10 -28 -1
9 -8 23 -17 30 -15 12 -14 15 6 31 13 10 24 17 26 15 2 -2 0 -23 -5 -48z
m-1567 -98 c-5 -6 -33 31 -33 44 -1 6 8 -1 19 -15 10 -14 17 -27 14 -29z
m4533 17 c-3 -7 -5 -2 -5 12 0 14 2 19 5 13 2 -7 2 -19 0 -25z m-1074 5 l39
-18 -4 -70 c-2 -46 -9 -81 -21 -98 -17 -26 -19 -26 -41 -12 -19 13 -25 13 -28
3 -3 -7 -8 6 -11 30 -4 23 -12 42 -18 42 -6 0 -8 -9 -4 -20 4 -11 2 -20 -4
-20 -10 0 -13 8 -15 55 -2 33 41 95 66 95 8 1 6 6 -6 15 -27 21 -2 19 47 -2z
m-1189 -114 c21 17 47 31 57 31 22 0 48 -32 85 -107 16 -32 32 -60 36 -63 3
-3 16 -30 28 -60 12 -30 28 -68 35 -85 27 -58 53 -141 60 -186 l6 -46 37 19
c32 17 52 19 142 15 134 -6 318 -25 348 -37 26 -11 28 -34 5 -86 -9 -22 -16
-42 -15 -46 3 -14 -70 -44 -273 -113 l-200 -68 -37 35 c-21 19 -38 40 -38 46
0 13 -40 37 -40 25 -1 -13 -39 61 -40 76 0 11 3 11 15 1 17 -14 21 0 4 17 -8
8 -17 6 -35 -9 l-23 -21 43 -48 c61 -67 81 -112 93 -206 6 -49 -21 -182 -43
-209 -15 -18 -15 -18 -9 1 37 104 32 217 -14 309 -57 117 -164 186 -301 194
-41 2 -92 0 -113 -6 -20 -6 -35 -6 -32 -1 10 15 84 30 156 30 70 0 128 -13
164 -37 26 -18 35 -18 35 2 0 10 -6 14 -14 11 -8 -3 -17 1 -20 9 -4 10 -13 13
-26 9 -15 -5 -18 -3 -14 9 4 12 2 15 -9 11 -8 -4 -17 1 -21 11 -4 12 -2 15 9
10 8 -3 15 -1 15 4 0 6 -7 10 -16 10 -10 0 -14 6 -11 14 3 8 -2 16 -14 19 -10
3 -19 11 -19 19 0 10 3 9 10 -2 8 -12 10 -11 10 8 0 20 -3 21 -20 12 -11 -6
-20 -15 -20 -20 0 -5 -6 -7 -13 -4 -8 3 -19 -5 -26 -18 -12 -25 -10 180 6 477
7 116 9 129 13 77 l5 -64 39 31z m-1721 28 c15 -7 27 -15 27 -19 0 -5 6 -8 13
-8 16 0 67 -51 67 -67 0 -6 6 -16 14 -22 17 -14 27 -108 15 -140 -7 -16 -15
-22 -29 -18 -11 3 -21 -1 -24 -10 -4 -10 -17 4 -37 43 -43 81 -92 146 -145
192 -24 22 -44 44 -44 50 0 12 62 21 95 14 11 -2 32 -9 48 -15z m-218 -12
c-23 -8 -133 -11 -129 -3 3 4 35 8 72 7 37 0 63 -2 57 -4z m-178 -11 c-3 -3
-12 -4 -19 -1 -8 3 -5 6 6 6 11 1 17 -2 13 -5z m220 0 c-3 -3 -12 -4 -19 -1
-8 3 -5 6 6 6 11 1 17 -2 13 -5z m884 -24 c79 -15 77 -25 -5 -25 -86 0 -107
-13 -139 -85 -17 -38 -22 -78 -30 -260 -10 -241 -12 -251 -30 -226 -8 10 -31
19 -57 22 -24 2 -53 10 -64 18 -12 7 -31 12 -43 10 -15 -3 -23 1 -23 11 0 19
-1 19 60 -5 62 -25 60 -25 60 1 0 12 12 99 26 193 27 178 49 244 102 307 40
49 61 54 143 39z m1447 -22 c-17 -24 -24 -50 -26 -98 -5 -92 6 -114 70 -139
56 -21 48 -28 -14 -11 -48 14 -78 61 -78 121 1 51 21 112 46 140 26 29 28 23
2 -13z m410 25 c-10 -2 -26 -2 -35 0 -10 3 -2 5 17 5 19 0 27 -2 18 -5z m67
-13 c3 -6 -1 -7 -9 -4 -18 7 -21 14 -7 14 6 0 13 -4 16 -10z m-1775 -42 l35
-31 -33 19 c-35 20 -61 44 -46 44 5 -1 25 -15 44 -32z m-1280 18 c0 -2 -11 -6
-25 -8 -13 -3 -22 -1 -19 3 5 9 44 13 44 5z m1246 -42 c8 -18 14 -44 13 -56
-1 -15 -6 -7 -15 22 -7 25 -18 53 -24 64 -9 14 -9 16 0 11 7 -4 18 -22 26 -41z
m383 -3 c0 -14 -1 -14 -6 -1 -3 8 -10 24 -15 35 -9 20 -9 20 6 1 9 -11 16 -27
15 -35z m-1710 8 c24 -17 41 -33 38 -36 -6 -5 -97 54 -97 62 0 12 20 3 59 -26z
m3257 -41 c35 -67 147 -301 179 -373 7 -16 25 -88 40 -160 14 -71 35 -164 46
-207 10 -42 19 -79 19 -83 0 -4 -20 32 -45 79 -46 89 -103 155 -115 135 -5 -7
-15 -1 -28 16 -12 15 -42 50 -67 77 -25 27 -45 53 -45 57 0 4 11 13 25 19 22
10 25 18 25 64 0 81 -37 300 -63 378 -13 39 -20 70 -16 70 3 0 24 -33 45 -72z
m-2932 41 c46 -23 146 -132 146 -159 0 -10 11 -25 25 -34 29 -19 25 -36 -8
-36 -23 0 -87 56 -87 77 0 7 -4 13 -10 13 -17 0 -11 18 8 22 11 3 1 12 -33 29
-35 17 -51 31 -53 47 -4 25 -3 25 -54 13 -40 -9 -78 7 -78 35 0 22 95 18 144
-7z m1402 -64 c-16 -84 -107 -156 -196 -153 l-45 1 45 7 c80 12 120 38 164
104 18 26 26 54 27 85 2 32 3 37 6 17 3 -16 2 -44 -1 -61z m-1856 65 c8 -5 11
-10 5 -10 -5 0 -17 5 -25 10 -8 5 -10 10 -5 10 6 0 17 -5 25 -10z m3445 -10
c-3 -5 -12 -10 -18 -10 -7 0 -6 4 3 10 19 12 23 12 15 0z m-3172 -38 c21 -21
35 -41 31 -45 -7 -7 -84 61 -84 75 0 17 17 7 53 -30z m1452 -30 c-8 -8 -55 47
-55 63 0 6 14 -5 31 -23 17 -19 27 -37 24 -40z m1574 -7 c0 -11 -25 20 -41 50
-5 11 2 7 16 -10 14 -16 25 -34 25 -40z m-3451 15 c29 -11 62 -20 74 -20 30 0
164 -47 213 -75 22 -12 52 -25 67 -29 15 -3 33 -12 40 -19 7 -6 23 -13 36 -15
13 -1 30 -9 38 -17 14 -13 13 -15 -5 -15 -11 0 -38 7 -58 15 -21 8 -65 21 -99
29 -33 9 -143 43 -243 76 -100 33 -188 60 -196 60 -24 0 -17 18 8 23 47 9 74
6 125 -13z m575 -25 c25 -25 51 -45 57 -45 6 0 8 -4 5 -10 -12 -20 -36 -9 -73
31 -72 80 -63 99 11 24z m1132 35 c3 -5 2 -10 -4 -10 -5 0 -13 5 -16 10 -3 6
-2 10 4 10 5 0 13 -4 16 -10z m1792 -80 c14 0 23 -62 12 -74 -6 -6 -9 -3 -9 7
0 9 -9 31 -20 49 -22 37 -27 63 -6 36 7 -10 18 -18 23 -18z m-1722 -8 c-3 -3
-11 0 -18 7 -9 10 -8 11 6 5 10 -3 15 -9 12 -12z m-1805 -83 c0 -18 -18 -9
-23 12 -4 16 -3 18 9 8 8 -6 14 -15 14 -20z m3547 -31 c-3 -8 -6 -5 -6 6 -1
11 2 17 5 13 3 -3 4 -12 1 -19z m-3094 -13 c169 -53 372 -117 375 -120 8 -7
-23 -55 -44 -66 -20 -10 -27 -10 -41 4 -15 12 -48 26 -83 32 -39 8 -77 19 -86
26 -6 5 -37 19 -70 31 -81 31 -157 75 -172 98 -11 18 -9 20 13 20 14 0 63 -11
108 -25z m774 -7 c-3 -8 -6 -5 -6 6 -1 11 2 17 5 13 3 -3 4 -12 1 -19z m3246
15 c-7 -2 -19 -2 -25 0 -7 3 -2 5 12 5 14 0 19 -2 13 -5z m-453 -21 c0 -13
-30 -52 -41 -52 -14 0 -11 22 8 42 17 19 33 24 33 10z m-2810 -25 c0 -7 -7
-22 -15 -33 -13 -17 -14 -16 -4 14 11 33 19 41 19 19z m-355 -92 c-9 -24 -23
-49 -31 -56 -9 -7 -5 9 11 42 14 30 25 63 26 74 1 18 2 18 6 1 3 -10 -3 -38
-12 -61z m3237 -93 c36 -39 89 -68 138 -76 24 -4 47 -12 51 -17 4 -7 45 -11
100 -10 62 0 89 -3 79 -9 -24 -15 -141 -11 -201 6 -150 45 -220 112 -218 211
l1 48 13 -64 c9 -38 24 -74 37 -89z m-2034 108 c27 -17 31 -24 26 -45 -7 -28
10 -35 20 -8 6 14 12 10 31 -22 13 -22 29 -48 35 -57 8 -14 7 -18 -5 -18 -8 0
-14 3 -14 8 1 4 1 14 -1 22 -1 11 -4 9 -10 -5 -14 -33 -12 -58 5 -51 8 3 21 9
29 12 7 3 16 -2 20 -11 4 -12 1 -15 -13 -10 -17 5 -29 -12 -35 -50 0 -5 -8
-10 -16 -10 -8 0 -21 -4 -27 -8 -7 -4 -22 -3 -33 3 -13 7 -20 7 -20 0 0 -5 5
-10 10 -10 6 0 10 -4 10 -10 0 -5 -7 -10 -15 -10 -8 0 -15 -4 -15 -9 0 -5 -9
-11 -21 -14 -12 -3 -18 -10 -15 -15 3 -6 -1 -12 -8 -15 -11 -4 -13 0 -11 15 4
17 2 19 -7 10 -7 -7 -19 -12 -27 -12 -14 0 -14 2 -1 11 12 8 11 9 -6 4 -13 -3
-28 0 -37 10 -9 8 -20 15 -26 15 -6 0 -20 5 -31 10 -11 6 -29 15 -40 20 -11 6
-29 10 -39 10 -11 0 -30 4 -43 9 -48 19 -63 24 -71 22 -4 -1 -18 5 -30 14 -12
8 -16 15 -8 15 8 0 11 6 7 15 -3 8 0 15 7 15 8 0 6 4 -3 10 -25 16 30 60 77
60 41 1 127 21 139 33 4 4 18 7 30 7 13 0 45 14 71 30 55 35 67 36 111 10z
m1974 -142 c-13 -13 -26 8 -17 30 6 16 7 16 17 -1 7 -13 7 -22 0 -29z m-3677
-8 c18 -18 38 -30 43 -26 19 12 86 15 98 5 27 -22 4 -39 -52 -39 -61 0 -72
-16 -18 -26 35 -6 134 -1 184 11 14 3 9 -1 -10 -9 -50 -21 -180 -20 -227 1
-49 22 -140 90 -147 110 -5 13 1 15 44 11 40 -4 58 -12 85 -38z m-462 -33
c-60 -62 -69 -77 -78 -137 -14 -98 47 -299 116 -380 11 -14 18 -20 15 -14 -3
6 -7 26 -10 45 -2 19 -9 54 -16 79 -7 25 -9 64 -6 87 3 23 1 45 -4 48 -15 9
-23 92 -12 123 6 18 6 35 0 45 -5 10 -6 17 -1 16 19 -3 27 2 14 10 -10 7 -11
13 -1 31 10 18 14 20 21 9 8 -12 10 -12 18 1 16 24 23 6 32 -82 5 -46 16 -153
24 -238 9 -85 23 -200 32 -255 19 -119 35 -145 187 -310 108 -118 107 -113 18
-141 -29 -9 -55 -21 -58 -25 -6 -10 39 -297 66 -424 21 -100 52 -316 47 -322
-2 -2 -16 58 -31 134 -24 122 -34 152 -88 258 -34 66 -68 134 -75 150 -8 17
-18 37 -22 45 -5 9 -12 30 -16 48 -4 20 -15 36 -27 41 -20 7 -19 9 11 30 31
22 31 24 26 84 -3 34 -8 76 -11 92 l-5 30 21 -32 c32 -48 36 -40 5 10 -14 23
-30 41 -36 39 -6 -1 -8 2 -4 7 3 6 -19 60 -50 121 -30 60 -54 110 -51 110 2 0
21 -28 44 -63 27 -42 47 -63 62 -64 17 -2 20 2 15 18 -7 22 -253 390 -266 399
-12 8 -22 183 -11 176 5 -3 12 19 15 48 7 68 39 131 90 179 59 55 59 35 0 -26z
m1297 -43 c-22 -44 -65 -133 -95 -199 -62 -137 -75 -135 -16 2 68 155 139 289
149 278 2 -1 -15 -38 -38 -81z m3083 79 c-7 -2 -19 -2 -25 0 -7 3 -2 5 12 5
14 0 19 -2 13 -5z m443 -43 c10 0 13 -7 8 -25 -5 -19 -2 -25 11 -25 12 0 15 5
10 20 -4 12 -2 20 5 20 8 0 10 -13 5 -42 -9 -56 -23 -81 -41 -74 -10 4 -14 -2
-14 -19 0 -14 -5 -25 -10 -25 -6 0 -8 15 -4 40 8 47 -12 62 -49 38 -16 -11
-29 -12 -49 -6 -34 12 -36 24 -6 31 19 5 20 8 7 23 -12 15 -12 16 1 11 8 -3
33 -11 55 -19 22 -7 47 -22 57 -33 16 -20 16 -19 11 7 -5 26 -27 43 -43 33 -5
-3 -11 -1 -15 5 -3 5 1 10 9 10 9 0 19 12 23 27 3 16 8 22 11 15 2 -6 10 -12
18 -12z m-3179 -21 c184 -44 503 -148 503 -164 0 -2 -7 -2 -15 1 -8 4 -15 3
-15 0 0 -4 11 -11 25 -16 22 -8 25 -15 25 -60 0 -60 29 -170 60 -225 54 -98
153 -170 262 -191 l73 -14 -60 3 c-76 4 -169 45 -220 97 -21 21 -54 69 -74
106 -36 65 -65 96 -55 56 3 -10 -1 -24 -9 -30 -21 -18 -123 -51 -144 -47 -10
2 -30 6 -45 10 -19 3 -34 17 -47 43 -11 21 -47 65 -81 98 -180 171 -239 231
-250 254 -13 23 -31 100 -24 100 1 0 42 -9 91 -21z m2973 17 c0 -3 -4 -8 -10
-11 -5 -3 -10 -1 -10 4 0 6 5 11 10 11 6 0 10 -2 10 -4z m-3238 -28 c-23 -28
-74 -141 -77 -171 -3 -17 -9 -61 -15 -97 -6 -36 -12 -81 -14 -100 -2 -25 -3
-21 -4 15 -1 28 3 79 8 115 5 35 7 66 5 68 -2 2 -13 -13 -24 -34 -67 -129 -78
-166 -67 -228 5 -27 17 -42 52 -66 25 -16 58 -30 75 -30 19 0 29 -5 29 -15 0
-19 -42 -20 -79 -1 -15 8 -45 34 -66 57 -36 40 -37 44 -32 96 4 42 22 85 77
188 67 125 125 215 137 215 3 0 1 -6 -5 -12z m1303 -22 c91 -42 145 -129 153
-243 8 -123 -41 -208 -149 -264 -23 -11 -53 -19 -67 -18 -15 2 -32 0 -37 -3
-36 -22 -177 25 -227 76 -34 35 -68 104 -68 139 0 37 16 42 24 6 5 -26 8 -29
26 -19 16 9 20 8 20 -5 0 -18 23 -45 38 -45 5 0 9 -7 9 -15 0 -8 -4 -15 -9
-15 -4 0 -8 -9 -8 -20 0 -24 17 -26 42 -3 17 15 18 15 18 -1 0 -9 4 -15 9 -11
5 3 12 1 16 -5 3 -5 15 -10 26 -10 10 0 19 -6 19 -13 0 -23 22 -38 38 -25 9 8
16 8 20 1 15 -22 69 -25 109 -4 82 42 139 129 134 204 -2 30 -54 22 -79 -13
-13 -16 -27 -30 -33 -30 -18 0 -79 72 -79 93 0 10 -15 32 -32 49 -74 68 -89
84 -101 111 -6 15 -16 27 -22 27 -5 0 -3 5 5 10 13 8 13 10 -1 10 -21 0 -32
26 -16 38 21 17 41 20 107 21 48 1 78 -5 115 -23z m-458 -32 c-3 -3 -12 -4
-19 -1 -8 3 -5 6 6 6 11 1 17 -2 13 -5z m63 -104 c-49 -142 -5 -289 109 -361
60 -39 111 -52 191 -51 55 1 62 0 45 -11 -11 -7 -52 -12 -95 -11 -62 0 -85 5
-130 28 -133 68 -200 206 -170 349 6 31 16 57 21 57 5 0 9 5 9 12 0 11 31 51
36 45 1 -1 -6 -27 -16 -57z m1569 5 c0 -5 -6 1 -14 15 -8 14 -14 30 -14 35 0
6 6 -1 14 -15 8 -14 14 -29 14 -35z m15 -156 c9 -46 7 -141 -2 -135 -5 3 -9
24 -10 48 -1 24 -4 60 -8 81 -7 45 11 51 20 6z m114 -16 c14 -12 14 -13 0 -13
-17 0 -29 21 -27 48 1 13 3 12 6 -3 3 -11 12 -26 21 -32z m19 21 c-3 -3 -12
-4 -19 -1 -8 3 -5 6 6 6 11 1 17 -2 13 -5z m23 -24 c0 -5 5 -10 11 -10 5 0 7
5 3 11 -4 8 0 8 15 0 11 -7 21 -16 21 -20 0 -16 48 -18 63 -3 13 13 23 9 84
-32 37 -25 85 -62 105 -81 20 -19 41 -35 46 -35 5 0 24 -14 41 -32 17 -17 31
-28 31 -24 0 18 59 -67 70 -100 18 -53 2 -135 -41 -216 -6 -12 -6 -18 2 -18 6
0 4 -7 -5 -15 -13 -14 -34 -9 -193 41 -331 104 -373 119 -373 141 0 8 5 11 10
8 6 -3 10 -1 10 5 0 6 -7 13 -17 17 -14 5 -12 9 10 28 l27 21 -48 35 c-26 20
-58 38 -72 42 -14 3 -30 14 -36 24 -10 16 -6 18 42 18 55 0 66 -9 39 -29 -14
-10 -11 -14 15 -29 22 -14 30 -15 30 -5 0 7 9 19 20 26 11 7 20 23 20 36 0 13
6 29 14 36 8 6 12 19 9 27 -5 12 -2 15 10 10 24 -9 21 10 -3 23 -11 6 -20 16
-20 23 0 7 4 6 10 -3 5 -8 10 -10 10 -4 0 7 9 14 20 17 11 3 20 13 20 22 0 9
-3 14 -7 12 -5 -3 -9 6 -9 19 -1 13 2 24 7 24 5 0 9 -4 9 -10z m-2883 -22 c-3
-8 -6 -5 -6 6 -1 11 2 17 5 13 3 -3 4 -12 1 -19z m4004 -25 c-11 -21 -20 -35
-21 -31 0 12 33 78 38 74 2 -2 -6 -21 -17 -43z m-3499 -19 c17 -9 39 -24 48
-33 24 -22 54 -71 48 -76 -4 -5 -127 70 -155 95 -36 30 7 41 59 14z m-35 -55
c118 -57 174 -216 112 -318 -18 -30 -73 -71 -94 -71 -5 0 4 8 20 19 59 36 70
57 73 140 3 64 0 83 -20 121 -30 59 -87 97 -164 111 -69 12 -103 1 -156 -49
-31 -29 -37 -23 -10 9 46 57 162 75 239 38z m1479 10 c36 -9 42 -14 33 -25 -6
-8 -9 -14 -6 -14 3 0 13 -3 23 -7 13 -5 16 -3 11 10 -8 22 11 22 41 1 17 -12
22 -25 22 -60 0 -43 20 -111 93 -317 25 -70 33 -105 28 -125 -10 -37 -44 -41
-72 -8 -28 32 -55 33 -62 4 -5 -19 -8 -20 -24 -7 -12 10 -11 4 6 -18 12 -18
18 -33 12 -33 -5 0 -12 4 -16 10 -3 5 -14 1 -25 -10 -32 -32 -76 -25 -145 20
-16 11 -43 27 -60 36 -16 9 -54 45 -83 80 -29 35 -60 64 -69 64 -9 0 -40 -12
-69 -26 -69 -34 -93 -28 -121 30 -23 47 -22 56 12 56 30 0 37 10 20 27 -18 18
-19 34 -3 31 7 -2 14 7 16 20 2 12 8 22 14 22 5 0 8 7 4 15 -3 8 0 15 7 15 7
0 33 11 59 24 41 20 48 21 53 7 6 -14 8 -14 19 2 8 9 20 15 28 12 10 -4 14 3
14 30 0 20 5 39 10 43 6 4 16 22 23 40 14 32 34 55 29 31 -4 -19 27 -22 45 -5
8 8 16 13 19 11 7 -7 118 -17 118 -11 0 3 -15 12 -32 20 -41 18 -31 19 28 5z
m796 -41 c-7 -7 -12 -8 -12 -2 0 14 12 26 19 19 2 -3 -1 -11 -7 -17z m-205 -4
c-3 -3 -12 -4 -19 -1 -8 3 -5 6 6 6 11 1 17 -2 13 -5z m58 -16 c6 -4 2 -8 -7
-8 -10 0 -18 7 -18 17 0 9 3 12 8 7 4 -5 12 -12 17 -16z m50 2 c-3 -5 -12 -7
-20 -3 -21 7 -19 13 6 13 11 0 18 -4 14 -10z m1225 -7 c0 -5 -9 -19 -20 -33
-16 -20 -19 -21 -14 -5 11 31 34 58 34 38z m-3382 -25 c8 -62 8 -62 -33 -82
-22 -10 -100 -43 -174 -72 -73 -29 -153 -64 -177 -78 -56 -31 -60 -11 -7 33
29 24 35 33 25 43 -19 19 -14 29 8 16 11 -7 20 -18 20 -25 0 -7 5 -13 10 -13
6 0 10 7 10 15 0 10 10 15 29 15 17 0 33 5 36 10 3 6 16 10 28 10 27 0 157 48
178 66 8 8 21 14 27 14 7 0 12 6 12 14 0 17 -38 28 -43 12 -2 -6 -24 -11 -49
-11 -28 0 -44 4 -42 10 3 6 19 9 37 7 22 -2 38 2 46 12 16 19 57 21 59 4z
m2116 -70 c146 -35 167 -43 152 -54 -10 -7 -24 -10 -32 -7 -8 3 -22 2 -31 -1
-14 -6 -15 -9 -4 -16 8 -4 11 -15 8 -23 -5 -13 -11 -14 -36 -4 -30 11 -30 12
-10 23 20 10 20 11 -12 19 -19 4 -39 9 -45 10 -50 12 -134 50 -134 61 0 7 -16
16 -35 20 -41 7 -57 23 -17 17 15 -3 103 -23 196 -45z m-2289 22 c16 -7 14 -8
-12 -7 -17 1 -29 5 -26 10 5 9 12 8 38 -3z m2039 -97 c17 -9 56 -19 86 -23
l55 -7 -53 -2 c-35 -1 -66 6 -91 18 -39 21 -101 83 -101 103 0 6 16 -7 36 -30
20 -24 50 -50 68 -59z m1476 -42 c-38 -76 -70 -141 -70 -145 0 -4 -8 -16 -19
-27 -10 -11 -31 -43 -46 -72 -16 -29 -31 -54 -35 -57 -4 -3 -10 -35 -13 -71
-8 -88 -28 -201 -34 -195 -3 3 0 59 7 125 7 65 10 129 7 140 -3 13 0 21 7 21
14 0 44 47 173 273 47 81 87 147 89 147 3 0 -27 -62 -66 -139z m-3603 112
c-23 -4 -28 -9 -24 -24 3 -10 1 -19 -4 -19 -10 0 -12 33 -2 43 3 4 18 6 32 6
25 -2 25 -2 -2 -6z m333 -42 c0 -29 -50 -93 -67 -86 -10 3 -27 -5 -45 -22 -22
-21 -31 -24 -40 -15 -9 9 -18 6 -40 -15 -22 -21 -31 -24 -40 -15 -9 9 -17 7
-34 -9 -17 -16 -26 -18 -41 -11 -13 7 -28 6 -52 -4 -42 -18 -41 -18 -41 4 0
10 -12 23 -27 29 -24 10 -18 11 42 10 41 -1 76 -6 86 -14 13 -11 19 -10 34 7
14 15 21 17 32 8 11 -8 19 -6 37 11 17 16 31 21 46 16 16 -5 26 -1 37 15 9 13
23 20 36 18 14 -2 22 2 22 12 0 8 7 20 15 27 13 11 13 12 0 13 -8 0 -21 -4
-29 -9 -9 -6 -23 -5 -38 2 -18 8 -27 7 -41 -6 -21 -19 -32 -22 -32 -8 0 5 27
22 60 38 65 32 120 34 120 4z m2086 -101 c15 -22 30 -40 34 -40 16 0 21 -69 7
-102 -18 -41 -104 -138 -124 -138 -8 0 -11 -5 -7 -12 4 -6 3 -9 -2 -5 -5 3
-54 -19 -109 -49 -55 -30 -128 -68 -162 -84 -54 -26 -70 -41 -125 -116 -126
-172 -217 -280 -261 -309 -44 -29 -119 -45 -157 -35 -37 10 -120 73 -120 91 0
6 4 8 9 5 5 -4 7 10 4 32 -3 22 1 51 10 72 l16 35 -6 -55 c-5 -52 -3 -57 27
-87 18 -17 29 -36 26 -41 -8 -14 18 -22 73 -22 73 0 135 52 241 202 40 57 54
56 16 -2 -14 -22 -26 -42 -26 -44 0 -13 93 98 145 172 l58 84 -29 23 c-22 18
-25 25 -14 28 8 3 33 11 55 18 79 24 267 109 322 146 120 80 145 168 70 251
-11 12 -15 22 -9 22 6 0 24 -18 38 -40z m-2663 -41 c14 -6 30 -22 36 -36 15
-32 14 -36 -4 -29 -11 4 -15 -1 -15 -19 0 -19 5 -25 20 -25 12 0 20 -6 19 -12
-3 -27 1 -38 15 -38 18 0 26 -12 32 -45 3 -15 0 -25 -7 -25 -6 0 -9 -9 -6 -20
3 -11 1 -23 -4 -26 -5 -3 -9 -16 -9 -29 0 -12 -6 -25 -13 -28 -19 -7 -68 4
-61 14 3 5 -2 6 -10 3 -9 -3 -20 3 -28 15 -7 12 -22 21 -32 21 -20 0 -20 0 0
15 12 9 14 14 6 15 -7 0 -30 14 -51 31 -38 30 -41 30 -110 23 -56 -5 -76 -3
-95 9 -29 20 -50 73 -33 84 12 8 307 111 319 112 4 1 18 -4 31 -10z m460 -61
c-18 -6 -33 -15 -33 -19 0 -5 -31 -9 -69 -9 -54 0 -70 -4 -75 -16 -9 -23 0
-34 125 -161 122 -123 153 -143 269 -169 36 -8 73 -17 82 -20 17 -5 17 -4 0
25 -24 43 -8 56 54 45 39 -7 51 -15 67 -41 10 -18 16 -37 12 -43 -3 -5 -27
-10 -52 -10 l-45 0 37 -47 c65 -82 127 -141 159 -154 17 -6 72 -28 122 -49 49
-21 114 -45 144 -54 64 -19 78 -11 90 51 l8 38 1 -33 c2 -70 -59 -132 -130
-132 -54 0 -148 54 -240 137 -45 40 -85 73 -90 73 -5 0 -3 -13 6 -29 17 -34
142 -161 158 -161 6 0 8 -3 5 -6 -3 -3 -30 7 -60 22 -29 16 -55 28 -58 29 -3
0 -16 7 -30 15 -14 7 -73 38 -131 67 -103 51 -199 120 -389 279 -122 102 -124
108 -13 60 54 -23 123 -51 153 -60 30 -10 75 -28 99 -39 47 -21 110 -28 111
-12 1 6 -23 15 -52 21 -85 17 -292 100 -362 145 -61 38 -86 80 -86 147 0 39 5
57 21 73 34 34 80 48 154 48 63 -1 67 -2 38 -11z m-400 -35 c-7 -2 -19 -2 -25
0 -7 3 -2 5 12 5 14 0 19 -2 13 -5z m3478 -134 c-4 -61 -6 -60 -15 8 -5 41 -4
52 6 48 9 -4 12 -21 9 -56z m74 31 c13 -5 14 -9 5 -9 -8 0 -24 4 -35 9 -13 5
-14 9 -5 9 8 0 24 -4 35 -9z m-2017 -128 c65 -18 120 -57 155 -114 22 -36 21
-55 -3 -68 -16 -9 -24 -6 -42 17 -13 15 -36 41 -53 58 -16 17 -20 19 -9 5 35
-41 44 -66 43 -117 -1 -49 -3 -47 -14 20 -12 72 -105 146 -183 147 -36 0 -110
-34 -129 -59 -7 -9 -13 -11 -13 -5 0 12 33 44 65 63 18 11 17 12 -7 6 -51 -10
-27 31 32 56 26 12 93 8 158 -9z m-110 -124 c16 -35 18 -53 12 -93 -4 -27 -8
-40 -9 -27 -2 42 -21 12 -23 -36 -1 -40 -2 -37 -8 23 -11 104 -11 175 -1 175
5 0 18 -19 29 -42z m2049 -130 c-2 -29 -3 -6 -3 52 0 58 1 81 3 53 2 -29 2
-77 0 -105z m-1147 119 c0 -2 -17 -19 -37 -38 l-37 -34 30 37 c25 31 44 46 44
35z m-785 -27 c14 -16 15 -23 6 -34 -10 -11 -9 -21 3 -44 13 -26 13 -31 0 -44
-12 -12 -13 -20 -3 -41 9 -20 9 -30 0 -40 -9 -11 -8 -21 4 -43 13 -26 13 -29
-3 -35 -9 -4 -19 -4 -22 -1 -3 2 0 7 6 9 9 3 9 12 1 34 -9 23 -9 32 1 38 10 6
9 14 -2 37 -13 25 -14 31 -1 43 12 12 11 17 -3 38 -11 19 -13 29 -5 42 7 12 6
22 -5 39 -18 27 -2 29 23 2z m-53 -338 c6 -7 16 -11 23 -9 6 3 12 -4 12 -14 2
-22 -7 -24 -26 -6 -8 7 -15 8 -18 2 -2 -5 -12 -28 -23 -50 l-20 -40 5 95 c2
52 8 149 12 215 l7 120 9 -150 c4 -82 13 -155 19 -163z m548 288 c-6 -11 -13
-20 -16 -20 -2 0 0 9 6 20 6 11 13 20 16 20 2 0 0 -9 -6 -20z m1527 -2 c-3 -8
-6 -5 -6 6 -1 11 2 17 5 13 3 -3 4 -12 1 -19z m-2320 -30 c-3 -8 -6 -5 -6 6
-1 11 2 17 5 13 3 -3 4 -12 1 -19z m-1968 -179 c19 -35 39 -71 46 -79 7 -8 36
-60 65 -115 29 -55 57 -103 63 -106 12 -8 47 -82 42 -88 -5 -4 -54 51 -55 61
0 4 -16 24 -35 45 -20 21 -57 69 -83 107 l-47 68 -6 -38 -6 -39 -2 45 c0 25
-5 59 -10 77 -5 17 -11 71 -14 120 -4 51 -3 71 2 47 4 -23 22 -70 40 -105z
m2076 53 c-3 -3 -11 0 -18 7 -9 10 -8 11 6 5 10 -3 15 -9 12 -12z m1324 -9
c14 -10 42 -25 61 -35 33 -17 56 -36 138 -109 31 -29 40 -61 24 -86 -6 -10
-12 -10 -28 2 -10 8 -29 15 -41 15 -12 0 -48 17 -80 38 -75 49 -128 72 -200
86 -57 12 -58 12 -59 46 -1 45 4 58 24 64 32 9 136 -4 161 -21z m-1331 -28
c-6 -14 -13 -23 -15 -21 -5 5 15 46 22 46 3 0 -1 -11 -7 -25z m-1041 -2 c5
-15 -28 -26 -41 -13 -8 8 -7 14 4 20 17 11 32 8 37 -7z m3176 -123 c-5 -65
-29 -166 -43 -185 -4 -5 -18 -42 -31 -82 -13 -40 -27 -69 -32 -66 -6 4 -8 -1
-4 -10 4 -10 2 -16 -6 -14 -7 1 -11 -6 -11 -15 1 -10 -4 -14 -12 -11 -8 3 -14
1 -14 -4 0 -13 -86 -59 -135 -72 -25 -7 -52 -7 -70 -2 l-30 9 38 1 c155 4 252
106 306 321 11 47 24 119 27 160 5 50 10 68 15 55 4 -11 5 -49 2 -85z m-2113
56 c0 -21 6 -36 15 -40 8 -3 15 -13 15 -22 0 -13 -3 -14 -14 -5 -10 8 -16 9
-21 1 -3 -5 -11 -10 -17 -10 -7 0 -9 17 -5 49 4 34 2 51 -6 55 -7 2 -2 5 11 5
19 1 22 -4 22 -33z m1045 -15 c-40 -18 -95 -72 -95 -93 0 -6 -3 -9 -6 -6 -22
22 77 118 121 118 13 0 6 -7 -20 -19z m-2334 -36 c-18 -8 -36 -15 -40 -15 -13
1 45 29 59 29 8 0 0 -6 -19 -14z m325 -11 c18 -14 18 -14 -6 -3 -31 14 -36 19
-24 19 6 0 19 -7 30 -16z m2279 -10 c29 -19 33 -38 8 -30 -10 3 -30 8 -46 12
-15 3 -32 15 -38 27 -11 18 -9 20 20 14 17 -4 42 -14 56 -23z m832 -6 c-3 -7
-5 -2 -5 12 0 14 2 19 5 13 2 -7 2 -19 0 -25z m-1071 -11 c12 -17 52 -79 89
-137 139 -215 321 -487 357 -535 21 -27 38 -54 37 -60 0 -5 -3 -4 -6 3 -2 6
-9 10 -14 6 -5 -3 -9 0 -9 7 0 6 -13 25 -30 41 -16 15 -30 34 -31 41 0 9 -2 9
-5 0 -9 -21 -42 16 -36 40 4 15 1 19 -10 14 -23 -8 -108 80 -108 112 0 6 -9
21 -20 33 -11 12 -41 53 -67 92 -26 39 -67 94 -91 124 -24 29 -55 72 -70 95
-15 23 -40 59 -55 79 -24 30 -27 40 -17 57 17 33 61 27 86 -12z m-2261 2 c8
-12 -30 -56 -57 -65 -10 -3 -18 -11 -18 -17 0 -7 -34 -47 -75 -90 -41 -43 -75
-85 -75 -93 0 -8 -5 -14 -10 -14 -6 0 -22 -12 -36 -26 l-24 -27 5 68 c8 113
76 221 145 232 11 2 38 12 58 23 41 21 77 25 87 9z m294 -29 c29 -40 22 -38
-20 6 -18 19 -27 32 -18 29 9 -3 26 -19 38 -35z m-625 19 c23 -11 25 -16 22
-72 -2 -39 -8 -64 -18 -71 -8 -6 -17 -17 -19 -25 -7 -21 -69 -23 -69 -2 0 14
-2 14 -11 1 -15 -21 -4 99 13 136 20 46 38 53 82 33z m3653 -41 c-3 -7 -5 -2
-5 12 0 14 2 19 5 13 2 -7 2 -19 0 -25z m-1206 -59 c-6 -37 -9 -44 -10 -23 -1
37 11 104 16 88 2 -5 -1 -35 -6 -65z m516 -33 c-19 -51 -19 -53 34 -86 47 -31
51 -36 46 -65 -5 -29 -1 -36 42 -69 27 -20 57 -36 67 -37 10 0 28 -5 39 -10
15 -7 12 -8 -14 -4 -24 4 -40 0 -54 -12 -19 -17 -19 -17 -13 2 5 16 -4 27 -44
54 -28 19 -50 35 -50 37 0 1 4 14 10 29 9 24 6 28 -36 55 -26 16 -51 31 -56
32 -7 3 -6 17 0 40 8 30 7 40 -5 50 -9 7 -18 12 -19 11 -7 -4 -73 27 -79 37
-3 5 -4 14 0 19 7 13 137 -69 132 -83z m-1467 55 c0 -17 4 -18 36 -9 20 5 38
7 41 5 10 -11 22 -148 27 -317 3 -96 2 -164 -2 -150 -5 15 -16 25 -27 26 -31
1 -96 33 -90 44 3 6 1 10 -4 10 -6 0 -11 12 -11 26 0 20 -8 29 -39 42 -22 9
-42 24 -45 32 -9 25 -41 77 -59 95 -21 21 -23 42 -2 25 12 -10 16 -9 21 5 4
10 1 21 -7 25 -7 5 -10 12 -6 17 5 4 12 1 17 -7 13 -21 18 -10 22 48 3 53 14
66 46 55 16 -6 16 -5 -1 15 -18 20 -18 20 5 25 57 11 78 7 78 -12z m-1002 -80
c-20 -28 -181 -195 -171 -177 9 17 174 196 180 196 2 0 -2 -9 -9 -19z m-452
-8 c-4 -9 -10 -37 -13 -60 -3 -24 -10 -46 -16 -50 -9 -6 -7 17 9 100 3 15 10
27 16 27 6 0 7 -8 4 -17z m2403 -79 c8 -29 8 -51 3 -56 -12 -12 -17 -4 -30 45
-11 39 -7 71 8 62 4 -3 13 -26 19 -51z m-2489 20 c0 -8 -5 -14 -11 -14 -8 0
-8 -4 0 -14 10 -11 8 -16 -6 -24 -13 -8 -21 -5 -35 10 -22 26 -23 39 -3 32 8
-4 15 -12 15 -20 0 -8 4 -14 8 -14 5 0 8 15 7 34 0 24 3 32 12 29 7 -3 13 -11
13 -19z m3638 -19 c-6 -14 -13 -23 -15 -21 -5 5 15 46 22 46 3 0 -1 -11 -7
-25z m-2953 -46 c-5 -24 -4 -30 5 -24 17 11 9 -110 -11 -150 -7 -16 -39 -46
-69 -68 -30 -21 -66 -47 -80 -57 -26 -21 -47 -13 -37 14 8 19 54 39 69 30 6
-4 8 -2 5 3 -4 6 -1 13 7 16 8 3 17 21 21 39 10 51 26 88 36 82 5 -3 9 -1 9 5
0 5 9 13 20 16 14 4 20 15 20 33 -1 23 -2 25 -11 10 -7 -13 -21 -18 -47 -16
-37 1 -37 1 -5 5 26 3 34 10 39 31 14 58 41 87 29 31z m-625 -9 c0 -5 -4 -10
-10 -10 -5 0 -10 5 -10 10 0 6 5 10 10 10 6 0 10 -4 10 -10z m76 -19 c-3 -4 0
-22 7 -40 11 -30 10 -34 -26 -67 -38 -36 -40 -42 -28 -84 l7 -25 19 30 c20 30
44 54 56 55 12 0 -4 -52 -17 -57 -8 -3 -23 -24 -33 -48 -10 -23 -24 -46 -30
-49 -6 -4 -28 -33 -49 -64 l-37 -57 -3 43 c-3 39 -5 42 -31 42 -15 0 -31 3
-34 6 -4 4 13 30 36 57 23 28 41 56 39 63 -1 7 2 15 7 19 7 3 7 15 1 29 -8 21
-3 27 41 55 41 25 49 35 49 60 0 25 7 35 28 40 2 1 1 -3 -2 -8z m-166 -11 c0
-5 -2 -10 -4 -10 -3 0 -8 5 -11 10 -3 6 -1 10 4 10 6 0 11 -4 11 -10z m14 -81
c-14 -23 -75 -39 -141 -37 l-68 1 75 7 c41 3 89 14 105 23 36 20 38 20 29 6z
m291 -86 c-22 -27 -66 -79 -100 -118 -33 -38 -71 -83 -84 -100 -12 -16 -38
-47 -58 -68 -19 -21 -33 -41 -30 -43 6 -6 116 91 155 135 12 14 36 40 53 58
17 18 39 47 49 65 12 23 25 33 41 33 40 0 33 -29 -22 -89 -28 -31 -49 -60 -45
-64 4 -3 10 -2 14 4 15 24 51 22 67 -2 8 -13 19 -24 23 -24 5 0 20 23 35 52
32 62 36 48 5 -17 -20 -41 -25 -45 -59 -45 -33 0 -41 -6 -79 -55 -23 -30 -46
-55 -50 -55 -4 0 -12 12 -18 26 -13 28 -22 28 -102 -8 -48 -21 -90 -31 -90
-20 0 8 217 270 283 343 54 59 61 54 12 -8z m2936 -45 c17 -31 -7 -20 -33 15
-38 50 -43 78 -7 37 17 -19 35 -43 40 -52z m-2642 58 c-10 -9 -79 -14 -74 -5
4 5 22 9 42 9 20 0 34 -2 32 -4z m95 -70 c-43 -48 -60 -60 -69 -46 -4 7 88 87
104 89 2 1 -14 -19 -35 -43z m-189 -16 c-4 -12 -9 -19 -12 -17 -3 3 -2 15 2
27 4 12 9 19 12 17 3 -3 2 -15 -2 -27z m205 5 c-13 -14 -26 -22 -29 -19 -3 3
5 14 19 24 34 27 38 25 10 -5z m-264 -24 c5 -5 18 -11 29 -13 19 -4 19 -4 -2
-10 -15 -4 -28 1 -39 13 -17 19 -7 27 12 10z m259 -21 c-3 -5 -2 -10 3 -10 26
0 -10 -87 -40 -99 -42 -16 -94 -31 -106 -31 -23 0 -12 38 21 73 39 43 142 99
122 67z m2178 -37 c-7 -2 -19 -2 -25 0 -7 3 -2 5 12 5 14 0 19 -2 13 -5z
m-2349 -37 c-3 -9 -10 -16 -15 -16 -5 0 -4 9 3 20 14 22 21 20 12 -4z m2484
-46 c-5 -17 -15 -33 -21 -37 -7 -4 -8 0 -3 13 5 10 11 27 13 37 3 9 9 17 14
17 4 0 3 -14 -3 -30z m-2583 0 c3 -5 1 -10 -4 -10 -6 0 -11 5 -11 10 0 6 2 10
4 10 3 0 8 -4 11 -10z m2431 -85 c-10 -25 -41 -69 -69 -98 -28 -29 -51 -59
-52 -67 0 -18 -70 -45 -160 -61 -54 -9 -80 -9 -114 0 -24 6 -48 8 -52 4 -10
-10 -175 1 -314 21 -55 8 -173 25 -262 37 -89 13 -158 26 -152 30 7 4 10 33 7
78 -2 39 -1 71 3 71 4 0 33 -12 64 -26 156 -68 397 -131 464 -120 20 3 117 31
216 62 230 71 317 94 312 80 -3 -10 -80 -56 -101 -61 -6 -1 -22 -7 -36 -12
-23 -10 -121 -41 -196 -64 -17 -5 -39 -9 -50 -9 -11 0 -24 -4 -30 -9 -5 -5
-18 -11 -29 -13 -37 -8 135 -20 218 -16 194 11 286 70 331 212 4 10 9 16 13
13 3 -4 -2 -27 -11 -52z m-2328 -46 c9 -12 9 -16 -1 -16 -7 0 -14 9 -14 20 -1
11 -1 18 0 16 2 -2 8 -11 15 -20z m1125 -106 c-7 -2 -19 -2 -25 0 -7 3 -2 5
12 5 14 0 19 -2 13 -5z m-683 -22 c0 -17 -14 -19 -55 -6 l-40 13 48 1 c26 1
47 -3 47 -8z m264 -11 c-12 -12 -166 -61 -172 -55 -2 2 6 6 18 10 13 4 19 12
16 21 -3 8 -1 14 4 14 6 0 10 -4 10 -9 0 -8 98 13 108 24 3 3 10 5 16 5 7 0 7
-3 0 -10z m176 -29 c-18 -10 -265 -71 -283 -70 -20 1 255 78 283 78 13 0 13
-1 0 -8z m-405 -46 c-22 -8 -53 -13 -70 -13 -21 0 -13 4 25 13 72 16 95 16 45
0z m85 -35 c-14 -4 -34 -8 -45 -8 -16 0 -15 2 5 8 14 4 34 8 45 8 16 0 15 -2
-5 -8z m-95 -20 c-16 -4 -50 -7 -75 -7 l-45 0 45 7 c25 4 59 7 75 7 l30 1 -30
-8z"/>
<path d="M2116 3913 c-11 -11 -6 -23 9 -23 8 0 15 4 15 9 0 13 -16 22 -24 14z"/>
<path d="M2030 3875 c0 -8 2 -15 4 -15 2 0 6 7 10 15 3 8 1 15 -4 15 -6 0 -10
-7 -10 -15z"/>
<path d="M3470 3691 c0 -6 4 -13 10 -16 6 -3 7 1 4 9 -7 18 -14 21 -14 7z"/>
<path d="M4085 3740 c3 -5 8 -10 11 -10 2 0 4 5 4 10 0 6 -5 10 -11 10 -5 0
-7 -4 -4 -10z"/>
<path d="M3160 3209 c0 -5 5 -7 10 -4 6 3 10 8 10 11 0 2 -4 4 -10 4 -5 0 -10
-5 -10 -11z"/>
<path d="M3096 3095 c-9 -26 -7 -32 5 -12 6 10 9 21 6 23 -2 3 -7 -2 -11 -11z"/>
<path d="M3116 3075 c-8 -22 3 -40 16 -27 7 7 7 16 1 27 -9 16 -10 16 -17 0z"/>
<path d="M3206 2911 c-4 -7 -5 -15 -2 -18 9 -9 19 4 14 18 -4 11 -6 11 -12 0z"/>
<path d="M3235 2870 c-8 -13 -1 -24 14 -19 6 3 7 10 2 18 -6 10 -10 10 -16 1z"/>
<path d="M3000 2319 c0 -5 5 -7 10 -4 6 3 10 8 10 11 0 2 -4 4 -10 4 -5 0 -10
-5 -10 -11z"/>
<path d="M3070 2321 c0 -7 -5 -9 -12 -5 -7 5 -8 3 -3 -5 5 -9 10 -10 18 -2 6
6 8 14 4 18 -4 3 -7 1 -7 -6z"/>
<path d="M3206 2241 c-3 -4 7 -19 22 -32 l27 -24 -23 26 c-12 14 -19 29 -15
32 3 4 4 7 0 7 -3 0 -8 -4 -11 -9z"/>
<path d="M3350 2069 c0 -5 5 -7 10 -4 6 3 10 8 10 11 0 2 -4 4 -10 4 -5 0 -10
-5 -10 -11z"/>
<path d="M3390 2020 c0 -5 5 -10 11 -10 5 0 7 5 4 10 -3 6 -8 10 -11 10 -2 0
-4 -4 -4 -10z"/>
<path d="M3346 1432 c-30 -34 -37 -45 -17 -27 30 27 77 85 69 85 -2 0 -25 -26
-52 -58z"/>
<path d="M1400 2005 c0 -8 4 -15 10 -15 5 0 7 7 4 15 -4 8 -8 15 -10 15 -2 0
-4 -7 -4 -15z"/>
<path d="M1335 850 c-3 -5 -1 -10 4 -10 6 0 11 5 11 10 0 6 -2 10 -4 10 -3 0
-8 -4 -11 -10z"/>
<path d="M3215 311 c-3 -5 12 -12 33 -15 20 -4 46 -10 57 -13 11 -3 17 -2 13
1 -12 13 -97 35 -103 27z"/>
<path d="M3118 303 c7 -3 16 -2 19 1 4 3 -2 6 -13 5 -11 0 -14 -3 -6 -6z"/>
<path d="M3013 5286 c-25 -12 -31 -26 -10 -26 14 1 47 24 47 34 0 8 -10 6 -37
-8z"/>
<path d="M3073 5210 c0 -25 2 -35 4 -22 2 12 2 32 0 45 -2 12 -4 2 -4 -23z"/>
<path d="M3060 5131 c0 -5 7 -11 14 -14 10 -4 13 -1 9 9 -6 15 -23 19 -23 5z"/>
<path d="M4126 4872 c29 -27 93 -68 149 -97 127 -64 125 -63 90 -26 -16 17
-62 50 -103 72 -40 22 -94 53 -119 70 -68 43 -75 35 -17 -19z"/>
<path d="M4617 4476 c71 -85 149 -172 161 -179 7 -5 41 -30 77 -58 35 -27 67
-49 70 -49 9 0 -121 145 -164 184 -19 17 -61 55 -93 84 -65 59 -94 69 -51 18z"/>
<path d="M4870 3525 c-19 -19 -42 -35 -53 -35 -10 0 -15 -4 -12 -10 10 -17 28
-11 78 24 37 26 44 36 34 45 -10 8 -21 2 -47 -24z"/>
<path d="M5303 3423 c9 -2 23 -2 30 0 6 3 -1 5 -18 5 -16 0 -22 -2 -12 -5z"/>
<path d="M5410 3356 c-30 -23 -64 -53 -75 -66 l-20 -23 25 13 c44 23 140 102
134 111 -7 12 -2 15 -64 -35z"/>
<path d="M5216 3232 c-3 -5 1 -9 9 -9 8 0 15 4 15 9 0 4 -4 8 -9 8 -6 0 -12
-4 -15 -8z"/>
</g>
</svg>
