<?xml version="1.0" standalone="no"?>
<!DOCTYPE svg PUBLIC "-//W3C//DTD SVG 20010904//EN"
 "http://www.w3.org/TR/2001/REC-SVG-20010904/DTD/svg10.dtd">
<svg version="1.0" xmlns="http://www.w3.org/2000/svg"
 width="197.000000pt" height="221.000000pt" viewBox="0 0 197.000000 221.000000"
 preserveAspectRatio="xMidYMid meet">

<g transform="translate(0.000000,221.000000) scale(0.100000,-0.100000)"
fill="#FFFFFF" stroke="none">
<path d="M1138 2143 c-51 -56 -58 -74 -58 -150 l0 -72 56 -66 c63 -74 83 -85
155 -85 63 0 101 -19 130 -67 29 -47 32 -133 7 -178 -9 -16 -23 -41 -30 -55
-20 -40 -89 -150 -94 -150 -3 0 -2 5 2 12 4 7 3 8 -4 4 -7 -4 -12 -14 -12 -23
0 -8 -10 -28 -21 -45 -12 -16 -34 -62 -49 -101 l-28 -72 5 65 c4 41 19 96 40
148 29 72 33 88 24 114 -6 17 -11 42 -11 54 0 17 -6 24 -20 24 -21 0 -27 15
-10 25 7 4 7 12 0 25 -5 10 -10 32 -10 49 0 28 -21 61 -40 61 -14 0 -81 100
-107 159 -17 37 -27 51 -32 42 -11 -18 -23 1 -27 43 l-3 31 14 -25 15 -25 -2
35 c-2 25 -8 36 -22 38 -25 5 -46 -22 -96 -124 -21 -45 -67 -115 -100 -155
-33 -41 -63 -85 -67 -99 -3 -14 -14 -42 -24 -62 -10 -20 -19 -58 -20 -85 -2
-111 -4 -133 -12 -133 -4 0 -12 11 -17 25 -5 14 -14 25 -19 25 -5 0 2 -20 16
-45 13 -25 21 -45 16 -45 -10 0 -103 131 -103 144 0 4 -9 19 -20 33 -11 14
-20 30 -20 35 0 6 20 -17 45 -51 25 -34 47 -61 50 -61 9 0 -15 43 -40 70 -54
62 -89 134 -93 196 -7 103 31 149 129 161 94 11 206 72 234 128 27 54 27 158
-1 205 -22 38 -40 37 -36 -3 1 -17 -3 -30 -13 -33 -8 -4 -15 -13 -15 -20 0 -8
-20 -37 -45 -63 -25 -26 -45 -55 -45 -63 0 -26 -25 -38 -86 -43 -82 -6 -119
-19 -169 -59 -56 -46 -72 -84 -81 -187 -8 -100 2 -141 51 -209 44 -62 142
-240 160 -291 8 -23 15 -63 15 -90 0 -58 -14 -69 -89 -69 -39 0 -56 -6 -80
-26 -42 -35 -40 -15 4 77 61 127 46 230 -61 414 -79 136 -97 178 -100 230 -6
95 29 145 139 203 31 17 53 33 48 37 -6 3 -34 6 -64 7 -74 2 -122 -27 -176
-106 -23 -35 -47 -83 -52 -107 -13 -57 4 -170 36 -231 13 -26 20 -50 15 -53
-4 -3 -10 1 -13 9 -3 8 -26 22 -52 31 -39 15 -49 16 -70 5 -33 -18 -75 -80
-75 -112 0 -57 41 -118 65 -98 7 6 24 8 38 5 37 -10 41 -62 10 -150 -36 -104
-44 -163 -27 -205 21 -49 39 -66 115 -107 37 -20 66 -40 63 -44 -2 -4 4 -10
14 -13 27 -9 119 -116 99 -116 -3 0 -15 16 -28 36 -12 20 -42 49 -65 64 -24
15 -41 30 -37 34 3 3 -10 6 -31 6 -91 0 -164 -81 -152 -168 9 -69 45 -107 145
-155 58 -28 90 -50 98 -67 64 -137 130 -260 152 -283 14 -16 51 -44 82 -63 44
-27 67 -34 105 -34 61 1 134 25 209 71 70 42 95 85 95 163 0 47 -4 58 -30 83
-16 15 -45 31 -62 35 -64 13 -160 -69 -143 -122 8 -26 45 -27 45 -2 0 26 10
33 31 21 11 -5 19 -21 19 -35 0 -32 -49 -54 -123 -54 -50 0 -55 2 -104 53 -60
61 -94 132 -97 200 l-1 49 90 40 c50 22 104 51 122 64 18 14 53 33 78 44 26
11 73 46 106 77 l60 57 38 -40 c54 -56 162 -139 218 -167 26 -14 86 -39 133
-58 98 -37 113 -48 113 -82 -1 -33 -49 -160 -75 -192 -31 -40 -90 -65 -151
-65 -51 0 -57 3 -91 40 -20 22 -36 45 -36 50 0 16 30 24 43 11 16 -16 27 -14
27 7 0 14 2 15 9 2 6 -8 7 -18 4 -24 -4 -5 1 -7 11 -3 10 4 22 7 27 7 16 0 10
44 -11 78 -11 17 -22 32 -25 32 -3 0 2 -12 12 -27 l17 -28 -25 21 c-13 12 -31
24 -39 27 -11 4 -9 6 5 7 18 1 18 2 3 11 -9 5 -36 6 -58 3 -92 -15 -150 -138
-105 -223 17 -35 80 -86 129 -106 90 -38 232 -6 308 68 45 44 113 154 168 269
20 43 39 68 49 68 51 1 167 84 197 141 8 16 14 48 14 71 0 39 -4 47 -42 76
-42 33 -44 41 -5 21 20 -11 21 -10 6 6 -9 9 -35 21 -59 26 -38 9 -47 7 -79
-16 -57 -40 -84 -67 -114 -113 -31 -47 -32 -47 -78 -28 l-33 14 64 31 c36 17
85 50 110 74 25 23 75 64 112 90 37 26 79 57 93 69 37 32 65 116 66 201 1 92
-7 123 -43 170 -23 29 -28 45 -26 75 l4 37 12 -28 c6 -15 19 -30 28 -34 24 -9
55 29 61 76 5 37 2 46 -22 72 -55 57 -136 29 -196 -67 -27 -45 -21 -102 21
-192 33 -71 37 -115 15 -168 -13 -32 -35 -39 -35 -12 0 5 -15 31 -32 57 -30
42 -33 53 -32 116 0 76 35 202 79 285 44 84 55 121 55 195 0 58 -5 82 -26 121
-45 86 -124 137 -206 132 -47 -3 -52 -5 -59 -31 -7 -26 -5 -30 36 -47 59 -25
123 -85 134 -125 17 -64 -23 -191 -117 -365 l-57 -105 2 -106 c1 -92 5 -113
27 -157 14 -27 23 -52 20 -55 -3 -3 -23 1 -44 8 -21 7 -47 11 -58 8 -13 -3
-32 6 -56 27 -33 30 -36 36 -36 88 0 65 25 155 55 197 12 17 49 76 83 133 71
117 97 205 86 288 -5 45 -13 59 -67 117 -66 70 -94 83 -158 74 -37 -5 -92 9
-112 29 -4 4 0 15 9 25 15 17 14 21 -19 61 -45 55 -59 92 -51 134 8 41 -4 43
-38 7z m-271 -85 c-3 -7 -5 -2 -5 12 0 14 2 19 5 13 2 -7 2 -19 0 -25z m364
-85 c13 -16 12 -17 -3 -4 -10 7 -18 15 -18 17 0 8 8 3 21 -13z m522 -165 l19
-33 -21 25 c-12 14 -27 34 -33 45 -9 17 -9 18 3 8 8 -6 22 -26 32 -45z m-673
-72 c23 -30 24 -30 1 -11 -13 11 -29 33 -37 50 -8 18 -9 22 -2 11 7 -10 24
-33 38 -50z m-77 9 c4 -8 2 -17 -3 -20 -6 -4 -10 3 -10 14 0 25 6 27 13 6z
m171 -114 c-2 -2 -17 8 -33 22 -16 13 -27 27 -24 30 6 6 63 -45 57 -52z m-123
32 c13 -16 12 -17 -3 -4 -10 7 -18 15 -18 17 0 8 8 3 21 -13z m6 -55 c-2 -22
0 -22 -22 1 -16 19 -16 20 3 18 13 -1 20 -8 19 -19z m47 6 c3 -8 2 -13 -3 -9
-5 3 -11 -1 -14 -7 -3 -7 -4 -3 -4 10 1 25 12 29 21 6z m-721 -193 c30 -55 32
-61 15 -61 -6 0 -8 3 -5 6 4 4 -2 19 -12 33 -28 39 -43 71 -34 71 4 0 20 -22
36 -49z m-254 -77 c3 -16 1 -17 -13 -5 -19 16 -21 34 -3 29 6 -3 14 -13 16
-24z m173 -190 c-6 -46 -21 -100 -34 -125 l-23 -44 -3 33 c-2 21 6 52 22 84
21 42 26 67 27 132 1 76 2 79 12 41 7 -28 7 -64 -1 -121z m398 68 c0 -15 -2
-15 -10 -2 -13 20 -13 33 0 25 6 -3 10 -14 10 -23z m7 -44 c-3 -8 -6 -5 -6 6
-1 11 2 17 5 13 3 -3 4 -12 1 -19z m364 -41 c-30 -31 -37 -13 -10 25 20 27 24
30 27 14 2 -10 -5 -28 -17 -39z m-221 12 c0 -6 -4 -7 -10 -4 -5 3 -10 11 -10
16 0 6 5 7 10 4 6 -3 10 -11 10 -16z m-40 -145 c0 -20 -86 -111 -96 -101 -2 2
5 26 17 53 12 27 21 66 21 87 l1 38 28 -27 c16 -15 29 -38 29 -50z m369 10
c-7 -34 -5 -53 6 -75 l15 -29 -33 16 c-28 14 -67 61 -67 83 0 4 16 13 35 21
19 8 35 17 35 22 0 4 4 8 9 8 5 0 5 -20 0 -46z m-669 -48 c0 -2 -7 -7 -16 -10
-8 -3 -12 -2 -9 4 6 10 25 14 25 6z m1011 -46 c9 -10 20 -16 23 -12 4 3 4 -2
0 -13 -5 -11 -9 -14 -12 -7 -5 17 -56 42 -84 42 -17 0 -20 3 -9 9 21 13 64 3
82 -19z m-771 -124 c0 -2 -8 -10 -17 -17 -16 -13 -17 -12 -4 4 13 16 21 21 21
13z m460 -32 c0 -8 -19 -13 -24 -6 -3 5 1 9 9 9 8 0 15 -2 15 -3z m46 -31 c-6
-6 -36 9 -36 18 0 5 9 4 20 -3 10 -7 18 -14 16 -15z m466 -115 c8 -21 -2 -38
-23 -38 -21 0 -25 20 -7 38 15 15 25 15 30 0z m-822 -288 c11 -6 24 -20 30
-33 l11 -22 -18 21 c-10 12 -27 26 -38 32 -11 6 -16 12 -12 12 5 0 17 -5 27
-10z m47 -92 c-3 -7 -5 -2 -5 12 0 14 2 19 5 13 2 -7 2 -19 0 -25z"/>
</g>
</svg>
