<?xml version="1.0" standalone="no"?>
<!DOCTYPE svg PUBLIC "-//W3C//DTD SVG 20010904//EN"
 "http://www.w3.org/TR/2001/REC-SVG-20010904/DTD/svg10.dtd">
<svg version="1.0" xmlns="http://www.w3.org/2000/svg"
 width="936.000000pt" height="1291.000000pt" viewBox="0 0 936.000000 1291.000000"
 preserveAspectRatio="xMidYMid meet">

<g transform="translate(0.000000,1291.000000) scale(0.100000,-0.100000)"
fill="#FFFFFF" stroke="none">
<path d="M6990 12781 c0 -11 -4 -23 -10 -26 -15 -9 -12 -41 6 -56 8 -7 51 -67
95 -133 43 -67 99 -150 124 -185 25 -35 72 -117 106 -183 53 -105 60 -126 62
-181 0 -34 -3 -73 -7 -85 -10 -29 -76 -61 -131 -63 l-40 -1 42 -11 c88 -21
183 35 199 118 11 61 -1 157 -27 210 -34 71 -34 72 -14 52 12 -13 20 -15 25
-7 8 13 72 -105 107 -200 33 -85 37 -218 9 -300 -10 -30 -22 -59 -27 -65 -5
-5 -9 -17 -9 -26 0 -9 -6 -22 -14 -28 -20 -17 -230 91 -341 174 -216 161 -403
357 -356 373 16 5 14 22 -3 22 -8 0 -27 -16 -41 -35 -27 -34 -27 -34 -11 -88
13 -46 28 -66 98 -135 135 -131 144 -141 314 -367 70 -93 83 -161 41 -211 -19
-22 -35 -28 -88 -34 -45 -4 -59 -9 -46 -15 26 -11 119 0 159 19 19 9 45 35 59
57 23 39 25 40 69 34 162 -20 153 -20 145 6 -5 13 -9 42 -10 64 -2 22 -6 55
-10 74 -7 29 -6 33 10 29 29 -5 57 -141 51 -245 -5 -87 -41 -191 -93 -265 -21
-31 -25 -50 -28 -120 -1 -46 3 -89 8 -96 8 -10 7 -16 -2 -22 -7 -4 -17 -28
-22 -54 -4 -25 -18 -67 -29 -93 -18 -41 -31 -54 -93 -90 -79 -46 -123 -58
-120 -33 1 8 9 53 17 100 19 99 14 166 -20 252 -12 32 -19 58 -15 58 16 0 52
-33 48 -44 -7 -17 11 -37 66 -76 43 -31 61 -60 37 -60 -7 0 -7 -6 0 -19 13
-26 13 -31 -2 -26 -9 3 -14 -6 -15 -26 -3 -41 22 -36 46 11 37 71 42 86 40
125 -3 61 10 156 22 171 8 10 2 16 -26 29 -21 8 -41 15 -46 15 -14 0 -183 86
-283 144 -49 28 -164 89 -255 136 -133 68 -167 89 -169 108 -3 17 1 22 19 22
17 0 20 3 12 11 -18 18 -57 2 -75 -32 -28 -48 -23 -81 21 -134 56 -68 63 -128
21 -183 -22 -28 -96 -214 -111 -279 -6 -26 -22 -71 -35 -98 -13 -28 -24 -55
-24 -62 0 -17 -46 -24 -74 -12 -22 10 -66 5 -54 -6 13 -13 313 -94 413 -111
l40 -7 -67 58 c-69 58 -83 78 -50 73 11 -2 17 3 17 17 0 11 3 25 7 31 4 6 5
14 1 17 -10 11 -11 67 -1 73 5 3 6 15 3 25 -7 22 12 52 26 43 5 -3 9 2 9 10 0
9 -4 16 -10 16 -17 0 -11 38 8 50 12 8 13 13 5 16 -7 3 -13 12 -13 19 0 18 23
61 34 62 10 2 46 54 46 68 -1 6 -10 -1 -21 -14 -26 -32 -32 -23 -11 19 9 20
29 39 44 44 24 8 34 3 103 -59 191 -171 261 -339 220 -525 -9 -41 -17 -84 -18
-95 -1 -11 -12 -21 -27 -25 l-25 -6 25 -7 c13 -3 29 -2 33 2 11 11 69 -7 62
-19 -8 -13 64 -30 94 -24 17 4 22 3 13 -3 -17 -13 14 -26 121 -54 104 -27 175
-29 210 -6 31 20 82 105 98 162 42 151 286 529 392 606 38 28 39 29 14 29 -29
0 -106 -62 -147 -117 -14 -19 -44 -58 -67 -86 -23 -29 -59 -81 -79 -117 -21
-36 -59 -102 -86 -148 -27 -45 -67 -125 -88 -178 -21 -52 -46 -104 -55 -114
-22 -25 -111 -36 -159 -20 -41 13 -40 25 4 35 17 4 30 13 30 20 0 8 17 24 38
36 43 25 85 88 76 116 -4 12 -3 14 3 5 7 -9 17 -3 39 25 48 61 71 96 79 123 7
22 6 23 -9 11 -14 -12 -16 -11 -16 3 0 9 9 34 20 56 11 22 20 44 20 51 0 6 11
22 25 35 14 13 25 31 25 40 0 16 -2 16 -15 -2 -15 -18 -16 -17 -9 16 8 42 13
49 23 31 6 -9 10 -6 15 12 3 14 9 33 13 44 6 15 5 16 -9 5 -15 -12 -16 -5 -13
75 7 199 6 362 -4 428 -34 220 -54 278 -179 506 -80 147 -124 211 -140 204 -8
-3 -21 3 -29 14 -8 12 -20 18 -29 14 -13 -5 -15 -1 -10 23 4 22 -1 38 -22 65
-97 130 -155 204 -217 278 -101 120 -101 121 -84 132 10 6 7 9 -13 9 -21 0
-28 -5 -28 -19z m145 -1051 c3 -5 1 -10 -4 -10 -6 0 -11 5 -11 10 0 6 2 10 4
10 3 0 8 -4 11 -10z m155 -230 c0 -5 -2 -10 -4 -10 -3 0 -8 5 -11 10 -3 6 -1
10 4 10 6 0 11 -4 11 -10z m20 -46 c0 -9 -5 -14 -12 -12 -18 6 -21 28 -4 28 9
0 16 -7 16 -16z m110 -14 c-8 -5 -22 -9 -30 -9 -10 0 -8 3 5 9 27 12 43 12 25
0z m-670 -200 c0 -5 -10 -26 -22 -47 -12 -21 -31 -56 -44 -78 -30 -54 -82
-220 -97 -313 -12 -73 -15 -78 -48 -94 -67 -33 -73 -21 -34 74 14 34 25 70 25
80 0 22 38 132 73 208 23 51 96 155 121 172 15 11 26 10 26 -2z"/>
<path d="M8549 12610 c-9 -6 -20 -22 -23 -36 -8 -29 11 -62 83 -149 22 -27 41
-55 41 -61 0 -6 25 -44 55 -85 30 -41 60 -90 66 -109 6 -19 21 -53 34 -75 53
-94 92 -330 65 -395 -11 -27 -61 -60 -92 -60 -10 0 -9 -3 2 -10 22 -14 67 -12
99 5 38 19 62 80 71 179 6 65 4 87 -12 130 -10 28 -21 67 -22 87 -4 40 -31
102 -52 120 -8 6 -14 17 -14 24 0 15 -165 264 -233 352 -25 32 -46 66 -48 75
-3 12 -8 14 -20 8z"/>
<path d="M5641 12125 c-17 -20 -31 -40 -31 -46 0 -5 15 -31 34 -58 49 -72 205
-394 233 -481 47 -148 65 -282 58 -420 -4 -69 -13 -138 -20 -155 -8 -16 -36
-54 -63 -82 -61 -65 -73 -67 -259 -39 -85 12 -96 17 -135 52 -33 29 -43 46
-44 70 -1 33 -26 80 -78 149 -17 22 -32 42 -33 44 -2 2 -5 2 -7 0 -5 -5 45
-126 70 -172 13 -23 14 -34 4 -57 -11 -26 -45 -49 -56 -37 -5 5 -29 98 -38
150 -4 21 -15 52 -25 70 -11 18 -34 79 -52 136 -35 112 -69 170 -181 310 -48
59 -64 87 -56 92 9 6 8 10 -4 14 -24 9 -41 -4 -35 -26 3 -10 0 -20 -7 -22 -14
-5 -7 -18 98 -174 67 -100 86 -137 122 -245 23 -69 47 -135 53 -146 6 -11 17
-54 26 -96 19 -92 14 -102 -53 -112 -25 -4 -69 -17 -97 -30 -28 -13 -74 -27
-101 -30 -61 -8 -182 -48 -228 -75 -19 -11 -65 -26 -103 -34 -63 -12 -65 -13
-25 -14 25 -1 74 11 120 29 163 62 325 104 510 130 117 16 130 16 295 -1 313
-33 312 -33 394 91 55 83 65 116 73 230 13 200 -32 418 -126 602 -24 48 -44
92 -44 98 0 15 -108 199 -143 244 -29 36 -29 39 -13 51 9 7 13 16 8 19 -6 3
-24 -10 -41 -29z"/>
<path d="M8930 12040 c0 -6 13 -36 29 -68 73 -147 116 -335 101 -444 -12 -81
-25 -118 -43 -118 -28 0 -231 111 -295 162 -37 29 -116 99 -177 157 -60 57
-134 126 -163 154 -41 39 -51 54 -46 70 6 20 6 20 -17 6 -13 -9 -31 -28 -39
-42 -13 -24 -12 -27 25 -68 22 -24 60 -60 85 -80 68 -54 269 -279 315 -354 10
-16 33 -48 50 -70 18 -22 47 -74 66 -115 28 -64 33 -86 34 -153 0 -76 -1 -79
-33 -108 -27 -24 -41 -29 -90 -30 l-57 -1 48 -9 c58 -12 118 2 148 34 43 46
54 79 53 164 l-1 82 28 -20 c27 -19 49 -70 49 -112 0 -10 6 -17 12 -15 21 7
31 97 19 168 -16 89 -18 145 -6 147 13 3 22 -29 40 -137 51 -295 -30 -492
-239 -585 -79 -35 -85 -40 -101 -81 -42 -109 -196 -267 -328 -335 -97 -50
-437 -63 -529 -20 -80 38 -107 89 -32 62 30 -11 38 -10 64 6 25 16 41 18 102
12 86 -8 131 -4 255 22 91 20 93 21 126 67 63 88 89 165 93 278 3 56 1 119 -4
141 -5 21 -6 47 -2 57 5 16 9 14 37 -14 17 -18 37 -45 43 -61 7 -16 17 -29 22
-29 12 0 87 -81 94 -102 5 -17 34 -26 34 -10 0 11 -48 80 -102 145 -26 31 -73
98 -105 147 -58 90 -73 105 -73 73 0 -30 -20 1 -25 37 -2 19 -13 45 -24 59
-30 38 -131 228 -131 246 0 8 5 15 10 15 6 0 10 5 10 10 0 6 -7 10 -15 10 -18
0 -65 -68 -65 -95 0 -27 69 -171 109 -225 17 -24 31 -48 31 -54 0 -6 19 -49
42 -95 l42 -84 0 -161 1 -161 -33 -68 c-37 -74 -56 -89 -142 -106 -30 -6 -71
-14 -90 -19 -19 -5 -67 -8 -107 -8 -60 1 -75 5 -95 24 -14 12 -30 22 -36 22
-7 0 -13 12 -13 28 -1 15 -2 41 -3 57 -1 17 -5 36 -10 44 -5 8 -4 16 3 20 7 4
9 15 5 25 -4 11 -1 22 7 27 9 6 10 9 2 9 -8 0 -11 15 -8 48 2 26 4 49 5 52 1
3 1 18 0 34 -1 23 2 28 14 23 24 -9 32 21 11 37 -16 11 -16 17 -4 49 7 20 19
37 27 37 7 0 22 20 33 45 11 24 30 57 42 72 13 15 34 46 49 68 14 22 42 52 62
65 54 37 43 53 -21 29 -40 -15 -69 -44 -124 -127 -110 -164 -208 -455 -209
-614 0 -86 -10 -102 -72 -122 -117 -36 -187 -26 -531 75 -109 33 -207 59 -218
59 -11 0 -27 4 -37 10 -21 12 -144 47 -322 90 -74 18 -159 39 -188 47 -29 8
-78 21 -110 28 -196 46 -266 73 -260 103 2 12 15 18 41 20 23 2 42 10 49 22
10 15 14 16 25 4 16 -16 43 -19 43 -5 0 6 -4 13 -10 16 -21 13 -42 76 -40 127
1 75 4 101 12 114 4 6 4 14 0 18 -4 4 -7 48 -8 96 -1 84 -19 203 -34 225 -3 6
-13 30 -20 55 -7 25 -19 52 -25 60 -6 8 -18 31 -25 50 -8 19 -20 44 -28 55
-13 19 -14 19 -7 -3 73 -248 88 -403 56 -557 -32 -150 -36 -167 -54 -202 -10
-18 -17 -39 -17 -48 0 -8 -12 -20 -27 -26 -39 -15 -219 -12 -343 5 -212 30
-291 30 -455 3 -183 -31 -296 -67 -456 -146 -68 -34 -129 -61 -136 -61 -13 0
-20 -70 -14 -160 4 -64 -16 -125 -45 -139 -13 -6 -24 -18 -24 -26 0 -20 -24
-45 -42 -45 -8 0 -18 -4 -23 -9 -6 -5 -32 -22 -60 -37 -27 -15 -55 -34 -61
-42 -16 -22 -42 -8 -46 25 -3 25 -8 28 -43 31 -72 6 -342 -65 -475 -125 -43
-20 -94 -52 -120 -77 -50 -49 -132 -102 -200 -131 -25 -10 -90 -39 -145 -65
-150 -70 -412 -160 -466 -160 -28 0 -148 -38 -199 -63 -51 -25 -59 -45 -33
-81 22 -31 42 -32 96 -4 55 28 195 75 277 93 36 8 71 17 79 20 56 21 245 52
371 60 278 19 352 26 370 35 10 5 53 17 95 25 94 18 150 48 190 101 16 23 44
50 60 60 17 10 62 41 100 69 39 29 97 62 130 75 33 12 67 26 76 30 57 29 183
54 279 56 58 1 107 3 109 3 2 1 -2 8 -9 16 -11 13 -8 15 14 15 35 0 33 16 -4
39 -25 15 -51 18 -160 17 -91 -1 -130 2 -130 10 0 10 20 20 40 21 3 0 23 10
45 22 28 15 49 19 73 15 32 -6 32 -6 22 22 -6 16 -16 34 -23 39 -12 10 -15 18
-25 64 -3 16 -1 22 8 19 7 -2 14 -12 16 -21 1 -9 12 -32 23 -51 21 -34 23 -35
102 -38 45 -2 83 0 86 5 2 4 109 7 237 7 201 0 240 -3 287 -19 30 -10 85 -22
124 -26 38 -4 80 -11 92 -16 64 -24 312 -71 423 -79 69 -6 170 -15 225 -20
117 -12 264 -12 425 -1 98 7 124 13 180 40 36 17 73 31 83 31 19 0 97 37 97
46 0 3 -15 11 -32 18 -37 15 -137 13 -290 -5 -86 -11 -102 -10 -142 5 -42 16
-47 16 -78 0 -28 -14 -51 -16 -158 -10 -185 9 -401 32 -515 55 -148 30 -316
79 -347 102 -24 17 -33 18 -75 8 -27 -6 -70 -8 -98 -4 -124 15 -307 22 -388
15 -77 -6 -92 -10 -126 -38 -22 -18 -45 -32 -50 -32 -32 0 10 125 50 152 14 8
40 19 59 23 30 7 32 9 17 20 -33 24 236 96 360 98 45 1 83 -36 83 -79 0 -29
-4 -34 -32 -39 -18 -4 -72 -1 -120 5 -48 6 -100 7 -115 3 -19 -5 23 -11 127
-19 85 -6 160 -9 167 -7 7 3 21 20 33 40 15 26 18 39 10 54 -17 31 -3 39 70
39 60 0 69 -3 75 -20 8 -24 28 -26 45 -5 18 22 111 19 195 -5 39 -11 115 -27
170 -35 170 -25 228 -36 290 -56 33 -10 79 -23 103 -29 23 -6 42 -15 42 -21 0
-6 5 -7 10 -4 6 3 10 1 10 -4 0 -6 -5 -11 -11 -11 -6 0 -9 -19 -8 -49 2 -32
-2 -56 -12 -67 -13 -16 -11 -17 26 -11 22 4 47 15 56 26 12 15 19 17 28 8 20
-20 12 1 -19 50 -19 29 -27 50 -21 56 10 10 107 -12 166 -38 17 -7 53 -21 80
-31 l50 -19 -44 -9 c-36 -8 -46 -7 -56 7 -18 24 -37 21 -68 -11 -49 -52 -30
-73 39 -43 26 12 62 21 80 21 18 0 45 5 59 12 27 12 73 5 170 -27 22 -7 51
-11 65 -8 16 3 38 -4 60 -19 24 -16 80 -32 180 -51 80 -16 178 -37 218 -48
175 -46 313 -61 607 -62 270 -2 282 -1 340 21 71 27 162 58 305 102 137 42
195 74 243 135 22 27 48 56 58 63 53 37 189 238 189 279 0 12 7 37 15 57 9 21
11 36 5 36 -15 0 -12 41 6 75 19 37 23 91 26 370 l3 220 -44 125 c-48 140
-102 247 -197 392 -63 96 -74 109 -74 88z m-480 -1080 c0 -5 -2 -10 -4 -10 -3
0 -8 5 -11 10 -3 6 -1 10 4 10 6 0 11 -4 11 -10z m17 -52 c-3 -8 -6 -5 -6 6
-1 11 2 17 5 13 3 -3 4 -12 1 -19z m-2392 -298 c8 -13 -5 -13 -25 0 -13 8 -13
10 2 10 9 0 20 -4 23 -10z m445 -120 c8 -5 11 -10 5 -10 -5 0 -17 5 -25 10 -8
5 -10 10 -5 10 6 0 17 -5 25 -10z m-1819 -73 c-10 -9 -11 -8 -5 6 3 10 9 15
12 12 3 -3 0 -11 -7 -18z m-25 -75 c-12 -11 -18 7 -10 30 l8 23 4 -23 c2 -13
1 -26 -2 -30z m1139 -132 c3 -5 2 -10 -4 -10 -5 0 -13 5 -16 10 -3 6 -2 10 4
10 5 0 13 -4 16 -10z m-1216 -23 c6 -8 8 -16 5 -19 -10 -10 -44 4 -44 18 0 18
24 18 39 1z m-89 -82 c0 -8 -6 -15 -14 -15 -7 0 -25 -11 -40 -25 -16 -14 -39
-33 -52 -42 -22 -14 -24 -14 -24 4 0 11 11 24 28 31 40 18 86 46 90 55 6 12
12 8 12 -8z m-305 -55 c3 -5 1 -10 -4 -10 -6 0 -11 5 -11 10 0 6 2 10 4 10 3
0 8 -4 11 -10z m-250 -87 c-11 -7 -36 -13 -56 -13 -21 0 -41 -5 -44 -10 -10
-17 -65 -41 -76 -35 -14 9 9 35 25 29 8 -3 16 2 19 10 4 9 15 16 25 16 10 0
22 4 28 9 10 10 74 19 88 12 5 -2 1 -10 -9 -18z m85 -53 c0 -5 -2 -10 -4 -10
-3 0 -8 5 -11 10 -3 6 -1 10 4 10 6 0 11 -4 11 -10z m-280 -10 c0 -5 -4 -10
-10 -10 -5 0 -10 5 -10 10 0 6 5 10 10 10 6 0 10 -4 10 -10z m310 -20 c0 -5 7
-10 15 -10 8 0 15 -7 15 -15 0 -23 -26 -18 -44 10 -14 22 -15 25 -1 25 8 0 15
-4 15 -10z m-230 -35 c0 -14 3 -14 30 0 23 12 34 13 55 3 26 -12 30 -22 26
-73 -4 -38 -15 -51 -49 -58 -41 -8 -60 8 -68 58 -5 39 -9 45 -30 45 -22 0 -23
3 -14 20 13 23 50 27 50 5z m-60 -39 c0 -3 -4 -8 -10 -11 -5 -3 -10 -1 -10 4
0 6 5 11 10 11 6 0 10 -2 10 -4z m-20 -154 c0 -9 -6 -12 -16 -8 -9 3 -18 6
-20 6 -2 0 -4 12 -4 27 0 25 0 26 20 8 11 -10 20 -25 20 -33z"/>
<path d="M3716 11582 c-22 -32 -26 -49 -26 -108 0 -38 5 -88 10 -112 20 -87
81 -224 133 -297 28 -41 74 -109 102 -151 51 -78 126 -159 274 -293 172 -156
227 -339 119 -391 -18 -9 -17 -6 5 10 29 23 36 50 12 50 -11 0 -13 9 -9 43 6
51 -12 90 -46 97 -14 3 -43 17 -65 31 -36 23 -276 121 -365 148 -49 15 -314
171 -340 201 -3 3 -22 16 -43 30 -20 14 -79 68 -130 120 -77 79 -102 113 -146
199 -29 57 -54 118 -55 135 -2 37 -29 43 -34 9 -2 -13 -8 -23 -13 -23 -19 0
-8 -55 26 -134 63 -145 79 -170 145 -238 36 -37 89 -92 117 -121 48 -49 100
-88 248 -182 99 -64 360 -186 430 -201 40 -9 98 -39 115 -58 7 -9 15 -42 19
-74 l6 -57 48 1 c47 0 63 -10 30 -19 -10 -3 5 -5 32 -4 50 2 50 2 93 67 39 58
43 70 38 110 -2 25 -8 55 -11 68 -10 29 6 28 43 -3 34 -28 42 -24 42 21 0 18
6 35 13 38 12 5 -33 51 -97 99 -107 82 -233 182 -246 196 -9 9 -38 36 -65 61
-54 49 -165 173 -165 185 0 4 -24 38 -53 74 -84 105 -148 253 -146 340 l1 56
15 -57 c8 -32 19 -58 23 -58 5 0 4 16 -1 35 -6 19 -8 53 -6 75 3 26 -1 44 -9
51 -11 9 -14 8 -14 -5 0 -10 -4 -14 -10 -11 -15 10 -12 46 7 67 15 17 15 18
-4 18 -12 0 -31 -15 -47 -38z m342 -1084 c47 -24 79 -44 70 -46 -17 -3 -69 17
-167 66 -62 30 -64 32 -28 28 21 -3 77 -24 125 -48z m242 -117 c16 -30 12 -66
-9 -92 -16 -19 -21 -21 -24 -9 -10 28 -16 107 -10 114 12 12 32 6 43 -13z"/>
<path d="M5316 10995 c-3 -8 -1 -15 4 -15 6 0 10 7 10 15 0 8 -2 15 -4 15 -2
0 -6 -7 -10 -15z"/>
<path d="M7693 10845 c-8 -22 6 -33 17 -15 13 20 12 30 0 30 -6 0 -13 -7 -17
-15z"/>
<path d="M7223 10813 c9 -9 19 -14 23 -11 10 10 -6 28 -24 28 -15 0 -15 -1 1
-17z"/>
<path d="M3998 10653 c7 -3 16 -2 19 1 4 3 -2 6 -13 5 -11 0 -14 -3 -6 -6z"/>
<path d="M6775 10562 c15 -15 237 -72 225 -58 -5 7 -29 18 -52 25 -24 7 -56
17 -73 23 -44 16 -112 22 -100 10z"/>
<path d="M3541 10517 c-5 -14 -15 -28 -20 -32 -6 -3 -11 -37 -11 -76 0 -59 5
-79 35 -139 19 -37 39 -71 45 -75 6 -4 21 -28 35 -55 13 -26 30 -50 37 -53 19
-7 3 -20 -76 -61 -38 -20 -81 -45 -96 -56 -16 -11 -32 -20 -36 -20 -4 0 -37
-20 -73 -43 -67 -45 -181 -106 -281 -152 -30 -13 -71 -34 -90 -45 -38 -21
-173 -62 -260 -79 -271 -51 -300 -71 -300 -204 1 -85 15 -155 37 -179 18 -21
98 -24 173 -7 25 5 62 12 82 16 66 10 92 -37 42 -76 -49 -39 -72 -119 -42
-149 8 -8 8 -12 1 -12 -11 0 -57 -64 -82 -113 -15 -30 -17 -24 40 -127 11 -20
19 -54 19 -81 0 -45 -29 -148 -57 -202 -8 -16 -19 -70 -24 -120 -6 -62 -15
-100 -27 -117 -26 -34 -80 -70 -107 -70 -13 0 -47 -11 -77 -25 -29 -14 -65
-25 -79 -25 -57 0 -179 -91 -179 -134 0 -13 14 -16 85 -16 50 0 85 -4 85 -10
0 -5 7 -10 15 -10 36 0 10 -27 -47 -49 -35 -13 -70 -29 -78 -36 -17 -15 -104
-55 -118 -55 -11 0 -60 -71 -62 -91 -7 -45 2 -46 96 -18 83 25 99 -16 28 -71
-25 -19 -55 -48 -66 -65 -12 -16 -59 -67 -106 -112 -46 -46 -82 -89 -79 -95 2
-8 23 -13 53 -14 66 -1 70 -2 56 -16 -7 -7 -12 -24 -12 -39 0 -19 -14 -42 -45
-73 -25 -26 -45 -51 -45 -55 0 -5 -6 -14 -14 -20 -8 -7 -24 -43 -35 -80 -12
-38 -30 -79 -40 -92 -17 -21 -22 -22 -40 -11 -11 6 -26 12 -33 12 -7 0 -33 16
-57 35 -24 19 -50 35 -57 35 -22 0 -114 150 -114 186 0 14 6 12 30 -11 16 -16
30 -33 30 -37 0 -13 65 -78 77 -78 6 0 16 -6 22 -14 14 -17 80 -31 92 -19 5 5
-30 45 -79 89 -55 51 -118 124 -171 198 -93 131 -113 146 -167 127 -89 -32
-161 -87 -279 -210 -66 -69 -177 -183 -247 -253 -114 -112 -138 -131 -215
-168 -49 -23 -99 -51 -112 -63 -32 -30 -52 -80 -45 -114 5 -25 -5 -42 -76
-127 -107 -127 -190 -188 -190 -140 0 15 30 55 128 177 33 40 78 129 101 199
12 36 21 43 187 151 67 44 110 87 424 432 94 103 153 174 167 200 8 14 32 30
63 40 27 9 52 21 55 26 4 5 23 9 44 9 21 0 53 3 71 6 48 10 16 24 -56 24 -49
0 -76 -7 -137 -35 -81 -37 -123 -79 -204 -200 -23 -34 -49 -67 -58 -75 -10 -8
-50 -55 -90 -105 -97 -120 -255 -273 -334 -324 -109 -70 -167 -131 -207 -218
-19 -43 -72 -127 -118 -188 -105 -139 -113 -153 -93 -172 12 -12 22 -12 74 1
34 9 82 16 108 16 85 0 123 17 149 69 43 87 76 131 125 168 30 22 50 46 51 58
1 31 47 125 85 170 18 23 61 56 94 74 33 17 63 36 67 42 3 6 25 24 47 40 49
36 213 176 275 236 23 23 56 44 72 48 53 12 119 -39 178 -136 20 -34 45 -74
54 -90 20 -33 84 -93 142 -132 41 -28 57 -29 129 -12 26 7 27 6 27 -33 0 -33
-4 -41 -22 -46 -19 -5 -21 -8 -8 -16 11 -7 18 -5 27 7 9 12 16 13 26 5 7 -6
18 -7 26 -2 8 4 20 6 27 3 8 -3 19 7 26 24 6 15 21 38 32 51 11 12 16 22 12
22 -5 0 -3 6 4 14 6 8 18 12 26 9 19 -7 11 -63 -18 -119 -12 -23 -19 -48 -16
-55 3 -8 85 -54 182 -103 170 -85 179 -88 219 -80 31 7 42 14 42 28 0 14 -12
22 -46 30 -25 7 -79 33 -120 58 -41 25 -96 57 -124 71 -93 47 -91 44 -56 117
18 36 29 72 25 82 -8 28 10 21 28 -9 15 -28 14 -52 -5 -65 -7 -4 -6 -17 3 -37
9 -22 19 -31 36 -31 13 0 27 -6 31 -12 12 -19 52 -40 63 -33 6 4 10 0 10 -8 0
-7 11 -19 25 -25 35 -16 35 -16 35 14 0 14 5 34 10 44 7 13 7 21 0 25 -17 10
-11 23 13 28 16 3 14 5 -10 6 -17 0 -33 -5 -36 -11 -3 -9 -9 -7 -20 7 -20 25
-11 38 20 31 13 -4 29 -3 36 1 7 4 18 8 26 8 8 0 15 9 17 19 1 10 9 23 16 27
19 13 -8 12 -32 -1 -14 -8 -19 -5 -24 13 -8 31 9 43 38 28 21 -11 27 -10 50
10 14 12 26 29 26 36 0 7 7 13 15 13 16 0 21 25 6 35 -6 3 -9 14 -8 24 1 16 5
17 19 10 10 -5 18 -15 18 -22 0 -6 12 1 26 17 21 22 24 30 13 36 -7 5 -17 6
-21 4 -4 -3 -8 2 -8 10 0 14 3 14 20 4 17 -11 22 -10 30 2 8 12 3 16 -25 18
-24 2 -35 8 -35 19 0 9 6 13 14 10 8 -3 17 1 20 9 4 10 -2 14 -18 14 -17 0
-28 -11 -44 -44 -12 -24 -22 -48 -22 -54 0 -5 -7 -13 -16 -16 -15 -6 -15 -8 1
-26 9 -10 14 -24 10 -30 -5 -8 -12 -5 -22 7 -14 17 -14 17 -9 0 5 -15 2 -17
-17 -11 -31 9 -34 14 -14 25 28 16 20 28 -23 35 -32 5 -37 9 -26 19 18 18 62
23 59 8 -2 -7 4 -13 12 -13 8 0 15 6 15 14 0 8 7 17 16 20 10 4 14 13 11 26
-4 15 -1 20 11 18 13 -2 16 4 14 28 -3 29 -2 30 27 26 17 -2 31 -8 31 -13 0
-5 7 -9 16 -9 11 0 14 -6 9 -20 -6 -19 -4 -20 22 -14 15 4 30 11 31 16 6 15
22 8 22 -9 0 -14 2 -15 13 -4 10 11 10 14 0 18 -21 8 -15 40 8 46 12 3 18 10
14 16 -4 8 -12 8 -27 0 -14 -8 -23 -8 -27 -1 -7 11 -36 11 -47 -1 -4 -4 7 -10
24 -13 39 -8 42 -24 5 -24 -28 1 -90 29 -64 30 8 0 11 7 8 20 -3 13 1 21 14
25 10 4 19 14 19 24 0 24 11 33 25 21 9 -8 14 -5 18 10 3 14 -3 27 -21 41
l-27 21 -3 -27 c-3 -20 -8 -25 -19 -20 -9 3 -19 1 -23 -5 -5 -8 -13 -6 -25 7
-16 16 -17 18 -3 21 9 2 18 12 21 23 3 10 12 19 21 19 22 0 20 27 -1 33 -17 4
-17 5 0 6 10 1 17 9 17 21 0 30 29 24 37 -7 4 -16 6 -33 5 -40 -1 -6 7 -14 18
-18 11 -3 20 -11 20 -16 0 -5 4 -9 10 -9 5 0 7 7 4 15 -4 8 -1 15 5 15 6 0 11
-4 11 -9 0 -5 8 -7 19 -4 14 3 20 -2 25 -23 9 -35 -12 -87 -32 -79 -10 4 -12
0 -8 -11 3 -8 6 -20 6 -25 0 -5 5 -9 11 -9 6 0 9 5 7 12 -5 15 30 51 42 43 6
-4 10 -2 10 3 0 6 10 8 23 6 12 -2 16 -2 10 2 -16 7 -17 40 -3 49 6 4 8 11 5
16 -4 5 1 9 9 9 11 0 16 9 16 27 0 24 1 25 13 10 15 -21 68 -27 74 -9 3 7 -5
12 -20 12 -13 0 -41 7 -60 15 -51 21 -67 19 -67 -7 0 -17 -3 -19 -9 -9 -5 7
-14 10 -20 7 -6 -4 -14 0 -17 8 -8 20 -18 20 -39 0 -23 -24 -45 -10 -45 28 1
30 2 31 14 16 7 -10 20 -18 29 -18 26 0 31 21 8 36 -12 9 -18 20 -15 26 4 6 0
14 -7 19 -22 14 -29 11 -29 -11 0 -13 -7 -20 -19 -20 -11 0 -23 -5 -26 -10 -4
-6 -11 -8 -16 -5 -17 11 -9 26 24 40 l32 14 -32 1 c-23 0 -33 5 -33 15 0 8 -7
15 -16 15 -12 0 -15 -7 -12 -25 3 -14 1 -25 -3 -25 -5 0 -9 5 -9 10 0 9 -10 5
-49 -17 -2 -2 2 -9 9 -18 7 -8 16 -12 21 -9 5 3 9 0 9 -6 0 -7 -9 -14 -20 -17
-11 -3 -20 -14 -20 -25 0 -25 -18 -14 -32 20 -6 16 -12 22 -15 14 -3 -7 4 -30
15 -52 22 -44 13 -64 -13 -28 -8 13 -19 22 -22 20 -4 -2 -9 1 -11 7 -2 6 2 11
8 11 10 0 10 3 1 14 -7 9 -8 17 -2 20 5 3 7 15 4 26 -3 10 2 26 10 35 14 13
16 12 22 -15 4 -17 13 -30 21 -30 17 0 19 16 3 26 -6 3 -9 22 -7 40 4 32 2 34
-25 34 -25 0 -28 2 -17 15 15 18 7 30 -15 22 -8 -4 -15 -17 -15 -31 0 -16 -7
-27 -20 -31 -23 -7 -26 -21 -7 -29 6 -3 3 -4 -8 -1 -14 3 -31 -8 -60 -40 -22
-25 -43 -45 -48 -45 -21 0 -57 -64 -57 -102 0 -11 7 -26 15 -32 14 -10 13 -17
-4 -65 -10 -29 -26 -62 -35 -72 -9 -11 -16 -24 -16 -29 0 -6 -7 -13 -15 -16
-8 -4 -15 -14 -15 -25 0 -10 -11 -29 -25 -43 -14 -14 -28 -39 -31 -55 -4 -17
-19 -45 -35 -62 -16 -18 -29 -43 -29 -55 0 -30 -33 -69 -50 -59 -25 15 -5 104
42 185 57 98 117 190 140 214 20 22 40 84 32 98 -3 4 -27 8 -55 8 -60 0 -64
16 -14 57 19 15 50 44 67 63 18 19 63 65 100 102 47 46 68 74 68 91 0 37 -23
50 -80 45 -28 -3 -50 -1 -50 3 0 12 58 54 125 89 138 72 165 94 165 136 0 32
-13 37 -96 38 -40 1 -76 4 -79 8 -13 13 45 40 147 69 150 43 200 71 230 127
14 26 29 62 32 80 4 17 13 32 20 32 7 0 10 13 8 39 -3 32 0 41 17 50 24 13 29
36 6 27 -19 -7 -19 -7 1 39 10 25 18 34 23 26 10 -16 27 3 36 42 4 15 11 29
15 32 11 7 90 -171 90 -203 0 -49 20 -103 43 -113 23 -10 65 1 212 56 141 53
199 60 229 26 24 -26 36 -121 36 -289 0 -138 1 -144 24 -167 l24 -24 64 18
c91 27 183 57 263 85 137 49 180 30 177 -77 -1 -34 -7 -87 -12 -117 -23 -120
-23 -144 -4 -168 19 -23 19 -23 184 -13 181 10 206 5 156 -33 -16 -11 -47 -36
-68 -54 -22 -17 -51 -35 -64 -38 -31 -8 -31 -22 1 -30 32 -8 23 -20 -61 -80
-56 -40 -82 -70 -70 -81 6 -6 93 56 99 71 3 8 36 32 74 54 37 22 86 57 108 77
l40 36 -40 -25 c-37 -25 -65 -33 -65 -20 0 21 31 51 89 89 83 54 100 72 76 81
-10 4 -100 4 -201 0 l-183 -6 -18 26 c-14 23 -15 31 -4 67 19 64 33 147 34
204 3 97 -54 135 -168 113 -74 -15 -107 -26 -165 -55 -25 -13 -63 -26 -85 -30
-22 -4 -55 -16 -73 -27 -56 -34 -59 -23 -64 200 -6 224 -13 257 -64 278 -45
19 -129 18 -159 -2 -13 -9 -29 -13 -35 -9 -6 4 -19 0 -28 -8 -9 -8 -46 -25
-82 -36 -36 -12 -76 -27 -89 -34 -20 -10 -26 -8 -42 12 -11 14 -19 39 -19 62
0 35 -20 99 -54 174 -8 17 -18 48 -23 70 -7 35 -12 40 -39 43 -39 4 -51 -11
-59 -73 -3 -28 -12 -57 -20 -65 -13 -12 -15 -12 -15 0 0 8 7 37 15 64 8 27 15
73 15 101 0 51 1 53 32 57 21 4 37 -1 49 -13 17 -17 19 -17 40 17 21 35 21 57
-2 115 -17 43 -82 89 -126 90 -41 0 -42 0 182 82 115 42 232 57 454 57 110 0
206 -3 215 -6 20 -8 1 -51 -27 -60 -10 -3 -60 -42 -110 -86 -50 -44 -109 -92
-130 -107 -22 -14 -50 -33 -63 -41 -12 -9 -31 -26 -41 -38 -10 -13 -34 -33
-55 -45 -20 -12 -82 -49 -137 -82 -55 -33 -100 -63 -101 -67 0 -15 48 -8 71
11 13 10 76 51 139 91 122 78 244 171 376 285 158 138 130 124 257 123 96 -1
124 3 193 25 102 34 212 105 286 185 31 34 59 59 61 54 9 -13 -2 -112 -19
-170 -9 -31 -34 -97 -54 -147 -21 -49 -41 -101 -44 -115 -9 -43 -153 -271
-345 -545 -95 -136 -98 -140 -186 -252 -62 -78 -75 -103 -57 -103 5 0 27 16
49 35 23 19 46 35 51 35 6 0 13 6 15 13 4 10 6 10 6 0 2 -29 121 1 121 29 0 4
11 8 25 8 15 0 40 7 56 16 36 18 79 12 104 -16 23 -26 16 -63 -15 -71 -18 -4
-21 -8 -10 -12 46 -18 101 0 119 39 16 37 14 44 -24 104 -40 62 -32 74 31 44
38 -18 82 -25 89 -13 3 3 17 4 31 1 25 -4 26 -3 20 21 -3 14 -1 29 4 32 6 4 8
11 5 16 -3 5 0 7 7 4 7 -2 21 7 31 20 10 14 13 25 7 25 -5 0 -10 5 -10 10 0 6
18 10 39 10 32 0 38 3 35 18 -7 24 66 94 85 83 20 -12 6 -72 -23 -104 -25 -26
-66 -105 -66 -125 0 -7 -9 -12 -20 -12 -13 0 -20 -7 -20 -19 0 -11 -7 -27 -16
-35 -8 -9 -12 -16 -7 -16 16 1 50 36 73 75 13 22 38 63 57 92 18 28 33 54 33
58 0 4 10 21 23 38 12 16 31 47 42 68 11 21 38 71 61 111 22 40 46 82 52 93 6
11 17 35 24 53 7 17 16 32 20 32 5 0 8 5 8 12 0 6 11 40 25 74 40 100 74 263
81 388 l7 114 -38 16 c-20 9 -45 16 -55 16 -10 0 -56 16 -102 35 -72 30 -89
42 -117 81 -32 45 -33 46 -75 40 -48 -8 -59 3 -45 41 13 35 51 54 110 53 30 0
121 1 202 3 118 3 147 1 143 -10 -3 -8 4 -15 19 -19 31 -8 199 73 203 99 2 9
-2 17 -8 17 -7 0 -28 8 -47 17 -34 16 -36 16 -49 -2 -14 -18 -15 -18 -33 2
-24 25 -206 91 -276 99 -29 4 -89 1 -133 -5 -94 -14 -275 -64 -306 -85 -11 -8
-65 -57 -119 -109 -110 -107 -172 -142 -308 -175 -103 -26 -127 -29 -359 -47
-235 -19 -485 -51 -575 -75 -38 -10 -121 -42 -184 -69 -114 -51 -163 -62 -178
-38 -12 19 -33 97 -40 149 -11 95 9 117 132 137 278 47 434 111 785 318 260
153 415 220 613 265 31 7 57 15 57 19 0 12 -88 18 -121 9 l-34 -10 25 20 c24
19 24 21 7 34 -26 20 -101 29 -178 21 -62 -6 -67 -5 -103 24 -22 17 -45 39
-52 49 -19 24 -18 -5 1 -38 8 -14 14 -34 15 -44 0 -18 -1 -18 -19 -2 -35 32
-70 127 -75 205 -5 82 -11 95 -25 58z m170 -344 c-9 -16 -11 -15 -21 11 -9 24
-8 31 7 42 16 11 18 10 21 -11 2 -14 -1 -32 -7 -42z m209 52 c0 -5 -53 -28
-91 -40 -21 -6 -22 -6 -9 8 18 18 100 45 100 32z m488 -525 c-23 -37 -68 -37
-48 1 6 11 21 19 35 19 23 0 24 -2 13 -20z m-93 -158 c-4 -9 -12 -30 -19 -47
-37 -102 -144 -208 -227 -226 -23 -6 -54 -18 -68 -28 -42 -30 -180 -43 -377
-35 -96 4 -177 11 -180 16 -3 4 7 8 23 8 51 0 207 9 258 15 126 13 153 18 201
31 29 8 74 25 100 38 61 29 168 132 218 209 33 51 39 56 57 46 14 -7 18 -16
14 -27z m21 -58 c-3 -9 -6 -18 -6 -20 0 -2 -7 -4 -15 -4 -18 0 -19 12 -3 28
17 17 31 15 24 -4z m-1426 -264 c0 -11 -6 -20 -13 -20 -19 0 -27 10 -20 26 8
21 33 17 33 -6z m305 -20 c-3 -5 -16 -10 -28 -10 -18 0 -19 2 -7 10 20 13 43
13 35 0z m-85 -14 c-76 -30 -325 -104 -332 -99 -5 2 -8 17 -8 33 0 40 37 64
89 57 22 -2 77 1 123 8 45 7 101 13 123 13 l40 1 -35 -13z m-298 -273 c29 -26
23 -70 -12 -88 -29 -15 -31 -15 -55 9 -27 27 -33 64 -13 84 17 17 58 15 80 -5z
m1728 -368 c10 -12 10 -19 2 -27 -9 -9 -12 -9 -12 1 0 8 -8 20 -17 27 -16 12
-16 13 -2 14 9 0 22 -7 29 -15z m-272 -233 c3 -9 -2 -13 -14 -10 -9 1 -19 9
-22 16 -3 9 2 13 14 10 9 -1 19 -9 22 -16z m-1938 -723 c0 -5 -4 -9 -10 -9 -5
0 -10 7 -10 16 0 8 5 12 10 9 6 -3 10 -10 10 -16z m-30 -29 c0 -5 -2 -10 -4
-10 -3 0 -8 5 -11 10 -3 6 -1 10 4 10 6 0 11 -4 11 -10z m180 -39 c0 -12 -20
-25 -27 -18 -7 7 6 27 18 27 5 0 9 -4 9 -9z m-177 -48 c-5 -12 -7 -12 -14 -1
-5 7 -9 19 -9 27 0 11 3 11 14 1 8 -6 12 -18 9 -27z m-58 17 c3 -5 1 -10 -4
-10 -6 0 -11 5 -11 10 0 6 2 10 4 10 3 0 8 -4 11 -10z m202 -57 c-2 -2 -17 3
-33 12 -26 14 -27 15 -6 15 12 0 22 6 23 13 0 6 5 1 10 -12 5 -13 8 -26 6 -28z
m278 37 c3 -5 1 -10 -4 -10 -6 0 -11 5 -11 10 0 6 2 10 4 10 3 0 8 -4 11 -10z
m-515 -20 c0 -5 -12 -10 -27 -9 -25 0 -26 1 -8 9 27 12 35 12 35 0z m512 -22
c-7 -7 -12 -8 -12 -2 0 14 12 26 19 19 2 -3 -1 -11 -7 -17z m-271 -18 c5 0 9
-7 9 -16 0 -8 -5 -12 -10 -9 -6 4 -18 1 -26 -6 -11 -9 -18 -9 -26 -1 -6 6 -17
8 -24 5 -8 -3 -14 0 -14 6 0 6 9 11 19 11 11 0 23 5 26 11 4 6 14 8 22 5 8 -3
19 -6 24 -6z m-91 -56 c0 -14 -3 -15 -17 -3 -10 7 -20 15 -22 16 -2 2 5 3 17
3 14 0 22 -6 22 -16z m119 -19 c3 -17 2 -17 -13 -3 -19 20 -21 31 -3 26 6 -3
14 -13 16 -23z m-189 5 c0 -5 -10 -10 -22 -10 -19 0 -20 2 -8 10 19 13 30 13
30 0z m120 -17 c0 -22 -2 -25 -10 -13 -13 20 -13 40 0 40 6 0 10 -12 10 -27z
m-90 -13 c0 -5 -6 -10 -14 -10 -8 0 -18 5 -21 10 -3 6 3 10 14 10 12 0 21 -4
21 -10z m106 -57 c-11 -11 -19 6 -11 24 8 17 8 17 12 0 3 -10 2 -21 -1 -24z
m-106 7 c-20 -13 -40 -13 -40 0 0 6 12 10 28 10 21 0 24 -2 12 -10z m50 -15
c0 -8 -4 -15 -10 -15 -5 0 -10 7 -10 15 0 8 5 15 10 15 6 0 10 -7 10 -15z
m-90 -52 c0 -8 -13 -13 -30 -13 -17 0 -30 -5 -31 -12 -1 -7 -4 -2 -8 12 -8 28
7 44 26 28 9 -7 15 -6 19 7 5 13 9 14 15 3 5 -7 9 -19 9 -25z m30 17 c0 -5 -4
-10 -10 -10 -5 0 -10 5 -10 10 0 6 5 10 10 10 6 0 10 -4 10 -10z m-72 -105
c-9 -10 -43 -9 -46 0 -4 12 42 25 47 13 1 -5 1 -11 -1 -13z m52 -19 c0 -3 -4
-8 -10 -11 -5 -3 -10 -1 -10 4 0 6 5 11 10 11 6 0 10 -2 10 -4z m55 -6 c3 -5
-1 -10 -10 -10 -9 0 -13 5 -10 10 3 6 8 10 10 10 2 0 7 -4 10 -10z m-285 -20
c0 -5 -2 -10 -4 -10 -3 0 -8 5 -11 10 -3 6 -1 10 4 10 6 0 11 -4 11 -10z m214
4 c25 -10 19 -22 -9 -16 -14 2 -25 8 -25 13 0 10 12 11 34 3z m-58 -22 c11 -7
34 -45 34 -56 0 -18 -21 -2 -26 19 -4 18 -13 25 -30 25 -13 0 -24 5 -24 10 0
12 30 13 46 2z m76 -67 c0 -5 -5 -11 -11 -13 -6 -2 -11 4 -11 13 0 9 5 15 11
13 6 -2 11 -8 11 -13z"/>
<path d="M5501 10514 c-14 -18 -21 -41 -21 -70 0 -24 -1 -47 -2 -51 -7 -19 52
-13 71 6 12 12 28 21 37 21 11 0 7 9 -15 29 -22 20 -31 38 -31 60 0 38 -12 39
-39 5z"/>
<path d="M4940 10477 c-23 -11 -22 -12 24 -15 27 -2 54 2 59 7 8 8 7 11 -3 11
-8 0 -24 2 -35 5 -11 2 -31 -1 -45 -8z"/>
<path d="M6043 10303 c9 -2 25 -2 35 0 9 3 1 5 -18 5 -19 0 -27 -2 -17 -5z"/>
<path d="M6143 10293 c9 -2 25 -2 35 0 9 3 1 5 -18 5 -19 0 -27 -2 -17 -5z"/>
<path d="M6268 10283 c12 -2 32 -2 45 0 12 2 2 4 -23 4 -25 0 -35 -2 -22 -4z"/>
<path d="M4198 10193 c6 -2 18 -2 25 0 6 3 1 5 -13 5 -14 0 -19 -2 -12 -5z"/>
<path d="M5211 9679 c-176 -76 -331 -99 -421 -63 -23 9 -53 14 -69 11 -17 -4
-36 0 -47 8 -11 8 -28 14 -39 15 -69 0 -47 -58 37 -101 62 -31 90 -37 82 -16
-4 10 30 16 148 27 106 9 163 18 188 31 139 71 216 93 318 91 82 -1 87 11 11
27 -80 17 -108 13 -208 -30z m-487 -117 c2 -4 -4 -8 -14 -9 -11 -1 -22 2 -25
8 -4 5 3 9 14 9 11 0 22 -4 25 -8z"/>
<path d="M4808 9513 c7 -3 16 -2 19 1 4 3 -2 6 -13 5 -11 0 -14 -3 -6 -6z"/>
<path d="M3964 9056 c-22 -7 -69 -16 -105 -19 -94 -10 -182 -58 -343 -186 -21
-17 -43 -31 -48 -31 -6 0 -46 -26 -90 -57 -44 -32 -99 -69 -122 -83 -23 -14
-58 -37 -77 -51 -19 -15 -44 -32 -56 -38 -13 -6 -23 -18 -23 -27 0 -8 -6 -14
-12 -13 -20 2 -58 -12 -58 -22 0 -4 8 -13 18 -18 9 -6 11 -11 5 -11 -7 0 -13
-7 -13 -15 0 -16 55 -22 62 -7 2 4 16 17 32 30 16 12 24 22 17 22 -12 0 -14
19 -3 37 4 6 23 14 43 18 34 6 37 5 41 -20 4 -19 2 -25 -8 -21 -8 3 -21 9 -29
12 -8 3 -15 1 -15 -5 0 -6 11 -16 25 -21 20 -8 29 -5 51 15 22 20 24 26 11 31
-9 3 -13 12 -10 20 3 9 -2 14 -13 14 -14 1 -10 6 12 18 18 9 44 32 59 50 15
17 32 32 38 32 6 0 21 10 35 22 13 13 37 23 53 24 17 1 41 12 54 24 17 16 25
18 30 9 5 -7 1 -17 -9 -24 -23 -18 -2 -31 52 -33 39 -1 42 1 30 15 -11 14 -10
15 8 9 28 -9 54 2 54 23 1 14 3 13 15 -3 17 -23 50 -30 73 -16 10 5 12 10 5
10 -7 0 -13 6 -13 14 0 8 -6 16 -12 18 -10 4 -10 10 -1 31 l13 27 20 -20 c11
-11 23 -20 28 -20 10 0 37 43 34 53 -2 5 3 7 10 5 7 -3 12 -15 13 -29 0 -32
19 -41 23 -11 3 17 8 21 22 17 13 -4 20 0 25 15 4 13 15 20 31 20 19 0 24 5
24 25 0 36 47 36 56 1 10 -40 -8 -55 -22 -21 l-13 30 -1 -30 c0 -20 7 -35 21
-43 12 -7 22 -12 23 -10 4 5 42 89 55 121 14 37 14 80 -1 95 -15 15 -71 14
-124 -2z m100 -34 c2 -4 1 -14 -4 -22 -5 -9 -5 -19 2 -27 6 -8 8 -17 4 -20 -4
-4 -10 -2 -14 4 -9 13 -92 15 -108 2 -8 -7 -14 -6 -19 1 -3 6 -11 8 -16 4 -6
-4 -6 -11 2 -20 9 -11 7 -14 -9 -14 -11 0 -23 6 -25 13 -3 6 -6 2 -6 -10 -1
-24 -8 -28 -29 -15 -7 5 -10 16 -6 25 9 24 -8 21 -36 -5 -14 -13 -29 -22 -33
-20 -5 1 -15 -2 -22 -8 -7 -6 -20 -8 -29 -4 -33 13 -15 32 54 56 65 23 140 39
150 33 5 -3 12 0 15 6 4 5 12 8 19 6 7 -3 23 1 37 9 27 15 65 18 73 6z m-376
-155 c5 -17 1 -27 -12 -27 -7 0 -16 8 -18 18 -4 13 0 18 11 17 9 0 17 -4 19
-8z m-48 -7 c0 -5 -7 -10 -15 -10 -8 0 -15 -7 -15 -15 0 -8 5 -15 10 -15 6 0
10 -7 10 -15 0 -8 6 -15 13 -15 8 0 7 -4 -3 -10 -10 -7 -18 -5 -25 4 -6 7 -20
16 -33 20 -17 6 -22 3 -22 -9 0 -21 -24 -14 -28 8 -2 10 6 19 22 23 13 3 32
14 42 25 18 20 44 26 44 9z"/>
<path d="M2858 9043 c7 -3 16 -2 19 1 4 3 -2 6 -13 5 -11 0 -14 -3 -6 -6z"/>
<path d="M3884 8826 c-3 -8 0 -24 6 -36 14 -25 26 -19 15 7 -5 10 -7 24 -6 31
3 17 -8 15 -15 -2z"/>
<path d="M3750 8801 c0 -17 18 -21 24 -6 3 9 0 15 -9 15 -8 0 -15 -4 -15 -9z"/>
<path d="M3968 8803 c7 -3 16 -2 19 1 4 3 -2 6 -13 5 -11 0 -14 -3 -6 -6z"/>
<path d="M3850 8770 c0 -5 5 -10 10 -10 6 0 10 5 10 10 0 6 -4 10 -10 10 -5 0
-10 -4 -10 -10z"/>
<path d="M3673 8726 c3 -8 -4 -24 -15 -36 -15 -16 -18 -24 -9 -33 9 -9 14 -8
21 3 7 11 14 12 34 2 20 -9 24 -9 20 3 -3 7 -12 16 -21 19 -10 4 -13 14 -9 31
5 19 2 25 -10 25 -10 0 -14 -6 -11 -14z"/>
<path d="M3435 8683 c-24 -6 -44 -32 -45 -57 0 -15 3 -16 15 -6 21 17 58 5
100 -31 47 -42 48 -81 3 -109 l-33 -20 38 0 c53 0 97 45 97 100 0 79 -92 144
-175 123z"/>
<path d="M3750 8650 c0 -5 7 -10 16 -10 8 0 12 5 9 10 -3 6 -10 10 -16 10 -5
0 -9 -4 -9 -10z"/>
<path d="M3670 8619 c0 -10 31 -20 41 -13 17 10 9 19 -16 19 -14 0 -25 -3 -25
-6z"/>
<path d="M3810 8620 c0 -5 7 -10 16 -10 8 0 12 5 9 10 -3 6 -10 10 -16 10 -5
0 -9 -4 -9 -10z"/>
<path d="M3708 8523 c7 -3 16 -2 19 1 4 3 -2 6 -13 5 -11 0 -14 -3 -6 -6z"/>
<path d="M4659 8354 c-30 -47 -78 -122 -107 -167 -30 -45 -56 -85 -58 -89 -3
-5 -3 -8 -1 -8 17 0 200 277 220 333 12 32 0 17 -54 -69z"/>
<path d="M3600 8391 c0 -12 5 -21 10 -21 6 0 10 6 10 14 0 8 -4 18 -10 21 -5
3 -10 -3 -10 -14z"/>
<path d="M2694 8275 c-19 -29 -12 -45 21 -45 13 0 25 -4 27 -8 6 -15 128 -83
138 -77 5 3 29 -13 54 -35 24 -23 80 -60 123 -84 43 -24 105 -59 137 -79 33
-21 68 -37 77 -37 10 0 44 -23 76 -51 67 -59 137 -109 152 -109 21 0 87 -36
122 -66 20 -17 67 -48 105 -69 62 -34 205 -127 293 -190 27 -20 37 -23 55 -13
36 19 50 58 21 58 -8 0 -15 5 -15 10 0 6 -8 13 -17 17 -19 6 -98 55 -168 103
-22 15 -66 40 -98 55 -31 16 -74 43 -95 60 -20 18 -75 51 -122 75 -85 43 -110
59 -178 116 -20 17 -52 36 -69 42 -18 6 -63 30 -101 54 -37 24 -94 57 -126 73
-32 17 -76 46 -99 66 -32 27 -275 159 -293 159 -2 0 -11 -11 -20 -25z"/>
<path d="M4343 8173 c-7 -3 -13 -9 -13 -14 0 -6 -20 -29 -45 -51 -25 -23 -45
-47 -45 -55 0 -7 -17 -26 -39 -41 -38 -27 -77 -80 -66 -90 4 -5 100 91 139
138 90 110 98 123 69 113z"/>
<path d="M2655 8112 c-17 -9 -34 -23 -38 -30 -6 -9 -13 -10 -20 -4 -22 18 -55
17 -75 -1 -17 -15 -18 -22 -8 -43 6 -14 18 -23 27 -22 9 2 25 -5 35 -14 18
-16 20 -15 31 8 9 20 9 24 -5 25 -13 0 -13 2 3 8 13 6 23 4 28 -5 12 -20 35
-17 42 6 3 11 11 20 16 20 9 0 11 -7 13 -40 2 -22 55 -38 67 -20 8 12 12 12
16 2 8 -20 33 6 26 26 -13 35 -39 41 -48 12 -3 -11 -14 -20 -23 -20 -11 0 -13
3 -6 8 22 14 21 55 -2 67 -12 6 -28 16 -36 22 -10 9 -20 8 -43 -5z m15 -62 c0
-5 -2 -10 -4 -10 -3 0 -8 5 -11 10 -3 6 -1 10 4 10 6 0 11 -4 11 -10z"/>
<path d="M2820 8043 c0 -6 4 -14 9 -17 5 -3 7 -15 4 -26 -4 -13 0 -20 10 -20
14 0 45 29 33 31 -3 1 -10 2 -16 3 -5 0 -16 10 -24 21 -9 11 -16 15 -16 8z"/>
<path d="M2652 7990 c-7 -11 -18 -20 -26 -20 -8 0 -16 -7 -20 -15 -3 -8 -13
-15 -23 -16 -12 -1 -10 -3 7 -8 15 -4 27 -16 30 -31 5 -23 7 -23 13 -6 4 11 3
24 -3 30 -15 15 -12 23 10 29 10 3 21 0 23 -7 9 -23 30 12 23 38 -8 31 -17 33
-34 6z"/>
<path d="M2550 7974 c0 -8 5 -12 10 -9 6 4 8 11 5 16 -9 14 -15 11 -15 -7z"/>
<path d="M2503 7941 c-8 -21 -26 -44 -39 -51 -12 -7 -23 -16 -22 -19 0 -3 0
-17 -1 -30 -1 -21 -4 -23 -36 -17 -31 6 -35 4 -35 -13 0 -11 -8 -25 -17 -30
-15 -9 -14 -10 10 -11 18 0 27 5 27 16 0 12 6 15 26 10 15 -4 32 -2 41 5 11
10 19 7 41 -15 17 -18 22 -27 12 -26 -36 5 -44 0 -24 -14 15 -12 17 -17 7 -27
-15 -15 -17 -29 -5 -29 5 0 14 11 20 25 14 29 36 34 27 6 -5 -16 -2 -18 15
-14 12 3 17 9 12 12 -18 12 -20 60 -3 66 13 5 11 9 -12 23 -15 9 -27 20 -27
24 0 14 22 20 30 8 6 -9 15 -10 36 -2 18 6 22 11 12 11 -10 1 -18 6 -18 11 0
6 -11 10 -24 10 -25 0 -44 29 -27 40 12 7 10 70 -2 70 -5 0 -15 -17 -24 -39z
m17 -71 c0 -5 -4 -10 -10 -10 -5 0 -10 5 -10 10 0 6 5 10 10 10 6 0 10 -4 10
-10z"/>
<path d="M2860 7971 c0 -5 7 -14 15 -21 13 -11 21 -10 43 0 l27 13 -25 8 c-36
10 -60 10 -60 0z"/>
<path d="M2728 7958 c-7 -18 2 -39 13 -32 12 7 12 44 0 44 -5 0 -11 -6 -13
-12z"/>
<path d="M2950 7945 c-7 -8 -19 -15 -26 -15 -20 0 -17 -17 3 -24 16 -6 52 26
53 47 0 12 -17 8 -30 -8z"/>
<path d="M2820 7934 c0 -10 -5 -14 -15 -10 -13 4 -13 2 -5 -14 6 -11 17 -17
24 -14 19 7 27 54 10 54 -8 0 -14 -7 -14 -16z"/>
<path d="M2990 7906 c0 -12 10 -16 36 -16 45 0 42 24 -4 28 -24 2 -32 -1 -32
-12z"/>
<path d="M2570 7900 c0 -5 5 -10 10 -10 6 0 10 5 10 10 0 6 -4 10 -10 10 -5 0
-10 -4 -10 -10z"/>
<path d="M2660 7899 c0 -7 -8 -18 -17 -25 -17 -13 -17 -13 0 -14 9 0 17 5 17
10 0 6 6 10 13 10 7 0 22 7 33 15 18 14 17 14 -13 15 -18 0 -33 -5 -33 -11z"/>
<path d="M4543 7873 c-44 -29 -92 -108 -75 -125 22 -22 46 -2 67 52 17 44 29
60 60 77 36 20 37 23 15 23 -14 0 -44 -12 -67 -27z"/>
<path d="M2735 7880 c-3 -5 -17 -10 -31 -10 -26 0 -31 -9 -13 -27 8 -8 7 -13
-1 -18 -7 -4 -16 -2 -20 5 -6 9 -15 8 -39 -4 -40 -21 -68 -63 -52 -79 8 -8 11
-8 11 1 0 7 12 24 26 37 23 22 28 23 41 9 18 -17 12 -26 -17 -28 -22 -1 -28
-20 -7 -22 33 -3 38 -5 32 -15 -4 -6 -13 -8 -21 -5 -15 6 -18 -3 -8 -28 3 -9
15 -16 25 -16 13 0 19 -7 19 -24 0 -14 -4 -28 -10 -31 -16 -10 -12 -25 5 -19
10 4 15 0 15 -11 0 -13 6 -15 30 -10 24 5 30 3 30 -11 0 -15 2 -15 18 -3 17
15 52 32 85 43 21 7 23 36 2 36 -17 0 -21 35 -5 45 20 12 10 35 -13 33 -19 -2
-23 -7 -19 -25 5 -27 -12 -31 -28 -5 -9 14 -10 14 -5 -6 8 -27 -19 -54 -44
-44 -9 3 -12 1 -7 -6 13 -21 -5 -35 -20 -15 -19 25 -17 40 6 46 22 6 25 15 10
37 -9 13 -12 13 -21 -2 -17 -30 -29 -20 -26 20 4 47 28 102 45 102 7 0 10 -4
7 -10 -3 -5 -1 -18 5 -27 11 -17 11 -17 6 0 -4 13 1 17 24 17 17 0 30 -4 30
-10 0 -5 -4 -10 -10 -10 -5 0 -10 -7 -10 -15 0 -8 4 -15 9 -15 14 0 33 28 27
39 -4 5 -2 12 4 16 5 3 10 0 10 -8 0 -8 7 -20 16 -27 13 -12 15 -10 11 15 -4
33 -39 48 -88 38 -36 -7 -51 21 -23 42 11 8 14 15 7 15 -6 0 -15 -4 -18 -10z"/>
<path d="M2970 7850 c0 -5 5 -10 10 -10 6 0 10 5 10 10 0 6 -4 10 -10 10 -5 0
-10 -4 -10 -10z"/>
<path d="M3037 7838 c-4 -12 -4 -24 -1 -27 8 -9 37 27 30 38 -11 17 -23 13
-29 -11z"/>
<path d="M4625 7853 c-25 -6 -56 -33 -50 -43 3 -5 14 -6 24 -3 44 11 82 -73
44 -96 -16 -9 -15 -10 7 -11 30 0 41 7 63 40 23 33 21 50 -6 82 -24 28 -50 38
-82 31z"/>
<path d="M2975 7820 c-7 -12 2 -30 16 -30 5 0 9 9 9 20 0 21 -15 27 -25 10z"/>
<path d="M4224 7798 l-19 -23 23 19 c21 18 27 26 19 26 -2 0 -12 -10 -23 -22z"/>
<path d="M3173 7785 c-19 -21 -16 -27 8 -15 27 15 49 6 49 -20 0 -24 35 -28
44 -5 3 9 0 15 -9 15 -8 0 -15 5 -15 10 0 6 -7 10 -15 10 -8 0 -15 5 -15 10 0
15 -33 11 -47 -5z"/>
<path d="M2941 7774 c-7 -8 -11 -18 -7 -21 9 -10 36 6 36 22 0 19 -11 19 -29
-1z"/>
<path d="M2418 7774 c-11 -10 -10 -52 1 -59 14 -8 18 6 12 38 -3 16 -9 25 -13
21z"/>
<path d="M3001 7764 c0 -11 3 -14 6 -6 3 7 2 16 -1 19 -3 4 -6 -2 -5 -13z"/>
<path d="M2705 7760 c-3 -6 6 -15 20 -20 33 -12 35 -12 35 0 0 6 -7 10 -15 10
-8 0 -15 5 -15 10 0 13 -17 13 -25 0z"/>
<path d="M3033 7743 c-13 -8 -23 -20 -23 -25 0 -13 37 9 44 27 7 18 7 18 -21
-2z"/>
<path d="M2875 7731 c5 -14 2 -26 -5 -31 -8 -5 -2 -13 19 -26 17 -10 31 -24
31 -31 0 -11 4 -11 20 -1 27 17 25 27 -5 38 -14 5 -25 13 -25 17 0 5 -10 19
-21 33 l-20 25 6 -24z"/>
<path d="M4323 7733 c15 -2 37 -2 50 0 12 2 0 4 -28 4 -27 0 -38 -2 -22 -4z"/>
<path d="M4717 7684 c-33 -30 -44 -35 -70 -30 -98 19 -115 18 -159 -4 -23 -12
-56 -33 -73 -47 l-30 -25 35 18 c23 11 62 17 125 18 53 2 100 8 115 16 40 21
88 60 94 76 7 19 7 19 -37 -22z"/>
<path d="M3090 7695 c0 -8 -7 -15 -15 -15 -8 0 -15 5 -15 10 0 6 -5 10 -11 10
-8 0 -7 -5 1 -15 7 -9 20 -15 29 -13 9 1 22 -2 30 -6 11 -7 13 -5 8 8 -4 10
-7 22 -7 27 0 5 -4 9 -10 9 -5 0 -10 -7 -10 -15z"/>
<path d="M3000 7680 c0 -5 -6 -7 -14 -4 -9 4 -15 -5 -19 -28 -2 -18 -3 -35 -1
-37 7 -8 24 12 24 30 0 10 7 19 15 19 8 0 15 -5 15 -11 0 -6 -7 -17 -15 -25
-17 -17 -20 -34 -6 -34 5 0 13 9 16 20 3 11 15 20 26 20 10 0 19 7 19 15 0 8
-6 12 -14 9 -8 -3 -16 3 -19 15 -5 21 -27 30 -27 11z"/>
<path d="M3346 7681 c-3 -5 1 -12 10 -15 20 -8 54 2 54 15 0 12 -57 12 -64 0z"/>
<path d="M2456 7666 c7 -19 38 -22 32 -3 -3 6 -12 13 -21 15 -12 2 -15 -1 -11
-12z"/>
<path d="M3423 7652 c-6 -4 -10 -20 -10 -35 2 -22 6 -27 22 -25 12 2 18 9 16
18 -2 8 -4 23 -5 33 0 19 -5 21 -23 9z"/>
<path d="M3490 7625 c0 -8 7 -15 15 -15 8 0 15 4 15 9 0 5 -7 11 -15 15 -9 3
-15 0 -15 -9z"/>
<path d="M1375 7610 c-4 -6 3 -10 14 -10 25 0 27 6 6 13 -8 4 -17 2 -20 -3z"/>
<path d="M2880 7609 c0 -5 5 -7 10 -4 6 3 10 8 10 11 0 2 -4 4 -10 4 -5 0 -10
-5 -10 -11z"/>
<path d="M3047 7599 c-9 -12 -13 -27 -9 -33 3 -6 6 -19 7 -28 0 -34 20 -18 28
23 11 51 -4 71 -26 38z"/>
<path d="M1265 7588 c-27 -26 -9 -36 26 -15 17 9 37 17 45 17 8 0 14 4 14 9 0
16 -65 7 -85 -11z"/>
<path d="M3217 7599 c7 -7 15 -10 18 -7 3 3 -2 9 -12 12 -14 6 -15 5 -6 -5z"/>
<path d="M2930 7586 c0 -8 5 -18 10 -21 6 -3 10 1 10 9 0 8 -4 18 -10 21 -5 3
-10 -1 -10 -9z"/>
<path d="M2810 7583 c0 -5 12 -16 25 -26 21 -15 25 -16 25 -3 0 8 -9 20 -19
26 -23 12 -31 13 -31 3z"/>
<path d="M2965 7580 c-8 -13 -1 -24 14 -19 6 3 7 10 2 18 -6 10 -10 10 -16 1z"/>
<path d="M3170 7579 c0 -5 5 -7 10 -4 6 3 10 8 10 11 0 2 -4 4 -10 4 -5 0 -10
-5 -10 -11z"/>
<path d="M2890 7563 c0 -10 12 -23 26 -30 23 -11 24 -10 18 10 -11 36 -44 50
-44 20z"/>
<path d="M3250 7560 c-13 -8 -12 -10 3 -10 9 0 17 5 17 10 0 12 -1 12 -20 0z"/>
<path d="M3550 7560 c0 -11 49 -22 61 -15 5 4 7 10 4 15 -6 10 -65 10 -65 0z"/>
<path d="M3000 7541 c0 -5 7 -15 17 -22 15 -13 15 -12 4 9 -12 23 -21 28 -21
13z"/>
<path d="M3146 7534 c-4 -9 -4 -19 -1 -22 3 -3 11 0 17 6 9 9 9 15 1 23 -7 7
-12 5 -17 -7z"/>
<path d="M3615 7539 c-12 -19 5 -23 22 -6 16 16 16 17 1 17 -9 0 -20 -5 -23
-11z"/>
<path d="M2955 7530 c3 -5 11 -10 16 -10 6 0 7 5 4 10 -3 6 -11 10 -16 10 -6
0 -7 -4 -4 -10z"/>
<path d="M3255 7510 c3 -5 13 -10 21 -10 8 0 14 5 14 10 0 6 -9 10 -21 10 -11
0 -17 -4 -14 -10z"/>
<path d="M3660 7496 c0 -9 5 -16 10 -16 6 0 10 4 10 9 0 6 -4 13 -10 16 -5 3
-10 -1 -10 -9z"/>
<path d="M3155 7491 c-3 -5 -1 -12 5 -16 5 -3 10 1 10 9 0 18 -6 21 -15 7z"/>
<path d="M1610 7470 c0 -24 55 -88 66 -77 4 4 2 13 -4 19 -7 7 -12 19 -12 28
0 16 -29 50 -43 50 -4 0 -7 -9 -7 -20z"/>
<path d="M2946 7472 c-3 -6 -1 -14 5 -17 15 -10 25 3 12 16 -7 7 -13 7 -17 1z"/>
<path d="M2872 7458 c9 -7 18 -20 21 -28 3 -8 6 -3 6 13 1 21 -3 27 -21 27
-19 0 -20 -2 -6 -12z"/>
<path d="M2670 7444 c0 -8 5 -12 10 -9 6 3 10 10 10 16 0 5 -4 9 -10 9 -5 0
-10 -7 -10 -16z"/>
<path d="M2825 7451 c-3 -5 -1 -12 5 -16 5 -3 10 1 10 9 0 18 -6 21 -15 7z"/>
<path d="M2630 7420 c0 -11 5 -20 10 -20 6 0 10 9 10 20 0 11 -4 20 -10 20 -5
0 -10 -9 -10 -20z"/>
<path d="M3677 7432 c-3 -4 3 -13 14 -20 10 -7 19 -8 19 -3 0 13 -28 33 -33
23z"/>
<path d="M2960 7380 c0 -5 5 -10 11 -10 5 0 7 5 4 10 -3 6 -8 10 -11 10 -2 0
-4 -4 -4 -10z"/>
<path d="M3750 7368 l-25 -21 25 8 c31 9 33 11 29 24 -2 5 -15 0 -29 -11z"/>
<path d="M2590 7370 c0 -5 5 -10 10 -10 6 0 10 5 10 10 0 6 -4 10 -10 10 -5 0
-10 -4 -10 -10z"/>
<path d="M3852 7359 c-17 -26 -15 -37 2 -14 14 19 15 19 35 1 12 -11 21 -26
22 -35 0 -9 5 -1 10 18 12 39 13 36 -27 44 -23 4 -33 1 -42 -14z"/>
<path d="M2710 7341 c0 -5 5 -13 10 -16 6 -3 10 -2 10 4 0 5 -4 13 -10 16 -5
3 -10 2 -10 -4z"/>
<path d="M2815 7240 c-3 -5 3 -10 14 -10 12 0 21 5 21 10 0 6 -6 10 -14 10 -8
0 -18 -4 -21 -10z"/>
<path d="M2768 7233 c7 -3 16 -2 19 1 4 3 -2 6 -13 5 -11 0 -14 -3 -6 -6z"/>
<path d="M3915 7200 c-3 -5 -2 -10 4 -10 5 0 13 5 16 10 3 6 2 10 -4 10 -5 0
-13 -4 -16 -10z"/>
<path d="M1860 7125 c0 -8 2 -15 4 -15 2 0 6 7 10 15 3 8 1 15 -4 15 -6 0 -10
-7 -10 -15z"/>
<path d="M2835 7134 c-11 -2 -37 -10 -58 -16 -29 -9 -43 -8 -62 2 -21 11 -30
11 -62 -6 -66 -34 -182 -169 -197 -229 -6 -24 0 -19 29 25 42 61 110 136 139
152 13 7 22 6 30 -2 8 -8 1 -20 -31 -46 -48 -40 -107 -125 -128 -185 -8 -23
-20 -71 -25 -108 -14 -87 -32 -164 -42 -175 -21 -25 14 -42 55 -27 28 11 27 7
48 161 13 97 31 159 58 198 10 15 26 39 35 54 21 36 54 54 62 34 3 -8 -3 -23
-14 -34 -11 -11 -23 -35 -27 -53 -4 -19 -14 -38 -21 -44 -7 -5 -15 -26 -17
-45 -2 -19 -10 -54 -17 -77 -10 -34 -11 -45 0 -58 10 -12 10 -18 0 -30 -7 -9
-10 -27 -7 -44 4 -17 1 -36 -7 -47 -8 -10 -12 -24 -9 -31 3 -7 0 -13 -7 -13
-10 0 -10 -3 0 -15 7 -8 8 -15 3 -15 -11 0 -33 -44 -33 -65 0 -8 7 -15 15 -15
15 0 35 -29 35 -50 0 -7 -7 -9 -16 -6 -8 3 -13 2 -10 -3 3 -5 -1 -14 -9 -21
-8 -7 -12 -16 -9 -21 3 -5 -2 -6 -10 -3 -9 3 -17 11 -17 18 -1 6 -5 -2 -8 -19
-9 -37 3 -55 31 -47 15 3 19 2 14 -7 -8 -12 10 -41 25 -41 5 0 15 11 21 25 9
20 8 28 -4 42 -23 27 -30 53 -13 53 7 0 17 -5 20 -10 9 -15 25 -2 18 16 -4 10
5 8 30 -8 28 -18 34 -28 30 -46 -6 -23 -5 -24 24 -8 33 17 53 7 53 -26 0 -20
-8 -22 -29 -9 -9 6 -26 2 -49 -11 -19 -10 -41 -17 -48 -14 -8 3 -14 -1 -14 -9
0 -8 7 -15 15 -15 8 0 15 -7 15 -16 0 -11 6 -14 20 -9 13 4 20 2 20 -8 0 -17
44 -59 53 -50 4 3 7 -4 7 -17 0 -18 3 -20 13 -11 18 14 30 2 16 -16 -6 -7 -7
-13 -2 -13 5 0 19 -9 31 -20 12 -11 34 -23 49 -25 24 -5 32 1 56 35 15 22 27
44 27 50 0 19 23 59 31 54 13 -7 11 -152 -1 -159 -6 -4 -8 -16 -4 -27 4 -15 2
-19 -7 -16 -8 3 -22 1 -31 -3 -54 -28 -168 -10 -168 26 0 8 -9 19 -21 25 -11
7 -28 19 -38 28 -67 63 -107 98 -121 107 -10 5 -32 18 -49 28 -18 10 -41 27
-51 37 -10 10 -46 32 -79 49 -65 32 -63 31 -131 90 -25 22 -63 47 -85 57 -93
39 -133 61 -175 100 -43 40 -149 104 -252 152 -25 12 -49 26 -53 32 -3 5 -12
10 -20 10 -13 0 -73 35 -102 60 -18 15 -44 15 -80 0 -36 -16 -37 -18 -24 -53
7 -19 15 -23 34 -20 16 3 34 -4 57 -24 33 -28 132 -82 260 -143 36 -17 86 -49
112 -71 26 -21 51 -39 55 -39 5 0 24 -11 43 -25 18 -14 50 -28 69 -31 68 -12
88 -53 56 -114 -12 -24 -13 -41 -4 -97 6 -37 14 -117 19 -178 13 -184 32 -228
97 -237 28 -4 34 -1 44 25 9 22 9 31 1 36 -12 7 -14 48 -5 84 8 31 28 18 63
-40 109 -183 211 -307 243 -297 11 4 23 1 28 -7 11 -19 18 -8 21 34 2 20 6 37
10 37 9 0 110 -106 123 -130 6 -9 61 -66 123 -125 83 -79 116 -105 124 -97 8
8 17 8 30 1 28 -15 32 9 8 56 -20 39 -26 75 -14 75 4 0 42 -36 84 -80 42 -44
94 -87 114 -95 21 -9 76 -40 122 -70 102 -66 151 -92 224 -117 30 -10 71 -29
90 -42 19 -12 51 -28 71 -35 20 -6 57 -25 84 -42 26 -17 71 -39 99 -50 29 -10
68 -31 87 -45 18 -14 70 -44 114 -66 94 -48 185 -116 185 -139 0 -9 -9 -24
-20 -34 -11 -10 -20 -22 -20 -26 0 -5 -13 -31 -29 -58 -47 -78 -71 -173 -85
-331 -15 -158 -13 -287 5 -365 26 -111 90 -304 119 -356 39 -70 120 -237 120
-246 0 -5 13 -33 30 -64 26 -50 28 -60 19 -94 -6 -20 -13 -34 -16 -31 -4 3
-16 -2 -27 -13 -12 -10 -48 -33 -81 -50 -33 -17 -52 -31 -43 -31 32 0 163 67
203 104 48 45 51 76 11 161 -16 33 -44 94 -63 135 -19 41 -42 89 -50 105 -47
88 -65 132 -101 250 -22 72 -45 154 -52 182 -13 57 -17 323 -5 342 3 7 8 36 9
65 4 79 36 193 76 265 44 80 56 88 108 73 40 -12 207 -118 207 -131 0 -4 -12
-22 -27 -39 -35 -41 -66 -42 -79 -2 -6 17 -15 30 -20 30 -5 0 -15 11 -21 25
-6 14 -19 25 -30 25 -10 0 -18 5 -18 11 0 18 -66 3 -89 -20 -12 -12 -21 -26
-21 -33 0 -6 -7 -19 -16 -29 -9 -10 -17 -31 -19 -47 -1 -16 -5 -34 -9 -41 -15
-23 -26 -142 -16 -161 7 -13 7 -21 -1 -26 -15 -9 -2 -184 18 -242 7 -23 11
-47 8 -53 -4 -5 -2 -16 4 -23 6 -7 12 -26 14 -42 2 -16 7 -37 10 -46 4 -10 9
-25 12 -33 2 -8 12 -15 20 -15 9 0 14 4 10 9 -3 5 -1 12 4 15 14 9 24 -13 13
-27 -7 -8 -6 -16 3 -24 27 -25 36 29 10 63 -26 34 -17 61 18 55 4 0 7 5 7 13
0 10 -7 12 -22 8 -21 -5 -22 -4 -8 14 8 10 15 21 17 23 3 6 63 -23 63 -31 0
-4 -9 -12 -20 -18 -16 -9 -18 -15 -10 -31 6 -11 8 -24 5 -29 -3 -5 -1 -12 5
-15 8 -5 7 -11 -1 -21 -6 -8 -8 -14 -4 -14 4 0 1 -10 -8 -23 -12 -19 -13 -26
-1 -41 8 -12 12 -37 9 -67 -2 -27 0 -51 4 -54 5 -2 11 -22 15 -42 3 -21 15
-56 26 -78 19 -37 20 -38 15 -10 -23 148 -27 232 -16 328 7 56 21 131 33 166
20 63 79 174 98 186 5 3 17 22 27 43 9 20 25 44 35 54 24 24 23 34 -7 54 -14
9 -25 22 -25 30 0 13 -41 41 -49 33 -3 -2 -8 9 -12 24 -6 23 -5 26 6 17 10 -8
19 -8 34 -1 15 9 31 5 73 -16 29 -14 67 -37 84 -50 36 -27 44 -28 44 -9 0 9 7
12 20 9 36 -10 25 31 -12 45 -59 22 -158 90 -158 110 0 44 53 55 108 22 17
-11 32 -15 32 -10 0 6 11 8 25 4 29 -7 31 0 9 51 -9 22 -13 49 -9 64 4 14 -6
86 -21 163 -25 130 -26 164 -4 142 34 -34 84 -476 74 -656 -4 -75 -11 -119
-21 -129 -11 -13 -14 -55 -13 -195 1 -163 4 -185 26 -247 30 -85 30 -87 -2
-158 -29 -64 -28 -105 1 -50 l18 35 17 -57 c10 -31 21 -73 25 -94 26 -142 121
-388 225 -583 10 -19 33 -62 51 -95 17 -33 46 -78 63 -100 18 -22 57 -78 87
-125 31 -47 73 -105 95 -131 60 -68 154 -215 176 -272 18 -46 20 -85 23 -459
2 -224 0 -434 -5 -465 -25 -161 -42 -238 -80 -347 -23 -66 -50 -132 -60 -146
-10 -15 -46 -41 -78 -58 -72 -38 -100 -74 -159 -199 -32 -69 -43 -105 -41
-132 l3 -36 160 0 c179 0 228 10 233 46 3 18 1 21 -10 13 -7 -6 -43 -9 -86 -6
-64 4 -70 6 -55 18 10 7 30 14 45 14 40 0 58 25 59 78 0 26 8 67 17 92 14 36
26 49 62 68 44 22 104 29 114 14 3 -5 -21 -16 -54 -25 -64 -18 -94 -49 -98
-102 l-2 -30 17 24 c47 62 63 71 125 71 66 0 128 21 128 44 0 11 -8 13 -35 9
-19 -3 -42 -3 -51 1 -15 6 -15 8 -1 24 31 34 40 79 43 217 1 77 5 181 8 232 6
98 -4 127 -22 65 -17 -59 -25 -129 -27 -250 -2 -105 -13 -148 -32 -129 -13 14
-15 178 -4 305 21 233 77 624 128 891 42 223 31 276 -110 502 -163 264 -244
489 -281 789 -29 225 -19 670 19 848 56 268 60 469 14 662 -24 100 -82 256
-125 338 -67 126 -124 203 -249 330 -158 164 -292 273 -557 459 -503 353 -559
408 -735 723 -155 277 -226 382 -324 477 -115 112 -198 158 -380 213 -85 26
-126 32 -224 35 -66 2 -129 2 -140 -1z m-194 -697 c-13 -13 -26 -3 -16 12 3 6
11 8 17 5 6 -4 6 -10 -1 -17z m-61 -16 c0 -10 9 -21 20 -24 15 -4 20 -14 20
-36 0 -37 -17 -41 -30 -6 -5 14 -14 25 -19 25 -10 0 -22 40 -15 52 9 15 24 8
24 -11z m77 -53 c-3 -7 -5 -2 -5 12 0 14 2 19 5 13 2 -7 2 -19 0 -25z m38 -48
c3 -5 1 -10 -4 -10 -6 0 -11 5 -11 10 0 6 2 10 4 10 3 0 8 -4 11 -10z m35
-144 c8 -3 3 -4 -13 -1 -19 4 -29 1 -33 -10 -3 -8 -10 -12 -16 -9 -5 3 -1 14
9 24 10 10 23 14 28 10 6 -4 17 -10 25 -14z m64 -12 c17 -7 22 -34 6 -34 -5 0
-10 4 -10 9 0 5 -9 7 -20 4 -22 -6 -28 12 -7 20 6 3 13 6 14 6 1 1 8 -2 17 -5z
m-44 -54 c0 -6 -6 -10 -14 -10 -16 0 -38 24 -30 33 9 8 44 -11 44 -23z m94
-20 c-6 -6 -19 -8 -29 -4 -17 7 -17 8 1 21 21 15 45 0 28 -17z m1601 -1478
c-3 -3 -11 0 -18 7 -9 10 -8 11 6 5 10 -3 15 -9 12 -12z m245 -225 c0 -2 -12
-14 -26 -28 l-27 -24 18 28 c14 22 35 36 35 24z m-49 -99 c11 -21 11 -22 -4
-9 -10 7 -17 17 -17 22 0 15 9 10 21 -13z m739 -258 c0 -5 -7 -10 -15 -10 -8
0 -15 5 -15 10 0 6 7 10 15 10 8 0 15 -4 15 -10z m-870 -159 c9 -2 -25 -21
-37 -21 -7 0 -13 7 -13 15 0 10 7 14 23 11 12 -3 24 -5 27 -5z m-10 -42 c0 -3
-9 -14 -19 -23 -19 -17 -20 -17 -30 3 -15 27 -15 26 19 26 17 0 30 -3 30 -6z
m1390 -1999 c0 -5 -7 -10 -15 -10 -8 0 -15 5 -15 10 0 6 7 10 15 10 8 0 15 -4
15 -10z"/>
<path d="M3960 7120 c0 -5 5 -10 11 -10 5 0 7 5 4 10 -3 6 -8 10 -11 10 -2 0
-4 -4 -4 -10z"/>
<path d="M1288 7063 c-12 -13 -25 -23 -30 -23 -11 0 -69 -66 -87 -98 -18 -33
-9 -236 13 -306 9 -27 16 -66 16 -87 0 -21 5 -50 10 -65 6 -15 13 -93 16 -173
3 -80 9 -165 15 -188 14 -66 0 -393 -22 -512 l-19 -104 24 -47 c13 -25 29 -66
36 -91 6 -24 23 -73 37 -108 22 -56 25 -76 21 -160 l-3 -96 39 2 c44 3 75 26
112 86 14 20 47 62 74 92 52 57 64 95 32 95 -21 0 -52 -29 -52 -48 0 -7 -6
-12 -12 -12 -15 -1 -68 -74 -68 -93 0 -16 -48 -63 -56 -55 -3 4 -2 43 2 88 7
85 5 82 50 64 11 -5 58 82 67 122 2 12 -4 32 -14 45 -10 13 -19 29 -19 35 0 6
-8 18 -18 27 -21 19 -22 98 -4 184 10 44 8 64 -8 129 -11 42 -23 118 -27 168
-8 94 -8 570 -1 641 3 22 5 59 6 83 2 34 6 44 25 51 13 5 28 16 35 24 7 8 21
13 31 10 10 -3 22 0 25 6 12 18 45 12 84 -14 20 -14 41 -25 47 -25 6 0 50 -20
98 -45 49 -25 95 -45 103 -45 8 0 14 -4 14 -10 0 -5 7 -10 15 -10 8 0 15 -4
15 -9 0 -5 20 -17 45 -27 25 -9 51 -26 56 -36 6 -11 16 -17 23 -15 7 3 18 -4
24 -14 7 -10 18 -19 25 -19 6 0 23 -12 36 -25 15 -17 34 -25 56 -25 18 0 35
-5 37 -10 2 -6 16 -12 31 -14 15 -1 37 -12 48 -24 11 -12 31 -22 45 -22 19 0
25 -4 20 -15 -3 -9 0 -15 9 -15 13 0 17 -6 14 -26 -2 -13 26 -23 47 -18 12 3
25 1 28 -5 4 -6 14 -11 23 -11 13 0 13 3 3 15 -10 12 -9 16 4 21 22 8 20 26
-1 22 -14 -2 -17 3 -15 25 3 33 -15 36 -28 5 -5 -13 -9 -17 -9 -10 -1 7 -11
16 -23 21 -20 7 -16 10 27 19 31 7 54 7 60 1 14 -14 21 -11 22 11 2 17 -2 20
-19 14 -18 -5 -20 -3 -15 17 l6 24 -16 -22 c-10 -15 -26 -23 -44 -23 -16 0
-29 -4 -29 -10 0 -5 -7 -10 -16 -10 -9 0 -14 -6 -11 -13 4 -10 -2 -13 -19 -9
-28 5 -32 22 -6 23 13 0 13 2 -4 9 -30 12 -40 30 -17 30 19 1 53 22 53 34 0 3
-7 6 -16 6 -15 0 -66 20 -106 41 -10 5 -25 9 -33 9 -8 0 -15 7 -15 15 0 14
-12 20 -33 16 -4 -1 -18 5 -30 14 -12 8 -29 15 -38 15 -9 0 -19 7 -23 15 -3 8
-14 15 -24 15 -16 0 -87 45 -120 77 -7 7 -19 13 -25 13 -7 0 -23 9 -37 20 -14
11 -32 20 -41 20 -9 0 -24 9 -34 20 -10 11 -27 20 -37 20 -11 0 -26 7 -34 15
-9 8 -29 15 -45 15 -18 0 -29 5 -29 14 0 7 -31 40 -70 72 -38 32 -70 64 -70
71 0 7 -8 13 -18 13 -10 0 -23 5 -30 12 -15 15 -135 14 -140 -1 -2 -6 -10 -11
-17 -11 -51 0 -71 -147 -36 -268 10 -37 18 -87 17 -112 -2 -25 1 -58 6 -75 5
-16 11 -68 13 -115 3 -47 10 -107 16 -133 6 -26 9 -60 6 -74 -3 -14 -1 -39 4
-56 17 -59 11 -440 -7 -468 -5 -8 -7 -22 -6 -32 2 -10 -2 -24 -8 -32 -7 -8 -8
-20 -4 -27 5 -7 7 -26 5 -41 -1 -15 2 -34 8 -41 24 -28 76 -238 63 -251 -9 -8
-49 94 -57 145 -4 24 -17 60 -29 80 -35 55 -35 60 -16 166 21 113 30 418 17
579 -4 55 -10 143 -12 197 -2 53 -8 105 -14 115 -5 11 -12 48 -15 84 -3 35
-11 87 -17 114 -6 28 -13 86 -16 130 l-5 80 42 48 c23 26 54 54 69 61 28 14
101 12 131 -4 16 -8 19 -7 17 10 -1 14 -9 20 -27 21 -14 0 -53 1 -88 2 -54 2
-66 -1 -84 -20z"/>
<path d="M4260 6671 c0 -5 5 -13 10 -16 6 -3 10 -2 10 4 0 5 -4 13 -10 16 -5
3 -10 2 -10 -4z"/>
<path d="M4420 6469 c0 -5 5 -7 10 -4 6 3 10 8 10 11 0 2 -4 4 -10 4 -5 0 -10
-5 -10 -11z"/>
<path d="M4372 6458 c3 -7 13 -15 24 -17 16 -3 17 -1 5 13 -16 19 -34 21 -29
4z"/>
<path d="M4436 6434 c-9 -23 -8 -27 8 -21 7 3 19 0 25 -6 8 -8 11 -8 11 0 0 7
-5 15 -10 18 -6 4 -8 11 -5 16 4 5 0 9 -8 9 -8 0 -18 -7 -21 -16z"/>
<path d="M2380 6430 c0 -5 5 -10 11 -10 5 0 7 5 4 10 -3 6 -8 10 -11 10 -2 0
-4 -4 -4 -10z"/>
<path d="M4405 6390 c-7 -12 12 -12 40 0 18 8 17 9 -7 9 -15 1 -30 -3 -33 -9z"/>
<path d="M4522 6361 c3 -21 0 -31 -8 -31 -8 0 -11 -6 -8 -15 5 -12 12 -10 33
12 30 31 30 38 -1 54 -19 10 -20 9 -16 -20z"/>
<path d="M4450 6330 c0 -5 5 -10 10 -10 6 0 10 5 10 10 0 6 -4 10 -10 10 -5 0
-10 -4 -10 -10z"/>
<path d="M4574 6324 c3 -9 6 -18 6 -20 0 -2 7 -4 16 -4 11 0 14 5 10 16 -3 9
-6 18 -6 20 0 2 -7 4 -16 4 -11 0 -14 -5 -10 -16z"/>
<path d="M2620 6250 c0 -22 7 -25 29 -11 16 10 6 31 -15 31 -8 0 -14 -9 -14
-20z"/>
<path d="M4680 6212 c0 -5 8 -17 18 -28 11 -11 21 -25 23 -32 3 -9 10 -8 27 4
l23 16 -22 24 c-21 23 -69 34 -69 16z"/>
<path d="M4758 6131 c-9 -11 -14 -28 -11 -40 7 -26 15 -26 31 -1 10 17 15 18
26 8 10 -9 11 -17 4 -25 -8 -10 -4 -13 17 -13 26 0 27 -2 21 -37 -3 -21 -2
-30 2 -21 5 13 11 15 22 8 13 -8 13 -11 1 -19 -17 -11 -6 -31 19 -31 22 0 33
-14 36 -49 4 -34 -5 -44 -22 -26 -9 8 -20 12 -25 9 -6 -3 -13 3 -16 15 -6 25
-18 27 -27 5 -10 -27 -7 -31 25 -32 17 0 39 -8 49 -17 17 -15 20 -15 37 2 10
10 26 17 36 15 10 -2 17 0 16 5 -8 45 14 36 41 -17 22 -44 27 -71 9 -53 -11
11 -49 6 -49 -6 0 -4 6 -13 13 -20 10 -10 9 -15 -5 -25 -10 -7 -18 -19 -18
-27 0 -10 3 -10 12 -1 16 16 45 15 55 -2 10 -18 63 -9 63 10 0 8 10 14 25 14
14 0 25 -2 25 -5 0 -2 -20 -25 -45 -50 l-46 -45 41 0 c44 0 80 -14 80 -31 0
-6 -14 -7 -35 -3 -25 4 -35 3 -35 -6 0 -7 8 -10 20 -7 11 3 20 1 20 -5 0 -5
12 -7 30 -3 19 4 30 3 30 -4 0 -6 7 -11 15 -11 16 0 20 -12 8 -23 -3 -4 -12 1
-19 11 -14 20 -29 10 -20 -13 4 -11 15 -16 35 -13 26 2 61 -15 61 -31 0 -4
-15 -13 -32 -20 -28 -12 -30 -14 -13 -18 11 -3 26 -10 33 -15 8 -7 12 -7 12 1
0 6 7 11 15 11 8 0 15 -4 15 -10 0 -5 -3 -10 -7 -10 -5 0 -9 -11 -9 -24 -1
-16 5 -26 18 -29 12 -3 17 -10 13 -17 -11 -18 26 -40 46 -27 18 11 49 3 49
-13 0 -5 -9 -10 -21 -10 -28 0 -19 -23 12 -30 22 -5 24 -10 20 -50 -3 -39 -1
-43 12 -31 9 7 21 10 27 6 6 -4 17 -2 25 5 8 7 15 7 19 1 4 -5 2 -12 -3 -15
-5 -3 -7 -14 -4 -24 3 -12 -3 -22 -18 -28 -19 -9 -18 -10 15 -11 20 -1 36 3
36 8 0 5 5 9 10 9 12 0 13 -37 1 -44 -18 -12 1 -42 44 -69 41 -26 43 -30 34
-54 -7 -20 -6 -32 7 -51 9 -13 19 -20 23 -15 5 8 33 10 61 4 3 -1 -4 -8 -15
-17 -17 -13 -18 -16 -5 -24 8 -5 21 -10 28 -10 6 0 12 -9 12 -19 0 -14 8 -21
28 -23 21 -2 27 -9 29 -28 1 -15 0 -18 -3 -7 -7 24 -24 11 -24 -18 0 -13 -4
-27 -10 -30 -20 -12 -10 -25 14 -19 35 8 54 -5 32 -22 -20 -14 -13 -36 7 -28
20 7 47 -28 40 -54 -3 -12 -10 -22 -15 -22 -5 0 -6 5 -3 10 3 6 1 10 -4 10
-14 0 -14 -17 -1 -25 5 -3 7 -12 4 -20 -4 -8 1 -17 9 -21 9 -3 18 -23 22 -44
6 -38 26 -56 48 -43 7 3 9 2 4 -2 -4 -5 0 -16 9 -26 18 -20 13 -65 -9 -72 -6
-2 -4 -3 6 -1 19 2 37 -24 37 -55 0 -18 6 -21 45 -21 37 0 45 -3 45 -18 0 -28
-19 -43 -40 -30 -10 7 -25 8 -36 3 -16 -7 -14 -9 14 -15 36 -8 72 -40 72 -63
0 -15 -26 -41 -50 -50 -16 -6 56 -12 103 -9 21 2 27 -2 27 -17 0 -11 -4 -23
-10 -26 -17 -10 -11 -25 14 -36 32 -15 39 -45 15 -63 -18 -12 -18 -14 -4 -20
24 -9 23 -9 40 24 14 27 14 30 -3 39 -16 10 -16 10 0 11 21 0 40 33 32 54 -4
9 -1 16 6 16 9 0 11 11 7 35 -3 19 -3 35 1 35 13 0 30 69 18 74 -7 3 -6 8 3
14 8 6 11 18 6 31 -7 24 7 28 25 6 18 -22 50 -19 50 5 0 11 5 20 10 20 17 0
11 -36 -9 -61 -15 -18 -16 -28 -8 -46 6 -13 14 -23 18 -23 30 0 10 -131 -24
-155 -13 -9 -22 -28 -24 -52 -2 -21 -17 -67 -34 -102 -34 -74 -34 -90 0 -25
29 55 37 51 17 -7 -9 -24 -16 -59 -16 -77 l0 -34 31 26 c63 53 78 27 86 -154
3 -69 10 -130 15 -137 5 -6 21 -10 36 -8 15 2 30 4 33 4 14 2 17 45 5 55 -8 7
-17 64 -24 170 -7 87 -17 165 -23 172 -6 8 -22 14 -34 14 -32 0 -36 20 -13 71
44 97 75 287 49 304 -6 3 -4 17 5 33 16 31 18 58 5 66 -4 3 -11 24 -15 46 -3
23 -15 60 -25 83 -10 23 -24 62 -31 87 -7 25 -16 50 -20 55 -4 6 -11 24 -14
41 -4 18 -16 40 -27 50 -10 9 -19 25 -19 36 0 10 -4 18 -10 18 -5 0 -10 7 -10
15 0 8 -7 15 -16 15 -10 0 -14 6 -11 14 7 17 -18 71 -36 83 -7 5 -20 24 -30
43 -34 66 -46 84 -68 101 -12 9 -29 30 -38 46 -35 64 -57 93 -74 99 -10 3 -29
23 -43 45 -13 21 -28 39 -32 39 -5 0 -34 26 -66 57 -32 31 -65 58 -74 59 -9 2
-18 8 -20 13 -2 6 -10 11 -17 11 -7 0 -25 14 -38 30 -14 17 -29 30 -34 30 -4
0 -27 18 -51 40 -24 22 -49 40 -58 40 -8 0 -24 11 -36 25 -12 14 -26 25 -31
25 -12 0 -37 26 -37 40 0 6 -11 15 -25 20 -14 5 -25 14 -25 20 0 5 -9 10 -19
10 -11 0 -21 3 -23 8 -4 10 -67 54 -100 71 -16 8 -28 20 -28 26 0 7 -18 25
-40 40 -22 15 -40 32 -40 38 0 5 -5 5 -13 -2 -10 -8 -20 -4 -42 19 -16 17 -36
29 -44 28 -9 -2 -20 7 -26 19 -5 12 -22 27 -37 34 -14 6 -29 17 -31 23 -3 7
-19 16 -35 19 -17 3 -33 14 -36 24 -4 10 -22 29 -42 43 -19 14 -41 30 -47 35
-22 18 -61 16 -79 -4z m210 -165 c11 -25 7 -36 -13 -36 -14 0 -37 45 -28 54
13 13 30 5 41 -18z m267 -195 c-8 -13 -45 -15 -45 -2 0 5 10 11 23 13 27 5 31
3 22 -11z m-145 -11 c0 -5 -2 -10 -4 -10 -3 0 -8 5 -11 10 -3 6 -1 10 4 10 6
0 11 -4 11 -10z m110 -81 c0 -6 -4 -7 -10 -4 -5 3 -10 11 -10 16 0 6 5 7 10 4
6 -3 10 -11 10 -16z m100 -49 c0 -5 -2 -10 -4 -10 -3 0 -8 5 -11 10 -3 6 -1
10 4 10 6 0 11 -4 11 -10z m225 -343 c0 -26 -18 -25 -20 1 -1 12 3 21 9 19 6
-2 11 -11 11 -20z m95 -102 c0 -5 -5 -3 -10 5 -5 8 -10 20 -10 25 0 6 5 3 10
-5 5 -8 10 -19 10 -25z m40 -95 c0 -5 -4 -10 -9 -10 -6 0 -13 5 -16 10 -3 6 1
10 9 10 9 0 16 -4 16 -10z m78 -97 c-4 -22 -22 -20 -26 1 -2 10 3 16 13 16 10
0 15 -7 13 -17z m227 -283 c3 -5 1 -10 -4 -10 -6 0 -11 5 -11 10 0 6 2 10 4
10 3 0 8 -4 11 -10z m-40 -40 c3 -5 1 -10 -4 -10 -6 0 -11 5 -11 10 0 6 2 10
4 10 3 0 8 -4 11 -10z m25 -65 c0 -8 -4 -15 -10 -15 -5 0 -10 7 -10 15 0 8 5
15 10 15 6 0 10 -7 10 -15z m-20 -51 c13 -33 2 -54 -15 -30 -11 15 -10 56 1
56 3 0 9 -12 14 -26z m100 -104 c0 -5 -7 -10 -15 -10 -8 0 -15 5 -15 10 0 6 7
10 15 10 8 0 15 -4 15 -10z m-6 -75 c3 -9 0 -15 -9 -15 -16 0 -27 14 -18 24
10 10 21 7 27 -9z m211 -45 c3 -5 2 -10 -4 -10 -5 0 -13 5 -16 10 -3 6 -2 10
4 10 5 0 13 -4 16 -10z m-51 -79 c-9 -10 -26 18 -18 30 5 9 9 8 14 -7 4 -10 6
-21 4 -23z m-59 -21 c3 -5 1 -10 -4 -10 -6 0 -11 5 -11 10 0 6 2 10 4 10 3 0
8 -4 11 -10z m95 -40 c0 -5 -5 -10 -11 -10 -5 0 -7 5 -4 10 3 6 8 10 11 10 2
0 4 -4 4 -10z m-90 -4 c0 -11 -19 -15 -25 -6 -3 5 1 10 9 10 9 0 16 -2 16 -4z
m96 -37 c9 -16 -18 -30 -33 -17 -7 6 -13 19 -13 30 0 15 3 17 19 8 11 -5 23
-15 27 -21z m-16 -59 c0 -13 -7 -20 -20 -20 -25 0 -27 27 -2 33 9 3 18 5 20 6
1 0 2 -8 2 -19z m143 -120 c-3 -12 -8 -19 -11 -16 -5 6 5 36 12 36 2 0 2 -9
-1 -20z"/>
<path d="M4640 6130 c0 -5 5 -10 10 -10 6 0 10 5 10 10 0 6 -4 10 -10 10 -5 0
-10 -4 -10 -10z"/>
<path d="M4745 6050 c-3 -5 -1 -10 4 -10 6 0 11 5 11 10 0 6 -2 10 -4 10 -3 0
-8 -4 -11 -10z"/>
<path d="M4797 6019 c4 -13 8 -18 11 -10 2 7 -1 18 -6 23 -8 8 -9 4 -5 -13z"/>
<path d="M4860 5860 c0 -5 5 -10 10 -10 6 0 10 5 10 10 0 6 -4 10 -10 10 -5 0
-10 -4 -10 -10z"/>
<path d="M4995 5860 c-3 -5 1 -10 9 -10 9 0 16 5 16 10 0 6 -4 10 -9 10 -6 0
-13 -4 -16 -10z"/>
<path d="M1520 5628 c0 -6 -8 -18 -18 -27 -10 -9 -25 -28 -34 -42 -16 -25 -12
-42 14 -74 5 -5 15 -19 23 -30 12 -18 13 -16 8 22 -4 34 0 51 21 87 31 54 32
62 6 69 -11 3 -20 0 -20 -5z"/>
<path d="M5615 5040 c3 -5 8 -10 11 -10 2 0 4 5 4 10 0 6 -5 10 -11 10 -5 0
-7 -4 -4 -10z"/>
<path d="M5920 4450 c0 -5 5 -10 10 -10 6 0 10 5 10 10 0 6 -4 10 -10 10 -5 0
-10 -4 -10 -10z"/>
<path d="M5955 4340 c3 -5 8 -10 11 -10 2 0 4 5 4 10 0 6 -5 10 -11 10 -5 0
-7 -4 -4 -10z"/>
<path d="M6010 4210 c0 -5 5 -10 11 -10 5 0 7 5 4 10 -3 6 -8 10 -11 10 -2 0
-4 -4 -4 -10z"/>
<path d="M4764 4078 c-40 -31 -61 -56 -86 -103 -68 -123 -108 -270 -108 -391
0 -92 37 -267 75 -359 7 -16 23 -55 35 -85 13 -30 37 -85 55 -122 18 -36 40
-88 49 -114 50 -147 -4 -166 -454 -160 -294 4 -484 -6 -551 -29 -63 -22 -153
-19 -243 10 -43 14 -86 25 -95 25 -27 -1 -57 -22 -133 -96 -44 -42 -89 -76
-111 -83 -42 -14 -40 -31 2 -31 16 0 45 -11 65 -25 20 -14 42 -25 48 -25 6 0
35 23 64 50 49 47 84 63 84 40 0 -5 -4 -10 -8 -10 -4 0 -27 -29 -50 -65 -24
-35 -48 -67 -54 -71 -5 -4 -67 20 -137 53 -69 33 -147 70 -173 81 -27 12 -48
26 -48 31 0 9 100 51 121 51 6 0 28 13 48 29 20 15 74 51 121 78 64 38 96 51
130 52 61 3 64 11 4 13 -91 2 -104 -2 -229 -88 -68 -46 -149 -93 -180 -105
-40 -15 -59 -28 -66 -46 -13 -34 -1 -46 69 -74 31 -12 103 -47 160 -76 102
-54 103 -55 144 -41 33 10 50 25 81 71 21 31 45 57 53 57 8 0 32 -16 54 -36
35 -32 45 -36 79 -31 22 3 57 19 84 40 46 35 101 57 192 77 29 7 207 13 430
15 361 3 385 4 490 28 155 35 184 48 185 85 0 9 -5 9 -22 -2 -23 -15 -94 -28
-238 -46 -148 -18 -180 -20 -180 -11 0 5 30 11 68 14 37 3 87 11 112 17 25 6
54 12 65 14 51 9 124 39 130 54 3 9 -6 32 -23 56 -16 23 -42 79 -56 126 -43
135 -34 306 24 476 20 56 20 63 6 159 -8 55 -17 161 -21 235 -8 205 -17 310
-25 310 -4 0 -20 -10 -36 -22z m-581 -1435 c-7 -2 -21 -2 -30 0 -10 3 -4 5 12
5 17 0 24 -2 18 -5z m284 -9 c-3 -3 -12 -4 -19 -1 -8 3 -5 6 6 6 11 1 17 -2
13 -5z m-560 -10 c-3 -3 -12 -4 -19 -1 -8 3 -5 6 6 6 11 1 17 -2 13 -5z m-223
-79 c-76 -49 -86 -52 -104 -30 -11 13 -8 15 16 15 16 1 54 14 84 30 81 43 83
36 4 -15z m-379 25 c-3 -5 -13 -10 -21 -10 -8 0 -14 5 -14 10 0 6 9 10 21 10
11 0 17 -4 14 -10z"/>
<path d="M6516 4082 c-12 -38 -13 -105 -2 -142 15 -50 30 -64 24 -23 -2 18 -1
30 4 27 13 -8 9 15 -8 49 -12 21 -13 32 -5 35 13 4 15 72 2 72 -5 0 -12 -8
-15 -18z"/>
<path d="M6075 4080 c-3 -5 1 -10 9 -10 9 0 16 5 16 10 0 6 -4 10 -9 10 -6 0
-13 -4 -16 -10z"/>
<path d="M6105 3820 c3 -5 11 -10 16 -10 6 0 7 5 4 10 -3 6 -11 10 -16 10 -6
0 -7 -4 -4 -10z"/>
<path d="M6276 3784 c-4 -9 -4 -19 -1 -22 2 -3 7 3 11 12 4 9 4 19 1 22 -2 3
-7 -3 -11 -12z"/>
<path d="M6230 3758 c0 -8 -13 -30 -30 -48 -16 -18 -30 -38 -30 -43 0 -6 -22
-41 -50 -79 -27 -38 -50 -75 -50 -83 0 -7 -4 -16 -9 -20 -24 -14 -150 -309
-138 -321 2 -2 14 24 27 58 32 88 92 206 133 259 18 25 50 75 71 111 20 36 43
72 51 78 16 14 40 89 31 98 -3 3 -6 -1 -6 -10z"/>
<path d="M6535 3657 c-23 -36 -31 -87 -12 -87 8 0 19 -12 25 -27 23 -68 96
-113 184 -113 65 0 213 92 171 107 -7 2 -9 11 -6 19 4 12 0 14 -23 8 -16 -4
-43 -13 -61 -21 -44 -18 -50 -17 -78 12 -14 13 -25 19 -25 13 0 -5 17 -26 38
-45 l37 -36 -49 7 c-30 4 -59 15 -72 27 -23 21 -94 135 -94 150 0 17 -20 9
-35 -14z"/>
<path d="M4400 3564 c0 -8 5 -12 10 -9 6 4 8 11 5 16 -9 14 -15 11 -15 -7z"/>
<path d="M4585 2850 c-4 -6 -15 -8 -26 -5 -27 9 -110 -5 -103 -17 6 -10 126
-4 168 9 15 4 16 7 5 14 -19 12 -36 11 -44 -1z"/>
<path d="M3970 2830 c-69 -4 -159 -12 -200 -19 -41 -6 -97 -13 -125 -15 -27
-2 2 -2 65 -1 127 3 348 22 395 35 34 9 33 9 -135 0z"/>
<path d="M5990 2103 c0 -10 7 -36 15 -58 8 -22 14 -60 15 -85 1 -95 22 -115
46 -45 29 84 12 155 -45 188 -30 17 -31 17 -31 0z"/>
<path d="M6054 1812 c-4 -20 -8 -41 -9 -47 0 -5 -4 -15 -7 -21 -9 -13 1 -54
13 -54 12 0 21 19 30 59 4 20 10 47 14 61 6 25 6 25 -11 5 -16 -20 -16 -20
-11 2 3 13 2 25 -3 28 -4 3 -11 -12 -16 -33z"/>
<path d="M5978 1407 c-10 -8 -13 -20 -9 -37 7 -24 7 -24 20 8 16 37 12 48 -11
29z"/>
<path d="M5881 1044 c0 -11 3 -14 6 -6 3 7 2 16 -1 19 -3 4 -6 -2 -5 -13z"/>
</g>
</svg>
