<?xml version="1.0" standalone="no"?>
<!DOCTYPE svg PUBLIC "-//W3C//DTD SVG 20010904//EN"
 "http://www.w3.org/TR/2001/REC-SVG-20010904/DTD/svg10.dtd">
<svg version="1.0" xmlns="http://www.w3.org/2000/svg"
 width="771.000000pt" height="542.000000pt" viewBox="0 0 771.000000 542.000000"
 preserveAspectRatio="xMidYMid meet">

<g transform="translate(0.000000,542.000000) scale(0.100000,-0.100000)"
fill="#FFFFFF" stroke="none">
<path d="M3595 5308 c50 -108 75 -178 75 -214 0 -30 -26 -42 -124 -53 -67 -8
-63 -9 52 -9 67 0 126 -2 129 -6 4 -3 -22 -6 -57 -6 -59 0 -148 -30 -158 -52
-2 -5 -10 -8 -18 -8 -8 0 -14 -4 -14 -10 0 -5 -5 -10 -11 -10 -7 0 -20 -10
-31 -22 -17 -20 -29 -23 -89 -21 -90 2 -247 36 -288 62 -20 13 3 41 33 41 17
0 18 2 6 10 -12 8 -12 10 -1 10 8 0 11 3 8 7 -4 3 -15 -1 -25 -10 -25 -23 -94
-25 -127 -3 -21 14 -25 22 -20 45 5 26 3 29 -29 34 -36 6 -76 0 -76 -12 0 -3
14 -29 30 -58 39 -68 91 -120 141 -139 21 -9 39 -20 39 -24 0 -4 -15 -18 -32
-30 l-33 -22 29 5 c32 5 56 0 56 -13 0 -5 -13 -8 -30 -8 -19 1 -36 -7 -48 -23
-18 -21 -23 -22 -57 -11 -21 6 -43 8 -48 5 -6 -3 -7 -1 -3 5 4 7 2 12 -3 12
-6 0 -11 -4 -11 -10 0 -5 -15 -9 -32 -9 -18 1 -105 0 -193 -1 -88 -1 -191 0
-230 3 -46 4 -58 3 -35 -2 19 -5 29 -9 23 -10 -7 0 -13 -6 -13 -12 0 -6 6 -9
14 -6 7 3 30 2 50 -3 29 -6 39 -5 43 7 5 12 7 12 14 1 5 -7 13 -14 19 -14 5
-1 15 -2 20 -3 6 0 10 -5 10 -9 0 -5 -24 -7 -52 -5 -29 2 -66 5 -83 6 -16 1
-33 5 -36 10 -9 13 -62 19 -69 7 -4 -6 -13 -5 -26 6 -10 8 -14 14 -9 11 6 -2
18 4 28 15 12 13 13 18 3 18 -7 0 -35 3 -62 6 -46 5 -48 4 -30 -10 11 -9 29
-14 40 -11 19 5 19 5 3 -5 -9 -6 -22 -8 -27 -5 -6 3 -10 2 -10 -4 0 -23 136
-105 224 -135 29 -10 10 -23 -85 -55 -237 -83 -467 -120 -851 -137 -157 -7
-156 -6 -116 -92 45 -97 162 -181 307 -221 41 -11 76 -23 78 -25 8 -8 -119
-43 -217 -60 -132 -22 -413 -46 -548 -46 -129 0 -127 2 -76 -87 43 -75 169
-162 262 -179 17 -3 32 -10 32 -14 0 -28 -312 -71 -637 -86 -79 -4 -143 -11
-143 -15 0 -22 264 -155 425 -215 31 -11 43 -20 33 -22 -22 -4 -271 105 -358
157 -36 22 -67 38 -69 36 -7 -7 40 -64 94 -113 30 -28 80 -62 111 -77 53 -25
55 -27 39 -45 -49 -54 -265 -134 -545 -202 -91 -22 -167 -41 -169 -44 -2 -2
25 -17 60 -33 67 -32 69 -42 3 -16 l-39 15 35 -30 c49 -43 190 -112 309 -151
l101 -33 -16 -24 c-26 -40 -12 -42 61 -11 103 45 417 169 427 169 5 0 28 9 51
19 87 40 181 71 196 66 8 -3 17 -2 20 2 3 4 21 16 39 26 22 13 32 14 32 6 0
-7 7 -4 15 7 8 10 15 15 15 10 0 -5 7 -3 15 4 19 16 19 1 0 -24 -11 -14 -15
-16 -15 -5 -1 10 -3 10 -11 -3 -6 -11 -16 -15 -26 -11 -10 4 -14 2 -9 -5 3 -6
-3 -17 -15 -25 -13 -9 -16 -17 -10 -22 17 -10 13 -28 -4 -21 -14 5 -20 -9 -16
-41 1 -7 -5 -13 -14 -13 -8 0 -16 -6 -16 -12 -1 -7 -2 -17 -4 -23 -1 -5 -3
-13 -3 -17 -1 -4 -20 -1 -42 7 -46 16 -52 12 -12 -9 l27 -14 -27 -11 c-33 -12
-38 -26 -7 -16 13 5 19 3 15 -3 -3 -5 -33 -18 -66 -28 -35 -11 -58 -24 -56
-31 4 -10 -30 -21 -93 -29 -13 -2 -39 -10 -59 -20 -28 -13 -40 -14 -54 -5 -10
6 -31 11 -48 11 -16 0 -30 5 -30 11 0 6 -5 7 -12 2 -7 -4 -33 -6 -57 -5 -24 1
-42 -1 -38 -4 9 -9 167 -43 272 -59 47 -7 203 -7 214 0 5 2 32 5 61 6 28 1 54
7 56 13 2 6 18 12 35 13 17 1 36 7 43 12 6 5 17 6 24 2 8 -5 -19 -19 -70 -37
-78 -27 -93 -29 -228 -29 -100 1 -167 6 -217 18 -40 9 -78 17 -86 17 -9 0 -65
-92 -136 -219 -66 -120 -121 -220 -121 -223 0 -14 112 6 141 26 16 11 19 16
19 38 0 6 3 9 6 6 3 -4 14 1 24 10 10 9 26 24 37 32 43 33 85 71 82 74 -2 2
-48 -25 -102 -60 -143 -94 -111 -63 55 52 79 54 176 122 217 151 64 46 80 53
120 53 33 0 42 -3 31 -10 -8 -5 -10 -10 -4 -10 7 0 14 -8 16 -18 3 -10 20 -25
37 -34 26 -12 29 -17 16 -22 -9 -3 -21 -3 -27 0 -6 4 -8 -1 -3 -15 5 -15 3
-19 -8 -16 -16 7 -19 -26 -3 -37 6 -5 1 -8 -13 -8 -18 0 -21 -3 -12 -13 17
-21 3 -27 -26 -12 -15 8 -31 11 -37 8 -10 -6 1 -13 57 -33 24 -9 26 -12 17
-31 -7 -11 -9 -23 -6 -26 2 -3 0 -16 -5 -30 -8 -22 -7 -24 8 -19 15 4 14 3 -2
-9 -62 -45 -63 -46 -20 -39 22 4 58 13 80 20 21 7 41 11 44 9 2 -3 -35 -116
-82 -252 -63 -183 -83 -250 -74 -256 17 -12 303 0 417 17 52 8 124 24 158 35
l64 19 -6 -21 c-3 -12 -23 -125 -46 -252 -45 -255 -58 -365 -43 -365 71 0 467
116 676 199 34 13 34 20 2 -150 -32 -173 -65 -395 -65 -437 0 -28 3 -32 23
-28 12 3 45 8 72 11 81 10 289 54 335 70 24 8 44 14 46 13 1 -2 -6 -59 -16
-128 -54 -372 -14 -659 103 -730 l31 -19 141 277 c151 296 226 434 284 522
l35 55 8 -85 c10 -114 28 -220 37 -220 4 0 31 55 61 123 87 199 254 537 301
607 l44 65 7 -120 c7 -121 23 -231 37 -254 5 -7 43 70 95 191 110 253 267 573
300 613 l25 30 2 -25 c1 -23 2 -23 9 5 6 24 8 16 11 -40 1 -38 2 -81 2 -95 -1
-32 25 -271 30 -277 3 -2 10 11 17 29 36 89 257 582 289 643 l36 70 6 -55 c4
-39 6 -20 7 65 2 177 17 238 91 382 42 81 59 101 111 128 17 9 49 32 71 52 21
19 39 32 39 29 0 -4 -23 -40 -50 -81 -125 -185 -182 -326 -210 -519 -11 -73
-7 -186 7 -224 5 -11 1 -13 -15 -7 -25 7 -31 -12 -6 -22 8 -3 13 -11 11 -17
-3 -7 1 -20 9 -31 13 -17 14 -17 14 -1 0 9 5 14 10 11 6 -3 10 -4 10 -2 0 2 7
43 15 89 27 158 92 312 201 480 61 94 144 189 157 181 5 -3 7 -2 4 4 -9 14 66
84 142 132 63 40 88 51 76 32 -3 -6 7 -6 27 0 137 39 367 -29 469 -138 46 -49
57 -79 48 -128 -4 -22 -8 -56 -7 -75 l1 -35 6 35 7 35 7 -34 c4 -18 7 -49 7
-67 0 -45 16 -51 126 -49 l92 2 18 -31 c9 -16 13 -31 8 -33 -7 -2 -7 -27 -3
-66 5 -34 6 -70 3 -79 -7 -24 12 -23 29 1 7 11 42 43 78 71 35 29 64 56 64 60
0 5 4 12 9 17 5 5 6 3 2 -4 -20 -34 19 -5 86 66 88 91 144 185 161 270 10 45
22 70 48 98 52 57 66 76 74 103 7 22 6 23 -9 11 -24 -20 -20 -8 13 41 28 41
59 133 49 143 -3 3 -13 -11 -24 -30 -10 -19 -26 -38 -36 -41 -10 -3 -41 -31
-70 -63 -29 -32 -68 -71 -86 -86 -41 -35 -55 -25 -81 59 -11 33 -20 51 -20 39
-1 -13 -7 -23 -16 -23 -7 0 -18 -7 -23 -17 -9 -14 -10 -14 -16 5 -4 12 -4 27
-1 34 4 7 0 5 -8 -4 -23 -29 -60 -20 -139 30 -33 21 -35 26 -28 55 16 63 20
126 8 133 -6 4 -8 3 -4 -4 3 -6 2 -13 -4 -17 -5 -3 -10 -15 -10 -27 0 -22 -30
-78 -42 -78 -5 0 -1 12 9 28 17 27 17 27 -3 10 -25 -22 -33 -22 -62 -2 -18 13
-21 19 -11 30 14 17 46 18 51 2 6 -18 27 0 43 39 8 19 15 37 15 39 0 2 -35
-15 -78 -38 l-79 -42 -78 59 c-43 33 -84 69 -92 81 -7 11 -25 26 -39 33 -23
10 -24 14 -13 29 13 15 12 16 -3 4 -10 -8 -19 -9 -22 -3 -8 13 32 41 59 41 11
0 27 5 35 11 27 19 -52 -2 -92 -24 l-37 -20 -47 42 c-63 55 -115 117 -106 125
3 4 -1 4 -10 1 -9 -4 -28 1 -43 11 -20 13 -29 14 -34 5 -6 -9 -11 -7 -22 5
-12 15 -12 17 0 9 10 -5 12 -4 7 4 -4 6 -11 9 -16 6 -11 -7 -32 20 -22 30 4 5
2 5 -4 2 -22 -12 -67 60 -80 127 -4 25 -3 37 3 33 7 -4 7 8 2 36 -4 23 -6 57
-2 75 l5 32 68 0 67 0 46 -94 c42 -87 81 -134 105 -124 5 1 37 36 71 75 76 89
91 99 128 79 22 -11 31 -26 40 -66 14 -60 51 -113 93 -135 46 -24 52 -20 46
33 -3 26 -2 37 2 23 7 -23 8 -22 24 12 9 19 33 47 53 62 l36 28 26 -24 c33
-31 80 -130 89 -186 3 -24 10 -46 15 -49 15 -9 52 17 125 88 l71 69 45 -11
c45 -12 45 -12 52 -63 3 -29 6 -70 6 -93 0 -22 6 -49 14 -59 12 -17 18 -18 50
-8 51 16 186 96 239 143 24 22 47 36 51 33 12 -12 6 -121 -9 -163 -8 -23 -12
-47 -8 -54 3 -6 3 -8 -2 -4 -8 8 -55 -53 -55 -71 0 -20 47 -11 86 15 95 63
195 190 275 348 47 92 58 106 84 112 90 19 216 100 231 147 4 12 28 54 54 92
72 107 112 183 104 196 -4 8 -3 9 4 5 7 -4 12 -6 13 -4 0 2 3 37 5 79 l5 77
-53 30 c-29 16 -90 42 -136 57 -46 15 -103 38 -127 52 -25 13 -49 22 -54 19
-5 -4 -12 -2 -16 4 -25 40 -194 91 -452 136 -130 23 -156 25 -215 15 -85 -14
-98 -14 -93 2 2 7 -24 26 -65 46 -38 19 -66 39 -64 43 3 4 -3 8 -14 8 -10 0
-31 11 -46 25 -15 14 -31 25 -36 25 -17 0 -52 62 -57 103 -14 108 -88 161
-260 186 -139 21 -587 11 -611 -14 -15 -15 28 -20 226 -26 392 -13 468 -26
528 -92 l29 -31 -34 27 c-58 47 -106 61 -249 73 -63 5 -143 -2 -457 -41 -126
-16 -198 -16 -435 0 -101 7 -84 -6 46 -34 112 -25 251 -25 439 -1 317 42 464
50 538 29 48 -13 111 -68 102 -90 -3 -8 -20 -23 -37 -34 -26 -15 -57 -19 -167
-22 -152 -3 -373 6 -367 16 2 3 -44 6 -103 7 -179 2 -417 50 -706 144 -158 51
-227 71 -231 67 -2 -2 52 -24 119 -51 67 -26 194 -87 282 -135 88 -48 212
-113 275 -146 63 -32 156 -84 205 -115 76 -49 90 -61 87 -81 -2 -18 0 -20 6
-10 13 18 35 3 29 -19 -3 -12 0 -17 8 -14 7 3 22 -5 34 -17 24 -26 27 -39 8
-39 -7 0 -52 -20 -100 -45 -48 -25 -87 -43 -87 -39 0 4 -6 2 -12 -4 -13 -10
-119 -68 -186 -102 -18 -9 -44 -32 -57 -53 -19 -27 -34 -38 -63 -42 -54 -10
-61 -13 -24 -14 30 -1 31 -2 20 -23 -18 -31 -25 -36 -86 -54 -30 -9 -52 -17
-50 -19 5 -5 167 34 190 46 37 20 28 3 -26 -54 -30 -30 -52 -58 -49 -61 3 -3
1 -11 -4 -18 -6 -7 -25 -51 -42 -98 -18 -47 -41 -101 -52 -120 l-19 -35 31 35
31 35 -17 -40 c-9 -22 -24 -60 -32 -85 -57 -168 -112 -312 -160 -420 -58 -129
-69 -148 -78 -138 -3 3 8 31 25 62 17 31 33 66 35 79 3 18 -2 15 -30 -17 -19
-22 -35 -47 -35 -56 0 -13 -11 -17 -51 -19 -40 -2 -49 1 -43 11 6 10 4 10 -7
2 -16 -12 -99 -7 -99 7 0 5 3 8 8 8 9 -2 72 21 72 27 0 1 -12 15 -26 29 -17
17 -23 32 -19 44 3 11 7 28 9 38 2 10 27 61 54 113 43 80 55 96 81 103 38 9
41 20 4 12 -26 -6 -27 -5 -10 8 10 9 18 19 17 24 -2 13 30 16 46 3 12 -11 12
-14 -2 -25 -15 -10 -12 -11 14 -7 18 2 32 8 32 13 0 5 10 9 23 9 25 0 101 20
95 25 -2 2 -33 -2 -70 -9 -38 -7 -70 -11 -73 -8 -11 11 -4 21 18 26 12 2 -2 3
-30 2 -29 -2 -53 -1 -53 1 0 1 11 27 25 56 14 28 29 71 32 95 4 31 10 42 23
42 10 0 28 9 41 21 21 18 21 20 4 14 -11 -4 -24 -8 -30 -9 -5 -1 -14 -4 -20
-7 -5 -4 -22 -9 -37 -13 -28 -6 -90 -56 -70 -56 15 0 -17 -77 -35 -84 -9 -4
-11 -2 -7 6 4 6 7 24 6 40 0 15 3 26 8 23 5 -3 11 -1 15 5 3 5 -1 10 -9 10 -9
0 -16 4 -16 10 0 5 7 6 17 3 12 -5 14 -3 8 7 -5 9 -4 11 3 6 7 -4 12 -1 12 10
0 12 -6 15 -21 11 -17 -4 -18 -3 -8 9 7 8 20 12 30 9 14 -5 17 -2 13 10 -4 10
-13 13 -25 10 -15 -5 -19 -1 -19 19 0 14 5 26 10 26 6 0 10 -4 10 -10 0 -5 7
-7 15 -4 13 5 12 9 -4 23 -18 16 -18 18 -3 29 9 7 11 10 5 7 -15 -7 -18 31 -4
39 14 9 43 -5 38 -18 -3 -7 3 -12 13 -12 10 0 16 4 14 8 -3 4 11 8 31 8 19 0
55 9 78 20 34 16 43 26 43 45 0 14 -4 25 -8 25 -12 0 3 84 16 92 8 6 8 8 -1 8
-6 0 -25 13 -41 29 -39 39 -87 45 -247 31 -155 -13 -420 -22 -355 -11 52 8 48
10 -82 35 -93 17 -243 76 -318 124 -80 51 -270 195 -304 231 -29 30 -54 43
-40 19 4 -7 3 -8 -5 -4 -6 4 -9 11 -6 15 6 11 -40 53 -49 44 -4 -5 -6 -3 -4 3
2 6 -16 32 -39 58 -24 27 -43 53 -43 58 0 17 59 0 112 -32 54 -34 64 -36 75
-16 17 29 110 52 130 33 3 -4 -5 -7 -19 -7 -14 0 -39 -5 -57 -11 -26 -9 -31
-16 -31 -43 0 -38 37 -77 120 -127 30 -18 58 -37 61 -42 4 -5 11 -7 15 -4 5 3
18 -1 28 -9 14 -10 16 -17 8 -27 -12 -14 2 -47 15 -34 4 5 1 12 -6 16 -10 6
-10 10 -1 16 7 4 13 -1 17 -14 5 -21 23 -30 23 -11 0 15 29 12 46 -5 12 -12
20 -13 37 -3 20 10 21 10 8 -5 -12 -15 -11 -17 5 -18 11 -1 24 -1 31 0 7 1 47
-8 90 -19 105 -28 198 -50 257 -61 27 -4 54 -13 60 -20 8 -8 -1 -9 -34 -3 -72
12 -110 11 -122 -3 -7 -9 -7 -13 0 -13 6 0 9 -6 6 -14 -10 -26 93 -33 304 -21
52 3 92 1 92 -4 0 -5 7 -12 16 -15 26 -10 157 -36 161 -32 2 2 -8 21 -22 42
-62 91 19 185 140 163 75 -14 124 -10 145 11 43 43 14 85 -125 185 -39 27
-104 77 -145 110 -155 124 -288 193 -455 235 -91 23 -151 21 -161 -5 -7 -18 9
-34 66 -63 25 -13 34 -20 20 -17 -158 35 -179 37 -290 32 -106 -6 -203 -27
-301 -65 -15 -6 -30 -8 -33 -5 -3 4 -6 1 -6 -5 0 -29 -229 -69 -245 -42 -4 6
7 10 30 10 20 0 45 5 56 10 14 8 19 7 19 -2 0 -6 9 -2 20 10 21 22 47 31 35
12 -3 -5 1 -10 9 -10 9 0 16 9 16 20 0 13 6 20 18 19 10 0 12 -3 5 -6 -7 -2
-13 -9 -13 -14 0 -4 7 -6 15 -3 8 4 15 13 15 21 0 8 5 11 10 8 6 -3 10 -1 10
4 0 6 6 11 13 11 8 0 22 9 32 20 21 24 37 26 29 5 -4 -8 -1 -15 5 -15 6 0 11
6 11 14 0 21 21 31 30 16 6 -10 15 -10 40 -1 18 6 36 8 41 5 5 -3 6 3 2 12 -5
14 -3 16 11 11 10 -4 15 -3 11 3 -3 6 1 10 9 10 21 0 20 -9 -1 -34 -17 -18
-15 -18 22 3 25 14 41 19 43 12 6 -17 22 -2 22 20 0 21 -34 27 -45 9 -4 -6
-14 -8 -24 -5 -9 3 -71 -6 -136 -21 -174 -37 -191 -37 -90 -4 50 17 131 37
180 44 109 18 357 21 450 6 37 -6 70 -9 72 -6 10 9 -118 29 -227 35 l-115 6
86 8 c244 20 478 -80 774 -333 33 -28 90 -68 127 -90 75 -45 108 -81 108 -117
0 -35 -29 -92 -56 -109 -23 -15 -69 -92 -60 -101 7 -7 63 25 101 59 43 37 65
77 65 117 0 69 -35 117 -148 203 -42 32 -134 104 -204 160 -150 122 -209 159
-331 208 -126 50 -244 77 -431 97 -28 3 -59 9 -70 13 -60 25 203 -4 386 -41
57 -12 114 -23 128 -25 22 -4 23 -3 5 5 -19 9 -19 10 3 10 13 1 20 5 17 11 -4
6 5 10 20 10 17 0 24 -4 19 -11 -5 -9 7 -10 42 -4 74 11 82 21 17 21 -32 0
-94 9 -138 21 -44 12 -129 29 -190 39 -60 9 -113 20 -117 23 -4 3 59 5 140 5
92 -1 123 1 83 5 -36 3 -66 11 -68 18 -4 12 2 13 177 32 53 6 149 25 214 42
65 17 146 34 179 39 53 8 47 8 -38 4 -95 -4 -139 -11 -335 -50 -59 -12 -139
-17 -265 -18 -213 -1 -288 13 -410 75 -201 104 -251 128 -262 128 -7 1 7 -39
32 -91z m139 -54 c51 -29 60 -39 20 -23 l-27 10 17 -27 c28 -41 12 -39 -21 3
-34 43 -46 63 -40 63 3 0 25 -12 51 -26z m256 -90 c30 -9 50 -19 44 -21 -27
-9 -284 111 -284 133 0 2 42 -17 93 -45 50 -27 117 -57 147 -67z m114 -33 c4
-5 -3 -7 -14 -4 -23 6 -26 13 -6 13 8 0 17 -4 20 -9z m-1194 -81 c0 -5 -2 -10
-4 -10 -3 0 -8 5 -11 10 -3 6 -1 10 4 10 6 0 11 -4 11 -10z m863 -27 c-7 -2
-19 -2 -25 0 -7 3 -2 5 12 5 14 0 19 -2 13 -5z m127 -2 l45 -8 -40 -1 c-22 -1
-58 3 -80 7 l-40 9 35 0 c19 0 55 -3 80 -7z m-634 -186 c-3 -8 -1 -15 4 -15 6
0 10 7 10 16 0 14 8 16 46 10 26 -3 59 -6 73 -6 20 0 23 -2 11 -10 -8 -5 -32
-10 -53 -10 -20 0 -45 -4 -55 -10 -9 -5 -45 -20 -80 -34 -57 -22 -62 -22 -46
-5 9 10 15 20 13 22 -2 1 -16 9 -31 17 -37 18 -35 28 5 33 80 10 109 7 103 -8z
m2901 -17 c-3 -8 -6 -5 -6 6 -1 11 2 17 5 13 3 -3 4 -12 1 -19z m-2655 0 c-4
-4 -30 -10 -57 -12 -49 -5 -49 -5 -20 9 30 14 90 16 77 3z m-404 -10 c-2 -6
-10 -14 -16 -16 -7 -2 -10 2 -6 12 7 18 28 22 22 4z m32 -8 c0 -5 -2 -10 -4
-10 -3 0 -8 5 -11 10 -3 6 -1 10 4 10 6 0 11 -4 11 -10z m1107 -23 c28 -9 61
-20 72 -27 12 -6 21 -8 21 -6 0 3 -17 14 -37 25 -21 11 -34 20 -30 21 21 1 87
-42 81 -52 -5 -8 -2 -9 9 -5 11 4 29 -4 50 -22 35 -31 132 -151 122 -151 -3 0
-31 26 -62 58 -50 52 -52 53 -21 12 51 -66 54 -75 20 -50 -17 13 -33 29 -36
36 -3 7 -21 20 -40 29 -20 10 -33 21 -30 26 3 5 -1 10 -8 10 -7 1 -17 2 -23 4
-5 1 -16 3 -23 3 -7 1 -11 6 -8 11 6 9 -17 18 -69 27 -16 3 -34 10 -39 15 -6
5 -17 9 -25 9 -14 0 -14 -2 -1 -11 12 -8 9 -10 -12 -6 -15 2 -25 1 -23 -3 3
-5 -5 -8 -18 -8 -12 1 -46 -8 -75 -19 -46 -17 -50 -21 -30 -26 12 -3 33 -8 44
-12 18 -5 23 -1 32 24 6 17 16 31 21 31 7 0 6 -9 -1 -26 -11 -22 -10 -28 7
-40 40 -30 -47 -14 -147 26 -144 58 -201 53 -222 -17 -6 -19 -12 -21 -39 -16
-37 7 -60 23 -33 23 32 0 55 18 49 40 -3 11 -8 18 -12 16 -3 -2 -15 0 -26 4
-18 7 -16 10 17 24 122 53 405 65 545 23z m191 -4 c86 -45 147 -95 186 -152
34 -49 26 -70 -11 -26 -54 65 -114 124 -133 130 -11 3 -20 11 -20 16 0 6 -28
23 -62 39 -35 16 -56 29 -48 30 9 0 48 -17 88 -37z m681 -13 c14 0 33 -5 41
-11 11 -8 -1 -9 -44 -5 -33 4 -65 11 -71 16 -7 6 -14 7 -18 4 -5 -6 -97 31
-97 39 0 2 37 -7 81 -20 45 -12 93 -23 108 -23z m-1729 30 c0 -5 -8 -10 -17
-10 -15 0 -16 2 -3 10 19 12 20 12 20 0z m-375 -30 c3 -5 1 -10 -4 -10 -6 0
-11 5 -11 10 0 6 2 10 4 10 3 0 8 -4 11 -10z m-348 -27 c-3 -2 -8 -3 -11 -1
-3 2 -12 -6 -21 -17 -14 -17 -16 -17 -11 -2 4 13 -1 17 -24 17 -16 0 -31 3
-33 8 -3 4 20 5 50 4 30 -2 52 -6 50 -9z m147 8 c19 -7 19 -8 1 -15 -12 -4
-24 -1 -34 9 -13 13 -13 15 -1 14 8 0 24 -4 34 -8z m71 -17 c0 -13 -6 -18 -20
-16 -28 5 -30 9 -15 27 16 20 35 14 35 -11z m-187 -9 c-3 -3 -9 2 -12 12 -6
14 -5 15 5 6 7 -7 10 -15 7 -18z m296 10 c-4 -8 -11 -12 -18 -8 -6 4 -19 6
-28 5 -10 -2 -18 2 -18 7 0 6 16 11 35 11 26 0 33 -3 29 -15z m-634 -5 c0 -5
-8 -10 -17 -10 -15 0 -16 2 -3 10 19 12 20 12 20 0z m945 -49 c48 -54 35 -49
-32 13 -31 28 -42 47 -25 45 4 -1 30 -27 57 -58z m-695 39 c0 -5 -12 -10 -27
-9 -25 0 -26 1 -8 9 27 12 35 12 35 0z m-150 -22 c8 -1 20 -7 25 -15 6 -8 24
-15 40 -17 17 -2 31 -5 33 -6 1 -1 5 -3 10 -4 12 -3 48 -25 39 -26 -15 0 -143
39 -192 59 l-50 21 40 -5 c22 -3 47 -6 55 -7z m530 -8 c0 -5 -4 -10 -10 -10
-5 0 -10 5 -10 10 0 6 5 10 10 10 6 0 10 -4 10 -10z m2820 -4 c0 -2 -11 -6
-25 -8 -13 -3 -22 -1 -19 3 5 9 44 13 44 5z m-325 -56 c224 -77 290 -113 235
-127 -11 -3 -18 -9 -15 -13 3 -5 18 -5 33 -2 34 9 82 4 82 -9 0 -5 7 -9 15 -9
8 0 15 -5 15 -11 0 -5 5 -7 10 -4 6 3 10 0 10 -8 0 -41 -103 -23 -190 32 -44
28 -263 148 -315 173 -49 23 -54 27 -25 22 19 -3 85 -23 145 -44z m590 21 c0
-41 -25 -47 -117 -29 -46 9 -96 22 -113 29 -30 13 -29 13 30 19 33 3 92 5 130
5 67 0 70 -1 70 -24z m-3318 13 c-3 -3 -12 -4 -19 -1 -8 3 -5 6 6 6 11 1 17
-2 13 -5z m-98 -33 c9 -6 24 -5 39 0 28 11 41 4 25 -12 -13 -13 -103 -3 -103
12 0 11 21 11 39 0z m3538 -46 c13 -3 23 -12 23 -20 0 -16 16 -21 22 -6 2 4
46 5 98 2 l95 -6 -80 -15 c-44 -8 -92 -14 -107 -14 -14 -1 -24 -4 -22 -8 3 -4
-15 -12 -38 -18 -24 -6 -71 -25 -105 -43 -49 -25 -65 -29 -75 -19 -9 9 -8 12
6 12 9 0 14 5 11 10 -3 6 1 10 10 10 9 0 33 18 54 40 38 41 57 51 47 25 -7
-18 -4 -18 28 -4 30 14 25 29 -10 29 -24 0 -34 23 -14 35 6 4 8 16 5 28 -5 18
-3 17 11 -5 10 -15 28 -29 41 -33z m-3427 24 c0 -5 -10 -9 -21 -9 -18 0 -19 2
-9 15 12 15 30 12 30 -6z m55 1 c4 -6 -6 -10 -22 -9 -25 0 -26 1 -8 9 11 5 21
9 22 9 1 1 5 -3 8 -9z m3170 -26 c66 -26 77 -37 50 -48 -8 -3 -15 -2 -15 3 0
5 -15 12 -32 15 -18 3 -60 20 -93 36 l-60 30 43 -5 c23 -3 72 -17 107 -31z
m-1898 -29 c20 -8 33 -18 30 -21 -9 -10 -71 4 -93 21 -18 14 -18 14 4 15 12 0
39 -7 59 -15z m587 6 c4 -5 0 -12 -6 -14 -8 -4 -7 -6 3 -6 9 -1 19 -8 23 -16
3 -8 12 -15 20 -15 8 0 16 -4 18 -9 2 -5 19 -18 38 -30 21 -13 28 -21 18 -21
-28 0 -68 22 -68 37 0 8 -3 12 -8 9 -9 -5 -28 9 -61 47 -24 27 -24 27 -3 27
11 0 23 -4 26 -9z m-509 -31 c13 -6 15 -9 5 -9 -8 0 -22 4 -30 9 -18 12 -2 12
25 0z m1420 -34 c11 -8 15 -16 10 -16 -11 0 -85 48 -85 56 0 6 49 -20 75 -40z
m1008 21 c-5 -9 -3 -9 8 -1 23 18 260 17 364 -1 113 -20 205 -45 205 -56 0 -5
7 -9 16 -9 8 0 34 -13 57 -29 44 -30 86 -71 72 -71 -4 0 9 -20 29 -44 20 -24
36 -47 36 -50 0 -4 -25 14 -56 40 -57 46 -148 95 -201 109 -88 22 -235 38
-360 39 -79 0 -143 -1 -143 -4 0 -3 55 -14 121 -24 134 -19 287 -55 346 -81
111 -50 167 -80 222 -120 90 -67 74 -75 -18 -10 -141 99 -234 129 -571 185
-132 23 -270 24 -347 5 -65 -17 -64 -28 2 -21 198 20 235 19 410 -13 191 -35
273 -55 288 -70 6 -6 19 -11 29 -11 10 0 27 -9 38 -20 11 -11 28 -20 38 -20
26 -1 115 -96 166 -180 25 -41 46 -78 46 -83 0 -4 -31 19 -68 53 -236 211
-687 354 -973 310 -46 -7 -88 -19 -94 -25 -5 -7 -27 -18 -47 -25 -21 -6 -38
-15 -38 -19 0 -4 75 -8 168 -8 187 1 262 -12 361 -62 55 -28 171 -124 171
-141 0 -5 12 -22 28 -37 15 -16 47 -53 71 -82 24 -29 57 -58 72 -63 16 -5 29
-14 29 -19 0 -5 7 -9 15 -9 8 0 15 -4 15 -10 0 -26 -37 -2 -140 90 -61 55
-107 100 -103 100 4 1 -5 8 -21 16 -20 11 -31 13 -39 5 -8 -8 -7 -11 4 -11 7
0 42 -31 76 -68 34 -38 89 -86 122 -108 55 -35 74 -55 54 -54 -26 2 -121 63
-170 110 -143 136 -192 168 -332 212 -102 32 -256 58 -339 58 -167 0 -521 -85
-687 -165 -161 -77 -255 -156 -365 -303 -41 -55 -76 -99 -79 -97 -6 6 85 144
158 241 37 48 75 123 67 131 -1 1 -18 -3 -37 -10 -42 -14 -83 -40 -123 -76
l-29 -26 21 30 c74 104 150 148 395 230 70 24 134 48 142 55 8 6 24 9 37 5 16
-4 19 -4 9 3 -11 8 9 21 80 56 52 25 157 80 234 121 163 87 253 119 385 134
171 20 186 20 173 -2z m-2803 -7 c12 -8 11 -10 -7 -10 -13 0 -23 5 -23 10 0
13 11 13 30 0z m220 -14 c73 -3 225 -39 245 -57 12 -12 -1 -11 -28 2 -16 7
-14 3 7 -15 l30 -25 -85 24 c-46 13 -115 29 -154 36 -38 6 -75 15 -81 20 -7 6
-16 9 -20 8 -5 -1 -34 0 -64 1 -51 2 -52 3 -20 10 19 4 49 6 65 3 17 -2 64 -5
105 -7z m-830 -26 c-34 -11 -60 -11 -35 0 11 5 29 8 40 8 16 0 15 -2 -5 -8z
m-110 -59 c0 -5 -10 -13 -22 -17 -13 -4 -25 -10 -28 -14 -3 -4 -21 -10 -40
-13 -27 -5 -31 -4 -17 4 9 5 17 16 17 24 0 13 22 21 68 24 12 0 22 -3 22 -8z
m757 3 c-3 -3 -12 -4 -19 -1 -8 3 -5 6 6 6 11 1 17 -2 13 -5z m63 -10 c0 -8
-4 -12 -10 -9 -5 3 -10 10 -10 16 0 5 5 9 10 9 6 0 10 -7 10 -16z m-200 -81
c0 -2 -18 10 -40 27 -22 17 -40 34 -40 37 0 2 18 -10 40 -27 22 -17 40 -34 40
-37z m-2220 27 c8 -5 11 -10 5 -10 -5 0 -17 5 -25 10 -8 5 -10 10 -5 10 6 0
17 -5 25 -10z m1380 -10 c0 -5 -5 -10 -11 -10 -5 0 -7 5 -4 10 3 6 8 10 11 10
2 0 4 -4 4 -10z m-47 -7 c-7 -2 -19 -2 -25 0 -7 3 -2 5 12 5 14 0 19 -2 13 -5z
m-1233 -28 c14 -8 21 -14 15 -14 -5 0 -21 6 -35 14 -14 8 -20 14 -15 14 6 0
21 -6 35 -14z m2250 -73 c13 -13 13 -14 0 -7 -27 16 -120 86 -120 91 0 7 97
-62 120 -84z m3790 48 c38 -19 40 -23 39 -63 -2 -34 -3 -36 -6 -12 -6 42 -30
64 -75 72 -27 4 -35 9 -26 14 19 12 24 11 68 -11z m-5970 0 c13 -9 13 -10 0
-10 -8 0 -22 5 -30 10 -13 9 -13 10 0 10 8 0 22 -5 30 -10z m135 -45 c55 -18
93 -34 84 -34 -18 -1 -164 45 -188 59 -29 17 3 9 104 -25z m814 -4 c-13 -11
-31 -21 -39 -21 -10 0 -11 -3 -4 -8 19 -13 25 -42 9 -48 -11 -5 -12 -11 -4
-25 6 -13 6 -19 -1 -19 -5 0 -10 -5 -10 -12 0 -9 3 -9 12 0 17 17 48 15 48 -2
0 -8 5 -18 12 -22 6 -4 8 -3 4 4 -11 19 45 38 69 23 6 -3 14 -6 19 -6 5 0 11
-6 14 -12 2 -7 -4 -13 -13 -13 -9 0 -14 -4 -10 -9 11 -20 -32 -28 -147 -30
-89 -1 -118 2 -118 11 0 7 -5 5 -11 -4 -5 -10 -21 -18 -35 -18 -21 0 -23 2
-13 19 7 10 17 18 23 18 30 -1 46 4 46 13 0 6 -15 10 -32 10 l-33 1 25 14 c14
8 35 14 48 15 24 0 30 15 10 23 -7 3 2 8 20 12 21 5 30 11 24 17 -6 6 -17 6
-30 -1 -30 -16 -40 -13 -18 4 11 8 31 15 45 15 20 0 23 2 11 10 -11 7 -4 14
32 30 26 11 50 25 54 31 3 6 8 8 11 5 3 -3 -5 -14 -18 -25z m889 -21 c26 -34
21 -54 -24 -89 -34 -27 -61 -27 -69 -1 -7 23 12 90 26 90 5 0 8 3 8 8 -5 33
30 28 59 -8z m4042 10 c11 -11 26 -17 36 -13 11 4 15 1 12 -13 -2 -15 4 -20
30 -22 36 -4 41 -21 13 -46 -25 -22 -28 -20 -80 53 -43 62 -47 77 -11 41z
m-4141 -32 c-7 -13 -18 -43 -25 -68 -8 -31 -12 -37 -13 -20 -1 25 33 110 44
110 3 0 0 -10 -6 -22z m-205 3 c4 -5 3 -17 0 -26 -6 -16 -8 -16 -16 -1 -5 9
-17 16 -26 17 -14 0 -13 2 3 9 27 12 33 12 39 1z m-1179 -11 c27 -7 27 -8 5
-8 -14 0 -36 4 -50 8 -20 6 -21 8 -5 8 11 0 34 -4 50 -8z m1115 -15 c0 -8 6
-12 14 -9 8 3 13 -1 11 -13 -2 -28 -16 -53 -28 -53 -8 0 -8 3 0 11 14 14 -19
55 -36 44 -6 -3 -11 -1 -11 4 0 6 7 11 15 11 8 0 15 5 15 10 0 6 5 10 10 10 6
0 10 -7 10 -15z m437 -16 c-20 -32 -35 -22 -21 15 3 8 12 12 19 9 11 -4 12 -9
2 -24z m-1434 14 c-7 -2 -19 -2 -25 0 -7 3 -2 5 12 5 14 0 19 -2 13 -5z m3242
-3 c-3 -5 -24 -15 -46 -21 -24 -8 -35 -15 -28 -20 8 -4 0 -13 -22 -25 -44 -24
-129 -53 -129 -45 0 9 145 90 190 107 44 16 42 16 35 4z m-2755 -31 c0 -11 -3
-11 -24 -3 -23 9 -20 23 4 17 11 -3 20 -9 20 -14z m477 -7 c-10 -10 -17 -24
-17 -30 0 -7 -11 -12 -25 -12 -31 0 -24 25 14 45 36 20 47 18 28 -3z m500 -5
c0 -8 -6 -14 -14 -14 -9 0 -10 4 -2 14 6 7 12 13 14 13 1 0 2 -6 2 -13z m2733
-17 c-14 -4 -34 -8 -45 -8 l-20 -1 20 9 c11 5 31 8 45 8 l25 0 -25 -8z m1165
-2 c25 -11 34 -28 14 -28 -17 0 -49 20 -49 30 0 13 4 12 35 -2z m-1310 -8 c-3
-5 -18 -10 -33 -9 l-27 1 25 8 c35 11 42 11 35 0z m-2730 -10 c-3 -5 -12 -10
-18 -10 -7 0 -6 4 3 10 19 12 23 12 15 0z m120 -10 c-3 -5 1 -11 7 -13 10 -4
10 -8 -1 -15 -7 -5 -11 -14 -7 -20 3 -6 -10 -21 -31 -33 -23 -14 -38 -19 -40
-12 -2 6 -15 24 -29 40 -30 35 -31 46 -2 37 20 -6 21 -5 9 10 -12 14 -8 16 43
15 30 -1 53 -5 51 -9z m2538 3 c-7 -2 -19 -2 -25 0 -7 3 -2 5 12 5 14 0 19 -2
13 -5z m-2746 -80 c-2 -16 -4 -5 -4 22 0 28 2 40 4 28 2 -13 2 -35 0 -50z
m1776 -7 c-40 -43 -74 -92 -101 -150 -43 -90 -64 -117 -34 -43 36 87 86 168
133 212 70 65 71 55 2 -19z m854 58 c-3 -3 -12 -4 -19 -1 -8 3 -5 6 6 6 11 1
17 -2 13 -5z m-1329 -26 c5 -7 9 -28 7 -46 -1 -25 2 -32 12 -27 8 3 13 0 11
-6 -2 -7 -25 -20 -52 -30 -45 -18 -47 -18 -42 -1 10 32 -37 20 -73 -18 -27
-29 -31 -31 -26 -12 8 29 1 28 -30 -5 -22 -24 -27 -26 -36 -13 -9 12 -10 12
-5 -4 5 -16 2 -17 -21 -12 -21 5 -24 4 -13 -4 12 -8 11 -10 -9 -10 -16 0 -22
4 -17 15 3 8 2 15 -2 15 -14 0 -27 -15 -27 -30 0 -8 -8 -14 -18 -13 -10 0 -16
-2 -13 -5 7 -6 -61 -32 -85 -32 -15 0 -82 -30 -68 -30 4 0 50 11 103 25 53 14
102 25 110 25 22 0 28 -31 10 -52 -10 -10 -15 -21 -11 -24 3 -3 24 18 46 46
23 29 41 46 41 39 0 -6 -21 -36 -47 -66 -27 -31 -60 -71 -75 -91 -53 -69 -220
-242 -231 -239 -6 1 -16 -10 -23 -24 -8 -14 -23 -34 -35 -45 -14 -12 -8 3 17
42 22 34 48 67 59 74 18 12 19 12 6 -4 -8 -9 -12 -19 -9 -21 4 -4 184 192 231
252 17 21 17 24 2 45 -10 13 -15 16 -12 8 2 -8 0 -23 -5 -33 -9 -18 -10 -18
-22 -1 -9 11 -19 15 -32 10 -10 -4 -15 -4 -11 0 4 4 -2 14 -14 22 -34 24 -31
8 7 -33 36 -40 38 -63 4 -72 -11 -3 -20 -10 -20 -15 0 -11 -64 -95 -93 -120
-10 -10 -24 -15 -29 -12 -6 4 0 13 13 20 l24 13 -25 1 c-20 0 -26 5 -28 27 -1
14 -9 34 -17 43 -9 10 -14 31 -13 50 2 22 -2 34 -12 37 -12 4 -13 3 -1 -5 9
-7 11 -16 6 -28 -5 -11 -8 -22 -7 -25 0 -3 -19 -27 -43 -53 -25 -28 -41 -55
-38 -63 4 -10 -3 -13 -28 -12 -19 1 -38 1 -44 -1 -22 -5 -23 2 -9 63 20 85 23
94 32 80 5 -8 13 5 21 32 7 25 17 45 22 45 5 0 6 -7 3 -15 -5 -13 -2 -14 18
-6 13 5 37 7 52 4 19 -4 27 -2 23 4 -4 6 9 18 28 27 19 9 35 19 35 21 0 5
-100 -24 -121 -36 -12 -6 -21 -4 -29 6 -13 16 -14 15 82 102 10 9 22 12 30 7
11 -6 11 -5 0 8 -11 14 -7 20 31 43 25 14 61 27 81 29 20 2 44 10 54 19 10 9
38 17 62 19 25 2 52 11 62 21 10 9 28 18 41 19 12 0 35 2 52 3 16 1 31 7 33
14 4 12 52 16 52 3 0 -5 -7 -17 -15 -28 -8 -10 -15 -23 -15 -28 0 -6 11 6 25
25 31 41 53 59 76 59 9 0 21 -6 27 -12z m1400 0 c-7 -4 -8 -8 -2 -8 5 0 15 5
21 11 8 8 25 9 50 4 l38 -8 -45 -12 c-31 -8 -55 -8 -77 -1 -41 12 -42 23 -3
23 20 0 26 -3 18 -9z m-3341 -4 c-3 -3 -12 -4 -19 -1 -8 3 -5 6 6 6 11 1 17
-2 13 -5z m-377 -14 c0 -5 -11 -9 -25 -8 -14 1 -25 6 -25 10 0 4 11 8 25 8 14
0 25 -4 25 -10z m315 0 c-11 -5 -45 -8 -75 -8 l-55 1 60 7 c87 10 92 10 70 0z
m555 -40 c-63 -57 -58 -68 6 -14 24 19 44 31 44 25 0 -11 -63 -63 -135 -111
-43 -28 -47 -30 -27 -8 12 13 20 27 17 30 -3 3 3 11 12 19 16 13 17 12 4 -3
-7 -10 -9 -18 -3 -18 12 0 38 30 26 30 -5 1 16 23 46 50 30 28 57 50 60 49 3
0 -20 -22 -50 -49z m-935 30 c-3 -5 -11 -10 -16 -10 -6 0 -7 5 -4 10 3 6 11
10 16 10 6 0 7 -4 4 -10z m178 3 c-7 -2 -21 -2 -30 0 -10 3 -4 5 12 5 17 0 24
-2 18 -5z m3782 -3 c18 -7 25 -15 21 -25 -3 -8 -1 -15 3 -15 5 0 11 6 14 13 4
12 104 -17 337 -100 94 -33 160 -70 126 -70 -9 0 -16 4 -16 9 0 4 -4 8 -10 8
-5 0 -10 -6 -10 -13 0 -18 70 -38 93 -25 12 6 28 6 47 0 16 -6 40 -9 54 -8 14
2 26 0 26 -3 0 -4 10 -7 21 -8 30 -3 34 -10 15 -28 -13 -13 -22 -14 -53 -6
-21 6 -64 15 -95 21 -32 6 -60 16 -63 21 -4 5 -17 9 -31 9 -13 0 -24 5 -24 10
0 6 -12 10 -27 10 -16 0 -66 14 -113 31 -47 17 -104 38 -127 46 -24 8 -43 18
-43 23 0 4 -17 10 -37 14 -21 3 -51 13 -67 21 -15 8 -33 15 -39 15 -5 0 -37
10 -70 22 -47 17 -56 23 -41 29 28 11 79 10 109 -1z m-5260 -60 c3 -6 -1 -7
-9 -4 -18 7 -21 14 -7 14 6 0 13 -4 16 -10z m1765 -26 c-8 -8 -23 -20 -34 -25
-13 -6 -10 0 9 15 34 29 43 33 25 10z m1275 -10 c-32 -27 -97 -64 -79 -45 11
12 96 69 104 70 3 0 -8 -11 -25 -25z m-505 -9 c-13 -14 -21 -25 -19 -25 3 0
20 11 39 25 36 27 80 33 80 12 0 -14 -80 -57 -106 -57 -8 0 -17 -7 -21 -16 -3
-8 -12 -13 -20 -10 -8 3 -12 2 -9 -2 5 -9 -103 -66 -111 -59 -2 3 10 15 28 28
18 13 60 47 92 76 63 56 87 70 47 28z m430 10 c0 -11 -125 -65 -138 -60 -7 2
-11 1 -7 -4 6 -10 -37 -26 -97 -37 -21 -3 -38 -10 -38 -15 0 -5 -7 -5 -17 -2
-11 4 -14 3 -9 -6 5 -8 3 -11 -5 -10 -8 1 -21 -1 -30 -5 -9 -4 -41 -6 -70 -4
l-54 3 75 24 c41 12 80 27 85 31 6 5 31 11 58 15 26 4 49 11 52 15 3 5 23 11
46 15 22 4 64 15 92 26 60 21 57 20 57 14z m-1226 -49 c-21 -19 -41 -32 -44
-29 -3 3 13 20 35 38 22 19 42 32 44 29 2 -2 -13 -19 -35 -38z m-1599 16 c-3
-3 -11 0 -18 7 -9 10 -8 11 6 5 10 -3 15 -9 12 -12z m935 4 c0 -3 -4 -8 -10
-11 -5 -3 -10 -1 -10 4 0 6 5 11 10 11 6 0 10 -2 10 -4z m2430 -31 c-7 -9 -15
-13 -17 -11 -7 7 7 26 19 26 6 0 6 -6 -2 -15z m-3265 -13 c-3 -3 -11 0 -18 7
-9 10 -8 11 6 5 10 -3 15 -9 12 -12z m800 -3 c11 -17 2 -18 -25 -4 -24 14 -24
14 -3 15 12 0 25 -5 28 -11z m-751 -8 c4 -5 -3 -7 -14 -4 -23 6 -26 13 -6 13
8 0 17 -4 20 -9z m3156 0 c0 -12 -20 -25 -27 -18 -7 7 6 27 18 27 5 0 9 -4 9
-9z m-2417 -22 c22 -25 18 -55 -5 -51 -12 2 -16 -3 -13 -18 2 -11 0 -20 -6
-20 -5 0 -10 8 -10 18 -1 16 -2 16 -6 0 -2 -10 -13 -18 -23 -18 -13 0 -17 -5
-14 -15 4 -10 11 -12 23 -5 13 6 18 5 18 -5 0 -7 -11 -16 -24 -20 -12 -3 -23
-10 -23 -16 0 -6 4 -8 9 -4 5 3 12 1 16 -4 3 -5 -3 -14 -12 -20 -16 -9 -16
-10 5 -11 13 0 30 -7 38 -15 16 -16 19 -15 -48 -19 -22 -1 -36 -16 -15 -16 10
0 17 -4 17 -9 0 -6 -8 -10 -17 -10 -10 0 -47 -3 -83 -6 -38 -4 -76 -2 -90 3
-21 9 -12 11 46 11 77 1 92 11 78 54 -4 13 -2 17 5 13 17 -11 13 10 -4 24 -8
7 -15 21 -15 31 0 17 -16 24 -42 20 -5 0 -8 4 -8 10 0 5 -15 -1 -33 -15 -19
-14 -37 -23 -40 -19 -4 3 -7 1 -7 -5 0 -22 18 -21 40 3 13 14 28 25 34 25 6 0
-1 -11 -15 -25 -27 -27 -64 -39 -85 -27 -9 5 11 24 63 60 56 38 79 48 85 39 6
-9 12 -8 22 6 8 10 20 15 30 11 11 -4 15 -2 11 8 -9 22 22 45 75 57 3 0 14 -8
23 -20z m644 4 c-23 -26 -77 -56 -77 -44 0 6 3 11 8 11 4 0 20 11 36 25 33 28
57 34 33 8z m4143 -4 c0 -14 -17 -10 -23 5 -4 10 -1 13 9 9 7 -3 14 -9 14 -14z
m470 4 c33 -3 60 -9 60 -12 0 -3 20 -5 45 -3 48 4 61 -12 29 -39 -21 -17 -114
-12 -136 8 -9 8 -21 12 -27 9 -15 -10 -109 14 -123 32 -11 13 -11 15 3 10 9
-3 22 -2 30 3 8 5 24 7 36 4 12 -3 50 -8 83 -12z m-5875 -18 c44 -13 74 -24
66 -24 -18 -1 -151 38 -151 44 0 6 -6 8 85 -20z m1936 -12 c-12 -20 -14 -14
-5 12 4 9 9 14 11 11 3 -2 0 -13 -6 -23z m456 21 c-3 -3 -12 -4 -19 -1 -8 3
-5 6 6 6 11 1 17 -2 13 -5z m2043 -14 c0 -5 -2 -10 -4 -10 -3 0 -8 5 -11 10
-3 6 -1 10 4 10 6 0 11 -4 11 -10z m-4292 -27 c-10 -2 -28 -2 -40 0 -13 2 -5
4 17 4 22 1 32 -1 23 -4z m1922 -3 c-14 -4 -34 -8 -45 -8 -16 0 -15 2 5 8 14
4 34 8 45 8 16 0 15 -2 -5 -8z m-135 -10 c3 -5 -1 -10 -10 -10 -9 0 -13 5 -10
10 3 6 8 10 10 10 2 0 7 -4 10 -10z m65 0 c0 -5 -12 -10 -27 -9 -25 0 -26 1
-8 9 27 12 35 12 35 0z m3685 0 l20 -9 -20 -2 c-11 -1 -28 -2 -37 -1 -10 1
-18 -4 -18 -11 0 -8 -4 -7 -10 3 -7 11 -10 11 -10 2 0 -7 -4 -11 -10 -7 -5 3
-7 12 -3 20 6 16 55 19 88 5z m35 -20 c-8 -5 -19 -10 -25 -10 -5 0 -3 5 5 10
8 5 20 10 25 10 6 0 3 -5 -5 -10z m140 0 c-8 -5 -19 -10 -25 -10 -5 0 -3 5 5
10 8 5 20 10 25 10 6 0 3 -5 -5 -10z m73 3 c-7 -2 -19 -2 -25 0 -7 3 -2 5 12
5 14 0 19 -2 13 -5z m-4798 -13 c-3 -5 -11 -10 -16 -10 -6 0 -7 5 -4 10 3 6
11 10 16 10 6 0 7 -4 4 -10z m4682 4 c-3 -3 -12 -4 -19 -1 -8 3 -5 6 6 6 11 1
17 -2 13 -5z m-1028 -41 c2 -2 0 -3 -6 -3 -6 0 -21 9 -34 21 l-24 20 30 -17
c17 -10 32 -19 34 -21z m-4344 -52 c-3 -8 1 -22 10 -31 14 -16 12 -18 -35 -23
-28 -3 -59 -3 -70 1 -17 6 -13 13 33 65 l51 59 8 -29 c4 -15 6 -34 3 -42z
m2025 44 c-13 -14 -26 -22 -29 -19 -3 3 5 14 18 25 33 27 39 24 11 -6z m2176
-7 c-9 -12 -16 -19 -16 -15 0 11 24 47 28 42 2 -2 -3 -14 -12 -27z m314 -2
c31 -9 38 -14 26 -19 -18 -7 -141 18 -166 34 -20 13 81 2 140 -15z m-3717 -2
c-2 -6 -14 -14 -25 -17 -11 -3 -17 -10 -13 -16 3 -6 1 -11 -4 -11 -12 0 -14
11 -5 34 3 9 10 13 15 10 5 -3 9 -1 9 4 0 5 6 9 14 9 8 0 12 -6 9 -13z m-198
-4 c-3 -5 -11 -10 -16 -10 -6 0 -7 5 -4 10 3 6 11 10 16 10 6 0 7 -4 4 -10z
m4005 6 c0 -2 -7 -7 -16 -10 -8 -3 -12 -2 -9 4 6 10 25 14 25 6z m419 -12 c36
-14 39 -18 28 -35 -16 -26 -26 -24 -21 4 2 12 1 16 -2 9 -5 -10 -10 -10 -25 4
-19 17 -75 16 -124 -2 -11 -4 -17 -4 -13 1 4 4 31 13 60 21 29 7 54 13 55 13
2 1 20 -6 42 -15z m-3065 -56 c-16 -18 -56 -58 -89 -88 -33 -30 -46 -39 -29
-20 17 19 44 50 60 69 47 56 76 83 81 77 3 -3 -7 -20 -23 -38z m2636 25 c49
-9 53 -12 40 -28 -18 -21 -30 -18 -70 17 -21 19 -27 28 -15 23 11 -4 31 -10
45 -12z m-4717 1 c13 -5 12 -9 -5 -26 -11 -11 -22 -17 -25 -14 -3 3 -15 0 -27
-6 l-21 -11 20 22 c11 13 21 18 23 12 2 -6 8 -9 12 -6 5 3 7 12 3 20 -6 16 -2
18 20 9z m2964 -26 c-3 -7 -5 -2 -5 12 0 14 2 19 5 13 2 -7 2 -19 0 -25z
m1608 -19 c4 -17 4 -33 2 -36 -6 -5 -37 62 -37 79 0 21 29 -15 35 -43z m-3710
31 c3 -5 1 -10 -4 -10 -6 0 -11 5 -11 10 0 6 2 10 4 10 3 0 8 -4 11 -10z
m1204 -66 c-35 -36 -86 -84 -114 -106 -27 -23 -1 9 59 70 61 61 112 109 115
106 3 -2 -24 -34 -60 -70z m1501 49 c-5 -10 -16 -47 -25 -82 -17 -71 -63 -181
-76 -181 -10 0 -5 90 7 98 5 4 9 13 10 20 2 29 5 33 14 27 6 -4 9 -3 8 2 -4
11 55 133 65 133 4 0 3 -8 -3 -17z m1650 -25 c0 -11 -22 -10 -40 3 -13 9 -12
10 3 5 15 -5 17 -2 12 17 -6 21 -6 21 9 3 9 -11 16 -23 16 -28z m245 14 c-3
-3 -11 0 -18 7 -9 10 -8 11 6 5 10 -3 15 -9 12 -12z m-769 -4 c4 -6 3 -8 -4
-4 -6 3 -32 -20 -59 -53 -47 -58 -73 -79 -54 -43 11 21 95 112 104 112 3 0 9
-5 13 -12z m-3866 -8 c-13 -9 -11 -13 10 -30 14 -11 18 -19 10 -18 -9 2 -14
-4 -13 -15 1 -16 -3 -15 -27 8 -27 26 -28 26 -35 6 -3 -11 -4 -25 -1 -30 3 -5
-3 -11 -15 -14 -16 -4 -18 -3 -9 8 7 8 9 18 6 23 -3 5 3 20 14 32 11 13 20 18
20 11 0 -7 5 -9 10 -6 6 4 8 10 5 15 -5 8 10 18 30 19 6 0 3 -4 -5 -9z m-835
-30 c19 -8 18 -9 -5 -11 -53 -4 -68 -6 -81 -14 -12 -7 -12 -6 0 9 8 9 20 15
27 12 7 -3 16 -1 19 4 7 12 13 12 40 0z m1110 -10 c-11 -5 -33 -8 -50 -8 l-30
0 30 8 c17 4 39 8 50 8 l20 1 -20 -9z m3803 -46 c-5 -31 -16 -68 -24 -83 -9
-16 -13 -18 -9 -6 4 11 9 43 12 70 6 61 10 75 21 75 5 0 5 -24 0 -56z m167 34
c-52 -63 -174 -172 -182 -164 -8 7 176 186 191 186 5 0 1 -10 -9 -22z m-4125
2 c0 -5 -5 -10 -11 -10 -5 0 -7 5 -4 10 3 6 8 10 11 10 2 0 4 -4 4 -10z
m-1098 -28 c-21 -21 -92 -34 -113 -21 -10 6 -9 8 6 8 34 0 85 13 91 22 3 5 12
9 20 9 11 0 10 -4 -4 -18z m3731 -30 c8 -66 36 -110 108 -170 38 -31 69 -63
69 -70 0 -7 5 -10 11 -6 6 3 14 2 18 -4 7 -11 68 -50 94 -58 26 -10 20 -24
-10 -25 -16 0 -21 -3 -13 -6 8 -3 23 -13 33 -21 16 -14 19 -14 27 -2 8 13 14
12 45 -4 50 -27 64 -46 34 -46 -21 -1 -22 -2 -6 -11 9 -6 26 -7 37 -4 24 8
148 -84 173 -127 20 -35 3 -38 -36 -8 -14 11 -29 20 -34 20 -6 0 -36 19 -69
42 -113 80 -247 168 -256 168 -4 0 -8 4 -8 10 0 5 7 6 17 3 11 -4 14 -3 9 6
-5 7 -18 10 -31 7 -13 -3 -27 -2 -30 4 -4 6 -30 25 -58 44 -71 46 -104 83 -89
98 7 7 12 16 12 22 0 5 -7 1 -15 -10 -15 -19 -15 -19 -30 1 -29 37 -43 120
-29 172 9 32 20 20 27 -25z m1662 -1 c-5 -46 -38 -141 -49 -141 -3 0 1 19 9
41 8 23 15 63 15 89 0 42 4 51 27 59 2 1 0 -21 -2 -48z m-5260 28 c-51 -10
-92 -10 -50 1 17 4 44 8 60 8 25 0 24 -2 -10 -9z m5346 -64 c-11 -31 -36 -77
-56 -101 -40 -48 -102 -100 -111 -91 -3 3 11 17 31 33 45 34 110 124 125 173
19 61 22 67 27 55 2 -7 -5 -37 -16 -69z m-3101 54 c0 -5 -7 -9 -15 -9 -14 0
-20 -20 -17 -59 0 -8 -6 -24 -14 -35 -13 -19 -14 -18 -14 16 0 69 10 96 36 96
13 0 24 -4 24 -9z m-2870 -79 c-14 -11 -29 -20 -35 -20 -5 0 -29 -18 -53 -40
-30 -28 -55 -42 -84 -47 -24 -3 -52 -17 -66 -30 -13 -13 -28 -21 -33 -18 -18
12 57 63 195 134 85 44 116 53 76 21z m3415 1 c-3 -6 -11 -11 -17 -11 -6 0 -6
6 2 15 14 17 26 13 15 -4z m-2056 -17 c23 -8 -2 -25 -40 -29 -19 -2 -50 -7
-69 -11 -32 -7 -34 -6 -21 9 12 15 11 17 -7 17 -29 0 -37 18 -10 22 29 4 129
-1 147 -8z m71 2 c0 -20 -13 -27 -30 -15 -13 8 -13 10 0 19 21 14 30 12 30 -4z
m4200 10 c0 -2 -7 -7 -16 -10 -8 -3 -12 -2 -9 4 6 10 25 14 25 6z m-4500 -26
c0 -5 -4 -10 -10 -10 -5 0 -10 5 -10 10 0 6 5 10 10 10 6 0 10 -4 10 -10z m40
6 c0 -11 -19 -15 -25 -6 -3 5 1 10 9 10 9 0 16 -2 16 -4z m3333 -39 c23 -23
58 -55 77 -70 19 -16 30 -27 23 -25 -18 5 -153 118 -153 129 0 16 9 10 53 -34z
m-3419 18 c-7 -16 -44 -21 -44 -6 0 8 16 16 42 20 4 0 5 -6 2 -14z m-164 -9
c0 -3 -4 -8 -10 -11 -5 -3 -10 -1 -10 4 0 6 5 11 10 11 6 0 10 -2 10 -4z
m1165 -16 c-3 -5 -12 -10 -18 -10 -7 0 -6 4 3 10 19 12 23 12 15 0z m2112 -21
c10 -26 10 -30 -3 -25 -9 3 -18 6 -20 6 -2 0 -4 11 -4 25 0 34 13 31 27 -6z
m-292 -70 c4 -35 3 -65 -4 -76 -8 -14 -10 -2 -11 54 0 39 -3 80 -6 90 -5 14
-4 15 4 4 6 -8 13 -41 17 -72z m205 74 c0 -15 -33 -129 -40 -136 -6 -7 4 68
15 113 2 8 4 18 4 23 1 9 21 10 21 0z m-3763 -19 c-3 -3 -12 -4 -19 -1 -8 3
-5 6 6 6 11 1 17 -2 13 -5z m416 -1 c4 -4 -7 -13 -24 -20 -46 -19 -59 -16 -24
6 34 22 39 24 48 14z m2157 3 c0 -2 -8 -10 -17 -17 -16 -13 -17 -12 -4 4 13
16 21 21 21 13z m470 -10 c0 -2 -8 -10 -17 -17 -16 -13 -17 -12 -4 4 13 16 21
21 21 13z m-3127 -13 c-7 -2 -19 -2 -25 0 -7 3 -2 5 12 5 14 0 19 -2 13 -5z
m-50 -10 c-7 -2 -21 -2 -30 0 -10 3 -4 5 12 5 17 0 24 -2 18 -5z m-428 -13
c-3 -5 -11 -10 -16 -10 -6 0 -7 5 -4 10 3 6 11 10 16 10 6 0 7 -4 4 -10z m128
3 c-13 -2 -35 -2 -50 0 -16 2 -5 4 22 4 28 0 40 -2 28 -4z m170 0 c-7 -2 -19
-2 -25 0 -7 3 -2 5 12 5 14 0 19 -2 13 -5z m2807 4 c0 -2 -15 -16 -32 -33
l-33 -29 29 33 c28 30 36 37 36 29z m1430 -95 c0 -7 -49 27 -81 56 -16 14 -29
29 -29 34 0 5 25 -12 55 -38 30 -26 55 -50 55 -52z m-3604 74 c16 4 24 2 24
-7 0 -7 -3 -10 -6 -6 -4 3 -13 -1 -21 -9 -8 -8 -20 -11 -26 -7 -7 4 -8 0 -4
-11 5 -13 3 -17 -7 -13 -17 7 -40 -18 -31 -33 3 -5 0 -10 -8 -10 -19 0 -28 11
-18 24 4 6 11 20 14 31 7 19 7 19 -8 1 -8 -10 -16 -24 -18 -30 -3 -7 -11 -5
-22 5 -16 15 -15 18 15 39 35 25 83 41 88 28 2 -4 15 -5 28 -2z m1239 4 c-3
-5 -14 -14 -24 -19 -13 -7 -18 -6 -18 4 0 7 6 11 13 8 6 -2 15 0 19 6 3 6 8
11 11 11 3 0 2 -4 -1 -10z m1370 -30 c-10 -11 -22 -17 -27 -14 -5 3 1 17 14
31 26 28 39 12 13 -17z m891 -2 c15 -24 32 -46 38 -50 8 -6 8 -8 -1 -8 -12 0
-40 35 -62 78 -20 38 -3 24 25 -20z m546 -70 c63 -49 80 -68 60 -68 -4 0 -24
15 -44 33 -19 17 -61 49 -92 71 -31 21 -56 43 -56 48 0 13 46 -17 132 -84z
m-1472 42 c0 -9 -17 -33 -39 -54 -34 -33 -42 -37 -74 -31 -26 5 -34 11 -30 22
5 12 7 12 14 1 8 -13 10 -11 13 14 0 6 16 16 34 22 18 6 30 15 25 20 -4 5 4 6
18 3 24 -6 26 -4 22 21 -4 21 -2 24 6 12 6 -8 11 -22 11 -30z m190 -33 c0 -5
-9 -5 -20 -2 -11 3 -20 2 -20 -3 0 -5 -7 -9 -15 -9 -8 0 -15 1 -15 2 0 1 5 16
11 34 l11 31 24 -22 c13 -13 24 -27 24 -31z m-2935 2 c-6 -19 -4 -21 17 -16
17 5 27 1 36 -14 8 -12 21 -19 35 -17 13 2 21 -2 20 -9 -2 -7 2 -13 7 -13 5 0
10 6 11 13 0 10 2 10 6 0 2 -7 12 -13 20 -13 10 0 13 -6 9 -16 -3 -8 -2 -12 3
-9 5 3 13 1 16 -5 4 -6 15 -8 26 -5 11 4 19 2 19 -4 0 -6 -3 -10 -7 -10 -5 1
-19 1 -32 0 -18 -1 -22 -5 -17 -18 4 -10 4 -14 0 -11 -4 4 -15 3 -25 -2 -11
-6 -20 -6 -24 -1 -3 5 5 12 17 14 13 3 8 4 -11 4 -21 -1 -36 -8 -38 -17 -4
-13 -3 -13 6 0 9 12 11 11 11 -8 0 -18 -4 -22 -19 -17 -11 3 -22 2 -25 -3 -3
-5 -34 -8 -68 -7 -35 1 -69 -3 -76 -8 -8 -6 -42 -12 -77 -13 -51 -1 -65 1 -70
15 -4 10 1 21 15 31 12 8 36 28 53 43 l32 29 -37 -22 c-21 -12 -38 -19 -38
-16 0 9 173 129 186 129 8 0 14 4 14 9 0 4 3 8 6 8 3 0 2 -10 -1 -21z m125 1
c0 -11 -2 -20 -4 -20 -2 0 -6 9 -9 20 -3 11 -1 20 4 20 5 0 9 -9 9 -20z m820
-15 c-7 -8 -18 -15 -24 -15 -6 0 -2 7 8 15 25 19 32 19 16 0z m1662 -57 c1 4
13 6 26 3 21 -6 16 -12 -55 -81 -74 -72 -83 -72 -19 -1 l31 34 -35 -21 -36
-21 -1 22 c0 12 1 16 4 10 9 -24 20 -13 17 16 -2 21 2 31 19 38 13 7 26 7 34
1 6 -5 13 -5 15 0z m-2910 -27 c-18 -32 -33 -33 -25 -1 3 11 9 18 13 15 5 -3
11 -1 15 5 15 24 13 7 -3 -19z m688 14 c-7 -9 -15 -13 -19 -10 -3 3 1 10 9 15
21 14 24 12 10 -5z m2546 0 c-14 -11 -22 -12 -27 -4 -4 8 -10 5 -18 -7 -11
-21 -15 -15 -5 10 4 10 18 16 38 16 29 -1 30 -1 12 -15z m124 5 c-1 -26 -80
-56 -80 -31 0 7 -4 9 -10 6 -11 -7 -14 18 -3 29 8 7 93 4 93 -4z m-380 -3 c0
-2 -19 -21 -42 -42 l-43 -40 40 43 c36 39 45 47 45 39z m-1825 -15 c-54 -45
-105 -82 -105 -75 0 8 98 83 108 83 3 0 2 -4 -3 -8z m3635 -111 c80 -57 172
-112 225 -135 65 -28 88 -50 80 -74 -5 -16 -15 -22 -38 -23 -30 -1 -30 -1 -7
-8 22 -6 23 -8 7 -14 -30 -12 -64 -8 -70 7 -3 8 -1 17 6 20 7 2 4 5 -5 5 -10
1 -18 8 -18 16 0 8 -4 15 -10 15 -5 0 -10 6 -10 13 0 8 -12 19 -26 26 -16 7
-24 17 -21 25 4 9 -4 17 -21 21 -15 4 -47 23 -71 43 -24 20 -74 61 -110 90
-36 29 -69 58 -73 65 -18 28 -5 25 45 -10 28 -20 81 -57 117 -82z m-2583 93
c-3 -3 -12 -4 -19 -1 -8 3 -5 6 6 6 11 1 17 -2 13 -5z m-47 -14 c-8 -5 -24 -9
-35 -9 l-20 0 20 9 c11 5 27 9 35 9 13 1 13 0 0 -9z m1220 -8 c0 -15 -91 -152
-101 -152 -5 0 3 19 17 43 15 23 38 59 51 80 23 36 33 45 33 29z m-4404 -11
c16 -5 48 -14 72 -20 23 -7 42 -16 42 -20 0 -8 -169 35 -179 45 -8 7 35 4 65
-5z m3117 2 c-7 -2 -19 -2 -25 0 -7 3 -2 5 12 5 14 0 19 -2 13 -5z m-58 -12
c-39 -15 -80 -23 -70 -13 10 10 42 18 75 20 8 0 6 -3 -5 -7z m1059 1 c3 -5 2
-18 -1 -30 -4 -17 -8 -20 -19 -11 -7 6 -18 8 -24 4 -5 -3 -10 -2 -10 3 0 5 9
12 21 15 12 3 18 10 14 16 -3 6 -2 11 4 11 5 0 12 -4 15 -8z m210 -17 c-6 -16
-24 -21 -24 -7 0 11 11 22 21 22 5 0 6 -7 3 -15z m-2799 -2 c-11 -3 -24 -9
-29 -14 -6 -5 -14 -9 -20 -9 -5 0 -1 7 10 15 10 8 28 14 39 14 l20 -1 -20 -5z
m-1252 -33 c15 0 27 -5 27 -11 0 -12 -74 -5 -142 12 -64 16 -42 27 25 13 34
-7 74 -13 90 -14z m1176 6 c-2 -2 -18 -7 -34 -10 l-30 -6 30 14 c26 12 46 14
34 2z m2851 0 c0 -2 -7 -9 -15 -16 -13 -11 -14 -10 -9 4 5 14 24 23 24 12z
m-3211 -15 c12 -8 8 -11 -15 -18 l-29 -7 35 -6 c29 -5 22 -7 -42 -16 -43 -5
-78 -7 -78 -4 0 7 90 57 105 59 6 0 17 -3 24 -8z m2151 -26 c0 -8 -5 -15 -12
-15 -6 0 -19 -7 -28 -15 -14 -12 -23 -13 -45 -5 -33 12 -31 15 21 34 51 19 64
19 64 1z m850 -1 c0 -14 -3 -15 -17 -3 -10 7 -20 15 -22 16 -2 2 5 3 17 3 14
0 22 -6 22 -16z m-1850 -29 c-7 -9 -15 -13 -19 -10 -3 3 1 10 9 15 21 14 24
12 10 -5z m1013 -9 c-6 -10 -13 -12 -23 -6 -13 8 -12 10 3 10 9 0 17 5 17 12
0 6 3 9 6 5 3 -3 2 -12 -3 -21z m-938 4 c4 -6 -9 -10 -32 -9 -38 1 -38 1 -8 9
17 4 31 8 32 9 1 0 5 -3 8 -9z m78 3 c-13 -2 -33 -2 -45 0 -13 2 -3 4 22 4 25
0 35 -2 23 -4z m720 -18 c4 -8 1 -17 -5 -21 -7 -4 -6 -9 3 -15 8 -5 10 -9 4
-10 -5 0 -21 -2 -35 -3 -14 -1 -48 -6 -76 -10 -33 -5 -54 -4 -58 3 -4 5 -14 7
-24 4 -15 -6 -15 -5 -4 10 8 9 17 16 20 15 4 -1 17 2 30 6 14 5 29 3 38 -5 8
-6 17 -9 21 -5 3 3 1 6 -5 6 -19 0 -14 28 6 33 39 10 80 7 85 -8z m2017 10 c0
-9 -75 -55 -90 -55 -8 0 8 14 35 30 54 32 55 32 55 25z m-1975 -24 c-3 -6 -11
-8 -17 -5 -6 4 -5 9 3 15 16 10 23 4 14 -10z m59 3 c28 -11 17 -24 -19 -24
-33 0 -43 8 -28 23 8 9 27 9 47 1z m1061 -41 c-15 -27 -56 -92 -91 -146 -35
-53 -73 -116 -85 -139 -15 -30 -23 -37 -29 -28 -6 9 2 27 23 54 36 45 135 200
168 264 13 23 27 42 32 42 5 0 -3 -21 -18 -47z m-1393 -11 c-20 -5 -25 3 -17
28 l7 22 12 -23 c10 -19 9 -25 -2 -27z m3205 16 c-3 -8 -6 -5 -6 6 -1 11 2 17
5 13 3 -3 4 -12 1 -19z m-5277 -4 c0 -2 -9 -4 -21 -4 -11 0 -18 4 -14 10 5 8
35 3 35 -6z m3400 -4 c0 -5 -5 -10 -11 -10 -5 0 -7 5 -4 10 3 6 8 10 11 10 2
0 4 -4 4 -10z m1400 -56 c0 -1 -9 -2 -20 -1 -11 1 -20 7 -20 15 0 7 -4 10 -10
7 -5 -3 -10 -1 -10 5 0 6 -4 8 -10 5 -5 -3 -10 1 -10 10 0 12 8 10 40 -11 22
-15 40 -28 40 -30z m-2340 43 c0 -1 -44 -45 -97 -97 -53 -52 -80 -76 -60 -52
41 47 49 67 14 33 -14 -12 -30 -19 -40 -15 -23 8 -10 33 27 50 l31 14 -30 -7
c-16 -3 -40 -7 -52 -7 -11 -1 -19 -4 -17 -7 2 -4 -9 -9 -24 -12 -52 -10 -67
-15 -116 -41 -27 -14 -55 -26 -63 -26 -10 0 -12 -6 -8 -20 4 -12 2 -26 -3 -33
-5 -7 -12 -25 -16 -41 -4 -15 -9 -26 -12 -24 -2 3 5 55 17 116 15 80 25 112
35 112 8 0 17 6 20 13 3 10 50 18 165 27 138 12 162 11 170 -1 8 -13 13 -6 10
14 0 4 10 7 24 7 14 0 25 -1 25 -3z m-2594 -49 c-21 -12 -42 4 -32 21 5 8 13
8 28 0 20 -11 20 -12 4 -21z m5009 22 c3 -6 -1 -7 -9 -4 -18 7 -21 14 -7 14 6
0 13 -4 16 -10z m-1505 -10 c0 -5 -2 -10 -4 -10 -3 0 -8 5 -11 10 -3 6 -1 10
4 10 6 0 11 -4 11 -10z m1455 -20 c3 -5 1 -10 -4 -10 -6 0 -11 5 -11 10 0 6 2
10 4 10 3 0 8 -4 11 -10z m-1529 -46 c0 -26 -2 -41 -4 -34 -3 9 -6 9 -13 -1
-12 -20 -12 22 1 55 14 37 17 33 16 -20z m1664 23 c11 -5 9 -6 -4 -4 -11 1
-21 9 -23 17 -3 10 -2 11 4 4 4 -6 15 -14 23 -17z m-10 -51 c25 -14 41 -26 37
-26 -15 0 -102 48 -127 70 l-25 22 35 -20 c19 -11 55 -32 80 -46z m-100 -9 c0
-2 -10 -12 -22 -23 l-23 -19 19 23 c18 21 26 27 26 19z m-2602 -28 c3 -12 2
-12 -6 0 -6 8 -15 10 -22 6 -9 -5 -11 -4 -6 4 10 15 28 10 34 -10z m1019 -36
c-3 -10 -5 -4 -5 12 0 17 2 24 5 18 2 -7 2 -21 0 -30z m1683 16 c0 -14 -17
-10 -23 5 -4 10 -1 13 9 9 7 -3 14 -9 14 -14z m-1991 7 c-8 -8 -161 -47 -166
-42 -3 3 12 9 33 15 22 5 55 14 74 19 38 11 66 14 59 8z m1834 -21 c-3 -9 -8
-14 -10 -11 -3 3 -2 9 2 15 9 16 15 13 8 -4z m-3713 -6 c-14 -6 -29 -11 -35
-12 -5 -1 -12 -5 -15 -8 -3 -4 -16 -9 -30 -13 l-25 -7 25 15 c23 14 23 15 5
17 -24 2 38 16 75 17 l25 1 -25 -10z m2286 -35 c-26 -20 -50 -34 -52 -31 -6 6
76 66 90 67 5 0 -12 -16 -38 -36z m-389 -6 c-3 -8 -6 -5 -6 6 -1 11 2 17 5 13
3 -3 4 -12 1 -19z m137 3 c9 -7 25 -11 35 -8 11 3 28 -2 38 -10 17 -13 17 -14
-4 -8 -18 5 -22 3 -17 -9 3 -9 12 -16 20 -16 20 0 17 -18 -6 -32 -19 -12 -19
-13 1 -23 19 -11 19 -12 -13 -51 -30 -36 -143 -153 -125 -130 4 6 7 17 7 24 0
10 -8 6 -23 -10 -13 -14 -33 -29 -45 -32 -12 -4 -32 -30 -48 -62 -15 -30 -28
-53 -30 -51 -4 3 1 36 37 255 16 97 25 132 35 128 7 -3 18 2 24 10 15 17 36
18 47 2 4 -7 17 -20 28 -28 12 -9 9 -2 -8 19 -18 22 -24 36 -17 41 16 10 46 6
64 -9z m1966 9 c0 -5 -4 -10 -9 -10 -6 0 -13 5 -16 10 -3 6 1 10 9 10 9 0 16
-4 16 -10z m122 -7 c-5 -10 -7 -24 -5 -30 3 -7 0 -13 -6 -13 -6 0 -11 -6 -11
-14 0 -12 -63 -76 -75 -76 -2 0 4 20 13 45 11 30 24 48 38 51 11 3 21 12 21
20 0 10 -6 13 -16 8 -35 -14 -51 -16 -51 -5 0 6 3 11 8 12 4 0 17 2 29 3 13 2
26 6 30 9 3 4 12 7 20 7 10 0 11 -5 5 -17z m-176 -32 c-8 -13 -137 -84 -142
-78 -6 6 114 79 144 86 2 1 1 -3 -2 -8z m-269 -23 c-3 -8 -6 -5 -6 6 -1 11 2
17 5 13 3 -3 4 -12 1 -19z m-4054 -48 c-3 -12 -8 -19 -11 -16 -5 6 5 36 12 36
2 0 2 -9 -1 -20z m4156 -33 c-2 -1 -13 -9 -24 -17 -19 -14 -19 -14 -6 3 7 9
18 17 24 17 6 0 8 -1 6 -3z m211 -21 c0 -2 -7 -7 -16 -10 -8 -3 -12 -2 -9 4 6
10 25 14 25 6z m-2713 -22 c-3 -3 -12 -4 -19 -1 -8 3 -5 6 6 6 11 1 17 -2 13
-5z m-42 -9 c-22 -8 -198 -35 -202 -31 -8 8 121 34 167 34 25 0 41 -1 35 -3z
m-2825 -19 c0 -2 -8 -10 -17 -17 -16 -13 -17 -12 -4 4 13 16 21 21 21 13z
m3305 -6 c4 -6 -1 -7 -12 -4 -10 3 -3 -3 15 -15 17 -11 32 -26 32 -31 0 -6 -4
-8 -10 -5 -12 7 -12 3 -4 -19 5 -13 9 -14 20 -5 34 28 9 -14 -49 -82 -63 -74
-258 -277 -220 -229 11 14 24 32 28 40 8 13 7 13 -10 0 -11 -8 -31 -25 -45
-37 -14 -13 -28 -23 -32 -23 -4 0 -14 -13 -23 -30 -15 -29 -10 -39 11 -22 5 4
-4 -5 -21 -20 -16 -14 -31 -25 -33 -24 -3 3 10 89 49 331 11 65 24 124 30 130
7 7 9 5 5 -5 -3 -8 -7 -31 -10 -50 -4 -32 -4 -33 9 -15 8 11 19 26 25 33 6 6
7 12 3 12 -10 0 19 20 30 20 5 0 5 -6 2 -12 -4 -7 2 -3 12 8 18 22 57 24 77 4
15 -15 29 -12 22 5 -3 9 0 15 9 15 8 0 15 5 15 10 0 6 9 10 19 10 11 0 23 5
26 10 8 13 22 13 30 0z m-2715 -10 c0 -5 -7 -10 -16 -10 -8 0 -12 5 -9 10 3 6
10 10 16 10 5 0 9 -4 9 -10z m2270 -58 c0 -5 -11 -19 -24 -31 -13 -12 -27 -34
-30 -49 -3 -15 -29 -52 -57 -82 -28 -30 -46 -45 -40 -33 6 12 18 29 27 38 25
25 7 31 -19 7 -13 -12 -34 -22 -48 -23 -22 0 -23 -1 -4 -9 19 -9 19 -9 -2 -16
-13 -3 -20 -10 -17 -15 3 -5 1 -9 -5 -9 -5 0 -12 8 -14 18 -4 15 -11 -30 -8
-51 1 -4 -17 -7 -38 -5 -22 1 -38 6 -35 10 3 5 8 7 12 5 4 -2 15 4 24 14 14
15 15 19 2 30 -11 9 -14 8 -14 -4 0 -10 -6 -14 -15 -11 -9 4 -16 -3 -21 -20
-4 -19 -13 -26 -29 -26 -13 0 -26 6 -29 13 -3 8 -9 6 -20 -7 -9 -11 -19 -17
-22 -13 -12 12 -30 -18 -30 -48 1 -24 -3 -30 -19 -28 -18 1 -18 0 4 -18 13
-11 22 -21 20 -22 -2 -2 -15 -8 -29 -14 -19 -9 -21 -12 -7 -12 10 -1 15 -6 12
-11 -4 -6 -11 -8 -16 -5 -8 6 -13 -8 -10 -27 0 -5 -8 -8 -19 -8 -15 0 -20 -7
-20 -25 0 -19 -5 -25 -21 -25 -11 0 -18 -3 -16 -7 3 -5 -5 -17 -16 -28 l-20
-20 7 55 c4 30 12 57 17 61 5 3 7 13 3 22 -13 34 34 263 68 330 23 47 33 43
20 -7 -6 -20 -7 -36 -2 -36 4 0 10 10 13 22 7 25 19 18 24 -14 2 -12 6 -24 8
-26 3 -3 40 -7 82 -10 50 -3 84 -10 96 -20 15 -14 19 -13 37 3 11 10 20 24 20
32 0 31 166 152 198 145 8 -2 11 1 7 7 -3 6 -1 11 4 11 6 0 11 -4 11 -8z
m2667 -44 c-3 -7 -5 -2 -5 12 0 14 2 19 5 13 2 -7 2 -19 0 -25z m-4877 9 c0
-7 -7 -22 -15 -33 -13 -17 -14 -16 -4 14 11 33 19 41 19 19z m1576 -26 c-8
-12 -174 -81 -206 -85 -31 -5 -107 -33 -144 -54 -5 -3 -6 0 -3 5 12 19 131 71
207 91 41 11 91 27 110 36 42 18 43 18 36 7z m199 -61 c3 -5 1 -10 -4 -10 -6
0 -11 5 -11 10 0 6 2 10 4 10 3 0 8 -4 11 -10z m375 -20 c-6 -11 -13 -20 -16
-20 -2 0 0 9 6 20 6 11 13 20 16 20 2 0 0 -9 -6 -20z m857 -32 c-3 -8 -6 -5
-6 6 -1 11 2 17 5 13 3 -3 4 -12 1 -19z m-13 -105 c-4 -49 -11 -97 -16 -108
-8 -20 -7 6 8 138 10 88 15 68 8 -30z m-1934 17 c-13 -25 -13 -73 0 -65 6 4 7
11 4 17 -5 7 -2 8 5 4 7 -5 10 -14 7 -22 -5 -13 6 -18 27 -15 4 0 7 -6 7 -14
0 -8 -5 -15 -11 -15 -6 0 -9 -5 -7 -12 5 -13 38 -20 38 -8 0 4 7 11 16 14 12
5 15 2 12 -12 -7 -24 43 -48 69 -33 16 9 16 11 -7 21 -24 10 -24 10 -2 6 18
-3 22 -1 18 11 -5 11 -2 13 9 9 9 -3 13 -2 10 4 -3 5 10 16 30 26 19 9 32 20
29 25 -3 5 2 6 10 3 9 -3 16 -2 16 4 0 6 9 8 20 5 15 -4 19 -2 14 10 -3 8 0
18 7 23 8 4 10 3 5 -4 -4 -7 -3 -12 2 -12 6 0 12 6 15 14 6 15 54 19 63 5 3
-5 -41 -55 -97 -112 -79 -79 -91 -88 -53 -42 49 60 35 59 -21 -2 -33 -36 -59
-41 -90 -19 -26 18 -95 37 -95 26 0 -4 7 -10 15 -14 17 -6 20 -26 4 -26 -5 0
-7 5 -4 10 3 6 1 10 -4 10 -10 0 -15 -13 -13 -31 2 -12 -27 -5 -32 8 -3 7 -15
13 -27 13 -21 0 -21 1 -5 19 11 12 25 17 38 13 17 -4 18 -2 8 14 -6 10 -23 20
-37 21 -14 0 -29 5 -34 10 -9 9 14 97 31 118 5 6 6 16 2 20 -4 5 -1 5 6 1 8
-5 9 -13 2 -26z m951 -3 c-10 -9 -11 -8 -5 6 3 10 9 15 12 12 3 -3 0 -11 -7
-18z m-185 -10 c-10 -47 -21 -69 -40 -78 -19 -9 -19 -9 -3 4 9 8 17 26 17 40
0 14 3 32 6 41 7 18 24 12 20 -7z m1621 -54 c-2 -16 -4 -5 -4 22 0 28 2 40 4
28 2 -13 2 -35 0 -50z m-1527 37 c-6 -4 -11 -10 -11 -14 3 -19 0 -29 -6 -22
-9 9 -13 38 -7 47 3 5 12 5 20 2 11 -4 12 -8 4 -13z m-50 6 c0 -2 -7 -6 -15
-10 -8 -3 -15 -1 -15 4 0 6 7 10 15 10 8 0 15 -2 15 -4z m91 -41 c-17 -20 -31
-33 -31 -29 0 12 52 76 57 70 3 -3 -8 -21 -26 -41z m-1244 9 c-3 -3 -12 -4
-19 -1 -8 3 -5 6 6 6 11 1 17 -2 13 -5z m1173 -26 c0 -5 -4 -8 -10 -8 -5 0
-10 10 -10 23 0 18 2 19 10 7 5 -8 10 -18 10 -22z m-1327 4 c-8 -5 -9 -12 -2
-22 8 -13 11 -13 22 1 22 28 46 30 59 6 7 -12 11 -25 10 -28 -1 -4 8 -5 19 -2
18 5 19 2 13 -22 -4 -17 -3 -26 3 -22 5 3 10 -1 10 -9 0 -8 -6 -13 -14 -10 -7
3 -13 0 -13 -5 0 -6 -9 -9 -20 -6 -24 6 -26 -5 -5 -23 13 -11 12 -16 -10 -42
-14 -16 -23 -34 -20 -38 3 -5 1 -11 -4 -14 -5 -4 -12 -2 -16 4 -3 5 -15 10
-26 10 -17 0 -18 -3 -8 -21 10 -19 8 -20 -10 -14 -16 5 -21 2 -22 -12 -1 -10
-2 -22 -4 -28 -1 -5 -3 -15 -3 -22 -1 -7 -9 -10 -19 -6 -12 5 -15 2 -10 -10 4
-12 1 -17 -9 -17 -9 0 -14 6 -11 13 3 8 -1 14 -9 14 -7 0 -16 -7 -18 -14 -3
-8 -1 -11 4 -8 6 3 7 -1 4 -9 -3 -9 -11 -16 -16 -16 -10 0 -6 43 8 105 2 11 9
49 14 85 14 88 64 190 93 190 14 0 18 -3 10 -8z m1338 -60 c-11 -16 -28 -35
-38 -43 -10 -8 -3 5 16 29 37 47 53 58 22 14z m-881 -6 c0 -14 -21 -58 -26
-54 -8 8 7 58 17 58 5 0 9 -2 9 -4z m53 -68 c7 -20 -4 -38 -22 -38 -9 0 -28
-7 -44 -14 -27 -15 -27 -15 -20 12 3 14 11 32 17 39 14 16 63 17 69 1z m136 3
c13 -9 10 -13 -21 -24 -10 -4 -18 -2 -18 3 0 6 8 10 18 10 14 0 15 2 2 10 -8
5 -10 10 -5 10 6 0 16 -4 24 -9z m641 6 c0 -2 -10 -12 -22 -23 l-23 -19 19 23
c18 21 26 27 26 19z m-980 -22 c0 -3 -28 -33 -62 -67 -64 -66 -52 -43 16 30
40 42 46 47 46 37z m390 -8 c0 -2 -12 -14 -27 -28 l-28 -24 24 28 c23 25 31
32 31 24z m805 -117 c-3 -5 -14 -10 -23 -9 -14 0 -13 2 3 9 27 11 27 11 20 0z
m200 0 c-3 -5 -12 -10 -18 -10 -7 0 -6 4 3 10 19 12 23 12 15 0z m-269 -25
c-11 -8 -25 -15 -30 -15 -6 1 0 7 14 15 32 19 40 18 16 0z m236 -17 c-7 -7
-12 -8 -12 -2 0 14 12 26 19 19 2 -3 -1 -11 -7 -17z m-1528 -13 c-4 -8 -11
-15 -16 -15 -6 0 -5 6 2 15 7 8 14 15 16 15 2 0 1 -7 -2 -15z m1514 -10 c9 -8
-21 -45 -36 -44 -23 1 -69 17 -57 19 34 6 53 5 49 -2 -3 -4 0 -8 5 -8 15 0 14
37 -1 44 -7 3 -2 3 12 0 14 -4 26 -8 28 -9z m-1548 -29 c0 -2 -8 -10 -17 -17
-16 -13 -17 -12 -4 4 13 16 21 21 21 13z m1483 -28 c29 -4 31 -1 -108 -191
-24 -33 -39 -43 -70 -48 -59 -10 -80 6 -27 20 23 7 42 16 42 21 0 6 7 10 15
10 17 0 19 9 6 29 -5 8 -16 11 -25 8 -9 -4 -31 2 -50 12 -22 13 -37 16 -44 9
-6 -6 -11 -4 -15 6 -4 10 4 18 24 25 21 7 27 14 22 27 -5 14 -2 16 17 11 13
-3 28 0 37 9 13 12 12 14 -4 14 -11 1 -3 8 20 20 52 26 67 29 107 24 19 -2 43
-5 53 -6z m-347 -54 c-4 -20 -10 -34 -13 -30 -3 3 -2 21 1 42 4 20 10 34 13
30 3 -3 2 -21 -1 -42z m-1192 21 c-4 -8 -11 -15 -16 -15 -6 0 -5 6 2 15 7 8
14 15 16 15 2 0 1 -7 -2 -15z m811 5 c3 -5 1 -10 -4 -10 -6 0 -11 5 -11 10 0
6 2 10 4 10 3 0 8 -4 11 -10z m175 6 c0 -2 -8 -10 -17 -17 -16 -13 -17 -12 -4
4 13 16 21 21 21 13z m-237 -23 c-25 -5 -21 -33 4 -33 12 0 13 -3 4 -14 -10
-11 -8 -16 6 -24 23 -13 15 -21 -26 -26 -31 -3 -56 -16 -33 -16 16 0 15 -30 0
-31 -7 -1 -24 -3 -38 -4 -14 -1 -33 -6 -42 -10 -10 -4 -18 -3 -18 1 0 5 -29 8
-65 7 -51 -2 -65 1 -65 12 0 8 4 15 10 15 5 0 7 7 4 15 -3 8 4 30 15 49 22 35
36 41 151 59 33 6 121 5 93 0z m57 -47 c0 -2 -7 -6 -15 -10 -8 -3 -15 -1 -15
4 0 6 7 10 15 10 8 0 15 -2 15 -4z m373 -65 l-6 -60 44 -4 44 -4 -51 -1 -51
-2 4 53 c5 55 9 77 17 77 2 0 2 -27 -1 -59z m147 4 c0 -2 -17 -3 -37 -3 -28 0
-33 2 -18 8 17 6 55 3 55 -5z m33 -47 c-2 -5 -10 -8 -18 -8 -11 0 -13 12 -6
38 1 1 7 -3 15 -10 8 -7 12 -16 9 -20z m-475 2 c-7 -11 -17 -20 -22 -20 -5 0
-1 9 9 20 10 11 20 20 22 20 2 0 -2 -9 -9 -20z m1019 -22 c-3 -7 -5 -2 -5 12
0 14 2 19 5 13 2 -7 2 -19 0 -25z m-1349 -49 c-15 -10 -7 -12 16 -3 9 3 13 10
10 15 -3 5 6 4 20 -2 14 -7 23 -16 19 -22 -3 -6 9 -8 31 -5 23 2 35 0 33 -6
-2 -6 -27 -11 -55 -11 -28 0 -55 -4 -59 -9 -4 -4 5 -6 22 -4 22 2 30 -1 33
-15 3 -13 -1 -18 -15 -16 -10 2 -24 0 -30 -4 -7 -5 -13 -4 -13 1 0 6 -9 8 -20
5 -11 -3 -20 -13 -20 -23 0 -24 -18 -36 -61 -39 l-35 -2 10 60 c8 52 13 61 31
61 12 0 26 5 33 12 6 6 15 8 19 4 9 -9 -26 -38 -37 -31 -11 7 -33 -23 -25 -35
3 -5 18 -10 33 -10 26 1 26 1 8 15 -18 14 -18 15 9 25 22 8 26 15 21 34 -5 21
-3 23 15 19 16 -4 17 -8 7 -14z m799 1 c1 -11 -1 -22 -5 -24 -4 -2 -8 7 -8 20
-1 13 1 24 5 24 4 0 7 -9 8 -20z m-166 -50 c5 0 9 6 9 14 0 10 12 13 40 12 32
-2 39 1 35 12 -4 12 -3 13 9 3 8 -7 20 -10 25 -7 5 4 13 1 17 -5 4 -8 3 -9 -4
-5 -15 9 -16 -16 -1 -31 17 -17 -29 -75 -53 -67 -12 3 -18 0 -18 -10 0 -24
-18 -19 -22 5 -3 18 -5 17 -15 -10 -11 -30 -10 -31 14 -31 21 0 23 -3 13 -14
-6 -8 -19 -12 -27 -9 -12 5 -15 2 -11 -9 8 -19 -25 -48 -42 -38 -8 5 -2 10 16
14 21 6 25 9 14 16 -9 6 -17 5 -21 -2 -15 -24 -29 5 -25 50 19 174 18 169 28
140 5 -16 14 -28 19 -28z m-421 -5 c-7 -9 -15 -13 -17 -11 -6 6 20 36 26 30 2
-2 -2 -10 -9 -19z m-85 -6 c3 6 12 11 18 11 8 0 7 -3 -2 -9 -7 -5 -11 -13 -7
-19 7 -12 -19 -23 -39 -16 -13 5 -14 15 -5 54 0 3 7 -3 14 -13 9 -12 16 -14
21 -8z m55 -22 c0 -8 -38 -47 -45 -47 -5 0 2 11 15 25 22 24 30 29 30 22z
m-136 -36 c4 -5 -3 -7 -14 -4 -23 6 -26 13 -6 13 8 0 17 -4 20 -9z m-72 -27
c-12 -8 -22 -21 -22 -29 0 -8 -7 -11 -19 -8 -11 3 -17 11 -14 18 2 8 10 12 17
9 7 -3 19 2 26 11 7 8 17 15 23 15 6 0 1 -7 -11 -16z m78 2 c0 -2 -7 -6 -15
-10 -8 -3 -15 -1 -15 4 0 6 7 10 15 10 8 0 15 -2 15 -4z m70 -6 c0 -5 -5 -10
-11 -10 -5 0 -7 5 -4 10 3 6 8 10 11 10 2 0 4 -4 4 -10z m-113 -6 c-3 -3 -12
-4 -19 -1 -8 3 -5 6 6 6 11 1 17 -2 13 -5z m880 -46 c-3 -8 -6 -5 -6 6 -1 11
2 17 5 13 3 -3 4 -12 1 -19z m-387 -99 c-7 -11 -14 -18 -17 -15 -3 3 0 12 7
21 18 21 23 19 10 -6z m-59 -136 c-12 -20 -14 -14 -5 12 4 9 9 14 11 11 3 -2
0 -13 -6 -23z m-54 -485 c-3 -8 -6 -5 -6 6 -1 11 2 17 5 13 3 -3 4 -12 1 -19z"/>
<path d="M6763 4463 c9 -2 25 -2 35 0 9 3 1 5 -18 5 -19 0 -27 -2 -17 -5z"/>
<path d="M6288 4363 c6 -2 18 -2 25 0 6 3 1 5 -13 5 -14 0 -19 -2 -12 -5z"/>
<path d="M6235 4350 c-13 -6 -15 -9 -5 -9 8 0 22 4 30 9 18 12 2 12 -25 0z"/>
<path d="M6143 4325 c0 -9 4 -14 9 -13 5 2 10 8 10 13 0 5 -5 11 -10 13 -5 1
-9 -4 -9 -13z"/>
<path d="M6107 4323 c-13 -12 -7 -23 11 -22 10 0 12 3 4 6 -6 2 -10 9 -6 14 6
10 0 12 -9 2z"/>
<path d="M6073 4313 c-7 -2 -13 -11 -13 -19 0 -7 6 -11 13 -8 8 3 14 11 14 19
0 8 -1 15 -1 14 -1 0 -7 -3 -13 -6z"/>
<path d="M6228 4303 c7 -3 16 -2 19 1 4 3 -2 6 -13 5 -11 0 -14 -3 -6 -6z"/>
<path d="M6140 4290 c-12 -8 -10 -10 8 -10 13 0 20 4 17 10 -7 12 -6 12 -25 0z"/>
<path d="M5960 4270 c0 -5 7 -10 16 -10 8 0 12 5 9 10 -3 6 -10 10 -16 10 -5
0 -9 -4 -9 -10z"/>
<path d="M5920 4260 c-8 -5 -11 -12 -8 -16 4 -3 14 1 23 10 18 17 9 21 -15 6z"/>
<path d="M5801 4228 c-12 -4 -21 -10 -21 -13 0 -9 63 5 74 16 11 10 -24 8 -53
-3z"/>
<path d="M6323 4193 c9 -2 23 -2 30 0 6 3 -1 5 -18 5 -16 0 -22 -2 -12 -5z"/>
<path d="M6578 4183 c7 -3 16 -2 19 1 4 3 -2 6 -13 5 -11 0 -14 -3 -6 -6z"/>
<path d="M2482 4098 c-7 -7 -12 -16 -12 -20 0 -15 15 -8 28 12 13 22 3 27 -16
8z"/>
<path d="M2620 4039 c0 -5 5 -7 10 -4 6 3 10 8 10 11 0 2 -4 4 -10 4 -5 0 -10
-5 -10 -11z"/>
<path d="M3500 4026 c0 -2 7 -9 15 -16 9 -7 15 -8 15 -2 0 5 -7 12 -15 16 -8
3 -15 4 -15 2z"/>
<path d="M3490 3990 c0 -5 5 -10 11 -10 5 0 7 5 4 10 -3 6 -8 10 -11 10 -2 0
-4 -4 -4 -10z"/>
<path d="M4490 3910 c-14 -4 -23 -9 -20 -10 23 -8 41 -6 51 6 13 15 7 16 -31
4z"/>
<path d="M4253 3873 c9 -2 15 -9 12 -14 -4 -5 1 -9 11 -9 13 0 14 3 4 15 -7 8
-20 14 -29 14 -13 -1 -13 -2 2 -6z"/>
<path d="M4248 3803 c6 -2 18 -2 25 0 6 3 1 5 -13 5 -14 0 -19 -2 -12 -5z"/>
<path d="M4095 3640 c3 -5 11 -10 16 -10 6 0 7 5 4 10 -3 6 -11 10 -16 10 -6
0 -7 -4 -4 -10z"/>
<path d="M3929 3597 c-2 -2 -5 -19 -13 -77 -4 -24 -3 -29 3 -15 l8 20 6 -20
c2 -11 4 2 2 28 -2 37 1 47 11 43 8 -3 14 -1 14 3 0 8 -28 24 -31 18z"/>
<path d="M4165 3540 c-3 -6 1 -7 9 -4 18 7 21 14 7 14 -6 0 -13 -4 -16 -10z"/>
<path d="M1811 3701 c-10 -6 -9 -10 3 -14 8 -3 18 -2 21 3 8 13 -9 20 -24 11z"/>
<path d="M1923 3573 c9 -2 23 -2 30 0 6 3 -1 5 -18 5 -16 0 -22 -2 -12 -5z"/>
<path d="M1780 3570 c0 -5 5 -10 10 -10 6 0 10 5 10 10 0 6 -4 10 -10 10 -5 0
-10 -4 -10 -10z"/>
<path d="M5465 3150 c-3 -5 -2 -10 4 -10 5 0 13 5 16 10 3 6 2 10 -4 10 -5 0
-13 -4 -16 -10z"/>
<path d="M1650 3060 c0 -5 5 -10 10 -10 6 0 10 5 10 10 0 6 -4 10 -10 10 -5 0
-10 -4 -10 -10z"/>
<path d="M1676 3051 c-4 -7 -5 -15 -2 -18 9 -9 19 4 14 18 -4 11 -6 11 -12 0z"/>
<path d="M1735 3030 c-3 -5 -1 -10 4 -10 6 0 11 5 11 10 0 6 -2 10 -4 10 -3 0
-8 -4 -11 -10z"/>
<path d="M3145 2631 c-6 -11 9 -23 19 -14 9 9 7 23 -3 23 -6 0 -12 -4 -16 -9z"/>
<path d="M4213 2406 c22 -22 42 -34 49 -29 8 4 3 11 -14 18 -14 5 -37 19 -50
29 -12 11 -6 2 15 -18z"/>
<path d="M3655 1990 c-16 -7 -17 -9 -3 -9 9 -1 20 4 23 9 7 11 7 11 -20 0z"/>
<path d="M3345 2140 c-16 -7 -17 -9 -3 -9 9 -1 20 4 23 9 7 11 7 11 -20 0z"/>
<path d="M3100 2038 c0 -6 -7 -16 -15 -22 -11 -8 -12 -15 -4 -26 9 -13 10 -12
5 2 -3 11 2 19 14 23 30 9 43 31 19 32 -10 1 -19 -3 -19 -9z"/>
<path d="M2978 2013 c7 -3 16 -2 19 1 4 3 -2 6 -13 5 -11 0 -14 -3 -6 -6z"/>
<path d="M2606 1883 c-6 -14 -5 -15 5 -6 7 7 10 15 7 18 -3 3 -9 -2 -12 -12z"/>
<path d="M1840 1875 c-10 -12 -10 -15 2 -15 8 0 15 7 15 15 0 8 -1 15 -2 15
-2 0 -8 -7 -15 -15z"/>
<path d="M1745 1830 c3 -5 11 -10 16 -10 6 0 7 5 4 10 -3 6 -11 10 -16 10 -6
0 -7 -4 -4 -10z"/>
<path d="M1750 1770 c-6 -11 -7 -20 -2 -20 6 0 12 9 15 20 3 11 3 20 1 20 -2
0 -8 -9 -14 -20z"/>
<path d="M1720 1704 c-6 -16 -13 -35 -15 -41 -2 -7 -1 -13 3 -13 10 0 36 70
28 77 -3 3 -10 -7 -16 -23z"/>
<path d="M1700 1610 c18 -12 40 -13 40 -2 0 4 -12 9 -27 10 -22 1 -24 0 -13
-8z"/>
<path d="M2470 1430 c0 -5 5 -10 10 -10 6 0 10 5 10 10 0 6 -4 10 -10 10 -5 0
-10 -4 -10 -10z"/>
<path d="M2515 1370 c3 -5 11 -10 16 -10 6 0 7 5 4 10 -3 6 -11 10 -16 10 -6
0 -7 -4 -4 -10z"/>
<path d="M2400 1340 c0 -5 7 -10 16 -10 8 0 12 5 9 10 -3 6 -10 10 -16 10 -5
0 -9 -4 -9 -10z"/>
<path d="M2297 1114 c3 -8 12 -13 20 -10 8 3 19 6 24 6 6 0 7 5 4 10 -3 6 -17
10 -30 10 -18 0 -23 -4 -18 -16z"/>
<path d="M3000 1064 c0 -8 5 -12 10 -9 6 3 10 10 10 16 0 5 -4 9 -10 9 -5 0
-10 -7 -10 -16z"/>
<path d="M5038 5260 c35 -5 115 -20 179 -34 64 -14 118 -24 120 -22 9 9 -220
58 -287 61 l-75 4 63 -9z"/>
<path d="M4867 5230 c-76 -13 -68 -20 21 -20 79 0 107 11 60 24 -13 3 -25 5
-28 5 -3 -1 -27 -5 -53 -9z"/>
<path d="M5358 5193 c7 -3 16 -2 19 1 4 3 -2 6 -13 5 -11 0 -14 -3 -6 -6z"/>
<path d="M4807 5171 c-76 -16 -49 -23 67 -15 96 5 117 4 111 -6 -6 -10 -2 -11
19 -6 18 4 26 2 26 -6 0 -11 2 -11 8 0 7 9 16 10 41 1 18 -6 28 -15 22 -18
-14 -9 0 -25 24 -28 11 -2 52 -8 92 -15 54 -9 92 -9 160 0 119 16 169 15 296
-7 87 -15 35 7 -104 43 -121 32 -148 36 -265 36 -71 0 -158 4 -194 10 -101 14
-261 20 -303 11z"/>
<path d="M4658 5153 c6 -2 18 -2 25 0 6 3 1 5 -13 5 -14 0 -19 -2 -12 -5z"/>
<path d="M2951 5076 c3 -3 58 -14 123 -25 66 -12 122 -23 124 -26 3 -3 -13 -5
-36 -5 -23 0 -42 -4 -42 -8 0 -4 42 -2 93 4 50 7 110 14 132 15 22 1 -7 6 -65
10 -58 5 -151 16 -208 24 -109 16 -128 18 -121 11z"/>
<path d="M2950 5046 c0 -8 8 -13 18 -11 9 2 22 4 27 5 6 1 1 5 -10 10 -29 12
-35 12 -35 -4z"/>
<path d="M3504 5005 c-24 -18 -7 -19 26 0 16 9 19 14 9 15 -8 0 -24 -7 -35
-15z"/>
<path d="M4710 4990 c-8 -5 -10 -10 -5 -10 6 0 17 5 25 10 8 5 11 10 5 10 -5
0 -17 -5 -25 -10z"/>
<path d="M3435 4980 c-3 -5 -2 -10 4 -10 5 0 13 5 16 10 3 6 2 10 -4 10 -5 0
-13 -4 -16 -10z"/>
<path d="M3390 4960 c-8 -5 -10 -10 -5 -10 6 0 17 5 25 10 8 5 11 10 5 10 -5
0 -17 -5 -25 -10z"/>
<path d="M4872 4940 c0 -14 2 -19 5 -12 2 6 2 18 0 25 -3 6 -5 1 -5 -13z"/>
<path d="M3975 4880 c-3 -6 1 -7 9 -4 18 7 21 14 7 14 -6 0 -13 -4 -16 -10z"/>
<path d="M5700 4869 c0 -5 5 -7 10 -4 6 3 10 8 10 11 0 2 -4 4 -10 4 -5 0 -10
-5 -10 -11z"/>
<path d="M5417 4834 c-13 -14 5 -24 41 -23 20 0 31 3 24 6 -6 2 -10 9 -6 14 6
10 -49 13 -59 3z"/>
<path d="M6270 4818 c0 -28 57 -92 90 -101 20 -5 19 -2 -12 31 -19 20 -44 50
-56 66 l-22 29 0 -25z"/>
<path d="M5863 4793 c9 -2 25 -2 35 0 9 3 1 5 -18 5 -19 0 -27 -2 -17 -5z"/>
<path d="M5436 4398 l-18 -33 21 25 c18 22 26 40 18 40 -1 0 -11 -15 -21 -32z"/>
<path d="M5151 4320 c-12 -17 -18 -30 -14 -30 10 1 46 50 41 56 -3 2 -14 -10
-27 -26z"/>
<path d="M7600 4346 c0 -2 7 -7 16 -10 8 -3 12 -2 9 4 -6 10 -25 14 -25 6z"/>
<path d="M3880 4256 c0 -15 132 -67 216 -85 104 -23 194 -33 194 -22 0 5 -27
11 -60 15 -86 10 -249 54 -332 91 -10 4 -18 4 -18 1z"/>
<path d="M5035 4194 l-40 -36 43 32 c36 27 49 40 40 40 -2 0 -21 -16 -43 -36z"/>
<path d="M4477 4152 c6 -14 25 -12 30 4 2 5 -5 10 -16 10 -11 0 -17 -5 -14
-14z"/>
<path d="M4330 4150 c0 -5 5 -10 10 -10 6 0 10 5 10 10 0 6 -4 10 -10 10 -5 0
-10 -4 -10 -10z"/>
<path d="M4365 4150 c3 -5 8 -10 11 -10 2 0 4 5 4 10 0 6 -5 10 -11 10 -5 0
-7 -4 -4 -10z"/>
<path d="M4645 3860 c-3 -5 -1 -10 4 -10 6 0 11 5 11 10 0 6 -2 10 -4 10 -3 0
-8 -4 -11 -10z"/>
<path d="M4680 3770 c-9 -6 -10 -10 -3 -10 6 0 15 5 18 10 8 12 4 12 -15 0z"/>
<path d="M4705 3760 c-3 -5 -2 -10 4 -10 5 0 13 5 16 10 3 6 2 10 -4 10 -5 0
-13 -4 -16 -10z"/>
<path d="M4760 3689 c-7 -11 -9 -23 -6 -27 3 -3 6 -1 6 5 0 6 9 13 21 16 12 3
18 10 14 16 -10 17 -23 13 -35 -10z"/>
<path d="M4740 3630 c-13 -8 -12 -10 3 -10 9 0 17 5 17 10 0 12 -1 12 -20 0z"/>
<path d="M4895 3610 c-4 -6 -11 -7 -17 -4 -7 4 -8 2 -4 -4 10 -16 23 -15 30 3
6 17 0 20 -9 5z"/>
<path d="M4850 3545 c-7 -9 -11 -17 -9 -20 3 -2 10 5 17 15 14 24 10 26 -8 5z"/>
<path d="M4778 3448 c-22 -22 -22 -28 -4 -28 7 0 16 10 19 22 8 28 6 29 -15 6z"/>
<path d="M4728 3375 c-13 -19 -27 -34 -33 -34 -29 3 -108 -2 -103 -6 2 -3 25
-5 51 -6 25 -1 44 -5 42 -8 -5 -9 121 12 130 21 4 4 -16 5 -45 3 l-51 -5 21
35 c28 46 17 46 -12 0z"/>
<path d="M4698 3293 c7 -3 16 -2 19 1 4 3 -2 6 -13 5 -11 0 -14 -3 -6 -6z"/>
<path d="M4580 3119 c0 -5 5 -7 10 -4 6 3 10 8 10 11 0 2 -4 4 -10 4 -5 0 -10
-5 -10 -11z"/>
<path d="M1240 3039 c0 -5 5 -7 10 -4 6 3 10 8 10 11 0 2 -4 4 -10 4 -5 0 -10
-5 -10 -11z"/>
<path d="M1030 2929 c0 -5 5 -7 10 -4 6 3 10 8 10 11 0 2 -4 4 -10 4 -5 0 -10
-5 -10 -11z"/>
<path d="M978 2885 c6 -32 17 -32 18 0 1 14 -4 25 -11 25 -8 0 -10 -9 -7 -25z"/>
<path d="M923 2806 c-9 -11 -7 -13 13 -13 20 0 22 2 13 13 -13 16 -11 16 -26
0z"/>
<path d="M983 2803 c9 -2 23 -2 30 0 6 3 -1 5 -18 5 -16 0 -22 -2 -12 -5z"/>
<path d="M859 2793 c0 -5 -2 -18 -5 -30 -4 -22 6 -30 20 -16 3 4 27 9 52 11
26 2 56 8 68 13 15 7 5 8 -36 5 -46 -4 -58 -2 -58 10 0 14 -39 21 -41 7z m31
-7 c0 -3 -4 -8 -10 -11 -5 -3 -10 -1 -10 4 0 6 5 11 10 11 6 0 10 -2 10 -4z"/>
<path d="M708 2773 c7 -3 16 -2 19 1 4 3 -2 6 -13 5 -11 0 -14 -3 -6 -6z"/>
<path d="M780 2760 c0 -5 7 -10 16 -10 8 0 12 5 9 10 -3 6 -10 10 -16 10 -5 0
-9 -4 -9 -10z"/>
<path d="M820 2750 c0 -5 5 -10 10 -10 6 0 10 5 10 10 0 6 -4 10 -10 10 -5 0
-10 -4 -10 -10z"/>
<path d="M5239 2719 l-24 -20 28 17 c15 9 27 18 27 20 0 8 -8 4 -31 -17z"/>
<path d="M548 2723 c7 -3 16 -2 19 1 4 3 -2 6 -13 5 -11 0 -14 -3 -6 -6z"/>
<path d="M588 2713 c6 -2 18 -2 25 0 6 3 1 5 -13 5 -14 0 -19 -2 -12 -5z"/>
<path d="M658 2703 c7 -3 16 -2 19 1 4 3 -2 6 -13 5 -11 0 -14 -3 -6 -6z"/>
<path d="M5133 2647 c-23 -18 -44 -38 -47 -45 -3 -7 17 6 44 29 43 37 57 51
48 48 -2 0 -22 -15 -45 -32z"/>
<path d="M1016 2384 c-10 -26 1 -28 25 -5 22 21 22 21 2 21 -11 0 -24 -7 -27
-16z"/>
<path d="M1073 2348 c3 -10 2 -18 -3 -18 -6 0 -10 -4 -10 -10 0 -13 27 -13 35
0 3 6 -2 18 -11 28 -17 16 -18 16 -11 0z"/>
<path d="M800 2339 c0 -5 4 -9 9 -9 5 0 17 -3 27 -7 11 -4 15 -3 11 4 -9 14
-47 24 -47 12z"/>
<path d="M770 2295 c19 -19 36 -35 39 -35 3 0 -10 16 -29 35 -19 19 -36 35
-39 35 -3 0 10 -16 29 -35z"/>
<path d="M708 2243 c7 -3 16 -2 19 1 4 3 -2 6 -13 5 -11 0 -14 -3 -6 -6z"/>
<path d="M4600 1981 c0 -25 6 -27 13 -6 4 8 2 17 -3 20 -6 4 -10 -3 -10 -14z"/>
</g>
</svg>
