<?xml version="1.0" standalone="no"?>
<!DOCTYPE svg PUBLIC "-//W3C//DTD SVG 20010904//EN"
 "http://www.w3.org/TR/2001/REC-SVG-20010904/DTD/svg10.dtd">
<svg version="1.0" xmlns="http://www.w3.org/2000/svg"
 width="671.000000pt" height="659.000000pt" viewBox="0 0 671.000000 659.000000"
 preserveAspectRatio="xMidYMid meet">

<g transform="translate(0.000000,659.000000) scale(0.100000,-0.100000)"
fill="#FFFFFF" stroke="none">
<path d="M3383 6505 c-26 -33 -66 -136 -99 -255 -28 -100 -42 -144 -69 -210
-82 -203 -161 -366 -181 -374 -18 -7 -107 81 -97 97 3 5 -4 4 -16 -2 -15 -8
-21 -9 -21 -1 0 6 -5 8 -11 4 -6 -3 -15 0 -20 7 -7 11 -9 9 -9 -6 0 -17 -2
-18 -11 -5 -11 17 -11 14 12 -70 23 -81 16 -250 -15 -402 -15 -76 -26 -143
-24 -150 4 -11 178 308 178 325 0 6 139 300 161 339 5 10 9 24 9 32 0 7 10 26
21 41 12 14 23 39 25 53 2 15 12 45 24 67 11 21 20 47 20 56 0 9 16 46 35 82
19 36 35 77 35 91 0 14 12 56 26 93 50 132 75 223 61 223 -4 0 -19 -16 -34
-35z"/>
<path d="M3430 6204 c0 -76 -3 -208 -7 -291 -4 -113 -2 -153 6 -153 8 0 9 -5
1 -19 -5 -11 -10 -36 -10 -55 0 -34 2 -36 35 -36 19 0 35 5 35 10 0 6 -11 10
-24 10 -14 0 -28 5 -31 10 -3 6 1 10 9 10 9 0 16 8 15 18 0 10 -3 12 -6 4 -2
-6 -9 -10 -13 -7 -12 7 22 43 33 37 5 -2 4 5 -2 16 -6 11 -13 97 -16 191 -5
160 -4 170 12 165 12 -5 11 -1 -4 10 -27 20 -31 49 -7 39 15 -6 15 -4 0 19
-11 17 -15 43 -14 86 1 34 -1 64 -5 68 -4 4 -7 -55 -7 -132z"/>
<path d="M3390 6160 c0 -5 5 -10 11 -10 5 0 7 5 4 10 -3 6 -8 10 -11 10 -2 0
-4 -4 -4 -10z"/>
<path d="M3654 6085 c-3 -14 -10 -25 -15 -25 -13 0 -11 -42 5 -86 7 -22 19
-73 25 -114 25 -152 61 -217 61 -109 0 27 4 49 9 49 9 0 22 55 24 106 0 19
-11 48 -31 77 -40 60 -57 91 -44 83 6 -3 8 2 5 13 -8 31 -32 34 -39 6z"/>
<path d="M2617 6033 c-16 -36 -15 -41 12 -152 40 -160 43 -194 31 -302 -12
-103 -125 -460 -162 -512 -21 -31 -19 -65 6 -90 8 -7 16 -31 18 -53 3 -35 0
-39 -27 -48 -17 -5 -44 -15 -62 -22 -17 -8 -35 -14 -40 -14 -13 0 -63 46 -57
53 3 3 -4 8 -15 12 -12 3 -21 14 -21 24 0 10 -11 27 -25 37 -17 13 -23 25 -19
38 4 12 2 16 -4 12 -16 -10 -35 32 -28 60 5 17 2 24 -9 24 -8 0 -15 8 -15 17
0 34 -24 83 -41 83 -12 0 -16 -6 -12 -20 3 -11 9 -17 15 -14 5 3 6 -6 2 -22
-5 -21 -4 -25 6 -19 10 6 11 0 6 -29 -4 -20 -3 -36 1 -36 4 0 9 -25 10 -55 2
-62 37 -198 59 -232 18 -28 18 -37 0 -30 -15 6 -64 -27 -97 -64 -20 -23 -20
-24 -1 -39 11 -9 76 -49 146 -89 112 -65 154 -94 111 -77 -9 3 -15 0 -15 -9 0
-7 -13 -16 -30 -20 -40 -9 -39 -39 2 -85 18 -19 -45 41 -140 135 -94 93 -172
164 -172 158 0 -7 5 -15 10 -18 24 -15 9 -35 -25 -35 -29 0 -33 3 -28 18 6 14
4 15 -8 5 -14 -11 -16 -6 -15 42 1 30 -3 56 -9 58 -6 2 -10 100 -11 253 -2
262 -9 316 -54 409 -11 23 -20 50 -19 61 0 10 3 13 6 7 2 -7 11 -13 19 -13 9
0 12 5 9 10 -3 6 1 10 9 10 28 0 19 14 -38 58 -16 12 -24 22 -18 22 30 0 149
-122 198 -202 20 -32 40 -58 45 -58 6 0 7 -9 4 -21 -5 -15 -4 -19 5 -14 7 4
13 -1 17 -14 4 -17 10 -20 27 -15 28 9 34 16 18 21 -6 3 -10 9 -6 14 3 5 -6 9
-19 9 -41 0 -42 65 -1 81 18 7 17 8 -3 8 -26 1 -32 10 -53 71 -12 37 -26 52
-81 90 -37 25 -86 60 -109 78 -27 20 -55 32 -74 32 -17 0 -55 11 -83 25 -29
13 -53 22 -53 20 0 -2 5 -16 12 -30 10 -21 9 -28 -2 -35 -10 -6 5 -44 68 -172
92 -183 113 -253 113 -366 0 -42 -1 -150 -2 -240 -1 -173 3 -189 54 -234 16
-15 23 -16 36 -5 14 10 14 10 3 -4 -7 -9 -9 -25 -5 -34 4 -12 3 -16 -4 -12 -6
4 -16 0 -24 -9 -12 -14 -48 -33 -131 -67 -21 -9 -38 -17 -38 -19 -1 -2 -3 -20
-6 -40 -4 -29 0 -46 17 -70 16 -24 7 -19 -35 22 -32 30 -81 93 -110 140 -88
142 -116 179 -175 237 -108 106 -271 197 -376 209 -30 4 -55 11 -55 15 0 13
245 11 314 -2 74 -13 84 -5 14 12 -52 12 -343 23 -384 14 -13 -3 -24 -16 -28
-31 -8 -30 12 -57 59 -81 16 -9 48 -34 70 -57 23 -23 59 -56 82 -73 38 -30
110 -128 146 -198 8 -17 32 -87 52 -155 45 -149 114 -300 151 -329 30 -24 25
-35 -19 -45 -21 -5 -27 -4 -21 5 4 8 3 9 -5 5 -6 -4 -9 -11 -6 -16 3 -4 -2
-11 -11 -14 -9 -3 -12 -2 -8 5 3 6 -3 5 -14 -2 -16 -10 -24 -9 -48 8 -36 25
-81 36 -89 23 -3 -5 -15 -10 -26 -10 -20 0 -20 -1 1 -31 16 -22 21 -39 16 -60
-3 -17 -2 -28 3 -24 5 3 12 1 16 -5 14 -23 -19 -7 -97 47 -166 113 -269 145
-470 147 l-137 1 62 24 c59 22 94 33 212 66 l50 14 -60 -6 c-33 -3 -68 -10
-78 -15 -23 -12 -222 -78 -236 -78 -5 0 -22 -5 -37 -10 -20 -8 -24 -14 -16
-22 6 -6 8 -16 6 -23 -7 -16 15 -32 67 -49 80 -27 209 -75 242 -92 48 -24 177
-125 189 -147 13 -25 -15 -54 -74 -79 -24 -9 -38 -17 -32 -17 28 -2 374 140
577 237 l129 61 96 -19 c54 -11 144 -28 202 -40 91 -17 96 -19 40 -15 -36 3
-83 8 -105 11 l-40 5 24 -20 c13 -12 18 -21 12 -21 -6 0 -11 -6 -11 -12 0 -7
-14 -22 -30 -33 -34 -22 -37 -31 -15 -38 11 -4 10 -4 -2 -3 -12 1 -18 10 -17
24 0 15 -5 22 -17 22 -13 0 -16 -5 -12 -17 5 -13 2 -15 -18 -10 -13 4 -28 7
-32 7 -5 0 -5 5 -2 10 3 6 0 10 -7 10 -7 0 -18 10 -23 23 -6 12 -21 24 -35 25
-20 3 -22 2 -12 -11 9 -11 10 -17 2 -22 -10 -6 36 -57 63 -69 6 -3 -1 -4 -18
-3 -24 2 -31 -2 -33 -20 -2 -13 -7 -23 -11 -23 -5 0 -11 -42 -15 -92 -3 -51
-9 -121 -12 -156 l-6 -62 -387 1 c-343 1 -783 12 -881 22 -19 2 -57 4 -84 5
-27 1 -47 4 -44 7 3 3 84 26 179 51 199 51 497 141 519 156 12 7 10 8 -5 3
-11 -4 -90 -25 -175 -46 -85 -22 -191 -50 -235 -63 -44 -13 -102 -29 -130 -34
-132 -28 -205 -43 -260 -53 -51 -10 -57 -13 -38 -21 12 -6 23 -18 26 -27 2
-10 51 -38 123 -69 65 -29 144 -66 174 -82 30 -16 80 -38 112 -50 76 -28 88
-44 49 -64 -16 -9 -35 -16 -42 -16 -6 0 -31 -12 -54 -27 -43 -28 -70 -66 -60
-84 7 -11 145 -11 260 0 132 12 182 0 340 -80 77 -39 156 -77 175 -84 35 -12
145 -78 187 -112 36 -28 29 -43 -20 -43 -81 0 -169 -35 -263 -105 -158 -116
-249 -203 -312 -297 -55 -81 -139 -254 -129 -264 3 -3 52 10 109 31 57 20 141
50 188 67 118 42 213 47 350 18 147 -31 184 -38 274 -50 78 -11 116 -23 116
-38 0 -4 -15 -16 -34 -26 -71 -38 -242 -232 -287 -327 -20 -41 -58 -119 -85
-174 l-49 -100 3 -104 c3 -81 7 -110 21 -127 l17 -22 20 29 c29 44 138 137
236 203 78 52 99 61 205 85 149 35 291 61 330 61 17 0 47 7 66 15 45 19 73 19
80 1 5 -13 -9 -42 -122 -264 -66 -128 -82 -209 -83 -422 -1 -138 1 -164 23
-235 25 -80 25 -80 59 -80 31 0 37 5 55 40 10 22 33 65 51 95 17 30 34 67 38
81 9 38 104 177 140 204 17 13 96 56 175 97 78 40 161 88 183 107 34 29 42 32
64 23 13 -7 24 -17 24 -24 0 -7 2 -114 4 -238 4 -207 6 -231 29 -303 38 -117
166 -342 190 -334 7 2 22 0 35 -4 25 -10 30 8 11 43 -14 25 -58 223 -68 308
-7 50 -5 68 5 80 12 12 14 12 14 -1 0 -13 43 -122 83 -209 37 -81 96 -241 116
-318 12 -46 31 -104 41 -128 17 -39 23 -44 52 -44 30 0 35 5 60 58 27 59 62
164 72 217 l5 30 -15 -34 c-21 -48 -27 -33 -8 22 17 49 36 73 27 35 -3 -13 11
5 31 40 20 34 36 69 36 77 0 8 24 65 53 127 29 62 58 125 65 141 6 15 15 27
19 27 5 0 19 -21 33 -47 14 -27 79 -102 150 -173 158 -158 234 -222 248 -208
6 6 12 6 16 -1 13 -20 36 -12 36 13 0 32 -10 57 -20 51 -12 -8 -30 46 -33 97
-1 25 -5 44 -8 42 -3 -2 -12 8 -19 21 -7 14 -21 27 -31 30 -17 6 -21 14 -35
68 -5 22 -5 22 16 -2 l21 -25 -3 30 c-2 17 -11 33 -23 39 -16 9 -19 19 -17 54
2 24 10 58 18 76 7 18 10 35 7 39 -4 3 -1 6 5 6 7 0 12 14 12 30 0 17 5 30 10
30 6 0 10 16 10 35 0 19 4 35 10 35 5 0 7 6 4 13 -3 8 6 18 21 25 19 9 25 17
20 31 -3 10 1 24 10 31 23 19 26 9 9 -39 -8 -24 -13 -45 -11 -47 11 -11 107
223 106 259 l0 22 -9 -22 c-11 -28 -31 -29 -55 -3 -18 19 -17 20 3 20 23 0 28
10 13 25 -4 6 -13 29 -19 53 -10 41 -3 60 18 47 6 -3 10 -2 10 4 0 6 7 8 15 5
8 -4 15 -1 15 5 0 6 -12 11 -27 11 -16 0 -35 4 -43 10 -12 8 -12 11 3 28 13
14 14 21 5 30 -9 9 -8 16 5 29 13 13 19 15 29 5 17 -17 31 -15 24 4 -3 8 -2
12 4 9 6 -3 10 5 10 19 0 14 -4 26 -10 26 -16 0 -12 27 5 34 20 7 29 -32 17
-75 -10 -37 -6 -59 9 -59 6 0 7 5 4 10 -3 6 -1 10 4 10 14 0 14 -27 1 -35 -6
-4 -8 -16 -5 -28 6 -20 5 -21 -8 -5 -8 10 -17 15 -21 11 -3 -3 1 -15 10 -24
13 -14 15 -29 10 -60 -6 -37 -5 -41 8 -29 13 10 18 7 33 -20 159 -289 285
-422 464 -487 193 -70 243 -83 292 -77 53 8 62 27 22 46 -14 6 -39 34 -57 62
-34 57 -87 108 -102 99 -5 -4 -7 1 -3 10 6 17 -18 31 -35 21 -5 -4 7 -25 29
-48 29 -32 26 -30 -15 9 -48 46 -71 73 -37 45 8 -7 16 -9 16 -4 6 41 7 36 -34
89 -13 17 -28 44 -32 60 -12 45 -12 44 -15 53 -1 4 -2 11 -1 16 1 4 -3 14 -9
21 -5 6 -14 93 -20 191 -7 127 -16 205 -33 269 -12 50 -22 104 -22 120 1 17
-3 33 -8 36 -5 4 1 15 13 26 l21 20 -22 6 c-32 9 -12 30 22 23 16 -3 29 -4 29
-2 0 1 -45 48 -100 104 -55 55 -100 103 -100 106 0 3 8 2 17 -1 12 -5 15 -2
10 10 -8 22 30 44 47 27 6 -6 7 -11 1 -10 -5 2 -17 2 -25 1 -13 -1 -13 -3 -1
-10 8 -5 20 -7 27 -4 15 5 27 -28 18 -50 -3 -10 2 -21 15 -29 12 -7 21 -16 21
-21 0 -4 10 -21 22 -37 15 -21 25 -27 34 -20 8 8 20 1 39 -22 38 -45 51 -81
60 -161 4 -41 10 -65 17 -61 5 4 33 -16 61 -43 56 -54 113 -94 210 -150 82
-46 118 -59 260 -88 159 -33 297 -32 452 3 l40 9 -65 32 c-36 17 -96 54 -135
81 -38 27 -78 50 -87 50 -10 0 -20 10 -24 24 -5 19 -12 24 -35 24 -16 -1 -35
6 -42 14 -7 9 -24 18 -39 22 -16 4 -28 13 -28 21 0 8 -7 15 -16 15 -8 0 -12 5
-9 10 10 16 -5 50 -21 50 -8 0 -14 7 -14 15 0 8 -9 15 -21 15 -11 0 -18 4 -15
9 6 10 -16 61 -26 61 -5 0 -8 9 -8 20 0 25 -21 70 -32 70 -6 0 -8 6 -6 12 3 7
-1 19 -9 26 -11 12 -18 41 -14 65 0 4 -4 7 -9 7 -6 0 -10 9 -10 19 0 11 -3 21
-7 23 -11 4 -103 190 -103 206 0 7 -4 10 -10 7 -6 -3 -7 1 -4 9 3 9 11 16 18
16 7 0 6 4 -3 9 -11 7 -11 13 0 32 25 48 38 54 67 32 15 -11 38 -40 52 -66 14
-26 29 -47 33 -47 5 0 42 -16 83 -35 83 -40 177 -65 243 -65 24 0 73 -5 107
-11 140 -24 483 70 563 154 l20 22 -147 1 c-115 1 -162 6 -217 22 -65 19 -67
20 -30 21 l39 1 -54 33 c-30 17 -59 42 -65 55 -6 14 -16 21 -26 19 -10 -3 -34
10 -55 29 -22 18 -42 34 -46 34 -5 0 -8 7 -8 16 0 8 -3 13 -7 11 -5 -3 -17 4
-27 14 -25 24 -18 24 41 -3 26 -12 57 -26 68 -30 19 -7 18 -7 -1 10 -12 9 -36
25 -54 34 -17 10 -28 22 -25 28 3 5 1 10 -5 10 -21 0 -49 43 -39 61 4 9 5 20
1 24 -4 4 3 2 16 -4 17 -9 22 -9 22 1 0 13 30 29 80 43 14 4 72 29 130 55 58
27 130 57 160 68 30 10 123 44 206 74 84 31 194 68 245 82 96 28 179 62 214
89 47 37 -13 41 -737 55 -262 5 -361 11 -370 20 -6 6 -17 12 -22 12 -6 0 -4
-5 4 -10 10 -7 -45 -9 -175 -5 -104 3 -223 5 -264 5 -87 0 -89 7 -5 18 l59 7
1 258 c0 141 3 259 5 261 4 4 133 -58 187 -89 29 -17 33 -18 44 -3 7 8 54 28
103 43 50 15 118 42 152 61 77 43 232 189 268 252 15 26 41 68 57 95 43 68 99
187 88 187 -5 0 -40 -27 -78 -59 -106 -91 -199 -149 -287 -178 -77 -26 -89
-27 -320 -29 -155 -1 -217 1 -175 6 36 5 85 11 108 14 48 6 102 26 102 38 0 5
8 8 18 9 11 0 7 4 -10 11 -28 9 -38 28 -17 28 6 0 9 6 6 13 -2 6 -10 11 -17 9
-7 -1 -17 4 -24 12 -6 9 -46 22 -96 30 -167 29 -259 50 -264 61 -2 6 9 10 28
9 17 -1 21 1 9 3 -31 6 -29 27 3 42 16 7 24 17 21 26 -3 7 2 19 11 27 11 9 14
10 8 1 -4 -7 -4 -13 0 -13 8 0 113 83 114 90 0 3 -18 5 -40 3 -22 -1 -40 2
-40 8 0 5 7 9 16 9 9 0 14 6 12 12 -3 7 10 34 29 60 18 26 33 52 33 56 0 5 9
17 20 27 11 10 20 24 20 32 0 7 5 13 11 13 5 0 7 5 4 10 -3 6 1 10 9 10 9 0
16 5 16 10 0 6 9 10 20 10 11 0 20 5 20 10 0 6 -4 10 -10 10 -5 0 -10 5 -10
10 0 6 6 10 13 10 16 0 77 29 77 37 0 3 -16 2 -35 -1 -29 -6 -34 -4 -29 9 3 8
10 15 16 15 5 0 7 4 3 9 -3 5 9 24 26 43 55 58 69 89 69 149 0 55 1 56 47 90
63 45 75 52 163 94 158 76 200 100 200 115 0 12 -2 12 -9 2 -6 -10 -15 -3 -36
25 -16 21 -49 62 -74 91 l-44 53 -145 -148 c-129 -132 -177 -172 -83 -69 20
21 30 36 23 31 -9 -4 -12 -2 -11 6 4 19 -11 61 -28 81 -10 11 -11 18 -4 23 6
3 11 17 11 31 0 22 44 122 59 134 3 3 6 12 6 20 0 23 19 15 94 -40 38 -28 74
-50 80 -50 6 0 26 15 44 33 19 17 63 57 98 87 67 58 129 117 129 125 0 2 -8 2
-17 -2 -10 -3 -15 -3 -11 2 4 4 17 8 30 9 31 1 200 156 170 156 -4 0 -21 -12
-38 -27 -18 -16 -35 -29 -40 -30 -8 -1 -270 -125 -361 -170 -18 -9 -31 -20
-30 -24 1 -5 -17 -18 -40 -29 -24 -10 -43 -15 -43 -10 0 6 -5 10 -11 10 -5 0
-7 -5 -4 -10 4 -7 -2 -9 -19 -4 -31 7 -61 -23 -119 -118 -130 -214 -187 -293
-298 -413 -37 -39 -74 -87 -84 -105 -23 -45 -111 -129 -152 -146 -18 -8 -49
-14 -69 -14 -20 0 -84 -12 -143 -26 -149 -35 -155 -37 -168 -40 -17 -3 -17 33
0 43 21 14 117 169 117 190 0 4 -16 -18 -35 -50 -46 -76 -116 -170 -122 -164
-2 3 3 16 11 29 15 23 13 38 -6 38 -4 0 -8 -5 -8 -11 0 -5 5 -7 12 -3 7 5 8 3
3 -5 -5 -9 -13 -7 -31 10 -29 28 -29 28 -1 22 17 -4 19 -2 8 5 -12 9 -9 12 15
18 16 4 47 19 69 33 l40 26 -64 3 c-60 3 -63 4 -57 25 4 12 8 31 10 42 1 11 8
31 15 43 11 20 10 26 -6 38 -10 7 -26 14 -35 14 -25 0 -22 21 7 65 22 31 13
25 -52 -33 -85 -76 -233 -195 -233 -187 0 3 17 24 38 47 20 23 30 38 22 33
-15 -8 -4 6 53 69 15 17 31 46 36 63 5 18 17 40 26 49 9 10 15 24 12 33 -2 9
2 22 10 29 19 18 16 35 -4 28 -10 -3 -1 10 20 29 21 20 43 33 49 29 6 -4 8 -3
5 3 -4 6 10 30 31 54 40 47 80 101 98 134 6 11 20 36 31 55 11 19 23 53 27 75
l6 40 -25 -30 c-14 -16 -45 -71 -70 -120 -37 -76 -60 -106 -137 -182 -78 -77
-111 -100 -198 -145 -58 -30 -133 -74 -166 -99 -34 -24 -70 -49 -79 -55 -17
-10 -15 -16 26 -95 l44 -84 -22 -105 c-12 -58 -26 -143 -32 -189 -6 -46 -16
-91 -23 -99 -10 -12 -10 -14 0 -8 9 5 12 -5 12 -42 0 -48 1 -49 43 -68 23 -10
88 -49 145 -87 118 -77 337 -287 348 -334 4 -15 15 -40 25 -54 10 -14 38 -68
63 -120 25 -52 49 -98 53 -104 4 -5 9 -17 10 -25 1 -8 13 -59 27 -113 53 -203
58 -396 15 -593 -108 -500 -469 -875 -970 -1009 -51 -13 -127 -27 -168 -29
l-76 -5 80 13 c220 38 389 100 535 194 255 166 454 425 544 709 99 315 67 686
-84 985 -51 102 -109 178 -255 335 -151 163 -379 287 -645 350 -59 14 -117 18
-275 18 -174 0 -212 -3 -290 -23 -263 -66 -525 -221 -697 -412 -152 -170 -252
-371 -304 -611 -23 -106 -26 -370 -5 -474 41 -208 137 -429 231 -535 29 -32
33 -25 5 10 -17 22 -67 110 -62 110 2 0 17 -19 33 -42 50 -74 206 -252 250
-287 15 -12 22 -21 17 -21 -5 0 -37 25 -71 56 -78 70 -81 57 -4 -18 81 -79
194 -158 314 -216 171 -85 324 -124 549 -142 l114 -9 -127 4 c-203 7 -366 48
-553 141 -192 95 -401 270 -499 418 -106 160 -181 337 -217 508 -28 134 -30
353 -5 481 44 226 149 449 289 611 54 62 197 191 269 242 124 88 320 169 510
210 110 24 386 24 503 0 80 -16 102 -13 85 14 -7 10 -10 11 -10 3 0 -7 -4 -13
-10 -13 -5 0 -10 7 -10 16 0 9 -6 14 -12 11 -21 -7 -68 31 -61 50 5 12 3 14
-8 8 -8 -4 -11 -5 -7 0 4 4 3 14 -4 22 -10 12 -7 13 18 8 25 -5 27 -5 10 6
-15 9 -24 9 -38 0 -20 -13 -24 -1 -6 17 7 7 8 12 2 12 -17 0 -33 -22 -27 -39
4 -12 3 -13 -5 -2 -6 8 -19 11 -33 7 -23 -6 -23 -5 1 7 30 14 32 27 7 51 -14
14 -20 16 -32 6 -19 -16 -19 -30 0 -30 8 0 15 -4 15 -10 0 -14 -11 -12 -31 6
-10 9 -15 22 -12 30 3 8 1 14 -5 14 -5 0 -12 -13 -14 -29 -3 -22 -1 -28 11
-23 9 3 12 1 7 -6 -4 -7 -14 -12 -22 -12 -8 0 -14 -9 -14 -20 0 -11 -4 -20 -9
-20 -14 0 -7 70 8 79 11 7 11 9 0 13 -9 3 -12 38 -10 146 1 78 0 142 -3 142
-3 0 -27 -5 -53 -10 -26 -6 -66 -12 -88 -14 -22 -3 -116 -12 -210 -21 -93 -10
-187 -22 -208 -27 l-38 -9 5 -57 c5 -57 5 -57 -6 -14 -6 23 -15 42 -19 42 -5
0 -42 -16 -83 -36 -101 -47 -126 -48 -146 -6 -9 18 -19 29 -24 25 -13 -13 5
70 21 96 19 30 82 196 134 356 56 170 62 288 25 469 -15 71 -31 137 -37 147
-15 29 -33 23 -52 -18z m3348 -113 c-3 -5 -12 -10 -18 -10 -7 0 -6 4 3 10 19
12 23 12 15 0z m-39 -18 c-7 -12 -204 -109 -236 -117 -14 -3 34 23 105 59 147
73 138 69 131 58z m-4070 -343 c4 -8 1 -8 -14 0 -12 6 -24 16 -28 22 -4 8 -1
8 14 0 12 -6 24 -16 28 -22z m2444 -173 c0 -2 -7 -7 -16 -10 -8 -3 -12 -2 -9
4 6 10 25 14 25 6z m1045 -102 c26 -25 45 -48 42 -51 -3 -3 -16 7 -29 21 l-23
27 -72 -73 c-69 -69 -97 -100 -71 -78 7 5 20 10 30 10 26 0 23 -32 -6 -59 -15
-14 -22 -30 -19 -40 3 -9 -16 5 -43 31 l-49 48 70 73 c39 40 77 88 84 105 7
18 19 32 26 32 7 0 34 -21 60 -46z m183 3 c6 0 12 -1 12 -2 0 -5 -108 -75
-116 -75 -20 0 -12 40 14 65 20 20 32 25 51 19 15 -3 32 -7 39 -7z m-133 -157
c-3 -5 -11 -10 -16 -10 -6 0 -7 5 -4 10 3 6 11 10 16 10 6 0 7 -4 4 -10z m-15
-29 c0 -30 -111 -164 -168 -202 l-47 -32 58 59 c57 59 100 113 79 100 -6 -3
-14 -1 -18 5 -4 7 -3 9 3 6 6 -4 19 0 29 8 18 13 17 14 -6 8 l-25 -6 20 23
c27 30 75 50 75 31z m-263 -17 c3 -9 -190 -203 -355 -357 -43 -40 -50 -51 -42
-67 7 -13 7 -21 -2 -26 -6 -4 -8 -3 -5 2 3 6 2 16 -3 24 -6 10 -43 -20 -142
-117 -73 -71 -156 -151 -184 -176 -49 -45 -84 -60 -84 -36 0 7 62 73 138 148
76 75 106 107 67 71 -38 -36 -16 -10 50 58 108 110 149 145 129 110 -4 -7 7 0
24 16 17 16 28 34 25 40 -3 6 -3 8 2 4 4 -4 13 -2 20 5 6 7 56 53 109 102 53
50 127 118 164 152 64 60 82 69 89 47z m10 -53 c0 -11 -5 -17 -9 -15 -4 3 -8
0 -8 -6 0 -14 -51 -56 -63 -52 -5 1 -6 -1 -3 -6 3 -5 -12 -26 -34 -46 -22 -20
-40 -35 -40 -32 0 2 -22 -18 -49 -45 -27 -26 -52 -45 -56 -41 -5 4 -6 0 -3 -8
3 -8 -2 -22 -10 -30 -14 -13 -15 -12 -9 3 3 9 4 17 1 17 -2 0 -9 -12 -14 -26
-6 -16 -14 -22 -22 -18 -9 6 -9 9 0 12 7 2 12 8 12 13 0 13 268 273 286 277 8
2 12 8 9 13 -4 5 -2 9 4 9 5 0 9 -9 8 -19z m-632 -7 c-16 -7 -41 -13 -55 -13
-25 1 -24 1 4 14 16 7 41 12 55 12 26 0 26 0 -4 -13z m-360 -122 c-3 -3 -11 0
-18 7 -9 10 -8 11 6 5 10 -3 15 -9 12 -12z m55 -17 c17 -9 30 -18 30 -21 0 -4
-59 23 -69 32 -10 9 13 3 39 -11z m124 -69 c80 -47 181 -119 191 -137 4 -6
-20 10 -54 34 -33 25 -97 67 -141 93 -73 43 -89 54 -75 54 2 0 38 -20 79 -44z
m-1487 2 c-3 -7 -5 -2 -5 12 0 14 2 19 5 13 2 -7 2 -19 0 -25z m30 -10 c-3 -8
-6 -5 -6 6 -1 11 2 17 5 13 3 -3 4 -12 1 -19z m186 12 c3 6 4 5 3 -2 -4 -18
-28 -16 -34 2 -4 13 -3 13 10 2 11 -9 18 -9 21 -2z m79 -19 c-8 -4 -13 -11
-12 -15 1 -4 -1 -12 -3 -19 -3 -7 -6 -5 -6 6 -1 10 -9 17 -22 17 -11 0 -17 5
-14 10 3 6 21 10 38 10 21 0 28 -3 19 -9z m83 -1 c-3 -5 -1 -10 5 -10 6 0 8
-4 5 -10 -10 -16 -23 -11 -20 8 5 23 4 22 11 22 3 0 2 -4 -1 -10z m-290 -10
c-3 -5 -1 -10 5 -10 6 0 8 -5 4 -11 -5 -8 -9 -8 -14 1 -9 15 -17 14 -36 -5
-13 -12 -14 -19 -4 -30 7 -8 17 -12 24 -8 6 4 18 8 26 10 12 1 11 -1 -2 -11
-14 -10 -15 -15 -5 -26 8 -9 9 -11 0 -6 -6 3 -23 1 -37 -5 -24 -11 -24 -13 -8
-25 11 -9 13 -13 4 -14 -7 0 -11 -4 -7 -9 3 -6 -4 -9 -15 -8 -18 1 -20 8 -20
72 0 39 4 64 8 57 7 -9 13 -8 27 8 10 11 21 17 26 15 4 -3 10 -1 14 5 3 5 8
10 11 10 3 0 2 -4 -1 -10z m62 3 c-4 -3 -2 -12 4 -20 9 -10 8 -13 -4 -13 -8 0
-17 6 -20 14 -6 15 1 26 16 26 6 0 7 -3 4 -7z m190 -19 c-3 -4 -14 -3 -24 0
-15 6 -15 8 -3 16 16 10 39 -4 27 -16z m-111 -24 c8 0 14 -3 14 -7 0 -5 -20
-9 -45 -11 -25 -1 -45 1 -45 6 0 11 54 30 58 20 2 -4 10 -8 18 -8z m-697 7
c-2 -1 -13 -9 -24 -17 -19 -14 -19 -14 -6 3 7 9 18 17 24 17 6 0 8 -1 6 -3z
m771 -12 c-7 -8 -17 -12 -22 -9 -6 4 -5 10 3 15 22 14 33 10 19 -6z m1590 11
c0 -2 -8 -10 -17 -17 -16 -13 -17 -12 -4 4 13 16 21 21 21 13z m75 -36 c3 -5
1 -10 -4 -10 -6 0 -11 5 -11 10 0 6 2 10 4 10 3 0 8 -4 11 -10z m-2250 -10
c-9 -14 19 -12 35 3 12 10 12 9 0 -6 -10 -13 -21 -16 -44 -11 -43 9 -50 19
-15 21 17 1 27 -2 24 -7z m585 0 c12 -8 11 -10 -7 -10 -13 0 -23 5 -23 10 0
13 11 13 30 0z m1660 -14 c0 -11 -19 -15 -25 -6 -3 5 1 10 9 10 9 0 16 -2 16
-4z m-2296 -21 c3 -8 11 -15 18 -14 10 0 10 2 1 6 -18 7 -16 23 2 23 8 0 15
-4 15 -8 0 -5 10 -8 23 -8 45 2 20 -29 -68 -81 -80 -47 -85 -50 -50 -18 22 19
45 35 50 35 6 1 -6 9 -25 18 -37 18 -39 39 -3 34 17 -2 21 1 17 13 -3 8 -2 15
4 15 5 0 12 -7 16 -15z m2260 6 c3 -5 -1 -11 -9 -14 -9 -4 -12 -1 -8 9 6 16
10 17 17 5z m-3289 -44 c7 -7 5 -7 -5 -2 -8 4 -1 -7 16 -26 17 -19 40 -59 51
-89 41 -108 65 -192 59 -205 -3 -8 3 -19 12 -24 16 -9 15 -10 -3 -17 -11 -4
-28 -14 -38 -22 -16 -15 -17 -14 -11 2 5 12 2 17 -7 16 -38 -6 -40 -2 -121
273 -6 20 -15 37 -19 37 -15 0 -22 62 -8 71 16 9 59 1 74 -14z m1378 -37 c-8
-30 -21 -34 -15 -5 2 14 8 25 12 25 5 0 6 -9 3 -20z m1816 -21 c-17 -17 -33
-28 -36 -25 -6 6 46 56 59 56 5 0 -5 -14 -23 -31z m-568 -15 c67 -35 179 -111
149 -101 -22 7 -236 137 -226 137 4 0 39 -16 77 -36z m-1082 2 c-3 -3 -43 -19
-89 -36 -131 -48 -340 -171 -400 -235 -13 -14 -28 -25 -34 -25 -34 0 123 123
239 186 83 46 306 132 284 110z m2131 -20 c0 -3 -15 -14 -32 -26 l-33 -22 30
26 c31 27 35 29 35 22z m-1534 -70 c107 -23 188 -52 299 -107 236 -119 382
-262 495 -488 96 -193 131 -337 131 -541 -1 -169 -43 -355 -113 -495 -35 -69
-125 -198 -175 -251 -26 -28 -43 -43 -36 -35 6 9 12 19 12 24 1 4 2 6 4 5 4
-4 69 73 103 122 65 95 132 262 163 404 17 75 21 127 19 238 l-1 143 -7 -155
c-4 -91 -14 -186 -25 -230 -73 -307 -259 -557 -533 -719 -89 -52 -71 -35 39
38 253 168 408 389 480 686 18 71 22 120 22 230 1 190 -29 320 -110 493 -43
91 -162 250 -243 326 -287 265 -705 362 -1080 249 -190 -57 -337 -146 -486
-297 -148 -150 -233 -302 -286 -513 -19 -74 -22 -115 -22 -253 1 -145 4 -177
27 -263 35 -132 155 -382 175 -363 3 4 0 12 -6 18 -7 7 -12 16 -12 21 0 5 20
-17 44 -50 24 -32 73 -87 107 -122 35 -35 55 -59 44 -54 -23 12 -119 112 -152
158 -13 17 -23 25 -23 18 0 -20 191 -213 254 -256 34 -23 97 -61 141 -84 44
-23 76 -43 72 -43 -21 0 -178 90 -252 144 -106 78 -191 165 -247 251 -138 212
-196 399 -200 637 -1 99 -3 112 -9 68 -5 -43 -6 -36 -3 30 2 47 11 113 19 148
19 80 74 224 84 218 4 -3 7 5 7 17 -1 13 4 21 12 19 8 -1 11 2 7 7 -9 15 24
73 37 65 7 -4 8 -3 4 5 -10 16 22 64 36 55 7 -4 8 -3 4 4 -17 28 165 222 279
299 147 99 348 171 545 197 67 8 286 -2 356 -18z m-1619 -24 c-28 -29 -36 -49
-15 -36 15 9 6 -4 -57 -91 -63 -87 -84 -122 -157 -260 -31 -60 -57 -104 -58
-97 0 17 84 183 126 250 36 55 41 67 24 57 -21 -13 -8 9 50 83 92 118 94 121
104 122 6 0 -2 -13 -17 -28z m2548 18 c3 -5 1 -10 -4 -10 -6 0 -11 5 -11 10 0
6 2 10 4 10 3 0 8 -4 11 -10z m346 -189 c62 -92 149 -248 149 -268 0 -4 -26
40 -59 98 -50 90 -114 185 -228 339 -16 22 -8 16 21 -15 25 -27 78 -97 117
-154z m-545 150 c-6 -9 -46 -22 -46 -15 0 3 10 9 23 14 29 11 29 11 23 1z
m-841 -26 c108 -10 262 -58 365 -112 38 -20 48 -32 62 -74 18 -51 17 -52 -20
-42 -18 4 -20 8 -10 14 10 7 10 9 0 9 -7 0 -40 13 -72 29 -32 16 -61 27 -64
24 -3 -3 -11 -1 -18 4 -16 12 -84 32 -147 43 -25 4 -57 11 -71 15 -48 12 -251
15 -293 5 -87 -23 -83 -22 -67 -11 13 9 13 11 -2 11 -10 0 -18 -6 -18 -14 0
-7 -12 -16 -27 -19 -47 -9 -144 -58 -137 -68 3 -6 13 -7 23 -4 31 14 186 55
201 54 8 0 -21 -10 -65 -23 -94 -26 -170 -59 -249 -110 -32 -20 -62 -33 -68
-30 -6 4 -8 3 -5 -3 4 -6 -8 -22 -26 -36 -122 -93 -235 -254 -287 -410 -26
-75 -41 -96 -30 -39 10 50 36 119 61 161 11 19 18 40 15 48 -3 8 -2 12 3 9 12
-8 44 42 36 55 -4 5 -1 8 6 7 6 -2 14 3 17 11 3 9 0 11 -9 6 -8 -5 -6 1 5 13
10 12 22 19 26 17 11 -7 33 22 26 33 -3 5 9 22 26 38 17 16 28 23 24 17 -4 -7
-3 -13 3 -13 10 0 35 37 36 53 0 11 28 27 37 21 5 -3 7 -1 6 5 -2 5 12 21 31
35 52 39 28 31 -29 -9 -27 -19 -53 -35 -56 -35 -3 0 -19 -9 -34 -20 -25 -17
-29 -18 -34 -4 -34 88 40 171 222 250 64 28 78 31 85 19 6 -12 12 -10 30 11
20 22 31 26 90 27 37 1 67 5 67 8 0 11 109 32 142 27 18 -2 47 -1 63 2 17 4
37 6 45 4 8 -1 47 -6 85 -9z m62 -121 c-3 -3 -12 -4 -19 -1 -8 3 -5 6 6 6 11
1 17 -2 13 -5z m-280 -10 c-3 -3 -12 -4 -19 -1 -8 3 -5 6 6 6 11 1 17 -2 13
-5z m347 -3 c19 -7 18 -8 -4 -14 -13 -3 -26 -4 -29 -2 -2 3 2 5 10 6 8 1 3 5
-11 9 -20 6 -21 8 -5 8 11 0 29 -3 39 -7z m723 -87 c26 -30 56 -69 67 -87 16
-27 14 -26 -15 8 -18 22 -63 71 -99 109 -43 46 -54 62 -32 47 17 -12 53 -47
79 -77z m-1877 73 c0 -1 -26 -27 -57 -57 l-56 -55 47 58 c40 47 66 69 66 54z
m1278 -31 c221 -93 408 -272 504 -483 110 -243 109 -561 -2 -784 -41 -82 -83
-149 -93 -149 -5 0 4 19 18 43 176 282 189 624 36 925 -30 59 -47 82 -34 45 3
-10 -18 14 -46 52 -29 39 -83 100 -119 138 -37 37 -63 67 -58 67 5 0 3 7 -4
15 -18 21 -35 19 -19 -2 11 -15 10 -15 -8 1 -13 10 -20 23 -16 29 4 6 0 8 -10
4 -10 -4 -16 -2 -14 6 1 7 -6 11 -15 11 -10 -1 -15 2 -13 7 8 11 -53 41 -67
33 -6 -4 -8 -3 -5 4 4 6 -21 21 -63 38 -38 15 -70 29 -70 31 0 8 24 1 98 -31z
m-1944 -23 c-16 -27 -52 -95 -81 -153 -29 -58 -53 -99 -53 -92 0 27 142 292
157 292 3 0 -8 -21 -23 -47z m-209 27 c3 -5 -1 -10 -10 -10 -9 0 -13 5 -10 10
3 6 8 10 10 10 2 0 7 -4 10 -10z m2407 -23 c32 -23 58 -43 103 -84 29 -26 71
-84 79 -111 5 -13 12 -20 19 -16 7 4 7 2 -1 -7 -8 -9 -15 -10 -20 -4 -4 6 -28
21 -54 34 -26 13 -45 27 -42 32 2 4 -5 6 -16 4 -11 -2 -18 0 -16 4 7 11 -64
77 -92 86 -12 3 -19 11 -16 17 4 6 7 24 6 39 -1 35 5 36 50 6z m-1941 -19
c-11 -18 -42 -68 -68 -110 -26 -42 -49 -76 -50 -74 -2 1 11 29 28 62 17 32 38
73 47 89 14 26 49 64 60 65 2 0 -5 -15 -17 -32z m584 -82 c10 -63 0 -88 -33
-84 -22 2 -26 7 -24 28 2 14 10 35 18 47 13 20 12 22 -3 16 -16 -6 -16 -4 1
15 27 31 34 28 41 -22z m-295 20 c0 -2 -8 -10 -17 -17 -16 -13 -17 -12 -4 4
13 16 21 21 21 13z m948 -13 c16 -4 21 -10 17 -23 -4 -12 1 -22 12 -29 10 -5
14 -13 10 -17 -6 -7 40 -34 68 -39 6 -1 12 -3 15 -4 3 -1 79 -3 170 -5 142 -2
174 -6 230 -26 110 -39 166 -83 226 -177 19 -29 34 -54 34 -57 0 -3 11 -29 24
-58 59 -127 83 -268 65 -381 -11 -70 -37 -147 -50 -147 -5 0 -9 -6 -9 -14 0
-16 -91 -96 -109 -96 -6 0 -11 -4 -11 -10 0 -5 -8 -10 -18 -10 -10 0 -22 -4
-28 -10 -20 -20 -128 -23 -190 -5 -133 39 -282 158 -340 273 -11 20 -22 38
-26 40 -4 2 -5 9 -2 17 3 7 1 16 -5 20 -6 3 -11 19 -11 35 l0 30 33 -20 c33
-20 73 -26 93 -12 23 16 41 54 36 77 -2 14 -17 35 -33 46 -29 20 -30 20 -67 2
-21 -10 -44 -32 -53 -51 l-17 -33 -20 33 c-11 18 -29 62 -40 98 -11 36 -31 98
-43 138 -19 59 -26 72 -40 69 -10 -3 -20 1 -23 9 -6 15 -38 19 -50 7 -4 -5
-11 -8 -14 -8 -13 0 -77 -48 -107 -81 -79 -83 -137 -209 -139 -301 0 -29 -4
-53 -7 -53 -7 0 -24 -108 -21 -123 2 -5 -7 -22 -18 -38 -12 -16 -19 -29 -16
-29 3 0 -5 -12 -18 -26 -13 -15 -30 -34 -38 -43 -9 -9 -31 -31 -51 -49 l-36
-32 -34 35 c-19 19 -38 35 -43 35 -10 0 -54 64 -54 79 0 5 -7 22 -15 37 -8 16
-15 39 -15 52 0 13 -4 21 -9 17 -28 -17 -25 212 4 325 36 137 169 366 213 364
14 0 25 9 34 30 11 28 38 65 38 53 0 -3 14 8 32 24 45 43 65 52 72 33 3 -8 2
-12 -4 -9 -6 3 -10 4 -10 1 0 -3 9 -10 21 -16 15 -8 24 -8 34 0 8 7 19 9 25 5
5 -3 10 -2 10 3 0 12 59 37 67 28 3 -3 12 -1 19 5 29 24 154 31 232 12z m1362
-75 c0 -17 -30 12 -47 46 l-15 31 31 -33 c17 -18 31 -38 31 -44z m419 -148 c0
-8 -11 12 -24 44 -14 33 -25 62 -24 65 1 12 49 -94 48 -109z m-369 58 c0 -7 9
-24 20 -38 21 -26 27 -56 10 -45 -8 5 -50 82 -50 92 0 10 20 1 20 -9z m637
-114 c-3 -3 -12 -4 -19 -1 -8 3 -5 6 6 6 11 1 17 -2 13 -5z m-1142 -64 c9 -16
13 -30 11 -30 -3 0 -12 14 -21 30 -9 17 -13 30 -11 30 3 0 12 -13 21 -30z
m-2520 -50 c3 -5 1 -10 -4 -10 -6 0 -11 5 -11 10 0 6 2 10 4 10 3 0 8 -4 11
-10z m774 -230 c-20 -113 -6 -281 35 -415 14 -44 14 -48 1 -30 -20 26 -43 102
-57 190 -10 68 -5 254 8 303 13 44 22 7 13 -48z m1838 -62 c-3 -7 -5 -2 -5 12
0 14 2 19 5 13 2 -7 2 -19 0 -25z m686 -95 c-7 -2 -19 -2 -25 0 -7 3 -2 5 12
5 14 0 19 -2 13 -5z m-2766 -85 c-2 -13 -4 -5 -4 17 -1 22 1 32 4 23 2 -10 2
-28 0 -40z m2070 -60 c-3 -7 -5 -2 -5 12 0 14 2 19 5 13 2 -7 2 -19 0 -25z
m-2710 -25 c-3 -10 -5 -2 -5 17 0 19 2 27 5 18 2 -10 2 -26 0 -35z m650 -5
c-3 -8 -6 -5 -6 6 -1 11 2 17 5 13 3 -3 4 -12 1 -19z m80 -90 c-3 -8 -6 -5 -6
6 -1 11 2 17 5 13 3 -3 4 -12 1 -19z m1899 -117 c-20 -39 -38 -71 -41 -71 -3
0 12 34 32 75 20 41 39 73 41 71 2 -2 -13 -36 -32 -75z m-1666 18 c12 -22 19
-46 17 -52 -4 -12 -47 64 -47 83 0 19 10 10 30 -31z m-123 -166 c-4 -4 -67
123 -67 134 1 5 17 -23 36 -61 19 -38 33 -71 31 -73z m203 27 c11 -21 20 -43
20 -47 -1 -16 -40 42 -40 59 0 9 -6 19 -12 21 -10 4 -10 6 -1 6 7 1 22 -17 33
-39z m1521 8 c-11 -18 -25 -34 -32 -37 -7 -2 0 13 16 33 34 45 44 47 16 4z
m-61 -78 c-28 -39 -133 -132 -193 -170 -66 -41 -147 -82 -157 -78 -5 2 34 26
87 53 73 38 117 71 187 137 50 48 92 87 94 88 2 0 -6 -13 -18 -30z m155 10 c3
-5 1 -10 -4 -10 -6 0 -11 5 -11 10 0 6 2 10 4 10 3 0 8 -4 11 -10z m-31 -56
c-18 -15 -18 -15 1 -10 17 5 16 2 -6 -17 -14 -13 -24 -28 -21 -35 6 -18 -15
-14 -22 4 -10 27 -7 43 16 78 22 33 23 33 36 14 12 -17 12 -21 -4 -34z m-1491
6 c10 -37 -22 -18 -36 23 -5 14 -3 16 12 8 10 -6 21 -20 24 -31z m1360 -14
c-4 -8 -28 -32 -53 -53 -80 -68 -87 -68 -15 0 75 70 81 75 68 53z m-2368 -91
c43 -106 100 -213 165 -310 60 -91 65 -100 53 -92 -18 11 -120 169 -165 257
-46 87 -98 211 -98 232 0 19 6 7 45 -87z m1076 49 c23 -19 51 -42 63 -49 11
-8 17 -17 13 -21 -7 -7 -107 70 -120 92 -12 22 -2 17 44 -22z m-306 -31 c21
-27 28 -39 16 -28 -23 19 -66 75 -59 75 2 0 21 -21 43 -47z m1599 6 c-3 -5 -1
-16 5 -23 16 -19 -2 -62 -29 -71 -11 -3 -18 -10 -15 -15 3 -5 -15 -21 -41 -36
-38 -22 -48 -25 -55 -13 -6 10 -9 10 -9 2 0 -7 -4 -13 -9 -13 -4 0 -6 12 -3
27 6 31 51 75 71 67 11 -4 12 -2 1 11 -12 14 -7 19 13 16 5 -1 11 8 14 19 3
11 11 20 18 20 7 0 16 7 19 16 3 8 10 12 16 9 6 -4 8 -11 4 -16z m340 -41
c-39 -69 -236 -269 -250 -255 -4 4 241 261 254 266 2 1 0 -5 -4 -11z m-1494
-39 c0 -6 -7 -6 -20 1 -11 6 -20 15 -20 21 0 6 7 6 20 -1 11 -6 20 -15 20 -21z
m-625 -25 c26 -34 27 -36 8 -56 -28 -31 -160 -146 -143 -124 8 10 15 24 15 30
0 17 78 186 86 186 4 0 19 -16 34 -36z m-1225 -11 c0 -9 -8 -22 -17 -29 -16
-12 -15 -14 14 -24 34 -12 49 -35 31 -46 -6 -4 -2 -12 13 -20 19 -11 20 -13 6
-14 -59 -1 -234 -102 -332 -191 l-54 -50 6 38 c6 41 39 103 54 103 6 0 8 4 5
9 -13 21 156 201 203 216 12 3 21 11 21 16 0 6 5 7 10 4 6 -3 10 -2 10 4 0 6
7 8 15 5 8 -4 15 -13 15 -21z m1926 2 c10 -8 14 -15 8 -15 -5 0 -19 7 -30 15
-10 8 -14 15 -8 15 5 0 19 -7 30 -15z m1279 -5 c-11 -13 -12 -19 -3 -28 13
-13 3 -16 -33 -13 -10 1 -16 -6 -16 -16 0 -33 -3 -43 -12 -43 -4 0 -6 12 -3
26 4 21 2 25 -9 19 -11 -7 -11 -6 0 9 9 11 24 16 38 13 13 -2 23 0 23 4 0 5
-4 9 -10 9 -5 0 -10 5 -10 11 0 5 5 7 12 3 7 -5 9 -2 6 7 -4 10 1 15 13 15 16
0 17 -2 4 -16z m735 -20 c-6 -12 -14 -20 -17 -17 -2 3 1 14 8 26 17 26 24 19
9 -9z m775 2 c-3 -3 -11 0 -18 7 -9 10 -8 11 6 5 10 -3 15 -9 12 -12z m-2079
-1 c-7 -11 -145 -48 -211 -56 -36 -5 -46 -4 -35 4 8 6 29 11 45 11 22 1 161
34 203 49 2 1 1 -3 -2 -8z m-536 -27 c36 -8 103 -18 150 -24 l85 -9 -105 4
c-106 4 -204 24 -224 46 -8 9 -6 10 9 5 11 -4 49 -14 85 -22z m1310 -26 c6
-18 18 -46 25 -63 23 -50 65 -147 65 -151 0 -2 -12 -4 -26 -4 -17 0 -23 4 -18
12 5 8 2 9 -10 5 -12 -5 -16 -3 -13 5 2 7 -5 26 -16 41 -16 23 -19 39 -14 83
4 44 2 58 -14 79 -16 19 -17 25 -6 25 8 0 20 -15 27 -32z m-2125 12 c6 -10
-71 -90 -87 -90 -4 0 -8 -6 -8 -12 0 -7 -26 -37 -57 -66 -32 -30 -94 -89 -138
-131 -145 -137 -436 -414 -617 -585 -119 -112 -183 -166 -193 -162 -34 13 -27
21 320 347 154 144 334 314 400 378 182 176 354 331 367 331 4 0 10 -5 13 -10z
m2604 -50 c-18 -33 -34 -59 -35 -57 -5 4 56 117 62 117 3 0 -9 -27 -27 -60z
m-1119 -69 c-19 -10 -46 -21 -60 -25 -14 -3 -2 5 25 18 58 28 87 34 35 7z
m299 -17 c-13 -16 -69 -48 -69 -39 0 4 70 53 79 54 2 1 -2 -6 -10 -15z m-1169
-4 c8 -5 11 -10 5 -10 -5 0 -17 5 -25 10 -8 5 -10 10 -5 10 6 0 17 -5 25 -10z
m770 -20 c-8 -5 -22 -9 -30 -9 -10 0 -8 3 5 9 27 12 43 12 25 0z m713 -10 c9
-11 13 -20 9 -20 -4 0 -15 9 -25 20 -9 11 -13 20 -9 20 4 0 15 -9 25 -20z
m-1733 -46 c0 -7 -78 35 -85 45 -3 6 15 -2 40 -15 25 -14 45 -28 45 -30z m357
40 c-3 -3 -12 -4 -19 -1 -8 3 -5 6 6 6 11 1 17 -2 13 -5z m610 0 c-3 -3 -12
-4 -19 -1 -8 3 -5 6 6 6 11 1 17 -2 13 -5z m805 -103 c-4 -7 -82 72 -94 94 -5
11 14 -5 44 -35 29 -30 52 -57 50 -59z m-1375 93 c-3 -3 -12 -4 -19 -1 -8 3
-5 6 6 6 11 1 17 -2 13 -5z m530 0 c-3 -3 -12 -4 -19 -1 -8 3 -5 6 6 6 11 1
17 -2 13 -5z m-484 -11 c-7 -2 -19 -2 -25 0 -7 3 -2 5 12 5 14 0 19 -2 13 -5z
m440 0 c-7 -2 -19 -2 -25 0 -7 3 -2 5 12 5 14 0 19 -2 13 -5z m-375 -10 c-10
-2 -26 -2 -35 0 -10 3 -2 5 17 5 19 0 27 -2 18 -5z m320 0 c-10 -2 -26 -2 -35
0 -10 3 -2 5 17 5 19 0 27 -2 18 -5z m476 -4 c-8 -14 -186 -99 -205 -99 -12 1
183 104 204 108 5 1 5 -3 1 -9z m-596 -6 c-32 -2 -84 -2 -115 0 -32 2 -6 3 57
3 63 0 89 -1 58 -3z m-522 -90 c-5 -5 -176 74 -176 81 0 2 40 -14 90 -37 49
-22 88 -42 86 -44z m64 -19 c0 -2 -7 -4 -15 -4 -8 0 -15 4 -15 10 0 5 7 7 15
4 8 -4 15 -8 15 -10z m793 -5 c-6 -6 -64 -21 -129 -35 -131 -26 -148 -28 -140
-15 3 4 32 11 63 15 32 4 87 15 123 25 79 23 98 25 83 10z m-738 -17 c-3 -3
-11 0 -18 7 -9 10 -8 11 6 5 10 -3 15 -9 12 -12z m155 -23 c29 -7 25 -8 -22
-4 -31 3 -67 9 -80 15 -18 8 -13 9 22 4 25 -3 61 -10 80 -15z m88 -16 c-10 -2
-26 -2 -35 0 -10 3 -2 5 17 5 19 0 27 -2 18 -5z m70 0 c-10 -2 -26 -2 -35 0
-10 3 -2 5 17 5 19 0 27 -2 18 -5z m75 0 c-7 -2 -21 -2 -30 0 -10 3 -4 5 12 5
17 0 24 -2 18 -5z m452 -13 c3 -5 -1 -10 -10 -10 -9 0 -13 5 -10 10 3 6 8 10
10 10 2 0 7 -4 10 -10z m24 -40 c12 -6 18 -16 15 -25 -8 -21 -24 -19 -25 3 0
10 -3 12 -6 5 -2 -7 -11 -13 -19 -13 -8 0 -25 -10 -37 -21 -17 -17 -18 -21 -4
-16 21 8 20 9 3 -41 -9 -24 -11 -44 -6 -47 5 -3 7 -12 4 -19 -3 -8 0 -17 6
-21 6 -4 8 -15 5 -26 -4 -11 -2 -19 4 -19 6 0 11 -7 11 -15 0 -8 4 -15 10 -15
5 0 7 7 4 15 -4 8 1 33 10 55 8 21 12 41 7 44 -10 6 -2 56 11 73 5 7 6 17 2
24 -4 7 -2 10 7 7 15 -5 19 -50 7 -85 -4 -13 -4 -23 1 -23 11 0 29 -150 18
-157 -5 -3 -5 -8 0 -12 12 -8 34 -110 29 -136 -4 -22 -1 -22 -168 -10 -49 4
-88 11 -88 16 0 6 -8 5 -20 -1 -24 -13 -70 -3 -71 16 -3 28 -4 32 -11 40 -5 4
-8 0 -8 -9 0 -31 -24 -42 -81 -38 -30 2 -48 6 -41 8 6 3 12 17 12 33 0 16 7
35 15 43 13 13 13 16 0 21 -17 6 -21 76 -5 76 6 0 6 7 -2 19 -18 29 2 107 26
103 14 -3 16 1 11 20 -3 13 -3 18 2 12 13 -18 72 -4 92 22 14 17 21 20 30 11
8 -8 11 -5 11 14 0 13 7 32 14 42 14 18 14 17 21 -2 12 -40 29 -25 26 24 0 11
2 15 5 9 6 -13 87 -9 92 5 4 11 54 6 81 -9z m-2119 -39 c0 -14 -79 -81 -95
-81 -8 0 -15 -5 -15 -11 0 -20 -76 -97 -329 -334 -52 -48 -53 -49 -47 -21 4
17 16 42 26 56 11 15 27 49 37 76 l19 49 54 0 c65 1 90 10 90 36 0 21 -8 23
-29 10 -7 -5 -11 -13 -7 -19 3 -5 -3 -12 -15 -15 -16 -4 -19 -2 -14 14 5 14 3
17 -9 13 -11 -4 -16 0 -16 15 0 16 6 21 25 21 14 0 25 5 25 10 0 6 -12 8 -27
6 l-28 -5 30 25 c17 13 54 38 83 55 29 17 50 34 48 38 -3 4 7 6 23 3 17 -2 32
2 40 12 8 9 20 16 29 16 8 0 25 8 36 18 20 16 20 16 6 -2 -14 -18 -14 -19 7
-8 12 7 25 17 28 22 8 12 25 13 25 1z m1404 -20 c3 -5 -2 -15 -12 -22 -9 -7
-14 -9 -10 -5 4 5 3 15 -3 23 -9 10 -8 13 4 13 9 0 18 -4 21 -9z m-74 -12 c0
-6 6 -9 14 -6 8 3 17 0 20 -8 3 -9 0 -12 -10 -8 -8 3 -14 -1 -14 -11 0 -23 27
-20 64 9 22 16 39 22 55 18 12 -3 18 -9 13 -12 -5 -3 -13 -17 -17 -31 l-8 -25
23 20 c13 11 20 15 17 8 -4 -6 -2 -13 5 -15 10 -4 9 -8 -2 -20 -8 -8 -21 -13
-28 -10 -22 7 -13 -18 11 -28 21 -8 20 -9 -10 -15 -18 -4 -33 -9 -33 -10 0
-17 15 -33 26 -28 8 3 14 -1 14 -8 0 -9 3 -10 8 -3 4 6 15 13 25 17 16 6 18 2
15 -25 -2 -19 2 -33 10 -35 6 -3 12 0 12 6 0 6 5 11 11 11 5 0 8 -4 4 -9 -3
-5 -1 -12 3 -15 10 -6 8 -97 -2 -115 -4 -6 -12 -11 -17 -11 -6 0 -7 5 -3 11 3
6 -4 4 -17 -4 -13 -8 -55 -18 -94 -21 -80 -7 -485 -18 -485 -13 0 1 14 69 30
150 17 81 30 162 30 180 0 23 3 28 9 18 5 -8 7 -20 4 -27 -2 -6 0 -15 5 -18 6
-3 8 -16 4 -28 -3 -14 -2 -19 6 -14 7 4 12 2 12 -3 0 -6 -6 -11 -12 -11 -9 -1
-8 -5 3 -13 9 -7 14 -18 12 -24 -3 -7 0 -13 7 -13 6 0 9 -4 6 -8 -2 -4 -1 -14
5 -22 6 -10 9 -11 9 -2 0 6 8 12 18 12 13 0 14 2 3 9 -7 5 -11 13 -7 19 3 6 0
13 -6 15 -8 3 -6 6 5 6 9 1 16 5 15 9 -2 5 11 21 27 36 17 16 23 23 13 17 -10
-8 -18 -8 -22 -2 -4 6 3 15 14 21 11 6 18 15 15 21 -6 9 7 13 38 10 9 -1 24 5
33 13 8 9 20 16 25 16 13 0 11 -24 -3 -38 -9 -9 -8 -12 6 -12 9 0 14 5 11 10
-3 6 -1 10 4 10 6 0 11 -5 11 -11 0 -8 4 -8 14 1 8 6 12 18 10 25 -3 8 0 21 8
29 16 18 28 20 28 5z m-1072 -27 c18 -12 -9 -34 -78 -66 -82 -38 -91 -31 -30
24 53 48 81 59 108 42z m3202 -33 c0 -6 -4 -7 -10 -4 -5 3 -10 11 -10 16 0 6
5 7 10 4 6 -3 10 -11 10 -16z m-1792 -102 c2 -31 0 -47 -8 -47 -6 0 -9 4 -6 8
2 4 -4 8 -14 8 -11 0 -22 -7 -25 -14 -4 -10 0 -12 11 -8 17 6 54 -19 54 -36 0
-5 -10 -12 -22 -17 l-23 -8 23 -7 c25 -8 29 -21 7 -30 -9 -3 -15 0 -15 9 0 8
-7 15 -16 15 -8 0 -13 4 -10 9 3 5 -1 11 -9 15 -12 4 -15 19 -13 64 3 53 5 58
23 54 19 -5 19 -4 3 14 -16 19 -16 20 10 18 25 -1 27 -5 30 -47z m1916 -47
c-3 -2 -24 16 -47 40 l-42 43 47 -39 c25 -21 44 -41 42 -44z m-2024 29 c0 -11
-4 -17 -10 -14 -5 3 -10 13 -10 21 0 8 5 14 10 14 6 0 10 -9 10 -21z m2130
-97 c-7 -3 -19 3 -28 13 -16 15 -15 16 12 4 15 -7 23 -15 16 -17z m-2942 -42
c22 -1 82 -55 82 -75 0 -19 -70 -96 -133 -147 -39 -31 -58 -38 -95 -40 -45 -1
-45 -2 -9 -5 l39 -4 -86 -89 c-86 -89 -136 -158 -178 -244 -17 -35 -26 -45
-40 -40 -9 3 -25 1 -35 -4 -15 -9 -18 -5 -20 21 -2 17 1 34 6 37 4 3 27 51 49
107 42 105 78 166 177 298 73 98 138 173 158 183 30 15 61 19 65 10 2 -4 11
-8 20 -8z m3097 -21 c22 -10 29 -16 16 -13 -37 10 -88 33 -71 33 8 0 33 -9 55
-20z m-2191 -24 c3 -8 1 -15 -4 -15 -6 0 -10 7 -10 15 0 8 2 15 4 15 2 0 6 -7
10 -15z m-47 -1 c-3 -3 -12 -4 -19 -1 -8 3 -5 6 6 6 11 1 17 -2 13 -5z m777
-349 c-3 -7 -14 -11 -25 -8 -15 4 -17 9 -8 19 13 16 40 7 33 -11z m-28 -72
c-11 -19 -15 -23 -16 -10 0 9 -6 17 -12 17 -7 1 -2 7 12 15 32 17 35 13 16
-22z m-451 -93 c7 0 15 6 17 12 3 7 7 2 10 -10 4 -12 2 -22 -4 -22 -6 0 -8 -7
-5 -15 7 -17 -9 -30 -18 -15 -3 5 -11 10 -16 10 -6 0 -7 -4 -4 -10 3 -6 -1 -7
-9 -4 -18 7 -21 30 -6 39 6 3 11 16 11 28 1 17 2 18 6 5 2 -10 11 -18 18 -18z
m-358 -82 c-3 -8 -6 -5 -6 6 -1 11 2 17 5 13 3 -3 4 -12 1 -19z m343 -21 c0
-8 -6 -14 -14 -14 -8 0 -12 6 -9 14 3 7 9 13 14 13 5 0 9 -6 9 -13z m-1560
-32 c0 -8 -9 -19 -19 -25 -26 -14 -28 -13 -34 10 -3 13 0 20 9 20 8 0 14 -5
14 -11 0 -5 5 -7 10 -4 6 4 8 11 5 16 -4 5 -1 9 4 9 6 0 11 -7 11 -15z m1487
0 c0 -8 -6 -15 -14 -15 -17 0 -17 17 0 23 6 3 12 6 13 6 0 1 1 -6 1 -14z
m-567 -33 c0 -22 103 -30 127 -10 14 11 16 10 11 -9 -6 -22 7 -33 39 -33 8 0
21 -7 29 -15 13 -13 11 -14 -18 -9 l-33 6 29 -16 c15 -9 35 -16 43 -16 12 0
13 -3 3 -14 -6 -8 -18 -12 -26 -9 -8 3 -14 0 -14 -6 0 -6 6 -11 14 -11 9 0 12
-7 9 -21 -5 -19 -3 -20 18 -14 22 7 23 7 9 -10 -14 -17 -13 -18 7 -13 16 4 20
2 16 -8 -6 -17 -3 -17 -44 3 -32 16 -44 24 -72 49 -7 6 -24 15 -37 19 -14 4
-33 14 -43 23 -22 20 -34 8 -13 -13 26 -27 18 -31 -10 -5 -17 17 -23 31 -20
46 7 27 -3 56 -15 48 -5 -3 -16 10 -24 30 -19 45 -19 51 0 32 8 -8 15 -19 15
-24z m53 31 c-13 -2 -20 -10 -17 -17 3 -7 -1 -13 -9 -13 -9 0 -12 7 -9 19 3
12 13 18 31 17 22 -2 23 -2 4 -6z m563 -13 c8 0 11 -6 8 -15 -7 -17 -13 -18
-32 -7 -8 5 -10 16 -6 27 5 11 9 14 12 7 2 -7 10 -12 18 -12z m-319 -22 c-3
-7 -5 -2 -5 12 0 14 2 19 5 13 2 -7 2 -19 0 -25z m-190 -4 c-3 -3 -12 -4 -19
-1 -8 3 -5 6 6 6 11 1 17 -2 13 -5z m-1052 -16 c-11 -6 -23 -16 -27 -22 -5 -7
-8 -8 -8 0 0 15 22 34 40 34 11 -1 10 -4 -5 -12z m1545 -28 c0 -5 -4 -10 -9
-10 -6 0 -13 5 -16 10 -3 6 1 10 9 10 9 0 16 -4 16 -10z m-1553 -52 c-3 -8 -6
-5 -6 6 -1 11 2 17 5 13 3 -3 4 -12 1 -19z m1497 -28 c2 0 2 8 -1 18 -3 12 2
18 16 19 25 2 25 5 4 -43 -9 -22 -33 -78 -52 -126 -37 -90 -53 -110 -56 -71
-1 12 2 20 6 18 8 -6 23 43 20 64 -2 9 3 12 13 8 21 -8 20 2 -1 26 -17 19 -17
20 5 8 19 -10 22 -9 22 9 0 12 -4 18 -10 15 -12 -7 -14 8 -2 19 4 4 7 15 8 24
3 55 5 58 14 35 5 -13 11 -23 14 -23z m-254 15 c0 -8 -2 -15 -4 -15 -2 0 -6 7
-10 15 -3 8 -1 15 4 15 6 0 10 -7 10 -15z m607 -47 c-3 -8 -6 -5 -6 6 -1 11 2
17 5 13 3 -3 4 -12 1 -19z m-807 -9 c0 11 4 10 19 -3 11 -10 25 -15 31 -11 6
4 29 -7 50 -24 21 -17 44 -31 49 -31 15 0 14 -17 -1 -24 -7 -3 -2 -3 11 0 22
6 24 4 18 -24 -4 -17 -2 -34 3 -37 5 -3 11 12 13 32 2 21 4 -25 5 -101 1 -77
-1 -136 -4 -133 -4 3 -6 45 -6 92 1 63 -2 85 -12 85 -13 0 -15 -34 -3 -47 4
-4 -3 -13 -15 -20 -18 -10 -20 -12 -5 -13 9 0 17 -8 17 -17 -1 -59 -52 -49
-84 16 -13 25 -26 58 -30 73 -3 15 -17 44 -31 64 -14 20 -25 43 -25 51 0 8 -7
27 -15 42 -14 28 -9 53 7 29 6 -10 8 -10 8 1z m200 -44 c0 -14 -4 -25 -9 -25
-4 0 -6 11 -3 25 2 14 6 25 8 25 2 0 4 -11 4 -25z m640 -8 c0 -7 9 -30 20 -52
11 -21 18 -41 15 -43 -4 -5 -55 101 -55 114 0 3 5 2 10 -1 6 -3 10 -12 10 -18z
m-474 -184 c-11 -11 -19 6 -11 24 8 17 8 17 12 0 3 -10 2 -21 -1 -24z m-176
-240 c0 -5 3 -39 6 -78 4 -38 4 -68 1 -65 -10 10 -24 150 -15 150 4 0 8 -3 8
-7z"/>
<path d="M4605 4650 c-16 -16 -25 -30 -19 -30 12 1 70 60 58 60 -6 0 -23 -13
-39 -30z"/>
<path d="M3233 4480 c-52 -7 -154 -29 -216 -47 -10 -3 -17 -7 -14 -9 2 -2 42
5 88 17 117 29 332 36 459 15 158 -26 327 -91 460 -178 38 -25 41 -26 15 -4
-48 41 -204 123 -285 150 -158 52 -370 75 -507 56z"/>
<path d="M4060 4246 c0 -2 8 -10 18 -17 15 -13 16 -12 3 4 -13 16 -21 21 -21
13z"/>
<path d="M4110 4206 c0 -2 8 -10 18 -17 15 -13 16 -12 3 4 -13 16 -21 21 -21
13z"/>
<path d="M4330 3951 c0 -6 4 -13 10 -16 6 -3 7 1 4 9 -7 18 -14 21 -14 7z"/>
<path d="M4387 3845 c20 -41 39 -73 41 -71 4 5 -66 146 -73 146 -3 0 12 -34
32 -75z"/>
<path d="M2296 3765 c-9 -26 -7 -32 5 -12 6 10 9 21 6 23 -2 3 -7 -2 -11 -11z"/>
<path d="M4441 3725 c1 -19 18 -51 18 -35 0 8 -4 22 -9 30 -5 8 -9 11 -9 5z"/>
<path d="M4471 3624 c0 -11 3 -14 6 -6 3 7 2 16 -1 19 -3 4 -6 -2 -5 -13z"/>
<path d="M4487 3555 c3 -27 7 -52 9 -54 7 -8 2 54 -6 79 -6 17 -7 9 -3 -25z"/>
<path d="M2241 3574 c0 -11 3 -14 6 -6 3 7 2 16 -1 19 -3 4 -6 -2 -5 -13z"/>
<path d="M2232 3520 c0 -19 2 -27 5 -17 2 9 2 25 0 35 -3 9 -5 1 -5 -18z"/>
<path d="M1905 4349 c-26 -33 -45 -62 -43 -64 3 -3 15 10 28 28 13 17 35 47
48 65 13 17 22 32 19 32 -3 0 -27 -27 -52 -61z"/>
<path d="M2948 4223 c-1 -4 -20 -17 -41 -27 -20 -11 -35 -21 -32 -24 2 -3 11
1 19 7 8 7 19 10 25 7 5 -3 21 0 35 8 22 11 24 15 12 25 -8 7 -16 8 -18 4z"/>
<path d="M2674 3998 l-19 -23 23 19 c21 18 27 26 19 26 -2 0 -12 -10 -23 -22z"/>
<path d="M3960 4077 c0 -2 19 -19 43 -37 37 -29 39 -30 17 -6 -23 25 -60 52
-60 43z"/>
<path d="M3285 4059 c-10 -15 1 -23 20 -15 9 3 13 10 10 16 -8 13 -22 13 -30
-1z"/>
<path d="M4033 2599 c4 -13 7 -27 7 -31 0 -5 5 -8 11 -8 15 0 6 53 -10 58 -10
4 -12 -1 -8 -19z"/>
<path d="M760 2230 c-13 -8 -12 -10 3 -10 9 0 17 5 17 10 0 12 -1 12 -20 0z"/>
<path d="M3540 1880 c0 -5 5 -10 10 -10 6 0 10 5 10 10 0 6 -4 10 -10 10 -5 0
-10 -4 -10 -10z"/>
<path d="M3712 1745 c0 -16 2 -22 5 -12 2 9 2 23 0 30 -3 6 -5 -1 -5 -18z"/>
<path d="M3836 1716 c15 -12 17 -17 7 -27 -24 -24 -13 -32 12 -9 28 26 19 50
-18 50 -20 0 -20 0 -1 -14z"/>
<path d="M3710 1690 c0 -19 3 -21 12 -12 9 9 9 15 0 24 -9 9 -12 7 -12 -12z"/>
<path d="M3535 1670 c11 -5 27 -9 35 -9 13 -1 13 0 0 9 -8 5 -24 9 -35 9 l-20
0 20 -9z"/>
<path d="M3660 1665 c0 -9 6 -12 15 -9 8 4 15 10 15 15 0 5 -7 9 -15 9 -8 0
-15 -7 -15 -15z"/>
<path d="M3670 1602 c0 -6 -8 -13 -17 -15 -16 -4 -16 -5 -1 -6 18 -1 34 16 24
26 -3 4 -6 1 -6 -5z"/>
<path d="M1596 1851 c-4 -7 -5 -15 -2 -18 9 -9 19 4 14 18 -4 11 -6 11 -12 0z"/>
<path d="M3085 1930 c-3 -5 -1 -10 4 -10 6 0 11 5 11 10 0 6 -2 10 -4 10 -3 0
-8 -4 -11 -10z"/>
<path d="M3190 1920 c-12 -8 -12 -10 3 -16 21 -8 35 2 21 16 -5 5 -15 6 -24 0z"/>
<path d="M2933 1850 c1 -13 9 -17 29 -15 41 3 42 9 3 21 -29 9 -33 8 -32 -6z"/>
<path d="M2920 1800 c0 -5 5 -10 11 -10 5 0 7 5 4 10 -3 6 -8 10 -11 10 -2 0
-4 -4 -4 -10z"/>
<path d="M3180 1704 c0 -8 5 -12 10 -9 6 4 8 11 5 16 -9 14 -15 11 -15 -7z"/>
<path d="M2785 1700 c4 -6 11 -8 16 -5 14 9 11 15 -7 15 -8 0 -12 -5 -9 -10z"/>
<path d="M3130 1694 c0 -5 7 -18 15 -28 12 -16 15 -17 15 -4 0 8 -7 21 -15 28
-8 7 -15 9 -15 4z"/>
<path d="M3265 1690 c3 -5 11 -10 16 -10 6 0 7 5 4 10 -3 6 -11 10 -16 10 -6
0 -7 -4 -4 -10z"/>
<path d="M2820 1676 c0 -2 7 -7 16 -10 8 -3 12 -2 9 4 -6 10 -25 14 -25 6z"/>
<path d="M1998 1913 c7 -3 16 -2 19 1 4 3 -2 6 -13 5 -11 0 -14 -3 -6 -6z"/>
<path d="M2065 1010 c-3 -5 -1 -10 4 -10 6 0 11 5 11 10 0 6 -2 10 -4 10 -3 0
-8 -4 -11 -10z"/>
<path d="M3175 800 c-3 -5 -16 -10 -28 -11 -20 -1 -20 -2 3 -8 28 -9 64 5 55
20 -8 12 -22 12 -30 -1z"/>
<path d="M6048 5850 c-23 -37 -34 -47 -41 -38 -6 9 -7 7 -3 -6 4 -12 -7 -42
-33 -85 -21 -36 -53 -97 -71 -136 -18 -38 -35 -74 -38 -80 -3 -7 -1 -7 6 0 6
6 33 53 61 107 27 53 71 129 96 168 45 71 70 120 59 120 -3 0 -19 -23 -36 -50z"/>
<path d="M2786 5882 c-2 -4 4 -9 15 -9 11 -1 17 2 14 8 -7 11 -22 12 -29 1z"/>
<path d="M5985 5859 c-4 -6 -3 -15 3 -21 6 -6 11 -4 15 6 7 18 -9 31 -18 15z"/>
<path d="M5900 5774 c0 -10 -3 -14 -7 -11 -3 4 -15 0 -25 -10 -18 -16 -24 -34
-10 -32 4 1 16 1 27 0 16 -2 14 -4 -10 -15 -20 -8 -25 -15 -17 -20 15 -9 85
21 77 33 -2 5 4 11 14 14 11 2 24 14 30 25 10 18 8 20 -24 20 -18 0 -38 3 -44
7 -6 3 -11 -1 -11 -11z m60 -24 c0 -5 -7 -10 -15 -10 -8 0 -15 5 -15 10 0 6 7
10 15 10 8 0 15 -4 15 -10z"/>
<path d="M3800 5715 c-7 -9 -8 -15 -2 -15 5 0 12 7 16 15 3 8 4 15 2 15 -2 0
-9 -7 -16 -15z"/>
<path d="M3422 5620 c0 -14 2 -19 5 -12 2 6 2 18 0 25 -3 6 -5 1 -5 -13z"/>
<path d="M3420 5580 c0 -5 11 -10 25 -10 14 0 25 5 25 10 0 6 -11 10 -25 10
-14 0 -25 -4 -25 -10z"/>
<path d="M3423 5259 c-12 -5 -7 -8 19 -8 20 -1 40 3 43 9 7 11 -33 10 -62 -1z"/>
<path d="M4245 5169 c-4 -6 -5 -12 -2 -15 2 -3 7 2 10 11 7 17 1 20 -8 4z"/>
<path d="M3541 5064 c13 -16 29 -19 29 -5 0 5 -9 11 -21 14 -16 4 -18 3 -8 -9z"/>
<path d="M3480 4980 c0 -5 7 -10 15 -10 8 0 15 5 15 10 0 6 -7 10 -15 10 -8 0
-15 -4 -15 -10z"/>
<path d="M1170 4941 c0 -6 16 -11 36 -11 21 0 33 -4 29 -10 -3 -5 1 -10 11
-10 41 0 97 -26 137 -65 74 -70 230 -134 233 -95 2 34 4 40 14 40 6 0 10 -7
10 -15 0 -8 3 -15 8 -15 9 0 8 57 -1 67 -4 3 -7 1 -7 -5 0 -16 -20 -15 -20 1
-1 13 -64 57 -83 57 -7 0 -44 13 -82 29 -55 23 -92 31 -177 36 -77 5 -108 4
-108 -4z"/>
<path d="M5381 4868 c-7 -20 -41 -81 -76 -135 -58 -87 -52 -89 13 -4 32 42 84
150 79 164 -2 7 -9 -4 -16 -25z"/>
<path d="M3645 4840 c-3 -5 1 -10 10 -10 9 0 13 5 10 10 -3 6 -8 10 -10 10 -2
0 -7 -4 -10 -10z"/>
<path d="M3743 4823 c-7 -3 -13 -11 -13 -18 0 -8 6 -17 13 -21 6 -4 9 -4 5 1
-4 4 -3 14 4 22 13 15 9 22 -9 16z"/>
<path d="M3633 4716 c7 -14 17 -26 24 -26 6 0 20 -3 30 -6 16 -5 16 -4 -2 11
-11 9 -19 21 -17 26 1 5 -2 9 -7 9 -5 0 -16 3 -25 6 -13 5 -13 2 -3 -20z"/>
<path d="M3718 4733 c7 -3 16 -2 19 1 4 3 -2 6 -13 5 -11 0 -14 -3 -6 -6z"/>
<path d="M3770 4689 c0 -5 5 -7 10 -4 6 3 10 8 10 11 0 2 -4 4 -10 4 -5 0 -10
-5 -10 -11z"/>
<path d="M3810 4691 c0 -5 7 -11 15 -15 8 -3 15 -1 15 3 0 5 -7 11 -15 15 -8
3 -15 1 -15 -3z"/>
<path d="M3857 4659 c7 -7 15 -10 18 -7 3 3 -2 9 -12 12 -14 6 -15 5 -6 -5z"/>
<path d="M3825 4610 c-3 -5 -1 -10 4 -10 6 0 11 5 11 10 0 6 -2 10 -4 10 -3 0
-8 -4 -11 -10z"/>
<path d="M5995 4454 c-150 -69 -334 -134 -383 -134 -12 0 -24 -5 -27 -11 -11
-17 110 1 195 28 158 51 290 119 268 138 -2 2 -25 -8 -53 -21z"/>
<path d="M5318 4343 c7 -3 16 -2 19 1 4 3 -2 6 -13 5 -11 0 -14 -3 -6 -6z"/>
<path d="M5418 4323 c6 -2 18 -2 25 0 6 3 1 5 -13 5 -14 0 -19 -2 -12 -5z"/>
<path d="M1060 4110 c0 -5 4 -10 9 -10 6 0 13 5 16 10 3 6 -1 10 -9 10 -9 0
-16 -4 -16 -10z"/>
<path d="M1286 4045 c-3 -8 -2 -15 3 -15 5 0 14 7 21 15 10 12 10 15 -3 15 -8
0 -17 -7 -21 -15z"/>
<path d="M1778 3893 c7 -3 16 -2 19 1 4 3 -2 6 -13 5 -11 0 -14 -3 -6 -6z"/>
<path d="M5278 3673 c7 -3 16 -2 19 1 4 3 -2 6 -13 5 -11 0 -14 -3 -6 -6z"/>
<path d="M5562 3614 c23 -7 49 -50 42 -68 -4 -11 0 -16 10 -16 27 0 49 -36 53
-85 5 -49 -4 -55 -51 -33 -17 7 -23 15 -17 22 6 8 0 11 -20 12 -30 1 -35 -14
-8 -27 82 -40 88 -40 117 -14 15 14 21 25 14 25 -6 0 -12 5 -12 11 0 7 10 9
25 7 13 -3 22 -1 19 3 -3 5 -14 9 -25 9 -28 0 -23 15 6 16 14 1 25 -3 25 -8 0
-6 9 -8 20 -5 22 6 28 -8 8 -17 -7 -3 4 -3 25 0 24 4 37 2 37 -5 0 -6 8 -15
18 -18 9 -4 25 -15 36 -24 18 -17 18 -18 -3 -12 -11 3 -21 1 -21 -5 0 -5 15
-13 33 -16 19 -3 42 -14 53 -24 20 -18 114 -29 114 -13 0 5 -6 12 -12 14 -10
4 -9 8 2 16 13 9 13 11 -1 11 -8 0 -23 6 -32 13 -15 10 -8 12 43 11 34 0 66
-6 72 -12 7 -7 18 -12 26 -12 7 0 10 -4 7 -10 -9 -15 -21 -12 -41 7 -13 13
-19 14 -22 5 -2 -7 -9 -9 -14 -6 -7 4 -8 2 -4 -5 4 -6 12 -9 17 -5 5 3 16 0
24 -6 8 -7 24 -10 35 -7 10 3 24 -1 30 -8 7 -8 30 -13 58 -13 26 1 99 -2 162
-6 86 -4 109 -3 90 5 -14 6 -38 8 -53 5 -15 -3 -26 -2 -23 2 2 4 -19 7 -47 8
-118 2 -148 6 -167 27 -11 11 -17 24 -14 28 3 5 -8 14 -23 20 -15 6 -40 18
-55 26 -16 8 -28 11 -28 7 0 -3 -6 -2 -12 3 -20 15 -126 45 -136 39 -12 -7
-102 23 -102 35 0 5 -5 9 -11 9 -6 0 -54 17 -107 39 -54 21 -115 41 -137 44
-22 3 -32 3 -23 1z m398 -244 c14 -11 20 -20 14 -20 -6 0 -21 9 -34 20 -30 26
-13 26 20 0z"/>
<path d="M820 3460 c0 -5 10 -10 23 -10 18 0 19 2 7 10 -19 13 -30 13 -30 0z"/>
<path d="M5784 3419 c-3 -5 7 -14 21 -19 32 -12 55 -13 55 -2 0 13 -69 32 -76
21z"/>
<path d="M5380 3380 c-11 -8 -7 -9 15 -4 37 8 45 14 19 14 -10 0 -26 -5 -34
-10z"/>
<path d="M6210 3380 c0 -6 7 -10 15 -10 8 0 15 2 15 4 0 2 -7 6 -15 10 -8 3
-15 1 -15 -4z"/>
<path d="M6460 3356 c0 -2 9 -6 20 -9 11 -3 18 -1 14 4 -5 9 -34 13 -34 5z"/>
<path d="M6155 2480 c11 -5 27 -9 35 -9 13 -1 13 0 0 9 -8 5 -24 9 -35 9 l-20
0 20 -9z"/>
<path d="M4585 2150 c3 -5 8 -10 11 -10 2 0 4 5 4 10 0 6 -5 10 -11 10 -5 0
-7 -4 -4 -10z"/>
<path d="M4052 956 c-6 -22 -9 -42 -7 -44 7 -8 26 50 22 67 -2 9 -9 -2 -15
-23z"/>
</g>
</svg>
