<?xml version="1.0" standalone="no"?>
<!DOCTYPE svg PUBLIC "-//W3C//DTD SVG 20010904//EN"
 "http://www.w3.org/TR/2001/REC-SVG-20010904/DTD/svg10.dtd">
<svg version="1.0" xmlns="http://www.w3.org/2000/svg"
 width="531.000000pt" height="667.000000pt" viewBox="0 0 531.000000 667.000000"
 preserveAspectRatio="xMidYMid meet">

<g transform="translate(0.000000,667.000000) scale(0.100000,-0.100000)"
fill="#FFFFFF" stroke="none">
<path d="M1085 6599 c-5 -6 -19 -16 -30 -24 -20 -15 -20 -15 -1 -30 13 -9 16
-19 10 -24 -5 -6 -29 2 -59 20 -34 19 -44 29 -30 29 18 1 17 2 -4 14 -29 16
-51 11 -51 -13 0 -9 -5 -22 -10 -27 -8 -8 -8 -19 0 -38 15 -42 14 -43 -52 -49
-96 -9 -136 -24 -158 -59 -22 -37 -18 -50 18 -48 67 5 82 -12 82 -93 0 -50 5
-70 25 -99 25 -37 33 -64 16 -54 -16 11 -63 -66 -76 -124 -11 -47 -8 -86 10
-120 8 -16 15 -47 15 -68 0 -23 6 -45 15 -52 24 -20 17 -34 -27 -55 -27 -13
-50 -35 -64 -60 -28 -50 -18 -65 45 -65 36 0 57 -8 99 -36 61 -41 72 -63 72
-147 0 -34 6 -73 13 -87 12 -23 18 -25 72 -21 8 1 15 8 15 16 0 25 46 48 83
41 42 -8 100 -56 121 -101 21 -43 17 -59 -21 -77 -25 -12 -28 -19 -27 -60 0
-44 -2 -48 -28 -54 -18 -3 -37 0 -51 9 -28 18 -51 8 -72 -33 -22 -42 -20 -48
27 -91 l42 -38 -22 -42 c-12 -22 -22 -45 -22 -50 0 -5 30 -23 68 -41 68 -32
85 -45 75 -60 -8 -15 48 -79 81 -93 17 -6 65 -18 106 -25 41 -7 81 -18 88 -23
34 -26 -10 -123 -67 -147 -17 -7 -31 -16 -31 -21 0 -18 -56 -32 -122 -30 -37
1 -77 -3 -88 -9 -19 -10 -87 -21 -228 -39 -35 -4 -67 -13 -71 -20 -6 -10 -21
-10 -69 -1 -58 10 -100 26 -232 87 -34 16 -88 30 -140 36 -47 5 -91 11 -98 13
-25 7 -1 24 34 24 19 0 34 5 34 10 0 6 -19 9 -42 8 -24 -1 -57 1 -73 5 -42 11
-156 -57 -167 -99 -4 -16 -3 -33 2 -38 15 -15 12 -23 -24 -64 -19 -20 -36 -48
-37 -62 -4 -22 -1 -25 26 -22 17 1 41 8 54 15 20 10 26 9 42 -12 19 -23 26
-76 11 -83 -24 -10 -52 -79 -52 -127 0 -46 3 -53 26 -61 14 -6 27 -10 29 -10
1 0 26 23 54 50 l51 50 90 0 c82 0 90 -2 90 -19 0 -11 -4 -23 -10 -26 -17 -10
-11 -51 11 -79 36 -45 69 -56 176 -56 111 0 131 -8 162 -68 24 -47 59 -84 72
-77 5 4 12 0 15 -9 10 -26 32 -6 39 35 5 29 18 49 53 79 54 48 85 58 126 40
44 -18 86 -24 86 -13 0 6 11 8 25 5 30 -5 32 8 6 32 -24 22 -31 58 -16 85 6
12 36 42 66 67 50 42 57 45 101 41 64 -6 140 -60 152 -109 7 -30 6 -42 -10
-64 -10 -15 -23 -33 -29 -41 -7 -10 -5 -18 8 -27 28 -22 96 4 152 57 46 45 47
46 34 80 -10 28 -10 38 2 53 13 18 20 22 64 31 30 7 72 -13 91 -42 17 -26 17
-29 -1 -62 -11 -19 -29 -42 -41 -52 -17 -14 -19 -19 -8 -29 11 -10 23 -10 57
-1 23 7 46 16 52 21 18 16 43 8 61 -19 20 -33 101 -124 234 -268 52 -56 140
-152 195 -214 136 -152 237 -306 248 -379 5 -29 3 -32 -19 -32 -13 0 -24 5
-24 11 0 8 -14 10 -45 6 -38 -6 -54 -2 -107 27 -95 50 -128 70 -128 79 0 4
-13 7 -29 7 -17 0 -32 4 -35 9 -3 4 -54 9 -113 10 -59 1 -110 6 -113 11 -11
18 -123 8 -183 -16 -67 -26 -152 -96 -193 -157 -15 -23 -45 -60 -65 -82 -58
-63 -171 -231 -223 -332 -26 -50 -65 -112 -87 -136 -52 -60 -51 -77 4 -77 24
0 69 5 101 11 67 14 103 3 110 -33 12 -66 40 -189 52 -230 30 -102 8 -203 -53
-245 -45 -32 -158 -63 -264 -74 -93 -9 -132 -21 -212 -65 -15 -8 -27 -19 -27
-23 0 -5 -14 -14 -31 -21 -17 -7 -35 -23 -40 -34 -5 -12 -18 -32 -29 -46 -11
-14 -22 -39 -23 -55 -2 -29 -1 -30 45 -30 62 0 77 -15 59 -58 -19 -46 -34
-124 -28 -140 9 -23 53 -26 66 -5 14 23 31 23 31 -1 0 -62 62 -128 95 -101 7
6 25 8 39 4 28 -7 33 4 16 36 -17 32 26 65 167 130 73 33 139 60 147 60 10 0
16 -9 16 -25 0 -14 7 -28 16 -32 18 -7 94 14 94 26 0 17 36 24 118 25 l83 1
40 42 c33 36 38 46 29 62 -12 23 -3 54 14 48 6 -2 12 -21 14 -43 4 -68 11 -84
34 -84 26 0 106 64 118 95 6 17 22 25 65 33 55 11 115 44 115 63 0 5 -7 9 -15
9 -8 0 -24 9 -35 20 -11 11 -32 22 -47 26 -37 9 -53 22 -53 45 0 15 7 19 33
19 19 0 37 3 41 7 3 4 16 8 28 10 12 2 24 6 27 8 8 9 -22 54 -32 48 -6 -3 -7
-1 -4 4 4 6 -1 21 -11 34 -36 47 -32 79 9 79 20 0 36 39 21 49 -6 4 -23 24
-37 46 -15 22 -21 34 -14 28 7 -7 16 -13 20 -13 12 0 -10 57 -27 71 -27 22
-15 53 41 106 30 29 55 55 55 59 0 4 -13 4 -30 1 -17 -4 -30 -2 -30 3 0 14
-37 50 -44 43 -3 -3 -17 -3 -31 1 -33 8 -33 41 -1 81 l25 30 16 -22 c12 -17
24 -21 51 -20 31 2 40 9 59 42 26 48 63 56 132 30 77 -29 92 -79 48 -158 -55
-97 -75 -217 -84 -502 -7 -218 -8 -221 -39 -294 -35 -80 -38 -97 -20 -104 36
-12 164 59 218 121 l40 45 30 -28 c16 -16 42 -47 57 -69 36 -53 90 -123 124
-161 40 -44 78 -121 95 -191 13 -56 12 -81 -2 -151 -2 -13 -37 -56 -77 -95
-57 -58 -91 -82 -165 -118 -50 -24 -92 -48 -92 -54 0 -5 -22 -30 -48 -55 -48
-46 -87 -97 -139 -181 -22 -35 -28 -57 -28 -101 0 -61 18 -97 40 -79 9 8 15 6
20 -7 6 -17 7 -17 21 1 8 11 14 30 14 42 0 12 7 28 16 35 26 21 46 -15 38 -67
-7 -47 10 -92 54 -141 25 -29 33 -32 67 -28 22 3 42 10 46 17 4 7 11 3 18 -10
19 -36 74 -62 130 -62 28 0 51 4 51 10 0 5 8 9 18 8 63 -5 70 15 9 30 -23 6
-54 23 -67 38 -24 26 -24 26 -3 15 18 -9 22 -9 17 3 -3 7 18 40 48 76 29 34
66 78 81 98 16 20 45 55 66 77 42 44 101 135 101 154 0 20 25 7 28 -15 8 -57
13 -64 37 -64 50 0 107 51 126 113 14 43 6 59 -16 31 -13 -17 -14 -16 -4 14 6
18 9 53 6 78 -3 33 -1 44 9 44 18 0 44 -63 44 -105 0 -18 6 -38 14 -44 20 -17
71 -2 101 29 29 30 29 65 0 54 -22 -9 -20 35 3 52 16 13 16 13 -2 14 -12 0
-16 5 -12 15 3 8 0 14 -6 12 -6 -1 -13 4 -15 11 -4 9 2 11 21 6 14 -3 26 -5
26 -3 0 2 -7 28 -14 57 -11 41 -12 52 -1 52 14 0 85 -87 85 -105 0 -20 37 -48
52 -39 7 5 20 7 30 6 9 -2 18 1 21 5 9 17 17 64 10 60 -15 -9 -28 18 -31 67
-3 33 0 46 7 42 6 -4 11 -2 11 4 0 6 4 9 9 6 5 -3 16 5 25 19 9 14 21 25 27
25 20 0 89 63 89 82 0 22 -10 22 -57 3 -40 -17 -120 -20 -143 -5 -11 7 -1 10
35 11 28 1 56 0 64 -1 9 -1 12 4 7 15 -5 13 0 16 22 15 40 -3 52 -1 52 9 0 5
-29 12 -65 16 -37 4 -74 14 -86 24 -21 17 -20 17 33 43 30 15 60 34 67 42 11
13 7 16 -26 22 -27 5 -48 18 -71 45 -37 43 -53 49 -49 20 4 -26 26 -51 45 -51
8 0 13 -3 9 -6 -3 -4 -44 5 -89 19 -79 25 -83 28 -85 57 -2 34 1 35 37 15 38
-21 70 -19 70 5 0 11 5 20 11 20 8 0 9 4 0 13 -14 17 -2 30 15 16 22 -18 27
27 7 61 -24 41 -106 84 -133 70 -24 -13 -40 -13 -20 0 12 8 9 10 -11 10 -20 0
-28 6 -33 25 -9 37 1 47 40 39 40 -7 45 2 9 16 -31 12 -31 20 0 54 26 28 34
79 14 91 -6 4 -17 -2 -25 -14 -9 -12 -20 -19 -25 -16 -5 3 -6 -1 -3 -9 3 -9 2
-16 -4 -16 -6 0 -19 -3 -29 -6 -17 -5 -17 -5 0 6 9 6 17 18 17 26 0 9 17 31
37 49 42 37 39 59 -3 26 -15 -12 -44 -24 -66 -27 -42 -7 -50 -20 -15 -28 12
-2 5 -4 -15 -2 -30 1 -39 -2 -44 -17 -8 -25 -14 -17 -36 45 -24 68 -23 109 2
131 25 21 44 14 70 -30 18 -30 24 -34 48 -28 46 11 71 47 40 57 -6 2 -16 24
-22 49 -9 37 -17 47 -52 64 l-41 20 13 38 c17 49 7 46 -36 -9 -29 -36 -36 -41
-38 -25 -4 23 -32 51 -32 31 0 -7 -7 -10 -14 -7 -11 4 -13 1 -10 -11 4 -10 -2
-7 -14 8 -11 13 -18 28 -16 32 3 5 7 29 8 56 l3 47 -10 -38 c-12 -41 -31 -45
-30 -6 1 49 3 60 11 55 5 -3 9 1 9 9 0 8 -5 11 -10 8 -5 -3 -7 0 -5 8 3 8 10
13 16 12 11 -3 11 15 -1 35 -10 15 1 19 83 26 104 9 139 24 43 18 -59 -3 -83
-1 -83 7 0 6 -16 11 -36 11 -19 0 -33 4 -30 9 3 5 -1 11 -9 14 -12 5 -12 10 1
36 20 40 32 46 53 27 24 -22 32 -20 27 7 -2 15 -9 21 -22 19 -16 -2 -17 -1 -4
7 8 6 11 11 5 12 -21 3 83 18 131 18 50 1 51 1 60 -36 5 -20 18 -41 28 -47 10
-6 70 -43 132 -82 131 -83 195 -101 319 -90 87 8 117 17 207 61 36 18 69 31
72 29 3 -2 4 -2 2 2 -2 3 15 24 38 47 22 24 57 64 76 89 19 26 42 50 50 53 8
3 56 12 106 20 113 17 186 52 242 118 50 57 88 137 71 148 -7 4 -9 25 -7 55 5
55 -8 152 -24 171 -17 21 -28 4 -28 -41 0 -23 -7 -67 -16 -97 -17 -57 -69
-149 -86 -149 -5 0 0 13 11 28 16 23 18 32 8 42 -8 8 -8 11 -1 7 17 -10 34 15
50 75 33 124 4 223 -87 300 -38 32 -51 38 -73 32 -31 -7 -33 -24 -10 -106 13
-46 15 -69 7 -111 l-10 -52 -2 66 c-3 145 -71 209 -225 211 -60 0 -83 -4 -127
-26 -42 -21 -48 -22 -29 -6 30 24 122 60 154 60 31 0 78 25 68 36 -4 5 5 -1
19 -13 31 -28 45 -29 45 -3 0 20 -13 27 -61 34 -10 2 -20 7 -21 12 -15 68 -65
206 -101 282 -87 182 -143 329 -143 374 0 29 -43 107 -60 108 -13 0 -13 1 0
10 12 7 12 12 2 22 -21 21 -13 31 12 15 22 -15 25 -15 30 -1 3 8 10 12 16 9 5
-3 10 0 10 7 0 8 6 23 14 34 10 13 9 2 -4 -36 -23 -65 -24 -92 -8 -137 11 -30
28 -45 28 -24 0 5 8 7 18 4 16 -4 21 5 30 51 14 69 71 136 115 136 68 0 117
-54 117 -130 0 -38 2 -40 29 -40 22 0 38 10 65 42 37 42 44 62 26 73 -5 3 -16
-10 -24 -30 -8 -19 -17 -35 -18 -35 -2 0 -2 28 -1 63 3 51 0 69 -19 101 -41
69 -145 105 -225 76 -26 -9 -27 -9 -9 5 11 8 15 15 8 15 -6 0 -9 6 -6 14 3 8
0 17 -5 21 -6 3 -9 11 -6 16 18 28 -85 -5 -133 -44 -57 -45 -123 -123 -123
-144 2 -78 22 -166 45 -195 23 -31 96 -177 96 -193 0 -3 7 -13 15 -21 8 -9 15
-21 15 -27 0 -6 -29 20 -65 58 -36 39 -65 73 -65 78 0 4 -5 7 -11 7 -6 0 -25
12 -43 27 -55 46 -104 63 -188 63 -60 0 -78 3 -78 14 0 8 7 17 16 20 9 4 14 9
11 13 -3 3 1 19 9 36 16 29 17 30 79 24 53 -5 97 -19 147 -45 4 -2 -12 38 -36
90 -59 124 -101 248 -128 371 -17 82 -22 137 -22 282 -1 201 11 291 54 402 21
55 24 70 12 65 -12 -4 -14 -1 -7 14 4 10 13 34 20 53 7 18 31 54 54 78 22 24
41 48 41 53 0 4 9 10 20 13 11 3 20 10 20 16 0 27 -32 5 -107 -71 -66 -68 -89
-100 -127 -181 -73 -151 -92 -291 -78 -563 8 -152 14 -196 41 -293 17 -62 41
-134 53 -159 11 -26 21 -60 22 -77 1 -28 -1 -30 -44 -35 -98 -12 -211 -94
-257 -187 -22 -45 -25 -63 -21 -126 2 -58 8 -82 28 -110 27 -40 48 -53 63 -38
6 6 16 5 28 -2 27 -17 31 -5 17 47 -11 42 -10 48 8 73 33 45 67 60 100 45 l27
-13 -6 -83 c-5 -71 -3 -87 14 -115 15 -24 25 -32 39 -28 11 3 20 1 20 -4 0 -5
7 -9 15 -9 11 0 15 11 15 38 0 49 24 84 53 77 115 -24 172 -41 194 -58 44 -35
154 -315 127 -324 -28 -9 -117 -74 -144 -104 -43 -49 -37 -63 29 -62 68 2 118
-18 126 -50 11 -43 2 -72 -23 -75 -19 -3 -21 -6 -11 -18 15 -19 1 -17 -36 4
-16 9 -30 24 -30 32 0 22 -134 20 -146 -2 -5 -10 -17 -14 -29 -11 -23 6 -26
19 -7 26 7 4 6 6 -4 6 -19 1 -42 -23 -32 -33 4 -4 -10 -5 -31 -3 -21 2 -42 10
-47 18 -8 11 -9 9 -7 -6 2 -12 11 -19 21 -19 9 1 17 -2 17 -7 0 -5 7 -9 15 -9
8 0 31 -9 51 -21 20 -11 62 -23 93 -25 31 -3 90 -15 131 -26 41 -11 93 -23
115 -25 36 -5 38 -4 26 11 -8 9 -11 19 -8 22 5 5 9 2 47 -45 26 -31 59 -141
43 -141 -17 0 -35 18 -29 29 5 7 -2 10 -18 9 -15 -1 -26 -7 -26 -12 0 -6 -13
11 -29 36 -57 89 -142 127 -288 128 -35 0 -80 7 -100 15 -66 27 -122 116 -123
198 0 20 -4 37 -10 37 -5 0 -10 -9 -10 -20 0 -12 -9 -33 -19 -48 -29 -41 -45
-157 -29 -206 23 -68 47 -78 222 -91 145 -10 157 -13 196 -40 69 -48 83 -71
78 -138 -4 -48 -9 -62 -37 -91 -51 -52 -137 -81 -241 -80 -71 0 -79 -1 -45 -8
22 -5 62 -15 89 -23 28 -9 65 -13 90 -9 67 9 22 -13 -54 -27 -123 -22 -262 19
-349 102 -82 79 -197 291 -284 524 -14 39 -45 120 -67 180 -56 149 -112 335
-165 552 -24 97 -25 104 -9 128 9 14 19 23 22 20 5 -4 42 33 42 42 0 2 -10 1
-21 -2 -14 -5 -19 -4 -15 4 8 13 -21 4 -43 -13 -8 -7 -6 5 7 31 48 93 46 162
-14 418 l-17 71 62 80 c49 64 62 89 66 125 2 24 7 60 10 80 5 28 3 36 -9 36
-8 0 -13 -4 -10 -9 3 -4 -1 -14 -8 -22 -7 -8 -22 -26 -33 -42 -11 -15 -28 -35
-37 -43 -9 -8 -15 -18 -12 -22 3 -5 -4 -25 -15 -46 -11 -21 -20 -34 -21 -29 0
5 -7 3 -15 -4 -13 -11 -13 -8 0 30 19 55 11 66 -10 14 -9 -21 -24 -55 -33 -74
-9 -19 -15 -41 -13 -49 1 -7 -2 -10 -8 -6 -7 3 -8 0 -5 -9 12 -30 -29 -134
-97 -247 -38 -63 -69 -123 -69 -132 0 -9 -4 -17 -8 -17 -9 0 -31 -62 -42 -122
-4 -21 -4 -38 -1 -38 4 0 24 35 45 77 35 71 108 173 124 173 9 0 64 -231 57
-238 -3 -3 -21 0 -41 7 -42 15 -59 5 -69 -40 -5 -21 -2 -36 9 -48 9 -10 13
-21 9 -25 -5 -5 24 -7 62 -5 l70 4 47 -135 c26 -74 47 -138 47 -142 1 -4 -11
-9 -26 -11 -27 -4 -27 -4 3 -6 29 -1 33 -6 54 -63 13 -35 41 -109 62 -166 22
-56 37 -109 34 -117 -3 -8 0 -15 6 -15 9 0 9 -3 0 -12 -7 -7 -42 -18 -80 -24
-66 -13 -66 -13 -17 -12 60 2 71 -9 30 -27 -20 -9 -24 -14 -12 -14 10 -1 16
-5 13 -10 -4 -5 -1 -11 6 -13 8 -3 2 -14 -16 -31 -35 -33 -20 -36 20 -5 l28
22 -19 -32 -19 -32 32 -30 c42 -38 75 -42 37 -4 -8 9 -15 21 -15 27 0 8 3 8 8
2 4 -6 19 -16 35 -24 30 -16 36 -31 12 -31 -8 0 -15 -4 -15 -9 0 -5 9 -7 21
-4 20 6 21 14 4 57 -6 14 -4 18 6 14 9 -3 15 -22 17 -50 3 -43 1 -46 -29 -57
-18 -6 -30 -13 -27 -16 3 -3 19 0 37 6 24 9 35 9 44 0 8 -8 7 -11 -6 -11 -10
0 -23 -11 -29 -25 -7 -17 -19 -25 -36 -25 -18 0 -22 -3 -14 -12 5 -7 12 -24
15 -38 4 -21 4 -20 6 8 1 21 6 32 16 32 8 0 15 4 15 9 0 5 9 11 20 14 13 3 20
0 20 -10 0 -8 -4 -11 -10 -8 -14 9 -13 -8 2 -23 9 -9 8 -12 -5 -12 -11 0 -14
-5 -10 -15 3 -9 -2 -22 -13 -31 -11 -8 -14 -14 -9 -13 29 4 36 -1 25 -21 -9
-17 -8 -19 7 -13 16 6 16 5 4 -10 -7 -9 -20 -17 -27 -17 -8 0 -14 -5 -14 -11
0 -6 6 -9 14 -6 8 3 26 -5 41 -19 14 -13 30 -24 34 -24 4 0 7 -10 6 -22 -2
-20 -7 -23 -52 -24 -28 -1 -55 -4 -61 -8 -6 -3 -20 4 -31 16 -18 18 -21 19
-21 5 0 -10 -8 -17 -20 -17 -11 0 -20 7 -20 15 0 8 6 15 13 15 9 0 12 10 9 30
-2 16 -8 28 -12 25 -4 -3 -10 4 -13 14 -3 14 -1 18 9 14 8 -3 14 1 14 11 0 9
8 16 20 16 22 0 28 -27 7 -32 -9 -2 -11 -11 -6 -28 7 -25 7 -25 8 -2 1 13 6
20 11 17 6 -3 10 1 10 9 0 9 6 16 14 16 23 0 28 30 6 31 -11 1 -26 2 -32 3
-18 2 -18 105 0 122 11 12 11 14 0 14 -20 0 -39 -53 -35 -96 4 -34 3 -36 -9
-19 -8 10 -14 24 -14 31 0 7 -6 15 -12 17 -8 3 -6 6 5 6 17 1 25 21 7 21 -11
0 -2 31 14 45 13 12 17 45 5 45 -5 0 -9 -9 -9 -20 0 -11 -4 -20 -10 -20 -5 0
-14 -19 -20 -42 -6 -24 -13 -50 -16 -59 -5 -18 -38 -32 -67 -29 -16 1 -17 -2
-7 -20 7 -13 17 -19 26 -16 9 3 12 1 9 -4 -3 -6 -1 -10 4 -10 6 0 11 -8 11
-17 -1 -17 -1 -17 -14 -1 -7 10 -16 15 -19 11 -4 -3 -7 -1 -7 6 0 7 -5 9 -10
6 -13 -8 -13 -45 1 -45 5 0 7 5 4 10 -9 15 4 12 21 -4 20 -21 18 -26 -12 -24
-15 2 -29 9 -32 16 -3 10 -9 5 -17 -14 -9 -21 -9 -31 -1 -36 19 -13 28 -9 21
10 -4 11 -3 14 4 7 12 -12 3 -55 -11 -55 -5 0 -6 4 -3 10 9 15 -4 12 -20 -4
-8 -7 -11 -16 -8 -20 4 -3 -2 -6 -13 -7 -10 0 -37 -6 -59 -13 -40 -13 -40 -13
23 -8 54 4 62 2 62 -12 0 -10 -4 -15 -9 -11 -5 3 -12 -4 -16 -15 -7 -23 -21
-26 -28 -7 -4 7 -6 6 -6 -4 -1 -9 -9 -19 -19 -21 -14 -4 -18 -14 -17 -37 1
-17 -3 -31 -9 -30 -6 1 -20 0 -31 -1 -14 -1 -11 -4 12 -11 24 -7 30 -13 26
-29 -4 -14 0 -20 11 -20 9 0 16 5 16 12 0 6 3 9 6 6 3 -4 0 -17 -7 -29 -9 -17
-9 -24 0 -27 16 -5 14 -22 -5 -43 -12 -13 -13 -22 -5 -37 6 -11 7 -22 4 -26
-3 -3 -2 -6 4 -6 8 0 8 -12 1 -37 -10 -41 -18 -156 -10 -148 3 3 12 -1 20 -8
13 -10 14 -9 7 3 -8 13 -7 13 9 1 13 -11 14 -16 4 -22 -12 -8 -4 -13 15 -10 4
0 7 -13 7 -29 0 -17 -5 -30 -10 -30 -7 0 -6 -8 2 -22 14 -27 19 -86 7 -94 -14
-8 -11 -24 4 -24 19 0 59 -44 55 -61 -2 -7 -9 -20 -16 -28 -10 -10 -11 -16 -2
-21 18 -11 -5 -22 -33 -16 -12 3 -16 3 -9 0 6 -3 9 -11 6 -16 -5 -8 6 -9 34
-5 23 4 43 3 47 -3 3 -5 13 -6 23 -3 11 4 8 -2 -8 -17 -23 -21 -24 -22 -3 -16
16 5 21 3 19 -9 -2 -16 -22 -39 -34 -41 -4 0 -20 -7 -35 -14 -27 -13 -30 -12
-47 10 -72 95 -191 341 -170 348 14 5 12 22 -2 19 -7 -1 -19 29 -30 78 -15 63
-18 107 -14 205 6 160 31 241 138 450 101 199 123 267 115 369 -8 110 -35 182
-75 200 -18 8 -32 19 -32 23 0 5 -11 24 -24 41 -13 18 -32 45 -42 61 l-18 29
26 -5 c24 -4 26 -3 17 14 -8 14 -14 16 -29 8 -15 -8 -22 -4 -39 24 -12 18 -21
36 -21 40 0 15 26 4 48 -21 29 -35 18 -12 -21 44 -17 23 -34 40 -39 37 -5 -3
-1 -12 8 -18 13 -10 14 -15 5 -20 -7 -5 -14 -6 -15 -5 -16 21 -116 179 -116
183 0 3 -16 28 -35 55 -35 49 -123 214 -158 298 -19 45 -18 100 4 210 14 71
35 95 90 100 24 2 46 8 49 13 3 5 29 2 58 -6 29 -9 49 -20 46 -25 -3 -6 -12
-8 -18 -6 -7 3 -19 1 -27 -4 -12 -7 -11 -10 4 -21 17 -13 17 -14 -1 -34 -46
-48 -70 -304 -30 -312 22 -4 72 44 64 63 -10 26 15 140 44 202 16 35 49 91 73
125 52 73 72 117 82 179 17 112 70 251 125 329 31 44 97 183 118 250 69 217
74 571 10 734 -14 36 -16 52 -8 61 15 18 51 10 70 -14 8 -10 30 -26 48 -35 17
-9 32 -21 32 -27 0 -6 5 -7 10 -4 6 3 10 2 10 -3 0 -11 72 -62 88 -62 8 0 9 7
2 26 -13 34 -13 67 0 59 6 -4 16 -2 23 3 7 6 23 12 36 14 14 1 26 9 29 17 3 8
0 11 -5 8 -5 -3 -19 10 -33 29 -35 52 -72 67 -173 72 -63 3 -85 8 -78 15 18
18 13 47 -8 47 -11 0 -23 5 -26 10 -3 6 -2 10 3 10 5 0 8 12 6 26 -1 14 3 28
12 31 8 3 12 14 10 26 -3 12 -5 29 -5 37 -1 8 -10 0 -21 -17 -19 -33 -34 -41
-44 -25 -2 4 -1 14 5 22 5 8 9 11 9 5 0 -17 27 29 32 56 4 22 2 25 -14 21 -11
-2 -24 -15 -29 -29 -8 -21 -38 -40 -81 -48 -21 -4 -25 8 -23 68 l1 47 -18 -37
c-10 -21 -26 -46 -36 -55 -30 -30 -127 -48 -260 -48 -121 0 -124 1 -119 21 5
20 5 20 -21 3 -57 -35 -66 -65 -26 -83 28 -12 125 -5 135 11 9 14 31 0 69 -44
l34 -40 -29 -22 c-16 -11 -45 -31 -66 -44 l-37 -22 -60 50 c-34 28 -93 65
-131 83 l-71 33 49 13 c40 10 49 16 44 29 -6 14 -4 15 8 5 13 -11 21 -7 45 18
44 48 98 68 184 70 41 1 63 4 47 6 -15 2 -25 9 -22 14 9 13 -73 11 -137 -3
-29 -7 -57 -18 -61 -25 -4 -7 -13 -13 -19 -13 -7 0 -21 -8 -32 -19 -13 -12
-43 -21 -81 -25 -81 -8 -155 -36 -165 -61 -4 -11 -17 -29 -29 -40 -19 -16 -24
-17 -32 -5 -5 8 -7 21 -4 28 9 26 -31 11 -47 -18 -15 -26 -16 -44 -8 -137 6
-73 5 -112 -2 -120 -6 -7 -31 -14 -57 -14 -34 -2 -38 -3 -16 -6 17 -3 35 -9
41 -14 6 -5 45 -7 85 -4 l74 5 -75 -15 c-145 -27 -181 -32 -216 -29 -20 2 -32
-1 -29 -6 9 -14 -6 -12 -35 5 -21 12 -22 14 -6 15 26 0 17 8 -18 14 -16 3 -32
10 -36 16 -20 32 -3 170 21 170 12 0 12 -3 -6 -36 -8 -16 -15 -37 -15 -47 0
-26 24 -16 28 11 2 16 11 22 30 24 30 1 37 3 70 13 12 4 22 10 22 14 0 15 -48
34 -82 33 -42 -2 -51 12 -15 23 14 4 17 8 9 12 -7 2 -33 -6 -59 -19 -64 -32
-96 -91 -90 -170 4 -68 19 -88 94 -124 47 -24 61 -26 121 -20 37 3 81 9 98 12
43 8 64 -15 64 -73 0 -37 5 -50 31 -74 17 -16 43 -32 58 -35 75 -16 90 -42 48
-82 -20 -19 -36 -22 -103 -23 -58 0 -74 -3 -59 -10 17 -8 16 -8 -5 -3 -80 19
-138 16 -206 -11 -97 -38 -126 -54 -119 -65 4 -6 1 -11 -4 -11 -26 -3 -30 -4
-37 -11 -4 -5 -15 -8 -24 -8 -9 0 -25 -7 -36 -15 -18 -14 -17 -15 13 -10 17 3
35 1 38 -5 3 -5 -1 -10 -9 -10 -8 0 -17 -4 -20 -9 -10 -15 20 -20 45 -7 13 6
43 17 66 24 23 7 45 17 48 22 15 24 73 37 156 34 48 -1 97 -5 110 -9 21 -7 22
-6 11 8 -19 22 -11 61 13 69 26 8 119 10 139 2 9 -3 16 -12 16 -19 0 -28 21
-24 60 11 l41 38 -16 -35 c-9 -19 -35 -47 -58 -64 -38 -27 -49 -30 -117 -29
-41 0 -120 4 -175 8 l-100 8 -89 -46 c-57 -29 -103 -46 -125 -46 -35 0 -181
49 -181 61 0 3 20 3 45 -1 25 -4 45 -3 45 2 0 5 -18 28 -39 51 -39 41 -97 117
-323 416 -126 168 -150 226 -173 428 -20 163 -27 194 -64 250 -54 85 -107 131
-157 139 -24 3 -56 4 -71 1 -26 -5 -27 -4 -8 10 15 10 36 13 80 9 33 -4 79 -7
102 -9 36 -2 46 -8 81 -52 72 -91 88 -139 102 -304 10 -114 17 -144 30 -136 9
5 24 -29 40 -90 5 -22 15 -47 21 -55 9 -12 10 -11 4 5 -30 90 -45 178 -45 274
0 126 -14 217 -42 283 -21 50 -88 150 -88 133 0 -6 -9 -16 -21 -23 -19 -12
-19 -12 2 17 13 17 24 31 27 31 6 0 76 -54 103 -80 44 -42 52 -81 55 -280 4
-202 11 -255 45 -344 30 -83 329 -526 371 -552 7 -5 -4 14 -25 41 -79 105
-271 400 -310 478 l-42 82 3 213 c2 175 -1 225 -14 275 -10 34 -23 69 -29 77
-7 8 -19 37 -28 63 -15 45 -72 120 -93 123 -5 1 -13 -2 -19 -7z m154 -249 c0
-10 -3 -8 -9 5 -12 27 -12 43 0 25 5 -8 9 -22 9 -30z m-354 -290 c8 -16 15
-40 15 -54 0 -25 -16 -43 -27 -32 -9 8 -21 105 -15 111 9 8 11 6 27 -25z
m2115 -23 c0 -2 -10 -12 -22 -23 l-23 -19 19 23 c18 21 26 27 26 19z m-565
-17 c8 -13 -25 -13 -45 0 -12 8 -9 10 12 10 15 0 30 -4 33 -10z m110 0 c-3 -5
-12 -10 -18 -10 -7 0 -6 4 3 10 19 12 23 12 15 0z m-176 -111 c17 -28 31 -52
31 -54 0 -2 -12 -6 -27 -8 -21 -3 -18 -4 12 -6 22 -1 56 -7 76 -14 40 -14 122
-67 115 -75 -3 -2 -17 5 -32 17 -31 24 -114 51 -158 51 -17 0 -62 -12 -101
-25 -38 -14 -71 -25 -72 -25 -2 0 -2 33 -2 73 1 58 3 65 9 37 4 -20 8 -26 9
-14 1 24 24 47 73 74 18 10 33 19 34 19 1 1 15 -22 33 -50z m762 3 c-20 -7
-165 9 -153 17 6 4 46 2 89 -3 42 -5 71 -12 64 -14z m-651 -17 c0 -21 -17 -18
-30 4 -15 28 -13 33 10 21 11 -6 20 -17 20 -25z m660 -25 c-14 -11 -33 -20
-42 -20 -10 0 -18 -4 -18 -9 0 -30 -145 -41 -201 -16 l-34 16 31 -6 c18 -3 58
-6 91 -7 50 -1 65 4 103 30 25 17 56 31 70 31 l25 1 -25 -20z m-2200 -16 c0
-2 -7 -4 -15 -4 -8 0 -15 4 -15 10 0 5 7 7 15 4 8 -4 15 -8 15 -10z m2205 -24
c3 -5 -1 -10 -10 -10 -9 0 -13 5 -10 10 3 6 8 10 10 10 2 0 7 -4 10 -10z
m-271 -345 c0 -183 -9 -236 -57 -330 -35 -68 -61 -101 -159 -204 -45 -49 -91
-98 -100 -110 -17 -20 -17 -21 1 -21 11 0 21 5 23 12 3 7 7 6 11 -5 5 -14 0
-17 -27 -17 -20 0 -36 -6 -39 -14 -4 -11 -1 -13 11 -9 12 4 14 3 7 -5 -5 -5
-19 -12 -29 -14 -11 -1 -18 -7 -17 -12 2 -5 -2 -12 -8 -15 -6 -4 -31 -47 -57
-96 -53 -103 -148 -223 -176 -225 -4 0 4 12 18 27 24 26 24 28 7 41 -10 7 -31
12 -48 10 -25 -3 -29 -7 -27 -27 3 -17 0 -22 -10 -18 -21 8 -18 -25 3 -44 17
-15 16 -17 -24 -36 -50 -24 -91 -39 -130 -48 l-29 -6 23 41 c13 23 67 88 119
144 52 56 126 148 164 205 72 107 119 161 277 321 104 106 150 179 174 281 23
100 19 163 -20 292 -19 63 -35 120 -35 125 0 5 20 22 45 38 25 15 45 33 46 38
0 6 14 -25 32 -69 30 -79 31 -83 31 -250z m70 281 c57 -11 62 -13 80 -51 10
-22 19 -50 20 -62 0 -13 4 -23 9 -23 4 0 7 -5 7 -11 0 -5 -4 -8 -9 -5 -5 3
-11 -3 -14 -14 -3 -11 -2 -20 2 -20 5 0 16 -17 25 -38 14 -32 16 -59 12 -158
-2 -65 -5 -131 -5 -145 -1 -27 -35 -47 -46 -28 -3 4 -13 5 -21 2 -22 -8 -2
-25 30 -25 34 0 34 -22 0 -130 -34 -108 -84 -204 -159 -303 -34 -44 -81 -120
-105 -169 -40 -79 -56 -99 -145 -179 -126 -113 -161 -151 -183 -199 -9 -21
-24 -40 -32 -43 -14 -5 -40 -53 -54 -100 -4 -11 -15 -31 -26 -45 l-20 -25 16
45 c9 25 20 93 24 151 10 130 13 135 195 399 74 107 135 198 135 202 0 7 -31
4 -71 -7 -15 -3 -29 -3 -32 2 -3 5 21 14 54 19 39 7 59 7 59 0 0 -5 11 5 25
24 13 18 22 38 18 43 -3 6 -2 7 4 4 13 -8 108 117 162 213 58 102 72 157 74
302 3 198 -7 241 -84 356 -16 24 -24 40 -17 36 6 -4 39 -12 72 -18z m-622 -64
c-27 -4 -37 2 -27 17 4 8 13 7 28 -1 l22 -13 -23 -3z m128 -14 c0 -5 -10 -6
-22 -2 -31 9 -35 14 -18 24 15 9 40 -4 40 -22z m-175 12 c3 -5 1 -10 -4 -10
-6 0 -11 5 -11 10 0 6 2 10 4 10 3 0 8 -4 11 -10z m393 -22 c-38 -50 -78 -126
-78 -148 0 -12 -7 -20 -16 -20 -14 0 -16 -10 -12 -60 4 -57 -3 -78 -15 -46 -3
8 -22 18 -41 22 -36 6 -45 17 -26 29 6 4 17 1 25 -5 11 -9 17 -5 30 25 8 21
15 39 15 42 0 2 16 43 37 90 35 81 52 101 92 102 9 1 5 -10 -11 -31z m-114 7
c-4 -8 -10 -15 -15 -15 -5 0 -9 7 -9 15 0 8 7 15 15 15 9 0 12 -6 9 -15z
m-116 -31 c12 -8 22 -19 22 -24 0 -13 0 -13 -50 5 -23 8 -55 15 -71 15 -30 0
-47 15 -27 24 21 8 101 -4 126 -20z m76 -18 c-3 -15 -8 -25 -11 -23 -2 3 -1
17 3 31 3 15 8 25 11 23 2 -3 1 -17 -3 -31z m-1520 -5 c3 -5 21 -12 39 -15 23
-4 42 -18 58 -39 23 -32 25 -32 42 -15 17 18 16 18 -10 12 -20 -4 -24 -3 -14
4 11 8 10 12 -5 21 -16 9 -17 12 -4 21 8 5 18 10 22 10 12 0 48 -43 48 -57 0
-7 5 -13 10 -13 6 0 10 -7 10 -16 0 -10 6 -14 14 -11 9 4 16 -3 20 -16 3 -12
24 -46 46 -74 22 -29 36 -53 30 -53 -5 0 -12 5 -15 10 -9 14 -35 13 -35 -2 0
-6 3 -8 7 -5 11 12 43 -25 43 -50 0 -29 -27 -31 -61 -5 -30 23 -106 62 -120
62 -6 0 -25 -10 -42 -22 -21 -15 -32 -18 -35 -10 -2 7 -8 12 -14 12 -5 0 -7
-9 -3 -20 8 -26 -4 -48 -16 -29 -16 25 -10 48 21 83 29 33 77 53 110 47 37 -7
-48 61 -93 74 -39 12 -101 42 -126 62 -3 2 4 12 15 22 20 21 49 27 58 12z
m1259 -48 c4 -3 2 -12 -4 -19 -13 -16 -54 0 -44 17 7 10 38 12 48 2z m817 -3
c0 -5 -2 -10 -4 -10 -3 0 -8 5 -11 10 -3 6 -1 10 4 10 6 0 11 -4 11 -10z
m-677 -17 c4 -3 0 -14 -9 -24 -19 -21 -54 -13 -54 12 0 14 7 19 28 19 16 0 32
-3 35 -7z m311 -90 c2 -15 7 -36 11 -46 7 -17 2 -60 -16 -130 -8 -32 -13 -36
-25 -27 -11 10 -14 10 -14 1 0 -7 -4 -9 -10 -6 -5 3 -10 2 -10 -3 0 -30 -133
-155 -226 -213 -19 -11 -34 -28 -34 -36 0 -9 -7 -21 -16 -27 -13 -10 -13 -12
5 -12 12 0 21 4 21 8 0 4 5 8 10 8 6 0 10 -4 10 -8 0 -12 -151 -172 -161 -172
-5 0 -23 -15 -39 -33 -16 -18 -55 -45 -87 -60 -32 -15 -65 -32 -73 -38 -53
-34 -100 -49 -159 -49 -83 0 -171 -23 -249 -66 -69 -38 -80 -41 -62 -19 6 8
10 18 7 22 -3 4 2 15 11 23 14 13 15 12 9 -2 -4 -12 -2 -15 8 -11 8 3 12 9 9
14 -3 5 -2 9 3 10 30 3 48 9 51 19 2 5 7 8 11 5 4 -2 25 0 45 6 21 6 82 11
135 12 88 2 102 5 139 30 23 15 72 67 109 115 81 105 167 190 248 245 229 154
268 204 284 364 11 101 27 148 42 121 5 -9 11 -29 13 -45z m-57 15 c-3 -8 -6
-5 -6 6 -1 11 2 17 5 13 3 -3 4 -12 1 -19z m-344 -5 c4 -3 22 -8 39 -10 52 -7
61 -9 91 -17 15 -5 27 -13 27 -18 0 -13 -54 0 -58 13 -3 6 -8 6 -15 0 -8 -6
-33 -4 -72 6 -70 17 -93 33 -49 33 17 0 34 -3 37 -7z m281 -175 c-10 -32 -74
-97 -89 -92 -7 3 -16 0 -21 -7 -5 -8 -3 -10 6 -4 9 5 11 4 6 -3 -5 -9 -15 -8
-35 3 -26 13 -30 13 -42 -3 -26 -32 -48 -79 -41 -87 4 -5 1 -5 -6 -1 -8 5 -26
-2 -45 -16 -49 -36 -79 -46 -190 -64 -102 -16 -203 -40 -222 -53 -5 -4 -31
-15 -57 -25 -26 -10 -46 -22 -45 -27 1 -6 -26 -28 -61 -49 -71 -43 -145 -58
-202 -42 -32 9 -28 10 37 11 72 1 123 15 123 34 0 13 40 57 52 57 12 0 69 58
97 97 31 45 109 68 204 60 114 -10 247 29 280 81 12 18 30 14 23 -5 -3 -10 9
0 27 22 53 65 119 131 114 113 -4 -12 -2 -15 8 -11 8 3 18 -2 21 -11 3 -9 11
-16 17 -16 7 0 7 4 -1 12 -14 14 -16 32 -3 24 4 -3 17 1 27 9 25 19 27 19 18
-7z m-211 -93 c-3 -9 -8 -14 -10 -11 -3 3 -2 9 2 15 9 16 15 13 8 -4z m-953
-85 c-36 -11 -112 -11 -85 0 11 5 40 8 65 8 37 0 41 -1 20 -8z m-245 -132 c13
-13 -22 -14 -45 -1 -25 13 -25 13 8 10 17 -2 35 -6 37 -9z m1549 -110 c-3 -4
-7 -18 -9 -29 -3 -12 -7 -24 -10 -27 -7 -7 -95 -12 -95 -6 0 3 9 15 21 27 11
12 20 18 19 12 -5 -21 0 -36 10 -30 5 3 6 13 3 22 -4 11 -3 14 5 9 7 -4 12 -2
12 6 0 10 2 10 9 -1 6 -9 11 -10 15 -2 4 6 5 15 2 19 -3 5 1 9 9 9 8 0 12 -4
9 -9z m-695 -47 c11 -7 7 -18 -19 -56 l-33 -48 -46 49 -46 49 35 6 c54 10 94
10 109 0z m-774 -31 c-3 -5 -14 -10 -23 -9 -14 0 -13 2 3 9 27 11 27 11 20 0z
m143 -33 c11 -9 11 -13 -4 -24 -20 -14 -184 -19 -184 -5 0 7 34 19 120 46 18
5 50 -3 68 -17z m432 -327 c-8 -5 -19 -10 -25 -10 -5 0 -3 5 5 10 8 5 20 10
25 10 6 0 3 -5 -5 -10z m947 -52 c-2 -13 -4 -3 -4 22 0 25 2 35 4 23 2 -13 2
-33 0 -45z m-1002 32 c-11 -5 -29 -8 -40 -8 -16 0 -15 2 5 8 34 11 60 11 35 0z
m-76 -24 c-2 -2 -17 -6 -34 -10 -22 -5 -26 -4 -15 4 14 9 59 15 49 6z m218 -2
c-3 -4 -61 -21 -129 -39 -68 -18 -247 -69 -398 -114 -151 -46 -297 -89 -324
-97 -26 -8 -73 -14 -103 -14 -33 0 -52 -4 -48 -10 13 -21 -176 -11 -283 15
-59 14 -133 25 -173 25 -38 0 -69 4 -69 9 0 13 49 25 95 23 l40 -1 -55 18 -55
19 51 1 c27 1 93 -11 145 -25 141 -38 253 -48 363 -34 50 7 103 13 119 14 15
0 27 4 27 7 0 3 26 12 58 19 31 7 147 37 257 67 416 115 501 135 482 117z
m-347 -34 c-34 -11 -60 -11 -35 0 11 5 29 8 40 8 16 0 15 -2 -5 -8z m-63 -16
c-3 -3 -12 -4 -19 -1 -8 3 -5 6 6 6 11 1 17 -2 13 -5z m1473 -172 c1 -57 0
-105 -2 -107 -2 -2 -15 46 -28 106 -19 89 -21 114 -12 127 7 10 16 26 19 37
11 31 21 -43 23 -163z m-2522 150 c2 -7 -8 -12 -27 -12 -31 0 -50 15 -29 23
20 8 52 1 56 -11z m1011 14 c-8 -8 -241 -67 -245 -63 -3 2 42 17 98 32 57 15
108 28 113 30 15 5 39 6 34 1z m-1095 -15 c3 -5 -4 -11 -17 -15 -33 -9 -67 -7
-67 3 0 16 75 27 84 12z m175 -2 c31 -11 39 -23 22 -34 -5 -3 -16 2 -24 10
-17 17 -31 20 -22 5 4 -6 -2 -7 -16 -1 -13 4 -25 13 -27 19 -5 15 26 15 67 1z
m691 7 c0 -2 -7 -6 -15 -10 -8 -3 -15 -1 -15 4 0 6 7 10 15 10 8 0 15 -2 15
-4z m-622 -47 c-7 -5 -20 -8 -28 -8 -10 0 -11 2 -2 6 6 2 10 8 7 13 -3 4 4 6
16 3 16 -4 17 -8 7 -14z m482 11 c-14 -4 -34 -8 -45 -8 -16 0 -15 2 5 8 14 4
34 8 45 8 16 0 15 -2 -5 -8z m-80 -14 c0 -2 -11 -6 -25 -8 -13 -3 -22 -1 -19
3 5 9 44 13 44 5z m-308 -20 c19 -8 69 -18 111 -22 42 -4 77 -11 77 -17 0 -15
-146 -2 -203 18 -26 9 -44 21 -41 26 7 12 16 11 56 -5z m205 8 c-3 -3 -12 -4
-19 -1 -8 3 -5 6 6 6 11 1 17 -2 13 -5z m281 0 c-8 -7 -118 -33 -138 -33 -8 1
14 9 50 19 69 19 97 24 88 14z m1337 -14 c3 -5 -1 -10 -10 -10 -9 0 -13 5 -10
10 3 6 8 10 10 10 2 0 7 -4 10 -10z m-1934 -250 c31 -17 22 -30 -21 -30 -22 0
-40 2 -40 4 0 2 -3 11 -6 20 -5 12 0 16 21 16 14 0 35 -5 46 -10z m111 -95
c-2 -14 -8 -25 -13 -25 -10 0 -12 43 -3 53 13 12 21 -3 16 -28z m3276 -115 c2
-6 9 -10 16 -10 7 0 23 -11 36 -25 30 -31 18 -32 -23 -2 -18 13 -47 30 -64 37
-18 7 -33 16 -33 21 0 11 64 -9 68 -21z m-1048 -685 c0 -8 0 -18 0 -22 0 -18
-23 -6 -31 15 -7 18 -5 22 11 22 11 0 20 -7 20 -15z m248 -29 c-10 -7 -15 -15
-12 -18 3 -4 0 -9 -7 -14 -8 -5 -10 -3 -4 6 5 9 2 10 -14 5 -15 -4 -21 -2 -21
9 0 13 15 18 65 24 6 1 2 -5 -7 -12z m-230 -55 c3 -8 0 -11 -6 -7 -12 7 -22
-16 -22 -52 0 -15 -5 -34 -11 -42 -7 -11 -8 -6 -4 18 4 19 7 49 7 68 0 27 4
34 16 32 8 -2 17 -9 20 -17z m222 -22 c0 -6 -4 -7 -10 -4 -5 3 -10 11 -10 16
0 6 5 7 10 4 6 -3 10 -11 10 -16z m-843 -104 c7 -8 30 -17 50 -21 36 -7 36 -7
12 -20 l-24 -13 25 -2 c45 -4 49 -4 55 -11 4 -4 14 -4 22 -1 9 4 22 -2 29 -12
8 -10 14 -13 14 -7 0 10 5 10 20 2 11 -6 25 -8 31 -4 8 4 9 -1 4 -17 -7 -21
-6 -22 8 -11 20 17 38 7 30 -15 -5 -12 -3 -14 7 -8 9 6 11 4 5 -5 -6 -10 -4
-12 8 -7 10 3 17 2 17 -3 0 -6 6 -10 14 -10 7 0 19 -7 26 -15 18 -22 6 -19
-76 20 -40 19 -77 35 -81 35 -4 0 -20 6 -34 14 -14 7 -39 16 -55 20 -16 4 -42
14 -59 21 -16 7 -43 15 -60 18 -16 3 -74 14 -129 26 -54 11 -115 21 -135 22
-26 0 -31 2 -17 8 11 4 40 4 65 0 25 -3 50 -5 56 -3 53 16 123 8 83 -10 -7 -3
-2 -4 12 -3 32 3 44 20 22 30 -10 4 -5 5 12 2 15 -3 35 -12 43 -20z m-350 -1
c-3 -3 -12 -4 -19 -1 -8 3 -5 6 6 6 11 1 17 -2 13 -5z m-40 -19 c0 -8 -6 -15
-13 -15 -8 0 -11 6 -8 15 4 8 9 15 13 15 4 0 8 -7 8 -15z m-43 -27 c-4 -7 -16
-23 -27 -35 -18 -21 -19 -23 -3 -23 9 0 15 -4 12 -9 -3 -4 6 -7 19 -5 14 1 23
-2 19 -7 -3 -5 -12 -9 -20 -9 -8 0 -12 -4 -9 -10 3 -5 -1 -10 -9 -10 -9 0 -13
-6 -10 -14 4 -9 -8 -16 -38 -21 l-43 -8 40 -7 c22 -4 34 -8 28 -9 -7 0 -12 -4
-12 -8 4 -22 -4 -32 -31 -43 -40 -16 -50 -33 -15 -24 18 4 30 2 36 -7 5 -8 9
-9 9 -3 0 7 7 14 15 18 10 4 15 -1 15 -14 0 -12 -7 -20 -17 -21 -15 0 -15 -2
2 -9 19 -8 19 -9 1 -9 -13 -1 -17 -6 -13 -21 3 -10 0 -22 -7 -25 -8 -4 -8 -6
1 -11 15 -7 5 -65 -14 -79 -14 -11 -14 -12 1 -18 13 -5 15 -13 10 -29 -4 -13
-8 -33 -10 -46 -1 -13 -8 -29 -14 -37 -10 -12 -8 -13 9 -10 12 2 19 0 16 -6
-4 -5 -13 -9 -21 -9 -8 0 -14 -4 -14 -8 0 -4 -12 -9 -26 -10 -15 -1 -33 -7
-40 -13 -20 -16 -7 -31 16 -19 24 13 37 -5 19 -27 -11 -13 -11 -15 6 -12 11 3
21 10 21 17 1 6 3 15 4 20 1 4 2 9 2 12 0 3 11 7 25 8 24 2 25 1 11 -15 -19
-22 -33 -93 -18 -93 5 0 10 -7 10 -15 0 -8 6 -15 13 -15 18 -1 -35 -29 -55
-30 -9 0 -20 -5 -24 -12 -5 -8 5 -9 36 -4 28 4 47 2 58 -6 13 -11 14 -11 7 1
-5 10 -4 12 3 7 7 -4 12 -18 12 -32 0 -14 -4 -22 -10 -19 -7 4 -7 -2 0 -19 5
-14 7 -32 4 -40 -3 -8 -1 -17 5 -21 18 -10 13 -24 -16 -40 l-28 -15 27 6 c21
5 30 1 44 -20 9 -15 14 -29 11 -33 -4 -3 -9 2 -13 11 -8 22 -44 21 -44 -1 0
-10 12 -28 27 -40 24 -21 24 -23 6 -23 -33 0 -59 29 -98 108 -60 121 -80 234
-79 452 1 167 4 194 27 275 30 109 49 151 79 187 13 14 31 36 40 47 19 23 44
29 32 9z m2650 -23 c3 -8 0 -14 -7 -12 -7 1 -12 -10 -12 -29 0 -18 -8 -41 -19
-53 -25 -28 -95 -53 -137 -49 -29 2 -34 7 -37 31 -2 15 -8 27 -13 27 -5 0 -9
4 -9 9 0 5 15 9 33 9 17 1 49 3 69 6 21 3 40 1 43 -4 4 -6 12 -10 18 -10 7 0
4 5 -5 11 -25 14 -23 33 3 26 13 -4 22 0 26 11 14 40 37 53 47 27z m-327 -97
c-3 -8 -6 -5 -6 6 -1 11 2 17 5 13 3 -3 4 -12 1 -19z m-910 -43 c0 -8 -4 -15
-9 -15 -10 0 -11 14 -1 23 9 10 10 9 10 -8z m8 -53 c-3 -3 0 -11 7 -19 16 -19
4 -27 -22 -13 -18 10 -19 14 -8 28 9 11 9 14 1 8 -9 -5 -11 -2 -7 9 5 12 9 13
20 4 8 -7 12 -14 9 -17z m-270 -91 c-6 -5 -25 10 -25 20 0 5 6 4 14 -3 8 -7
12 -15 11 -17z m-1162 -12 c4 -16 3 -18 -9 -8 -7 6 -11 15 -8 20 8 13 11 11
17 -12z m12 -159 c3 -5 1 -10 -4 -10 -6 0 -11 5 -11 10 0 6 2 10 4 10 3 0 8
-4 11 -10z m102 -227 c-3 -10 -5 -2 -5 17 0 19 2 27 5 18 2 -10 2 -26 0 -35z
m0 -150 c-3 -10 -5 -4 -5 12 0 17 2 24 5 18 2 -7 2 -21 0 -30z m-298 -64 c-5
-28 -11 -54 -15 -58 -6 -6 5 89 13 102 9 16 10 5 2 -44z m431 -14 c7 -9 8 -15
2 -15 -5 0 -12 7 -16 15 -3 8 -4 15 -2 15 2 0 9 -7 16 -15z m-523 -98 c-31
-53 -79 -91 -135 -108 -23 -7 -42 -15 -42 -19 0 -4 -6 -7 -12 -7 -7 -1 -35 -6
-63 -12 -27 -6 -63 -14 -80 -17 -79 -13 -128 -25 -162 -39 -30 -13 -35 -18
-23 -25 13 -9 9 -14 -6 -7 -3 1 -10 -6 -15 -15 -14 -25 -31 -22 -27 4 4 32 67
63 167 83 255 51 367 103 401 185 7 17 15 28 18 26 2 -3 -7 -25 -21 -49z m498
13 c21 -22 37 -40 34 -40 -3 0 -23 18 -44 40 -21 22 -37 40 -34 40 3 0 23 -18
44 -40z m-108 -42 c-3 -8 -6 -5 -6 6 -1 11 2 17 5 13 3 -3 4 -12 1 -19z m1242
-162 c11 -21 18 -43 15 -47 -4 -7 37 -14 67 -11 3 0 20 -26 38 -59 31 -56 31
-59 12 -59 -12 0 -21 -4 -21 -9 0 -4 11 -6 25 -3 29 5 36 -24 8 -31 -14 -4
-13 -5 4 -6 28 -1 33 -10 38 -71 3 -28 7 -56 10 -61 4 -5 -4 -10 -17 -10 -20
-2 -21 -2 -3 -6 11 -2 26 -17 33 -33 8 -16 34 -52 59 -80 50 -55 51 -70 5 -46
-40 21 -93 84 -124 148 -97 199 -199 455 -197 498 0 8 7 -5 14 -30 8 -25 23
-63 34 -84z m-1904 -45 c-74 -43 -152 -68 -166 -54 -8 8 17 20 93 46 127 43
137 45 73 8z m205 5 c0 -3 -15 -14 -32 -26 l-33 -22 30 26 c31 27 35 29 35 22z
m-231 -50 c-12 -11 -99 -44 -99 -37 0 10 61 40 84 40 11 1 17 -1 15 -3z m-123
-46 c19 -1 19 -1 0 -12 -13 -7 -21 -8 -23 -1 -2 6 -18 9 -35 7 -31 -4 -31 -4
-13 16 16 18 20 19 35 5 9 -8 25 -15 36 -15z m208 0 c-29 -19 -124 -53 -124
-44 0 7 124 62 140 63 8 0 1 -8 -16 -19z m1703 -36 c-3 -3 3 -15 13 -27 11
-11 17 -23 15 -27 -3 -4 2 -13 10 -20 18 -15 20 -46 3 -54 -7 -3 -1 -3 15 0
29 7 37 -12 15 -34 -9 -9 -6 -14 13 -20 16 -6 26 -6 31 2 6 8 8 7 8 -2 0 -7
-7 -15 -15 -18 -20 -8 -1 -34 24 -34 14 0 14 2 1 10 -8 5 -10 10 -5 10 6 0 16
-4 23 -9 11 -6 10 -10 -5 -16 -32 -14 -56 -16 -64 -4 -5 8 -8 8 -13 0 -4 -6
-2 -11 4 -11 6 0 8 -5 5 -10 -11 -18 23 -22 46 -7 23 17 50 8 76 -23 11 -13
14 -13 22 0 14 20 31 2 37 -39 6 -33 -9 -41 -44 -21 -9 5 -35 14 -58 20 -49
12 -167 129 -234 233 -45 72 -45 86 5 87 11 0 27 5 35 10 16 11 47 14 37 4z
m-1846 -32 c-6 -11 -26 -31 -45 -45 -19 -15 -37 -37 -39 -49 -4 -22 -4 -22 -6
1 -1 17 13 38 44 68 49 47 61 53 46 25z m2089 -524 c0 -5 -7 -3 -15 6 -8 8
-15 18 -15 22 0 3 7 1 15 -6 8 -7 15 -17 15 -22z m60 -50 c0 -12 -6 -9 -26 13
-19 22 -19 22 4 8 12 -8 22 -17 22 -21z m30 -40 c0 -13 -23 -5 -28 10 -2 7 2
10 12 6 9 -3 16 -11 16 -16z m-170 -52 c0 -20 -21 -76 -28 -76 -4 0 -14 5 -22
10 -13 8 -13 14 4 45 19 35 46 48 46 21z m-341 -23 c-7 -10 -22 -28 -33 -41
-18 -20 -18 -24 -6 -33 11 -8 8 -8 -10 -3 -22 6 -23 5 -11 -10 11 -13 11 -19
0 -33 -34 -46 -73 -82 -83 -76 -6 3 -8 3 -4 -2 4 -4 3 -15 -4 -22 -10 -12 -13
-11 -23 7 -11 21 -14 19 -63 -35 -52 -57 -70 -62 -31 -9 21 29 269 274 277
274 3 0 -2 -8 -9 -17z m-170 -27 c-2 -2 -40 -31 -84 -63 -44 -33 -95 -75 -114
-94 -19 -18 -29 -25 -24 -14 6 11 22 30 35 41 27 26 179 134 186 134 3 0 3 -2
1 -4z m233 -73 c-17 -39 -47 -98 -53 -103 -4 -3 -5 -20 -4 -38 1 -17 -1 -30
-4 -26 -3 3 -11 -10 -17 -28 -8 -24 -16 -32 -30 -30 -10 2 -22 9 -26 15 -4 7
-8 9 -8 5 0 -3 -3 -15 -6 -25 -5 -15 -4 -15 5 -3 9 13 11 13 11 -2 0 -9 -5
-20 -10 -23 -6 -4 -10 -12 -9 -18 4 -30 -3 -42 -11 -22 -8 18 -9 18 -10 -5 -1
-23 -2 -23 -9 -5 -7 16 -10 12 -15 -22 -4 -23 -5 -47 -2 -52 4 -5 2 -12 -3
-15 -12 -8 -21 18 -21 60 0 39 31 106 82 175 33 46 141 179 145 179 1 0 -1 -8
-5 -17z m271 -74 c-6 -6 -7 3 -4 23 4 28 6 29 9 9 2 -13 0 -27 -5 -32z m-373
-173 c0 -3 -4 -8 -10 -11 -5 -3 -10 -1 -10 4 0 6 5 11 10 11 6 0 10 -2 10 -4z"/>
<path d="M2265 5819 c-4 -6 -5 -12 -2 -15 2 -3 7 2 10 11 7 17 1 20 -8 4z"/>
<path d="M2147 4426 c-4 -10 -1 -13 9 -9 15 6 19 23 5 23 -5 0 -11 -7 -14 -14z"/>
<path d="M2995 5670 l-30 -8 33 -1 c17 0 32 4 32 9 0 6 -1 9 -2 9 -2 -1 -16
-5 -33 -9z"/>
<path d="M2620 4462 c0 -6 -8 -13 -17 -15 -16 -4 -16 -5 -1 -6 18 -1 34 16 24
26 -3 4 -6 1 -6 -5z"/>
<path d="M2400 4270 l-25 -6 28 -6 c15 -3 30 -2 32 3 8 12 -8 16 -35 9z"/>
<path d="M1171 5534 c0 -11 3 -14 6 -6 3 7 2 16 -1 19 -3 4 -6 -2 -5 -13z"/>
<path d="M1095 5431 c-3 -5 -1 -12 5 -16 5 -3 10 1 10 9 0 18 -6 21 -15 7z"/>
<path d="M2456 5251 c-4 -5 1 -8 9 -7 21 3 31 16 12 16 -9 0 -18 -4 -21 -9z"/>
<path d="M2686 4848 c3 -5 10 -6 15 -3 13 9 11 12 -6 12 -8 0 -12 -4 -9 -9z"/>
<path d="M1800 2346 c0 -2 7 -7 16 -10 8 -3 12 -2 9 4 -6 10 -25 14 -25 6z"/>
<path d="M1764 2133 c10 -11 36 -12 36 -2 0 5 -10 9 -22 9 -12 0 -18 -3 -14
-7z"/>
<path d="M1843 2033 c-15 -5 -17 -23 -4 -23 5 0 11 7 15 15 3 8 4 15 3 14 -1
0 -8 -3 -14 -6z"/>
<path d="M1848 1959 c5 -13 14 -25 20 -27 8 -2 9 3 4 19 -5 13 -14 25 -20 27
-8 2 -9 -3 -4 -19z"/>
<path d="M1825 1900 c3 -5 8 -10 11 -10 2 0 4 5 4 10 0 6 -5 10 -11 10 -5 0
-7 -4 -4 -10z"/>
<path d="M3068 1383 c7 -3 16 -2 19 1 4 3 -2 6 -13 5 -11 0 -14 -3 -6 -6z"/>
<path d="M3325 1150 c-16 -7 -17 -9 -3 -9 9 -1 20 4 23 9 7 11 7 11 -20 0z"/>
<path d="M2850 629 c0 -5 5 -7 10 -4 6 3 10 8 10 11 0 2 -4 4 -10 4 -5 0 -10
-5 -10 -11z"/>
<path d="M2886 473 c-6 -14 -5 -15 5 -6 7 7 10 15 7 18 -3 3 -9 -2 -12 -12z"/>
<path d="M2953 6213 c-22 -21 -43 -48 -47 -60 -5 -14 -20 -26 -39 -32 -18 -5
-24 -10 -14 -10 10 -1 34 6 53 14 l35 15 -26 -32 c-17 -20 -23 -34 -16 -36 19
-6 39 5 56 31 15 24 49 137 42 143 -2 2 -22 -13 -44 -33z"/>
<path d="M4846 5731 c-36 -39 -96 -73 -156 -87 -34 -8 -73 -21 -88 -29 -26
-15 -25 -16 29 -10 65 7 153 -11 145 -30 -2 -7 3 -12 11 -11 9 0 18 -5 20 -11
3 -8 -5 -13 -21 -13 -14 0 -29 6 -33 13 -9 13 -43 19 -43 7 0 -9 44 -26 88
-34 28 -5 37 -1 62 27 25 27 29 41 30 85 0 54 -14 69 -29 30 -9 -23 -51 -68
-51 -54 0 10 24 50 35 58 6 4 7 8 2 8 -4 0 0 14 8 31 20 37 15 47 -9 20z"/>
<path d="M1257 5734 c-4 -4 -2 -13 4 -21 9 -10 8 -13 -6 -13 -14 0 -14 -3 5
-27 46 -60 226 -316 241 -344 9 -15 39 -51 66 -78 28 -28 49 -52 46 -54 -2 -3
10 -15 26 -27 31 -21 44 -13 16 10 -8 6 -17 20 -20 30 -3 10 -22 35 -41 56
-51 54 -276 374 -320 457 -6 10 -13 14 -17 11z"/>
<path d="M3220 5698 c1 -7 7 -39 15 -71 13 -56 21 -67 72 -103 13 -9 21 -19
19 -23 -2 -3 9 -19 24 -34 l27 -29 -5 31 c-3 23 0 32 14 38 11 4 31 20 46 37
l27 31 -62 30 c-34 17 -88 47 -119 68 -34 22 -58 32 -58 25z"/>
<path d="M3990 5603 c-19 -20 -21 -24 -7 -19 10 3 22 6 27 6 4 0 10 9 13 20 7
26 -3 24 -33 -7z"/>
<path d="M4115 5620 c3 -5 11 -10 16 -10 6 0 7 5 4 10 -3 6 -11 10 -16 10 -6
0 -7 -4 -4 -10z"/>
<path d="M4081 5589 c-18 -15 -20 -19 -7 -19 10 0 14 -4 11 -10 -3 -5 -12 -10
-20 -10 -24 0 -86 -44 -151 -107 -66 -65 -98 -109 -72 -101 7 3 18 -2 25 -11
10 -14 14 -14 40 7 141 112 207 142 313 142 85 0 104 -12 95 -58 -4 -20 -21
-62 -38 -94 -38 -69 -67 -84 -155 -81 -55 2 -63 0 -58 -14 4 -8 1 -22 -5 -30
-16 -18 21 -58 65 -72 33 -10 165 -8 228 4 34 7 38 5 54 -26 9 -19 25 -45 35
-58 31 -39 25 -78 -16 -102 -19 -12 -35 -23 -35 -26 0 -6 122 7 134 15 5 3 1
8 -9 12 -15 5 -12 10 19 28 27 16 36 18 36 7 0 -7 -7 -21 -16 -29 -8 -9 -12
-16 -8 -16 13 0 -30 -42 -58 -56 -15 -8 -48 -14 -74 -14 -39 0 -51 5 -81 35
-34 34 -35 38 -31 95 5 72 -4 75 -49 18 -26 -31 -33 -50 -34 -87 -2 -68 1 -82
24 -124 25 -45 51 -63 103 -73 63 -11 65 -16 58 -118 -5 -79 -3 -95 14 -122
21 -33 67 -58 122 -67 19 -3 29 -3 23 0 -22 8 -14 23 12 23 14 0 25 5 25 10 0
6 -7 10 -15 10 -23 0 -55 73 -54 122 1 37 2 39 8 15 l6 -29 73 74 c39 40 72
79 72 87 0 7 10 29 21 48 l21 34 25 -23 c14 -13 34 -40 45 -61 13 -26 24 -37
34 -33 8 3 14 1 14 -4 0 -6 4 -10 10 -10 13 0 35 43 24 47 -5 2 -8 21 -6 44 8
75 -16 128 -87 199 -36 36 -99 91 -138 123 -40 31 -86 75 -103 98 -31 44 -67
129 -80 194 -7 35 -9 37 -15 18 -8 -25 -25 -31 -25 -10 0 6 -18 -19 -38 -56
-47 -83 -62 -100 -62 -69 0 12 9 30 20 39 24 21 26 33 4 33 -12 0 -14 4 -7 13
6 6 21 43 34 81 13 38 34 76 47 86 l23 19 -23 12 c-30 17 -39 19 -133 25 -44
4 -105 2 -135 -4 -56 -10 -83 -6 -59 9 7 4 11 10 9 13 -3 2 -16 -4 -29 -15z
m76 -365 c-3 -3 -12 -4 -19 -1 -8 3 -5 6 6 6 11 1 17 -2 13 -5z m480 -296 c-3
-8 -6 -5 -6 6 -1 11 2 17 5 13 3 -3 4 -12 1 -19z m13 -45 c0 -5 -5 -15 -10
-23 -8 -12 -10 -11 -10 8 0 12 5 22 10 22 6 0 10 -3 10 -7z"/>
<path d="M4550 5583 c0 -5 19 -19 41 -33 44 -27 244 -220 269 -259 23 -36 62
-71 88 -78 17 -4 22 -11 19 -24 -6 -22 -3 -23 23 -9 13 7 24 5 43 -10 27 -21
38 -25 36 -12 -4 27 4 37 31 39 41 3 136 76 149 115 15 43 7 46 -33 10 -88
-77 -207 -46 -359 95 -103 95 -130 115 -193 147 -49 24 -114 35 -114 19z"/>
<path d="M4493 5540 c10 -49 79 -192 118 -245 20 -27 56 -68 79 -90 22 -22 48
-55 57 -73 8 -18 26 -42 38 -54 17 -17 21 -26 13 -35 -8 -10 -7 -13 3 -13 19
0 66 -44 74 -70 3 -11 10 -20 14 -20 4 0 8 -7 8 -15 0 -8 -7 -15 -14 -15 -9 0
-11 -5 -7 -12 10 -16 16 -54 16 -106 l0 -43 24 22 c26 24 31 58 13 91 -6 11
-11 42 -11 70 1 38 6 53 24 68 29 25 58 19 116 -20 44 -31 62 -37 62 -20 0 6
9 6 26 -1 33 -12 42 -5 20 17 -9 9 -25 33 -36 54 -27 52 -58 72 -180 114 -58
20 -129 53 -158 73 -77 53 -181 170 -238 268 -51 88 -71 106 -61 55z"/>
<path d="M3216 5527 c3 -12 6 -24 6 -27 0 -22 -3 -30 -12 -25 -5 3 -10 3 -10
-2 -1 -4 -5 -41 -9 -81 -10 -80 1 -139 25 -149 8 -3 13 -12 10 -19 -3 -7 1
-17 9 -21 8 -5 26 -43 40 -86 21 -64 23 -85 16 -119 -6 -24 -17 -48 -25 -54
-9 -6 -19 -29 -24 -50 -7 -32 -9 -19 -14 74 -3 83 -8 116 -19 123 -8 5 -15 5
-17 -1 -2 -5 -10 -6 -18 -3 -22 8 -17 -35 6 -49 24 -15 26 -28 5 -28 -8 0 -15
5 -15 11 0 5 -5 7 -12 3 -8 -5 -5 -12 10 -24 15 -13 18 -20 10 -28 -8 -8 -8
-15 2 -27 10 -13 9 -15 -6 -15 -15 0 -16 -2 -5 -9 11 -7 11 -13 0 -37 -13 -26
-15 -56 -11 -119 1 -12 20 -31 49 -49 43 -25 52 -27 98 -20 l50 9 -37 22 c-21
12 -46 39 -57 62 -26 51 -27 64 -1 56 16 -5 20 -2 20 17 1 29 25 62 39 53 6
-3 11 -2 11 4 0 6 18 27 41 48 46 42 73 88 65 108 -3 8 0 15 7 18 8 2 6 14 -6
38 l-17 34 0 -40 c-1 -22 -5 -49 -9 -60 -5 -13 -8 4 -8 46 1 53 -4 75 -26 113
-29 53 -34 67 -15 48 9 -9 16 -6 30 16 27 40 22 70 -18 116 -103 119 -174 174
-158 123z m104 -212 c13 -14 21 -25 18 -25 -2 0 -15 11 -28 25 -13 14 -21 25
-18 25 2 0 15 -11 28 -25z m-100 11 c0 -3 -4 -8 -10 -11 -5 -3 -10 -1 -10 4 0
6 5 11 10 11 6 0 10 -2 10 -4z"/>
<path d="M4830 5471 c0 -9 24 -21 42 -21 6 0 6 6 -2 15 -14 16 -40 20 -40 6z"/>
<path d="M5050 5464 c-19 -7 -48 -13 -65 -14 -48 -1 -58 -13 -35 -38 l21 -22
-26 0 c-15 0 -24 -4 -20 -10 3 -6 16 -8 29 -4 14 3 39 -4 66 -20 25 -14 54
-25 65 -25 11 0 14 3 8 6 -16 6 -17 37 -2 65 14 27 4 35 -19 15 -10 -10 -23
-17 -28 -17 -5 0 -1 7 9 14 10 8 16 18 15 24 -2 6 6 18 17 26 24 18 13 18 -35
0z"/>
<path d="M5202 5368 c-35 -22 -39 -28 -19 -28 16 1 63 37 57 44 -3 3 -20 -4
-38 -16z"/>
<path d="M4518 5333 c6 -2 18 -2 25 0 6 3 1 5 -13 5 -14 0 -19 -2 -12 -5z"/>
<path d="M3185 5150 c3 -5 8 -10 11 -10 2 0 4 5 4 10 0 6 -5 10 -11 10 -5 0
-7 -4 -4 -10z"/>
<path d="M3170 5121 c0 -6 5 -13 10 -16 6 -3 10 0 10 7 0 9 3 9 10 -2 8 -13
10 -12 10 3 0 10 -8 17 -20 17 -11 0 -20 -4 -20 -9z"/>
<path d="M3081 4451 c-1 -46 4 -101 10 -122 10 -33 15 -37 38 -34 14 2 44 6
66 9 64 9 170 65 153 81 -2 3 -19 0 -37 -5 -82 -23 -186 32 -215 113 l-14 42
-1 -84z"/>
<path d="M4211 4426 c2 -2 22 -6 44 -9 27 -4 35 -3 25 3 -14 9 -79 15 -69 6z"/>
<path d="M2570 4230 c-12 -8 -11 -10 8 -10 12 0 22 5 22 10 0 13 -11 13 -30 0z"/>
<path d="M4060 3980 c0 -5 5 -12 10 -15 6 -3 10 -1 10 5 0 6 6 8 13 4 6 -4 8
-3 4 1 -10 12 -37 15 -37 5z"/>
<path d="M2490 3879 c0 -8 7 -24 15 -35 18 -24 19 -7 0 26 -9 16 -14 19 -15 9z"/>
<path d="M2520 3811 c0 -6 4 -13 10 -16 6 -3 7 1 4 9 -7 18 -14 21 -14 7z"/>
<path d="M2533 3773 c12 -3 16 -10 12 -21 -5 -13 -3 -14 6 -5 14 14 3 33 -19
32 -15 -1 -14 -2 1 -6z"/>
<path d="M2590 3681 c0 -5 7 -15 17 -22 15 -13 15 -12 4 9 -12 23 -21 28 -21
13z"/>
<path d="M2629 3625 c17 -33 31 -51 31 -40 0 6 -10 21 -21 35 -13 17 -17 18
-10 5z"/>
<path d="M2660 3560 c0 -5 5 -10 11 -10 5 0 7 5 4 10 -3 6 -8 10 -11 10 -2 0
-4 -4 -4 -10z"/>
<path d="M2906 3532 c-2 -4 12 -6 32 -4 56 5 62 10 15 11 -23 1 -44 -3 -47 -7z"/>
<path d="M2828 3523 c6 -2 18 -2 25 0 6 3 1 5 -13 5 -14 0 -19 -2 -12 -5z"/>
<path d="M2690 3510 c0 -5 7 -10 16 -10 8 0 12 5 9 10 -3 6 -10 10 -16 10 -5
0 -9 -4 -9 -10z"/>
<path d="M2768 3513 c6 -2 18 -2 25 0 6 3 1 5 -13 5 -14 0 -19 -2 -12 -5z"/>
<path d="M4278 3293 c7 -3 16 -2 19 1 4 3 -2 6 -13 5 -11 0 -14 -3 -6 -6z"/>
<path d="M2855 3259 c-9 -14 -2 -20 14 -10 8 6 9 11 3 15 -6 3 -14 1 -17 -5z"/>
<path d="M2905 3180 c-3 -5 -1 -10 4 -10 6 0 11 5 11 10 0 6 -2 10 -4 10 -3 0
-8 -4 -11 -10z"/>
<path d="M3045 3070 c-8 -13 5 -13 25 0 13 8 13 10 -2 10 -9 0 -20 -4 -23 -10z"/>
<path d="M3061 2988 c-2 -24 10 -49 20 -42 5 3 9 10 9 15 0 6 -4 8 -9 4 -5 -3
-12 5 -14 17 -2 14 -5 16 -6 6z"/>
<path d="M3120 2921 c0 -10 28 -41 36 -41 2 0 -3 11 -12 25 -17 26 -24 31 -24
16z"/>
<path d="M3063 2898 c-2 -18 0 -20 7 -8 12 18 13 30 2 30 -4 0 -9 -10 -9 -22z"/>
<path d="M3092 2908 c-20 -20 -13 -38 14 -38 23 0 25 2 13 17 -8 9 -12 18 -11
20 9 11 -6 11 -16 1z"/>
<path d="M3054 2820 c0 -26 23 -43 29 -21 2 10 -3 22 -12 28 -13 8 -17 7 -17
-7z"/>
<path d="M3020 2773 c0 -11 5 -11 20 -3 11 6 20 13 20 15 0 2 -9 3 -20 2 -11
-1 -20 -7 -20 -14z"/>
<path d="M3192 2760 c0 -14 2 -19 5 -12 2 6 2 18 0 25 -3 6 -5 1 -5 -13z"/>
<path d="M3040 2745 c0 -9 5 -15 11 -13 6 2 11 8 11 13 0 5 -5 11 -11 13 -6 2
-11 -4 -11 -13z"/>
<path d="M2965 2690 c-3 -5 -1 -10 4 -10 6 0 11 5 11 10 0 6 -2 10 -4 10 -3 0
-8 -4 -11 -10z"/>
<path d="M3202 2598 c-19 -19 -14 -26 12 -21 16 3 23 10 19 19 -6 17 -15 18
-31 2z"/>
<path d="M3256 2585 c-9 -26 -7 -32 5 -12 6 10 9 21 6 23 -2 3 -7 -2 -11 -11z"/>
<path d="M2920 2540 c-8 -5 -10 -10 -5 -10 6 0 17 5 25 10 8 5 11 10 5 10 -5
0 -17 -5 -25 -10z"/>
<path d="M2850 2235 c7 -9 15 -13 17 -11 7 7 -7 26 -19 26 -6 0 -6 -6 2 -15z"/>
<path d="M3357 2233 c-4 -3 -7 -11 -7 -17 0 -6 5 -5 12 2 6 6 9 14 7 17 -3 3
-9 2 -12 -2z"/>
<path d="M2828 2199 c-9 -6 -9 -13 2 -34 13 -24 36 -32 28 -10 -2 6 -6 9 -10
8 -5 -2 -8 4 -8 12 0 8 7 15 15 15 8 0 15 4 15 8 0 11 -25 11 -42 1z"/>
<path d="M2790 2028 c0 -19 2 -20 10 -8 13 19 13 30 0 30 -5 0 -10 -10 -10
-22z"/>
<path d="M2830 2010 c0 -5 5 -10 10 -10 6 0 10 5 10 10 0 6 -4 10 -10 10 -5 0
-10 -4 -10 -10z"/>
<path d="M2876 1812 c7 -4 14 -16 16 -27 5 -19 5 -19 13 -1 8 18 -7 36 -30 36
-5 0 -5 -4 1 -8z"/>
<path d="M2960 1610 c-9 -6 -10 -10 -3 -10 6 0 15 5 18 10 8 12 4 12 -15 0z"/>
<path d="M3475 1580 c-4 -6 3 -10 14 -10 25 0 27 6 6 13 -8 4 -17 2 -20 -3z"/>
</g>
</svg>
