<?xml version="1.0" standalone="no"?>
<!DOCTYPE svg PUBLIC "-//W3C//DTD SVG 20010904//EN"
 "http://www.w3.org/TR/2001/REC-SVG-20010904/DTD/svg10.dtd">
<svg version="1.0" xmlns="http://www.w3.org/2000/svg"
 width="546.000000pt" height="540.000000pt" viewBox="0 0 546.000000 540.000000"
 preserveAspectRatio="xMidYMid meet">

<g transform="translate(0.000000,540.000000) scale(0.100000,-0.100000)"
fill="#FFFFFF" stroke="none">
<path d="M2498 5064 c-270 -33 -490 -96 -728 -207 -47 -21 -101 -45 -120 -52
-19 -7 -78 -40 -130 -74 -52 -34 -112 -69 -132 -78 -21 -9 -40 -23 -43 -32 -3
-9 -27 -31 -55 -50 -28 -19 -56 -41 -63 -50 -15 -19 42 19 103 69 82 67 332
196 540 280 126 50 394 116 555 136 207 25 557 15 730 -21 215 -46 370 -94
530 -165 62 -28 115 -50 118 -50 3 0 41 -21 84 -48 251 -152 514 -374 605
-511 28 -42 70 -98 93 -126 124 -148 285 -436 374 -665 95 -248 149 -589 137
-867 -32 -754 -417 -1434 -1041 -1838 -134 -87 -355 -202 -460 -240 -27 -10
-54 -22 -60 -26 -5 -4 -37 -15 -70 -24 -125 -34 -132 -37 -110 -45 11 -4 28
-4 37 1 9 5 25 9 35 9 17 -1 17 -2 -1 -15 -28 -21 -13 -29 22 -11 16 8 32 12
36 9 3 -4 6 1 6 11 0 10 14 23 33 31 17 7 35 17 39 21 12 12 122 54 141 54 10
0 20 7 23 15 4 8 11 15 16 15 12 0 190 98 263 145 28 17 66 37 85 45 19 7 46
25 60 41 14 15 61 56 105 90 110 86 282 256 370 364 423 521 607 1170 515
1820 -20 139 -62 321 -90 385 -16 36 -42 101 -60 144 -66 168 -221 436 -330
571 -31 39 -78 100 -104 137 -91 129 -309 315 -581 496 -60 40 -121 75 -135
78 -14 3 -59 20 -100 39 -209 95 -437 156 -710 189 -197 24 -338 24 -532 0z"/>
<path d="M3925 4963 c10 -40 43 -67 105 -87 30 -10 64 -26 75 -35 11 -10 34
-26 50 -36 167 -103 525 -455 620 -609 11 -18 32 -46 47 -62 27 -28 60 -80
139 -214 41 -71 167 -358 188 -430 8 -25 22 -72 32 -105 73 -233 110 -586 90
-851 -54 -701 -379 -1317 -932 -1765 -54 -43 -101 -79 -104 -79 -4 0 -25 -13
-48 -29 -262 -182 -577 -324 -842 -380 -27 -6 -61 -13 -75 -17 -24 -5 -24 -5
-6 10 11 9 14 16 8 16 -7 0 -12 8 -12 17 0 12 -9 6 -26 -19 -30 -42 -30 -42
-189 -63 -140 -18 -430 -21 -583 -5 -149 16 -376 63 -510 105 -100 32 -113 38
-110 57 2 12 -3 23 -10 25 -7 3 -10 -1 -6 -11 7 -18 -24 -23 -42 -7 -5 4 -34
16 -64 25 -79 25 -287 136 -415 221 -203 135 -403 312 -541 479 -42 50 -86
102 -98 116 -11 14 -29 37 -38 52 -15 22 -22 26 -45 19 -42 -11 -60 -3 -76 32
-9 18 -32 50 -51 72 -19 21 -40 53 -47 70 -6 16 -24 57 -40 90 -15 33 -40 91
-54 128 -14 37 -38 94 -54 125 -50 100 -83 219 -116 412 -8 47 -19 113 -26
147 -6 34 -10 117 -10 185 2 151 1 190 -4 197 -2 4 3 65 12 136 8 72 15 139
15 150 1 210 188 737 356 1005 101 160 125 194 261 365 9 11 1 7 -18 -10 -103
-91 -292 -367 -400 -583 -207 -412 -282 -734 -283 -1214 -1 -207 1 -235 30
-398 34 -190 78 -354 118 -432 14 -27 38 -84 54 -126 51 -138 95 -236 138
-307 88 -150 220 -321 358 -466 78 -81 155 -167 170 -190 34 -49 176 -167 251
-208 28 -16 77 -47 110 -70 157 -115 287 -179 430 -216 34 -8 82 -24 106 -34
52 -23 213 -66 277 -76 25 -4 88 -16 140 -27 79 -17 144 -21 387 -25 205 -4
313 -2 360 7 37 7 112 16 165 20 180 15 684 183 807 269 14 10 51 31 81 46 30
15 84 46 120 70 36 23 91 57 123 76 32 19 89 61 127 94 37 33 107 91 154 128
91 73 170 158 230 247 20 30 52 75 71 100 20 25 61 78 93 118 33 42 91 139
137 231 44 87 86 166 94 175 7 9 11 26 7 39 -3 13 -3 27 1 30 3 4 8 19 9 33 2
15 12 37 24 49 31 33 70 150 75 226 3 37 12 86 20 109 8 23 15 52 15 64 0 12
6 31 14 42 8 10 12 29 10 41 -3 11 0 32 7 44 13 25 15 60 21 294 8 358 -35
679 -117 886 -20 49 -43 113 -52 142 -24 82 -83 214 -136 307 -177 306 -283
453 -410 571 -200 184 -319 272 -499 369 -54 28 -100 56 -103 61 -6 9 -127 69
-140 69 -4 0 -4 -12 0 -27z"/>
<path d="M2918 4642 c-95 -63 -258 -188 -353 -271 -91 -79 -476 -473 -554
-566 -192 -231 -238 -336 -173 -397 15 -14 76 -47 136 -72 161 -69 213 -111
269 -221 27 -55 52 -158 43 -181 -6 -17 -7 -17 33 -3 27 10 31 15 31 47 -1
147 -120 339 -247 397 -30 14 -62 25 -69 25 -8 0 -22 4 -32 10 -9 5 -36 14
-60 20 -108 27 -91 138 49 316 257 326 623 671 944 889 118 80 111 75 98 75
-6 0 -58 -31 -115 -68z"/>
<path d="M2952 4522 c-180 -185 -206 -227 -41 -67 144 140 156 152 177 183 35
54 -2 22 -136 -116z"/>
<path d="M2360 4611 c-263 -86 -411 -164 -600 -316 -256 -205 -497 -574 -600
-917 -47 -158 -79 -340 -62 -346 15 -5 16 -42 2 -42 -5 0 -10 -5 -10 -12 0 -6
3 -8 7 -5 10 10 33 -13 33 -34 0 -10 8 -22 17 -28 10 -5 15 -13 11 -17 -5 -4
-2 -14 5 -22 9 -12 9 -16 -1 -19 -6 -3 -10 -9 -7 -13 3 -5 15 0 25 10 11 11
27 20 35 20 10 0 15 10 15 29 0 20 6 31 18 34 15 4 15 5 -2 6 -10 0 -25 -7
-32 -16 -9 -12 -16 -14 -21 -7 -5 6 -15 14 -23 17 -9 3 -6 6 10 7 l25 1 -22
18 c-12 10 -19 21 -16 25 3 3 0 12 -7 21 -10 12 -10 15 3 15 9 0 19 5 23 11 5
9 -1 10 -20 5 -33 -8 -34 7 -1 22 19 9 25 19 25 42 0 16 -4 30 -10 30 -19 0
-10 19 13 26 12 4 25 11 28 16 9 14 50 -1 47 -16 -2 -6 0 -13 5 -14 18 -5 27
-1 27 13 0 8 -4 15 -10 15 -21 0 -8 17 25 32 34 15 36 15 50 -5 17 -25 14 -33
56 138 17 71 36 141 42 155 6 14 11 27 12 30 1 3 5 14 10 25 4 11 17 43 27 70
21 55 34 83 85 195 37 79 141 250 152 250 4 0 17 17 29 38 26 46 67 92 83 92
6 0 8 -7 5 -17 -6 -15 -4 -15 14 2 24 21 25 26 6 19 -11 -4 -13 0 -9 15 5 21
23 29 23 11 0 -5 28 20 63 57 104 110 236 214 350 273 58 30 125 65 149 77 61
32 31 27 -102 -16z m-1220 -1611 c0 -5 -5 -10 -11 -10 -5 0 -7 5 -4 10 3 6 8
10 11 10 2 0 4 -4 4 -10z"/>
<path d="M915 4600 c-16 -16 -24 -30 -18 -30 7 0 21 14 33 30 12 17 20 30 18
30 -3 0 -17 -13 -33 -30z"/>
<path d="M820 4503 c-30 -31 -35 -38 -14 -22 28 22 70 69 62 69 -2 0 -24 -21
-48 -47z"/>
<path d="M1150 4459 l-55 -51 52 42 c46 37 71 61 61 60 -2 0 -28 -23 -58 -51z"/>
<path d="M2901 4390 c-45 -33 -81 -63 -81 -66 0 -4 6 -2 13 3 6 5 41 31 77 58
76 56 86 65 78 65 -4 0 -43 -27 -87 -60z"/>
<path d="M2971 4345 c-23 -25 -47 -45 -55 -45 -19 0 -46 -33 -46 -58 0 -11
-10 -29 -23 -39 -12 -10 -28 -31 -35 -48 l-13 -30 25 25 c93 93 211 240 193
240 -3 0 -23 -20 -46 -45z"/>
<path d="M1579 4333 c-13 -16 -12 -17 4 -4 9 7 17 15 17 17 0 8 -8 3 -21 -13z"/>
<path d="M980 4295 c-24 -25 -42 -45 -39 -45 3 0 25 20 49 45 24 25 42 45 39
45 -3 0 -25 -20 -49 -45z"/>
<path d="M2680 4238 c-36 -39 -72 -78 -80 -87 -8 -9 -26 -29 -40 -45 l-25 -30
26 20 c45 34 219 198 219 206 0 26 -44 -2 -100 -64z"/>
<path d="M1496 4275 c-11 -8 -15 -15 -9 -15 6 0 16 7 23 15 16 19 11 19 -14 0z"/>
<path d="M896 4202 l-30 -37 37 34 c38 36 42 42 30 40 -5 0 -21 -17 -37 -37z"/>
<path d="M2870 4159 c-30 -28 -45 -46 -34 -40 12 5 23 9 25 7 2 -2 19 17 36
40 18 24 32 44 30 44 -1 0 -27 -23 -57 -51z"/>
<path d="M1304 4102 c-140 -138 -268 -305 -358 -469 -89 -160 -149 -300 -185
-431 -59 -209 -66 -265 -66 -542 0 -241 2 -262 28 -390 51 -244 143 -468 272
-659 31 -46 64 -100 75 -120 30 -58 192 -233 297 -321 187 -156 367 -264 543
-325 243 -86 338 -117 380 -126 81 -17 303 -39 395 -39 126 0 334 24 435 50
47 12 103 26 125 30 41 9 159 48 280 94 103 39 230 106 199 106 -5 0 -61 -9
-124 -20 -198 -35 -350 -50 -500 -50 -174 0 -285 12 -445 46 -366 80 -648 228
-1016 536 -51 43 -69 47 -87 18 -14 -24 -50 -26 -58 -5 -5 12 -9 13 -20 4 -16
-13 -2 -39 21 -39 7 0 21 -12 30 -26 17 -26 17 -27 -4 -21 -17 4 -27 -2 -42
-26 -10 -18 -19 -28 -19 -23 0 5 -15 -8 -33 -28 -32 -35 -57 -46 -57 -26 0 6
-6 10 -12 10 -7 1 -33 21 -58 45 -40 40 -44 47 -32 65 16 27 17 49 0 32 -30
-30 -78 -2 -124 73 -10 17 -53 83 -96 148 -136 205 -213 392 -264 638 -23 113
-28 165 -32 332 -4 184 -3 197 14 197 16 0 16 1 2 13 -41 31 34 383 130 612
48 113 159 317 210 386 71 96 184 230 205 244 21 13 73 75 64 75 -2 0 -35 -31
-73 -68z m301 -2612 c8 -13 -5 -13 -25 0 -13 8 -13 10 2 10 9 0 20 -4 23 -10z"/>
<path d="M2760 4160 c0 -6 7 -10 15 -10 8 0 15 2 15 4 0 2 -7 6 -15 10 -8 3
-15 1 -15 -4z"/>
<path d="M823 4113 c-59 -73 -69 -88 -56 -79 14 8 107 126 100 126 -3 0 -23
-21 -44 -47z"/>
<path d="M2918 4090 c-50 -66 -85 -91 -71 -52 8 22 -77 -64 -102 -103 -18 -30
-41 -49 -60 -50 -5 0 -11 -10 -13 -21 -2 -12 -26 -50 -55 -85 -77 -94 -237
-313 -237 -324 0 -2 9 -9 19 -15 15 -7 27 -6 50 8 30 17 33 23 34 70 0 12 4
22 8 22 5 0 9 9 9 19 0 10 7 22 16 25 10 4 14 12 10 22 -7 18 18 63 41 77 7 4
13 14 13 22 0 8 7 11 19 8 19 -5 19 -6 -2 -41 -16 -27 2 -14 71 53 58 56 88
92 80 96 -6 4 -17 5 -25 2 -20 -8 -16 22 7 42 11 10 17 22 14 27 -7 10 51 69
60 61 3 -3 -3 -18 -13 -32 -23 -32 -43 -71 -38 -71 8 0 195 252 218 293 21 36
-2 14 -53 -53z"/>
<path d="M2777 4109 c-9 -5 -22 -7 -29 -3 -8 5 -9 2 -5 -9 3 -9 3 -16 -1 -14
-4 1 -8 -2 -9 -6 -3 -16 -84 -117 -135 -169 -16 -15 -28 -33 -28 -39 0 -7 52
42 115 107 63 65 115 125 115 132 0 14 0 14 -23 1z"/>
<path d="M2395 4048 c-33 -35 -80 -84 -103 -109 l-43 -46 0 -113 c0 -64 5
-118 11 -124 7 -7 10 -3 10 12 0 11 11 52 25 89 26 73 26 89 0 49 -22 -34 -35
-33 -35 2 0 27 44 99 82 133 10 9 15 19 11 22 -3 4 2 10 12 13 11 5 21 1 27
-9 10 -18 38 -23 38 -7 0 5 -9 14 -20 20 -30 16 -24 45 16 90 56 62 35 47 -31
-22z"/>
<path d="M2872 4070 c-7 -11 -8 -20 -3 -20 9 0 24 30 18 36 -1 2 -8 -6 -15
-16z"/>
<path d="M744 4008 c-37 -63 -37 -63 -11 -33 25 28 33 45 23 45 -3 0 -8 -6
-12 -12z"/>
<path d="M690 3920 c-6 -11 -8 -20 -6 -20 3 0 10 9 16 20 6 11 8 20 6 20 -3 0
-10 -9 -16 -20z"/>
<path d="M2522 3923 c-7 -2 -17 -13 -22 -23 -8 -15 -5 -17 15 -17 20 0 25 5
25 23 0 13 -1 24 -2 23 -2 0 -9 -3 -16 -6z"/>
<path d="M655 3860 c-3 -5 -1 -10 4 -10 6 0 11 5 11 10 0 6 -2 10 -4 10 -3 0
-8 -4 -11 -10z"/>
<path d="M2447 3836 c-15 -17 -62 -73 -104 -124 l-76 -93 23 -50 c29 -61 50
-82 50 -49 0 12 10 39 22 59 16 26 18 32 5 23 -9 -8 -19 -22 -22 -33 -7 -20
-35 -27 -35 -9 0 6 14 35 31 65 17 30 27 55 22 55 -4 0 -3 4 3 8 5 4 20 24 33
45 12 20 32 42 43 48 12 6 17 16 14 26 -4 9 1 24 10 35 10 10 15 20 13 21 -2
2 -17 -10 -32 -27z"/>
<path d="M635 3830 c-3 -5 -1 -10 4 -10 6 0 11 5 11 10 0 6 -2 10 -4 10 -3 0
-8 -4 -11 -10z"/>
<path d="M611 3783 c-10 -26 -10 -27 4 -9 8 11 15 23 15 28 0 15 -7 8 -19 -19z"/>
<path d="M2800 3734 c-12 -19 -20 -37 -18 -39 2 -3 15 13 27 35 28 50 21 53
-9 4z"/>
<path d="M2721 3690 c-78 -93 -201 -282 -201 -307 0 -5 17 -15 39 -21 50 -15
51 -15 51 6 0 10 12 38 28 63 15 24 33 56 41 71 8 15 36 54 63 85 48 57 49 58
23 61 -31 4 -33 29 -4 66 12 15 19 29 16 32 -3 3 -28 -22 -56 -56z"/>
<path d="M565 3694 c-9 -14 -15 -27 -13 -30 2 -2 12 10 22 26 21 37 15 40 -9
4z"/>
<path d="M4190 3695 c-7 -8 -18 -15 -25 -15 -8 0 -15 -3 -17 -7 -1 -5 -46 -44
-98 -87 -52 -44 -115 -98 -140 -120 -78 -69 -106 -93 -126 -104 -14 -8 -15
-11 -4 -12 8 0 89 64 180 142 91 78 187 159 213 180 27 21 44 38 39 38 -5 0
-15 -7 -22 -15z"/>
<path d="M2809 3663 c-13 -16 -12 -17 4 -4 16 13 21 21 13 21 -2 0 -10 -8 -17
-17z"/>
<path d="M4130 3544 c-85 -69 -185 -146 -222 -172 -37 -26 -68 -50 -68 -54 0
-18 32 -5 116 48 49 31 145 91 214 132 157 94 164 100 145 119 -8 8 -15 23
-15 34 0 10 -3 19 -7 18 -5 0 -78 -57 -163 -125z"/>
<path d="M4385 3640 c-20 -13 -24 -20 -14 -20 18 0 71 39 54 40 -5 0 -23 -9
-40 -20z"/>
<path d="M515 3579 c-9 -17 -15 -33 -13 -35 3 -2 12 12 21 31 21 43 13 47 -8
4z"/>
<path d="M4503 3595 c-20 -14 -183 -99 -473 -246 l-125 -64 58 -9 c52 -8 66
-5 145 24 48 17 112 43 142 57 114 52 226 101 262 112 43 14 57 29 38 41 -10
6 -11 17 -3 49 14 54 -1 66 -44 36z"/>
<path d="M2769 3538 c-17 -24 -49 -79 -70 -123 -42 -85 -41 -87 16 -99 27 -6
32 -3 47 31 9 21 29 54 44 73 22 27 17 24 -23 -14 -47 -44 -52 -46 -57 -28 -7
20 11 62 26 62 5 0 8 9 8 20 0 12 11 43 25 70 14 28 23 50 20 50 -3 0 -19 -19
-36 -42z"/>
<path d="M4615 3520 c-3 -6 1 -7 9 -4 18 7 21 14 7 14 -6 0 -13 -4 -16 -10z"/>
<path d="M395 3480 c-3 -5 -1 -10 4 -10 6 0 11 5 11 10 0 6 -2 10 -4 10 -3 0
-8 -4 -11 -10z"/>
<path d="M4660 3419 c-58 -21 -184 -64 -280 -95 -172 -55 -363 -134 -610 -252
-69 -33 -222 -105 -340 -162 -361 -171 -585 -257 -785 -300 -221 -46 -337 -90
-415 -157 l-45 -38 25 34 c13 19 19 32 13 28 -20 -13 -21 17 -1 50 19 31 19
33 1 26 -10 -3 -24 -11 -31 -16 -9 -7 -21 -4 -40 10 -50 37 -39 137 24 233 9
14 -15 -7 -54 -47 -68 -69 -129 -170 -148 -247 -6 -27 -6 -28 24 -22 43 10 51
-11 16 -40 -16 -13 -37 -23 -46 -24 -12 0 -18 -11 -21 -37 -3 -31 -4 -28 -5
15 l-2 53 -22 -21 c-12 -11 -26 -20 -30 -20 -11 0 -1 -43 19 -93 l16 -38 34
33 34 33 -7 -30 c-4 -16 -10 -39 -14 -51 -8 -21 -2 -71 9 -79 4 -2 13 11 19
29 11 29 25 39 115 80 121 55 180 68 304 70 108 1 110 0 143 -111 46 -154 36
-219 -57 -378 -92 -157 -102 -197 -60 -247 24 -29 170 -108 200 -108 10 0 30
-6 45 -14 15 -8 81 -26 147 -40 66 -15 179 -42 250 -61 230 -61 456 -90 775
-101 166 -6 201 -3 310 24 33 8 34 9 14 20 -12 6 -103 21 -201 31 -331 37
-687 99 -856 150 l-97 29 21 -29 c26 -36 11 -39 -16 -2 -11 14 -26 32 -32 39
-16 15 -17 34 -3 34 6 0 10 6 10 14 0 23 29 27 77 11 56 -19 335 -88 420 -104
100 -19 397 -35 401 -22 2 6 17 11 33 11 16 0 29 4 29 10 0 12 -76 33 -200 55
-251 44 -437 85 -615 135 -133 38 -256 83 -258 95 -1 6 20 16 48 22 47 12 55
10 170 -27 66 -21 139 -44 163 -51 23 -7 42 -18 42 -26 0 -15 17 -18 22 -3 2
6 29 3 70 -9 109 -31 312 -57 340 -44 13 7 32 14 43 15 20 4 20 4 -1 15 -11 7
-92 30 -180 53 -271 70 -600 176 -667 215 l-38 22 61 6 c54 5 75 0 173 -35 62
-21 140 -48 174 -58 60 -18 64 -18 110 0 l48 18 -40 16 c-21 9 -62 23 -91 32
-148 43 -395 154 -360 162 48 10 135 -5 173 -29 60 -41 173 -83 186 -70 6 6
21 11 34 11 49 0 18 27 -80 69 -104 46 -202 100 -179 101 6 0 11 6 10 13 -2 8
9 11 34 9 20 -1 39 2 43 8 4 6 22 8 43 5 35 -6 33 -4 -28 32 -36 22 -72 51
-80 67 -14 26 -14 28 9 47 18 15 21 22 12 33 -7 8 -13 33 -14 56 -2 41 -1 42
43 57 25 8 50 19 55 23 6 4 53 29 105 56 52 26 109 58 126 71 17 13 33 23 37
23 3 0 16 9 29 20 12 11 64 49 113 86 50 37 106 80 126 96 63 51 62 51 477 13
221 -21 245 -17 315 46 l42 38 -100 1 c-127 2 -153 10 -88 29 26 8 67 20 91
28 23 8 46 11 51 8 19 -11 126 39 163 76 21 21 38 43 38 49 0 15 -21 13 -221
-20 -101 -16 -184 -28 -187 -26 -2 2 1 13 7 25 8 14 41 29 114 51 56 17 116
36 133 41 18 5 39 18 49 29 10 11 21 17 25 15 4 -3 23 1 41 9 47 20 102 96 69
96 -5 0 -10 14 -10 30 0 18 -5 30 -12 29 -7 0 -60 -18 -118 -40z m-1998 -1033
c32 -3 68 -10 80 -15 13 -5 55 -19 93 -30 39 -12 79 -29 90 -37 20 -15 19 -16
-15 -45 -19 -16 -38 -29 -42 -29 -4 0 -8 -7 -8 -15 0 -9 -11 -20 -25 -27 -13
-6 -22 -15 -19 -19 3 -5 -2 -9 -10 -9 -9 0 -16 -5 -16 -10 0 -6 -11 -16 -25
-22 -14 -6 -25 -18 -25 -25 0 -8 -4 -12 -9 -8 -25 15 -62 -45 -106 -175 -41
-119 -64 -210 -54 -210 2 0 42 7 89 15 46 8 94 12 105 9 43 -12 75 -29 74 -39
-4 -31 2 -47 15 -42 10 4 17 -4 21 -24 6 -26 10 -29 35 -26 24 4 27 2 22 -17
-3 -11 -10 -24 -16 -28 -8 -6 -7 -11 2 -16 10 -7 10 -11 -2 -21 -21 -18 -60
-4 -223 75 -94 47 -138 63 -155 59 -17 -4 -29 0 -42 14 -28 31 -16 89 40 184
100 168 109 193 108 282 -1 56 -9 106 -28 164 -25 83 -33 128 -18 105 4 -6 33
-14 64 -18z m318 -802 c0 -8 -4 -14 -10 -14 -5 0 -10 9 -10 21 0 11 5 17 10
14 6 -3 10 -13 10 -21z"/>
<path d="M2850 1619 c0 -5 5 -7 10 -4 6 3 10 8 10 11 0 2 -4 4 -10 4 -5 0 -10
-5 -10 -11z"/>
<path d="M3686 3318 c-77 -50 -83 -57 -21 -24 55 28 91 54 84 59 -2 2 -31 -13
-63 -35z"/>
<path d="M2800 3310 c0 -5 5 -10 10 -10 6 0 10 5 10 10 0 6 -4 10 -10 10 -5 0
-10 -4 -10 -10z"/>
<path d="M3596 3215 c-3 -9 0 -15 9 -15 9 0 12 6 9 15 -4 8 -7 15 -9 15 -2 0
-5 -7 -9 -15z"/>
<path d="M300 3150 c0 -5 5 -10 11 -10 5 0 7 5 4 10 -3 6 -8 10 -11 10 -2 0
-4 -4 -4 -10z"/>
<path d="M2185 2880 c-3 -6 1 -7 9 -4 18 7 21 14 7 14 -6 0 -13 -4 -16 -10z"/>
<path d="M2145 2860 c-3 -6 1 -7 9 -4 18 7 21 14 7 14 -6 0 -13 -4 -16 -10z"/>
<path d="M1100 2842 c0 -10 33 -42 43 -42 16 0 5 20 -10 21 -11 0 -13 3 -5 6
19 8 14 23 -8 23 -11 0 -20 -4 -20 -8z"/>
<path d="M2084 2824 c-18 -14 -18 -15 4 -4 12 6 22 13 22 15 0 8 -5 6 -26 -11z"/>
<path d="M2007 2779 c-65 -43 -200 -189 -228 -245 -12 -27 -25 -71 -27 -99 -4
-51 6 -83 52 -165 8 -14 20 -44 26 -68 20 -79 115 -155 153 -124 7 5 21 12 32
14 16 3 12 9 -25 32 -65 41 -94 81 -96 133 -1 32 -9 51 -32 77 -89 102 -59
238 82 374 39 37 82 75 96 84 14 9 22 17 19 17 -3 1 -26 -13 -52 -30z"/>
<path d="M1110 2763 c0 -8 -4 -11 -10 -8 -5 3 -10 -3 -10 -14 0 -14 6 -21 20
-21 11 0 19 3 19 8 -4 21 3 31 16 26 8 -4 15 -2 15 4 0 5 -11 12 -25 14 -17 4
-25 1 -25 -9z"/>
<path d="M1127 2653 c4 -36 2 -58 -7 -68 -17 -20 -12 -24 27 -18 38 6 49 34
22 57 -23 19 -24 32 -3 40 8 3 13 10 9 15 -3 6 -13 7 -21 4 -9 -3 -20 0 -25 8
-5 8 -6 -7 -2 -38z"/>
<path d="M1080 2664 c0 -14 3 -14 15 -4 8 7 15 14 15 16 0 2 -7 4 -15 4 -8 0
-15 -7 -15 -16z"/>
<path d="M1250 2575 c0 -8 2 -15 4 -15 2 0 6 7 10 15 3 8 1 15 -4 15 -6 0 -10
-7 -10 -15z"/>
<path d="M1140 2466 c0 -2 7 -9 15 -16 13 -11 14 -10 9 4 -5 14 -24 23 -24 12z"/>
<path d="M1220 2155 c0 -10 10 -15 27 -15 26 0 26 1 7 15 -25 19 -34 19 -34 0z"/>
<path d="M1445 1718 c-32 -18 -67 -56 -63 -69 2 -6 23 6 48 29 45 41 52 60 15
40z"/>
<path d="M1531 1550 c0 -8 4 -24 9 -35 5 -13 9 -14 9 -5 0 8 -4 24 -9 35 -5
13 -9 14 -9 5z"/>
<path d="M1296 1505 c-3 -10 -4 -20 -1 -23 3 -3 5 1 5 8 0 12 50 10 105 -5 11
-3 29 0 40 8 18 14 16 15 -25 14 -25 0 -61 3 -81 7 -30 7 -37 5 -43 -9z"/>
<path d="M3293 373 c-18 -8 -33 -22 -33 -30 0 -8 5 -11 10 -8 6 3 10 2 10 -3
0 -6 7 -12 15 -16 8 -3 14 -2 13 2 -1 4 3 17 11 30 19 34 10 43 -26 25z"/>
</g>
</svg>
